<?xml version="1.0" encoding="utf-8"?>
<!-- Generator: Adobe Illustrator 24.0.1, SVG Export Plug-In . SVG Version: 6.00 Build 0)  -->
<svg version="1.1" id="Calque_1" xmlns="http://www.w3.org/2000/svg" xmlns:xlink="http://www.w3.org/1999/xlink" x="0px" y="0px"
	 viewBox="0 0 73.6 38.5" style="enable-background:new 0 0 73.6 38.5;" xml:space="preserve">
<style type="text/css">
	.st0{fill:#FFFFFF;}
	.st1{fill:#ff7200;}
	.st2{fill-rule:evenodd;clip-rule:evenodd;fill:#FFFFFF;}
</style>
<g>
	<g>
		<path class="st0" d="M20.1,12.6c0,1.4-0.3,2.6-0.9,3.9c-0.6,1.2-1.3,2.3-2.3,3.4c-0.9,1-2,2-3.1,2.8c-1.2,0.8-2.3,1.5-3.5,2.1
			c-1.2,0.6-2.3,1-3.3,1.3c-1.1,0.3-1.9,0.5-2.7,0.5c-0.6,0-1-0.1-1.1-0.3C3.1,25.9,3,25.8,3,25.6c0.1-0.4,0.2-0.8,0.4-1
			C3.6,24.3,3.8,24.1,4,24c0.2-0.2,0.5-0.2,0.8-0.3c1.5-0.4,2.9-1,4.3-1.7c1.4-0.8,2.6-1.7,3.6-2.7c1-1,1.9-2,2.5-3
			c0.6-1,0.9-2,0.9-2.9c0-1-0.3-1.8-0.8-2.5c-0.5-0.7-1.1-1.3-1.8-1.7c-0.7-0.4-1.4-0.8-2-1c-0.7-0.2-1.1-0.3-1.4-0.3
			c-0.1,0-0.1,0-0.1,0C9.9,8,9.8,8,9.8,8c-0.1,0.5-0.1,1-0.2,1.6c-0.1,0.5-0.1,1.1-0.1,1.7c0,0.6,0,1.3,0,2c0,0.8,0,1.6,0.1,2.3
			c0.1,0.8,0.2,1.4,0.4,2c0,0.1,0,0.2,0.1,0.3c0,0.1,0,0.2,0.1,0.3c0,0.1,0,0.2,0,0.4c0,0.4-0.2,0.7-0.5,0.9c-0.3,0.2-0.7,0.3-1,0.3
			c-0.6,0-1-0.2-1.4-0.6c-0.3-0.4-0.6-0.9-0.8-1.4c-0.2-0.6-0.3-1.1-0.3-1.7c-0.1-0.6-0.1-1.1-0.1-1.5c0-1.1,0.1-2.3,0.2-3.5
			c0.1-1.2,0.3-2.4,0.4-3.5c0,0,0-0.1,0-0.1c0,0-0.1-0.1-0.2-0.1C5.7,7.2,5,7.1,4.5,7.1c-0.5,0-0.8,0-1,0C3.1,7.1,2.8,7,2.7,6.8
			C2.6,6.5,2.6,6.4,2.6,6.3c0-0.5,0.2-0.9,0.5-1.2c0.3-0.3,0.6-0.5,0.9-0.6c0.3-0.2,0.7-0.2,1.1-0.3h1.1c0.3,0,0.6,0,0.9,0
			c0.1,0,0.2,0,0.2-0.2c0.1-0.5,0.3-1,0.8-1.5c0.5-0.5,1-0.7,1.8-0.7c0.1,0,0.3,0,0.5,0.1c0.2,0.1,0.3,0.2,0.3,0.5
			c0,0.1,0,0.3-0.1,0.6c0,0.3-0.1,0.8-0.2,1.4c0,0.1,0,0.1,0.1,0.2c0,0,0,0,0.1,0c1.1,0.2,2.3,0.6,3.4,1C15,6.2,16,6.7,17,7.4
			c0.9,0.6,1.7,1.4,2.3,2.3C19.8,10.5,20.1,11.5,20.1,12.6"/>
		<path class="st0" d="M38.7,12.9c0,1.5-0.2,2.9-0.6,4.2c-0.4,1.3-0.9,2.5-1.5,3.5c-0.6,1-1.2,1.8-1.9,2.4c-0.6,0.6-1.2,0.9-1.6,0.9
			c-0.6,0-1.2-0.3-1.6-0.8c-0.4-0.5-0.8-1.1-1.1-1.7c-0.3-0.7-0.6-1.6-0.9-2.5c0-0.1-0.1-0.2-0.1-0.2c0,0-0.1,0-0.2,0.1L29.1,19
			c-0.3,0.7-0.7,1.3-1.1,1.9c-0.4,0.6-0.9,1.2-1.3,1.6c-0.5,0.5-0.9,0.8-1.3,1.1c-0.4,0.3-0.8,0.4-1.1,0.4c-0.6,0-1.1-0.3-1.5-0.9
			c-0.4-0.6-0.7-1.3-0.9-2.2c-0.2-0.8-0.4-1.7-0.5-2.5c-0.1-0.8-0.2-1.5-0.2-1.9c0-0.5,0-0.9,0-1.3c0-0.4,0.1-0.7,0.1-1
			c0-0.3,0.1-0.6,0.2-0.9c0.1-0.2,0.2-0.5,0.3-0.7c0.1-0.2,0.3-0.3,0.5-0.5c0.2-0.1,0.4-0.2,0.7-0.2c0.2,0,0.4,0.1,0.6,0.2
			c0.1,0.1,0.3,0.2,0.4,0.4c0.1,0.2,0.2,0.4,0.2,0.8c-0.1,0.3-0.1,0.7-0.2,1C24,14.7,24,15,24,15.4c0,0.4,0,0.8,0,1.3
			c0,0.2,0,0.5,0.1,0.9c0,0.4,0.1,0.8,0.2,1.2c0.1,0.4,0.2,0.8,0.3,1.1c0.1,0.3,0.3,0.5,0.6,0.5c0.1,0,0.3-0.1,0.5-0.2
			c0.2-0.2,0.5-0.4,0.8-0.8c0.3-0.4,0.6-0.9,1-1.6c0.4-0.7,0.7-1.5,1.1-2.5c0-0.5,0.2-1,0.4-1.4c0.2-0.4,0.7-0.6,1.4-0.6
			c0.3,0,0.5,0.1,0.8,0.2c0.2,0.2,0.4,0.5,0.4,1c0.1,1.1,0.2,2.1,0.4,2.9c0.2,0.7,0.4,1.4,0.6,2c0.2,0.6,0.5,0.9,0.9,0.9
			c0.2,0,0.5-0.1,0.8-0.4c0.3-0.3,0.6-0.7,0.8-1.2c0.3-0.5,0.5-1.2,0.6-2c0.2-0.8,0.3-1.7,0.3-2.6c0-0.4,0-0.7-0.1-0.9
			c0-0.2-0.1-0.4-0.1-0.6c0-0.2-0.1-0.3-0.1-0.5c0-0.2,0-0.3,0-0.6c0-0.5,0.1-0.9,0.4-1.3c0.2-0.4,0.7-0.6,1.3-0.6
			c0.6,0,0.9,0.3,1.1,0.9C38.6,11,38.7,11.9,38.7,12.9"/>
		<path class="st0" d="M51.2,23.9c0,0.3-0.1,0.5-0.2,0.7c-0.1,0.2-0.3,0.3-0.5,0.4c-0.2,0.1-0.5,0.1-0.7,0.1c-0.4,0-0.8-0.1-1.1-0.4
			c-0.3-0.3-0.6-0.5-0.8-0.9c-0.2-0.4-0.4-0.8-0.6-1.3c0-0.1-0.1-0.2-0.2-0.2c0,0-0.1,0-0.1,0.1l-0.1,0.1c-0.4,0.4-0.7,0.8-1.1,1
			c-0.4,0.3-0.8,0.4-1.1,0.6c-0.4,0.1-0.7,0.2-1,0.3c-0.3,0-0.5,0.1-0.7,0.1c-0.7,0-1.3-0.1-1.7-0.4c-0.4-0.3-0.7-0.6-0.9-0.9
			c-0.2-0.3-0.3-0.7-0.4-1c0-0.3-0.1-0.6-0.1-0.7c0-0.5,0.1-1,0.3-1.4c0.2-0.5,0.4-0.9,0.7-1.3c0.3-0.4,0.6-0.8,1-1.1
			c0.4-0.4,0.8-0.7,1.1-1c0.9-0.7,2-1.3,3.1-1.8c0.1,0,0.1-0.1,0.2-0.1c0.1-0.1,0.2-0.2,0.2-0.3c0-0.3-0.2-0.5-0.7-0.6
			c-0.4-0.1-0.9-0.2-1.4-0.2c-0.2,0-0.4,0-0.6,0c-0.2,0-0.4,0-0.5,0.1c-0.2,0-0.4,0-0.5,0c-0.3,0-0.5,0-0.6-0.1
			c-0.2-0.1-0.3-0.2-0.4-0.3c-0.1-0.1-0.1-0.3-0.2-0.4c0-0.1,0-0.2,0-0.3c0-0.1,0-0.2,0.1-0.3c0-0.2,0.2-0.3,0.4-0.5
			c0.2-0.2,0.5-0.3,0.9-0.5c0.4-0.1,0.9-0.2,1.6-0.2c0.4,0,1,0,1.6,0.1c0.6,0.1,1.3,0.3,1.8,0.5c0.6,0.2,1.1,0.5,1.5,0.9
			c0.4,0.4,0.6,0.8,0.6,1.4c0,0.4-0.2,0.8-0.5,1.1c-0.4,0.3-0.8,0.7-1.3,1c-0.5,0.3-1.1,0.7-1.7,1c-0.6,0.3-1.2,0.7-1.7,1.1
			c-0.5,0.4-0.9,0.8-1.3,1.2C43.1,19.9,43,20.4,43,21c0,0.1,0,0.3,0.1,0.5c0.1,0.2,0.3,0.3,0.6,0.3c0.2,0,0.5-0.1,0.8-0.2
			c0.3-0.2,0.6-0.3,0.9-0.6c0.3-0.2,0.5-0.5,0.7-0.8c0.2-0.3,0.3-0.6,0.3-0.9c0,0,0-0.1,0-0.1V19c0-0.2,0-0.4,0.1-0.6
			c0.1-0.2,0.2-0.4,0.4-0.6c0.2-0.2,0.4-0.3,0.6-0.5c0.2-0.1,0.5-0.2,0.7-0.2c0.2,0,0.3,0,0.4,0.1c0.1,0.1,0.2,0.2,0.2,0.5
			c0.1,0.7,0.2,1.4,0.3,2c0.1,0.5,0.3,1.1,0.5,1.6c0.2,0.5,0.5,1,0.9,1.3c0.1,0.1,0.2,0.3,0.3,0.4c0.1,0.1,0.1,0.3,0.2,0.4
			C51.2,23.6,51.2,23.7,51.2,23.9"/>
		<path class="st0" d="M63.9,14.6c0,1-0.1,2-0.4,3.1c-0.3,1.1-0.7,2.1-1.2,3.1c-0.5,0.9-1.1,1.7-1.8,2.3C59.8,23.7,59,24,58.1,24
			c-0.5,0-0.9-0.1-1.2-0.4c-0.3-0.3-0.5-0.6-0.7-0.9c-0.2-0.4-0.4-0.8-0.5-1.3c0-0.1-0.1-0.1-0.1-0.1c-0.1,0-0.2,0.1-0.3,0.2
			c-0.1,0.1-0.2,0.2-0.3,0.4c-0.1,0.1-0.3,0.3-0.4,0.4c-0.2,0.1-0.4,0.2-0.6,0.2c-0.2,0-0.3-0.1-0.4-0.2c-0.1-0.1-0.2-0.3-0.2-0.5
			c-0.1-0.2-0.1-0.4-0.1-0.6c0-0.2,0-0.3,0-0.5c0-1.3,0-2.7,0-4.4c0-1.6,0.1-3.3,0.2-5c0.1-1.7,0.3-3.4,0.5-5.1
			c0.2-1.7,0.5-3.2,0.8-4.5c0.1-0.2,0.2-0.3,0.3-0.4C55,1.2,55.1,1.1,55.3,1c0.2-0.1,0.3-0.1,0.6-0.1c0.3,0,0.6,0.1,0.8,0.2
			c0.2,0.2,0.3,0.3,0.4,0.5c0.1,0.3,0.2,0.5,0.2,0.8c-0.3,1.3-0.6,2.6-0.8,4.1c-0.2,1.3-0.4,2.7-0.6,4.3c-0.2,1.6-0.3,3.2-0.3,5
			c0,0.1,0,0.1,0,0.2c0,0.1,0,0.2,0.1,0.2c0,0,0.1,0,0.2-0.2c0.9-1.6,1.9-2.8,2.9-3.6c1-0.8,1.9-1.2,2.7-1.2c0.1,0,0.2,0,0.5,0.1
			c0.3,0,0.5,0.2,0.8,0.4c0.3,0.2,0.5,0.6,0.7,1C63.8,13,63.9,13.7,63.9,14.6 M61.2,15.8c0-0.7-0.1-1.1-0.3-1.2
			c-0.2-0.1-0.3-0.2-0.4-0.2c-0.4,0-0.9,0.2-1.3,0.7c-0.4,0.5-0.8,1-1.1,1.6c-0.4,0.7-0.8,1.4-1.1,2.3c0.1,0.4,0.2,0.7,0.3,1
			c0.1,0.3,0.3,0.5,0.5,0.7c0.2,0.2,0.5,0.3,0.8,0.3c0.4,0,0.7-0.2,1-0.6c0.3-0.4,0.6-0.9,0.8-1.4c0.2-0.6,0.4-1.1,0.5-1.7
			C61.1,16.8,61.2,16.3,61.2,15.8"/>
		<path class="st0" d="M69.2,12.7c0,0.1-0.1,0.4-0.1,0.8c-0.1,0.4-0.1,0.8-0.2,1.4c-0.1,0.5-0.1,1.1-0.2,1.8
			c-0.1,0.7-0.1,1.4-0.1,2.1c0,0.5,0,1,0.1,1.5c0,0.5,0.1,0.9,0.1,1.2c0.1,0.4,0.1,0.8,0.2,1.2c0,0.3-0.2,0.6-0.5,0.7
			c-0.3,0.1-0.5,0.2-0.7,0.2c-0.2,0-0.4,0-0.6-0.1c-0.1-0.1-0.2-0.1-0.2-0.2c-0.4-0.5-0.7-1.2-0.9-2.1c-0.2-0.9-0.2-1.8-0.2-2.9
			c0-0.8,0-1.5,0.1-2.2c0.1-0.7,0.1-1.4,0.2-2c0.1-0.7,0.2-1.3,0.3-2c0-0.1,0.1-0.2,0.1-0.3c0.1-0.1,0.2-0.1,0.4-0.2
			c0.2-0.1,0.4-0.1,0.7-0.1c0.1,0,0.3,0,0.5,0.1c0.2,0,0.4,0.1,0.5,0.2c0.2,0.1,0.3,0.2,0.4,0.4C69.2,12.3,69.2,12.5,69.2,12.7
			 M70.4,5.9c0,0.2,0,0.4-0.1,0.7c-0.1,0.3-0.2,0.6-0.4,0.9C69.6,7.8,69.4,8,69,8.2c-0.3,0.2-0.7,0.3-1.2,0.3
			c-0.5,0-0.8-0.1-0.9-0.4c-0.2-0.3-0.2-0.6-0.2-0.9c0-0.3,0.1-0.6,0.2-0.8c0.1-0.3,0.3-0.6,0.6-0.8c0.2-0.3,0.5-0.5,0.9-0.6
			c0.3-0.2,0.7-0.2,1.1-0.2c0.2,0,0.4,0.1,0.7,0.2C70.2,5,70.4,5.4,70.4,5.9"/>
		<path class="st0" d="M10.3,36.3c0.2,0.3,0.4,0.6,0.7,0.7c0.3,0.2,0.6,0.2,0.9,0.2c0.4,0,0.8-0.1,1.1-0.4c0.3-0.3,0.4-0.6,0.4-1
			c0-0.6-0.5-1.1-1.6-1.4c-0.1,0-0.2-0.1-0.3-0.1c-0.6-0.2-1-0.4-1.2-0.7c-0.3-0.3-0.4-0.7-0.4-1.1c0-0.5,0.2-0.9,0.6-1.3
			c0.4-0.3,0.9-0.5,1.5-0.5c0.4,0,0.7,0.1,1,0.2c0.3,0.1,0.6,0.3,0.9,0.6l-0.4,0.5c-0.3-0.2-0.5-0.4-0.7-0.5
			c-0.2-0.1-0.5-0.2-0.7-0.2c-0.4,0-0.7,0.1-1,0.4c-0.3,0.3-0.4,0.5-0.4,0.9c0,0.2,0.1,0.4,0.2,0.6c0.1,0.2,0.3,0.3,0.5,0.4
			c0.2,0.1,0.4,0.2,0.8,0.3c0.2,0.1,0.4,0.1,0.5,0.2c0.5,0.2,0.9,0.4,1.1,0.7c0.3,0.3,0.4,0.7,0.4,1.1c0,0.6-0.2,1-0.6,1.4
			c-0.4,0.4-0.9,0.6-1.5,0.6c-0.4,0-0.8-0.1-1.2-0.3c-0.4-0.2-0.7-0.5-0.9-0.9L10.3,36.3z"/>
		<polygon class="st0" points="21.2,37.8 21.2,31.5 19.3,31.5 19.5,30.9 23.5,30.9 23.5,31.5 21.8,31.5 21.8,37.7 		"/>
		<path class="st0" d="M29.1,30.9l0.6-0.1v4.4c0,0.8,0.1,1.3,0.4,1.6c0.3,0.3,0.7,0.4,1.3,0.4c0.6,0,1.1-0.2,1.3-0.4
			c0.3-0.3,0.4-0.8,0.4-1.6v-4.3l0.6-0.1v4.4c0,0.5,0,0.9-0.1,1.2c-0.1,0.3-0.2,0.5-0.4,0.7c-0.2,0.2-0.5,0.4-0.8,0.5
			c-0.3,0.1-0.7,0.2-1.1,0.2c-0.4,0-0.7-0.1-1.1-0.2c-0.3-0.1-0.6-0.3-0.8-0.5c-0.2-0.2-0.3-0.4-0.4-0.7c-0.1-0.3-0.1-0.7-0.1-1.2
			V30.9z"/>
		<path class="st0" d="M39.9,37.7v-6.8h0.9c0.8,0,1.3,0,1.7,0.1c0.4,0.1,0.7,0.2,1.1,0.5c0.5,0.3,0.8,0.7,1,1.2
			c0.2,0.5,0.4,1,0.4,1.6c0,1-0.3,1.9-1,2.5c-0.7,0.6-1.6,0.9-2.8,0.9H39.9z M40.5,31.5v5.7h0.8c0.9,0,1.7-0.3,2.2-0.8
			c0.5-0.5,0.8-1.2,0.8-2.1c0-0.9-0.3-1.5-0.8-2.1c-0.6-0.5-1.3-0.8-2.2-0.8H40.5z"/>
		<polygon class="st0" points="50.9,37.8 50.9,30.9 51.5,30.9 51.5,37.7 		"/>
		<path class="st0" d="M57.3,34.3c0-0.5,0.1-0.9,0.3-1.4c0.2-0.4,0.5-0.8,0.8-1.2c0.3-0.3,0.7-0.5,1.1-0.7c0.4-0.2,0.9-0.2,1.3-0.2
			c0.5,0,0.9,0.1,1.3,0.2c0.4,0.2,0.8,0.4,1.1,0.7c0.4,0.3,0.6,0.7,0.8,1.2c0.2,0.4,0.3,0.9,0.3,1.4c0,0.5-0.1,1-0.3,1.4
			c-0.2,0.5-0.5,0.9-0.8,1.2c-0.3,0.3-0.7,0.6-1.1,0.7c-0.4,0.2-0.9,0.2-1.3,0.2c-0.5,0-0.9-0.1-1.3-0.2c-0.4-0.2-0.8-0.4-1.1-0.7
			c-0.4-0.3-0.6-0.7-0.8-1.2C57.4,35.3,57.3,34.8,57.3,34.3 M57.9,34.3c0,0.8,0.3,1.6,0.9,2.1c0.6,0.6,1.3,0.9,2.1,0.9
			c0.8,0,1.5-0.3,2.1-0.9c0.6-0.6,0.9-1.3,0.9-2.1c0-0.8-0.3-1.5-0.9-2.1c-0.6-0.6-1.3-0.9-2.1-0.9c-0.8,0-1.5,0.3-2.1,0.9
			C58.2,32.8,57.9,33.5,57.9,34.3"/>
		<path class="st1" d="M51.9,28.3c0,0.4-0.3,0.7-0.7,0.7c-0.4,0-0.7-0.3-0.7-0.7c0-0.4,0.3-0.7,0.7-0.7
			C51.6,27.6,51.9,27.9,51.9,28.3"/>
		<rect x="9.8" y="28.1" class="st0" width="40.2" height="0.4"/>
		<rect x="52.3" y="28.1" class="st0" width="12.2" height="0.4"/>
		<path class="st2" d="M60.9,36.5c-0.2,0-0.4,0-0.6-0.1c-0.1,0-0.1-0.1-0.1-0.2c0-0.1,0.1-0.3,0.3-0.2c0.1,0,0.2,0,0.3,0
			c0.1,0,0.1,0,0.2,0c0.1,0,0.2,0,0.2,0c0.1,0,0.2,0,0.3-0.1c0.1,0,0.3-0.1,0.4-0.2c0.1-0.1,0.2-0.2,0.4-0.3
			c0.1-0.1,0.2-0.3,0.3-0.5c0-0.1,0.1-0.2,0.1-0.4c0-0.1,0-0.3,0-0.4c0-0.1,0-0.2-0.1-0.3c0-0.1,0-0.2,0.1-0.2
			c0.1-0.1,0.1-0.1,0.2,0c0.1,0,0.1,0.1,0.1,0.1c0,0.1,0,0.2,0.1,0.3c0,0.1,0,0.3,0,0.4c0,0.2-0.1,0.4-0.1,0.6
			c-0.1,0.2-0.2,0.4-0.3,0.5c-0.2,0.2-0.4,0.4-0.7,0.6c-0.2,0.1-0.4,0.2-0.6,0.2C61.2,36.5,61,36.5,60.9,36.5"/>
	</g>
</g>
</svg>
