<?xml version="1.0" encoding="utf-8"?>
<!-- Generator: Adobe Illustrator 24.0.1, SVG Export Plug-In . SVG Version: 6.00 Build 0)  -->
<svg version="1.1" id="Calque_1" xmlns="http://www.w3.org/2000/svg" xmlns:xlink="http://www.w3.org/1999/xlink" x="0px" y="0px"
	 viewBox="0 0 34 34" style="enable-background:new 0 0 34 34;" xml:space="preserve">
<style type="text/css">
	.Ombre_x0020_portée{fill:none;}
	.Lueur_x0020_externe_x0020_5 pt{fill:none;}
	.Néon_x0020_bleu{fill:none;stroke:#8AACDA;stroke-width:7;stroke-linecap:round;stroke-linejoin:round;}
	.Ton_x0020_clair_x0020_chrome{fill:url(#SVGID_1_);stroke:#FFFFFF;stroke-width:0.3629;stroke-miterlimit:1;}
	.Swing_GS{fill:#FFDD00;}
	.Alysse_GS{fill:#A6D0E4;}
	.st0{fill:#FF6600;}
	.st1{fill:url(#SVGID_2_);}
	.st2{fill:url(#SVGID_3_);}
</style>
<linearGradient id="SVGID_1_" gradientUnits="userSpaceOnUse" x1="0" y1="0" x2="6.123234e-17" y2="-1">
	<stop  offset="0" style="stop-color:#656565"/>
	<stop  offset="0.618" style="stop-color:#1B1B1B"/>
	<stop  offset="0.6292" style="stop-color:#545454"/>
	<stop  offset="0.9831" style="stop-color:#3E3E3E"/>
</linearGradient>
<g>
	<ellipse transform="matrix(0.2263 -0.974 0.974 0.2263 -3.3869 29.7359)" class="st0" cx="17" cy="17" rx="16" ry="16"/>
</g>
<g>
	<linearGradient id="SVGID_2_" gradientUnits="userSpaceOnUse" x1="10.2122" y1="22.0072" x2="22.1405" y2="10.1068">
		<stop  offset="0" style="stop-color:#E6EFEC"/>
		<stop  offset="1" style="stop-color:#F4F9F5"/>
	</linearGradient>
	<path class="st1" d="M17,10.3c-8.9,0-9.4,4.2-9.2,5.9c0,0.4,0.5,0.7,0.9,0.6l2.2-0.4c0,0,0.2,0,0.4-0.1c0.2,0,0.5-0.3,0.6-0.5
		c0.1-0.1,0.1-0.3,0.2-0.4c0.4-0.7,0.9-1.3,1.5-1.8c0.9-0.8,2.1-1.2,3.4-1.2c2.2,0,4.2,1.3,5,3.3c0.2,0.4,0.3,0.7,0.7,0.8l0.4,0.1
		l2.2,0.4c0.4,0.1,0.8-0.2,0.9-0.6C26.4,14.7,25.9,10.3,17,10.3z"/>
	<linearGradient id="SVGID_3_" gradientUnits="userSpaceOnUse" x1="12.1271" y1="23.9266" x2="24.0554" y2="12.0262">
		<stop  offset="0" style="stop-color:#E6EFEC"/>
		<stop  offset="1" style="stop-color:#F4F9F5"/>
	</linearGradient>
	<path class="st2" d="M23.3,17.5l-0.6-0.1l-1-0.2c-0.4-2-1.9-3.5-3.9-3.8l0,0c-0.2,0-0.5-0.1-0.7-0.1c-2.3,0-4.2,1.6-4.6,3.8
		l-1.7,0.3l0,0.1c0,0.2,0,0.3,0,0.4c0,1.7,0.7,3.3,1.8,4.5c1.2,1.2,2.8,1.8,4.5,1.8c1.7,0,3.3-0.7,4.5-1.8c1.2-1.2,1.8-2.8,1.8-4.5
		C23.3,17.9,23.3,17.7,23.3,17.5L23.3,17.5z M17,14.3c0.7,0,1.5,0.2,2.1,0.6c1,0.7,1.6,1.8,1.6,3c0,0.1,0,0.1,0,0.2
		c0,0.1,0,0.2,0,0.2c-0.2,1-0.9,1.5-1.3,1.5c-0.1,0-0.2,0-0.2-0.1c0,0-0.1-0.1-0.1-0.2v-3.1H18v0.3c-0.1-0.1-0.3-0.1-0.4-0.2
		c-0.2-0.1-0.4-0.1-0.6-0.1c0,0,0,0,0,0c-0.3,0-0.6,0.1-0.9,0.2c-0.3,0.1-0.5,0.3-0.7,0.5c-0.2,0.2-0.4,0.4-0.5,0.7
		c-0.1,0.2-0.1,0.3-0.1,0.5c0,0.1,0,0.2,0,0.4c0,0.3,0.1,0.6,0.2,0.9c0.1,0.3,0.3,0.5,0.5,0.7c0.2,0.2,0.5,0.4,0.7,0.5
		c0.3,0.1,0.6,0.2,0.9,0.2h0c0.3,0,0.6,0,0.8-0.1c0.2-0.1,0.4-0.2,0.6-0.3c0.1,0.3,0.5,0.4,1,0.4c1,0,2.1-0.8,2.5-2.9l0.6,0.2
		c-0.2,2.8-2.4,5-5.3,5c-2.9,0-5.1-2.1-5.3-5l0.6-0.1l1-0.2l0-0.1C13.4,15.9,15,14.3,17,14.3z M18,19.4c0,0.2-0.2,0.3-0.4,0.4
		c-0.2,0.1-0.4,0.2-0.7,0.2c0,0,0,0,0,0c-0.2,0-0.4,0-0.5-0.1c-0.1-0.1-0.3-0.2-0.4-0.3c-0.1-0.1-0.2-0.2-0.2-0.4
		c-0.1-0.2-0.1-0.3-0.1-0.5c0-0.1,0-0.2,0-0.3l0,0c0,0,0-0.1,0-0.1c0.1-0.1,0.1-0.3,0.3-0.4c0.1-0.1,0.2-0.2,0.4-0.3
		c0.2-0.1,0.3-0.1,0.5-0.1c0,0,0,0,0,0c0.1,0,0.2,0,0.3,0.1l0,0c0.1,0,0.2,0.1,0.3,0.1c0.1,0.1,0.2,0.1,0.3,0.2l0,0
		c0.1,0.1,0.1,0.2,0.2,0.2C18,18.5,18,19.1,18,19.4z"/>
</g>
</svg>
