<?xml version="1.0" encoding="utf-8"?>
<!-- Generator: Adobe Illustrator 24.0.1, SVG Export Plug-In . SVG Version: 6.00 Build 0)  -->
<svg version="1.1" id="Calque_1" xmlns="http://www.w3.org/2000/svg" xmlns:xlink="http://www.w3.org/1999/xlink" x="0px" y="0px"
	 viewBox="0 0 34 34" style="enable-background:new 0 0 34 34;" xml:space="preserve">
<style type="text/css">
	.Ombre_x0020_portée{fill:none;}
	.Lueur_x0020_externe_x0020_5 pt{fill:none;}
	.Néon_x0020_bleu{fill:none;stroke:#8AACDA;stroke-width:7;stroke-linecap:round;stroke-linejoin:round;}
	.Ton_x0020_clair_x0020_chrome{fill:url(#SVGID_1_);stroke:#FFFFFF;stroke-width:0.3629;stroke-miterlimit:1;}
	.Swing_GS{fill:#FFDD00;}
	.Alysse_GS{fill:#A6D0E4;}
	.st0{fill:#FF6600;}
	.st1{fill:#FFFFFF;}
</style>
<linearGradient id="SVGID_1_" gradientUnits="userSpaceOnUse" x1="0" y1="0" x2="6.123234e-17" y2="-1">
	<stop  offset="0" style="stop-color:#656565"/>
	<stop  offset="0.618" style="stop-color:#1B1B1B"/>
	<stop  offset="0.6292" style="stop-color:#545454"/>
	<stop  offset="0.9831" style="stop-color:#3E3E3E"/>
</linearGradient>
<g>
	<ellipse transform="matrix(0.2263 -0.974 0.974 0.2263 -3.3869 29.7359)" class="st0" cx="17" cy="17" rx="16" ry="16"/>
</g>
<g>
	<path class="st1" d="M16.8,4.4C9.7,4.4,4,10.1,4,17.2C4,24.3,9.7,30,16.8,30s12.8-5.7,12.8-12.8C29.6,10.1,23.9,4.4,16.8,4.4z
		 M17.8,28v-0.9c0-0.5-0.4-1-1-1c-0.5,0-1,0.4-1,1V28c-5.2-0.5-9.4-4.6-9.9-9.9h0.8c0.5,0,1-0.4,1-1s-0.4-1-1-1H6
		c0.5-5.2,4.6-9.4,9.9-9.8v0.8c0,0.5,0.4,1,1,1c0.5,0,1-0.4,1-1V6.4c5.2,0.5,9.4,4.6,9.9,9.8h-0.8c-0.5,0-1,0.4-1,1s0.4,1,1,1h0.8
		C27.2,23.4,23,27.6,17.8,28z"/>
	<path class="st1" d="M22.6,11l-5.7,6c0,0,0,0,0,0c-0.1,0-0.1,0-0.2,0l-4.8-3.6c-0.3-0.2-0.8-0.2-1,0.1c-0.2,0.3-0.2,0.8,0.1,1
		l4.8,3.6c0,0.6,0.5,1,1.1,1c0.6,0,1.1-0.5,1.1-1.1c0,0,0-0.1,0-0.1l5.7-6c0.3-0.3,0.3-0.7,0-1C23.3,10.7,22.8,10.7,22.6,11z"/>
</g>
</svg>
