<?xml version="1.0" encoding="utf-8"?>
<!-- Generator: Adobe Illustrator 24.0.1, SVG Export Plug-In . SVG Version: 6.00 Build 0)  -->
<svg version="1.1" id="Calque_1" xmlns="http://www.w3.org/2000/svg" xmlns:xlink="http://www.w3.org/1999/xlink" x="0px" y="0px"
	 viewBox="0 0 95.6 52" style="enable-background:new 0 0 95.6 52;" xml:space="preserve">
<style type="text/css">
	.st0{fill:#FFFFFF;}
	.st1{fill:#ff7200;}
	.st2{fill-rule:evenodd;clip-rule:evenodd;fill:#FFFFFF;}
</style>
<g>
	<g>
		<path class="st0" d="M27.1,17.2c0,1.7-0.4,3.3-1.1,4.8c-0.7,1.5-1.6,2.9-2.8,4.2c-1.1,1.3-2.4,2.4-3.9,3.5c-1.4,1-2.9,1.9-4.3,2.6
			c-1.4,0.7-2.8,1.2-4.1,1.6c-1.3,0.4-2.4,0.6-3.3,0.6c-0.8,0-1.2-0.1-1.4-0.4C6.1,33.7,6,33.5,6,33.3c0.1-0.5,0.2-0.9,0.5-1.3
			c0.2-0.3,0.5-0.6,0.7-0.7c0.3-0.2,0.6-0.3,1-0.4c1.9-0.5,3.6-1.2,5.3-2.2c1.7-1,3.2-2.1,4.5-3.3c1.3-1.2,2.3-2.5,3.1-3.7
			c0.8-1.3,1.1-2.5,1.1-3.6c0-1.2-0.3-2.3-1-3.1c-0.7-0.9-1.4-1.6-2.3-2.1c-0.9-0.5-1.7-1-2.5-1.2c-0.8-0.3-1.4-0.4-1.7-0.4
			c-0.1,0-0.1,0-0.1,0c-0.1,0.1-0.1,0.2-0.1,0.2c-0.1,0.6-0.2,1.3-0.2,2c-0.1,0.6-0.1,1.3-0.1,2.1c0,0.8,0,1.6,0,2.4
			c0,1,0,1.9,0.1,2.8c0.1,0.9,0.2,1.7,0.5,2.4c0,0.1,0.1,0.2,0.1,0.4c0,0.1,0.1,0.3,0.1,0.4c0,0.2,0,0.3,0,0.4
			c0,0.5-0.2,0.9-0.6,1.1c-0.4,0.2-0.8,0.4-1.3,0.4c-0.7,0-1.3-0.3-1.7-0.8c-0.4-0.5-0.8-1.1-1-1.8c-0.2-0.7-0.4-1.4-0.4-2.2
			c-0.1-0.7-0.1-1.4-0.1-1.9c0-1.4,0.1-2.8,0.2-4.3c0.2-1.5,0.3-3,0.5-4.4c0,0,0-0.1,0-0.1c0,0-0.1-0.1-0.2-0.1
			c-1-0.1-1.8-0.2-2.4-0.2c-0.6,0-1,0-1.2,0c-0.6,0-0.9-0.1-1-0.4C5.5,9.7,5.5,9.5,5.5,9.5C5.6,8.9,5.8,8.4,6.1,8
			c0.4-0.3,0.7-0.6,1.1-0.7C7.6,7.1,8.1,7,8.6,7h1.3c0.4,0,0.7,0,1.1,0c0.1,0,0.2-0.1,0.2-0.2c0.1-0.7,0.4-1.3,1-1.9
			C12.8,4.3,13.5,4,14.4,4c0.2,0,0.3,0,0.6,0.1c0.2,0.1,0.3,0.3,0.3,0.6c0,0.1,0,0.4-0.1,0.8c-0.1,0.4-0.1,1-0.2,1.7
			c0,0.1,0,0.2,0.1,0.2c0,0,0.1,0,0.1,0c1.4,0.3,2.8,0.7,4.3,1.2c1.4,0.5,2.7,1.2,3.9,2c1.1,0.8,2.1,1.7,2.8,2.8
			C26.8,14.7,27.1,15.9,27.1,17.2"/>
		<path class="st0" d="M50.2,17.6c0,1.8-0.3,3.6-0.8,5.2c-0.5,1.7-1.1,3.1-1.9,4.4c-0.7,1.3-1.5,2.3-2.3,3c-0.8,0.7-1.5,1.1-2,1.1
			c-0.8,0-1.5-0.3-2-0.9c-0.5-0.6-1-1.3-1.4-2.1c-0.4-0.9-0.8-2-1.1-3.1c0-0.2-0.1-0.3-0.2-0.3c0,0-0.1,0-0.2,0.1l-0.1,0.1
			c-0.4,0.8-0.9,1.6-1.4,2.4c-0.5,0.8-1.1,1.4-1.6,2c-0.6,0.6-1.1,1-1.6,1.4c-0.5,0.4-1,0.5-1.3,0.5c-0.7,0-1.3-0.4-1.8-1.1
			c-0.5-0.8-0.9-1.7-1.2-2.7c-0.3-1-0.5-2.1-0.6-3.1c-0.1-1-0.2-1.8-0.2-2.3c0-0.6,0-1.1,0-1.6c0-0.5,0.1-0.9,0.1-1.2
			c0.1-0.4,0.1-0.8,0.2-1.1c0.1-0.3,0.3-0.6,0.4-0.8c0.1-0.2,0.3-0.4,0.6-0.6c0.2-0.2,0.5-0.3,0.8-0.3c0.3,0,0.5,0.1,0.8,0.2
			c0.2,0.1,0.4,0.3,0.5,0.5c0.2,0.2,0.3,0.5,0.3,0.9c-0.1,0.4-0.2,0.8-0.2,1.2c-0.1,0.4-0.1,0.8-0.1,1.3c0,0.5,0,1,0,1.5
			c0,0.3,0,0.6,0.1,1.1c0,0.5,0.1,1,0.2,1.5c0.1,0.5,0.2,1,0.4,1.4c0.2,0.4,0.4,0.6,0.7,0.6c0.2,0,0.4-0.1,0.7-0.3
			c0.3-0.2,0.6-0.5,1-1c0.4-0.5,0.8-1.1,1.2-1.9c0.4-0.8,0.9-1.8,1.4-3c0.1-0.7,0.2-1.3,0.5-1.8c0.3-0.5,0.8-0.8,1.7-0.8
			c0.3,0,0.6,0.1,0.9,0.3c0.3,0.2,0.5,0.6,0.5,1.2c0.1,1.4,0.3,2.6,0.5,3.6c0.2,0.9,0.4,1.7,0.7,2.5c0.3,0.7,0.7,1.1,1.1,1.1
			c0.3,0,0.6-0.2,1-0.5c0.4-0.4,0.7-0.9,1-1.5c0.3-0.7,0.6-1.5,0.8-2.4c0.2-1,0.3-2.1,0.3-3.3c0-0.5,0-0.9-0.1-1.2
			c0-0.3-0.1-0.5-0.1-0.8c0-0.2-0.1-0.4-0.1-0.6c0-0.2,0-0.4,0-0.7c0-0.6,0.1-1.1,0.5-1.6c0.3-0.5,0.9-0.7,1.6-0.7
			c0.7,0,1.2,0.4,1.4,1.1C50,15.3,50.2,16.3,50.2,17.6"/>
		<path class="st0" d="M65.7,31.2c0,0.4-0.1,0.6-0.3,0.8c-0.2,0.2-0.4,0.3-0.6,0.4c-0.3,0.1-0.6,0.2-0.9,0.2c-0.5,0-1-0.2-1.4-0.5
			c-0.4-0.3-0.7-0.7-0.9-1.1c-0.3-0.5-0.5-1-0.7-1.6c0-0.1-0.1-0.2-0.2-0.2c-0.1,0-0.1,0-0.2,0.1l-0.1,0.1c-0.5,0.5-0.9,0.9-1.4,1.3
			c-0.5,0.3-1,0.6-1.4,0.7c-0.5,0.2-0.9,0.3-1.2,0.3c-0.4,0-0.7,0.1-0.9,0.1c-0.9,0-1.6-0.2-2.1-0.5c-0.5-0.3-0.9-0.7-1.1-1.1
			c-0.2-0.4-0.4-0.8-0.5-1.2c-0.1-0.4-0.1-0.7-0.1-0.9c0-0.6,0.1-1.2,0.3-1.8c0.2-0.6,0.5-1.1,0.9-1.6c0.4-0.5,0.8-1,1.2-1.4
			c0.5-0.4,0.9-0.8,1.4-1.2c1.1-0.8,2.4-1.6,3.9-2.2c0.1,0,0.2-0.1,0.3-0.1c0.2-0.1,0.3-0.3,0.3-0.4c0-0.3-0.3-0.6-0.8-0.7
			c-0.5-0.1-1.1-0.2-1.8-0.2c-0.3,0-0.5,0-0.8,0c-0.3,0-0.5,0-0.7,0.1c-0.2,0-0.5,0.1-0.6,0.1c-0.3,0-0.6,0-0.8-0.1
			c-0.2-0.1-0.3-0.2-0.4-0.4c-0.1-0.2-0.2-0.3-0.2-0.5c0-0.2,0-0.3,0-0.4c0-0.1,0-0.2,0.1-0.4c0.1-0.2,0.2-0.4,0.5-0.6
			c0.2-0.2,0.6-0.4,1.1-0.6c0.5-0.2,1.1-0.2,1.9-0.2c0.5,0,1.2,0,2,0.2c0.8,0.1,1.5,0.3,2.3,0.6c0.7,0.3,1.3,0.7,1.8,1.1
			c0.5,0.5,0.8,1,0.8,1.7c0,0.5-0.2,0.9-0.6,1.4c-0.4,0.4-1,0.9-1.6,1.3c-0.6,0.4-1.3,0.8-2.1,1.2c-0.7,0.4-1.4,0.9-2.1,1.3
			c-0.6,0.5-1.2,1-1.6,1.5c-0.4,0.6-0.6,1.2-0.6,1.8c0,0.1,0.1,0.3,0.2,0.6c0.1,0.3,0.4,0.4,0.8,0.4c0.3,0,0.6-0.1,1-0.3
			c0.4-0.2,0.7-0.4,1.1-0.7c0.3-0.3,0.6-0.6,0.9-1c0.2-0.4,0.4-0.7,0.4-1.1c0,0,0-0.1,0-0.1v-0.3c0-0.2,0-0.5,0.2-0.7
			c0.1-0.3,0.3-0.5,0.5-0.8c0.2-0.2,0.5-0.4,0.7-0.6c0.3-0.2,0.6-0.2,0.9-0.2c0.2,0,0.4,0,0.5,0.1c0.2,0.1,0.2,0.3,0.2,0.6
			c0.1,0.9,0.2,1.7,0.4,2.5c0.1,0.7,0.4,1.3,0.6,2c0.3,0.7,0.6,1.2,1.1,1.6c0.1,0.2,0.3,0.4,0.4,0.5c0.1,0.1,0.2,0.3,0.3,0.5
			C65.6,30.8,65.7,31,65.7,31.2"/>
		<path class="st0" d="M81.4,19.7c0,1.2-0.2,2.5-0.5,3.9c-0.4,1.4-0.8,2.6-1.5,3.8c-0.6,1.1-1.4,2.1-2.3,2.9
			c-0.9,0.8-1.9,1.1-2.9,1.1c-0.6,0-1.1-0.2-1.5-0.5c-0.4-0.3-0.7-0.7-0.9-1.1c-0.3-0.5-0.5-1-0.6-1.6C71.1,28,71,28,71,28
			c-0.1,0-0.3,0.1-0.4,0.2c-0.1,0.1-0.2,0.3-0.4,0.5c-0.1,0.2-0.3,0.3-0.5,0.5c-0.2,0.2-0.5,0.2-0.8,0.2c-0.2,0-0.4-0.1-0.5-0.2
			c-0.1-0.2-0.2-0.4-0.3-0.6c-0.1-0.2-0.1-0.5-0.1-0.7c0-0.2,0-0.4,0-0.6c0-1.6,0-3.4,0-5.4c0-2,0.1-4.1,0.3-6.2
			c0.1-2.1,0.3-4.2,0.6-6.3c0.2-2.1,0.6-3.9,1-5.6c0.1-0.2,0.2-0.4,0.3-0.5c0.1-0.2,0.3-0.3,0.5-0.4c0.2-0.1,0.4-0.2,0.7-0.2
			c0.4,0,0.8,0.1,1,0.3c0.2,0.2,0.4,0.4,0.5,0.7c0.1,0.3,0.2,0.6,0.2,1c-0.4,1.6-0.7,3.3-1,5c-0.2,1.6-0.5,3.3-0.7,5.3
			c-0.2,1.9-0.3,4-0.3,6.2c0,0.1,0,0.2,0,0.2c0,0.2,0.1,0.2,0.2,0.2c0.1,0,0.1-0.1,0.2-0.2c1.2-2,2.3-3.5,3.6-4.5
			c1.2-1,2.3-1.5,3.3-1.5c0.1,0,0.3,0,0.6,0.1c0.3,0.1,0.6,0.2,1,0.5c0.3,0.3,0.6,0.7,0.9,1.3C81.2,17.8,81.4,18.6,81.4,19.7
			 M77.9,21.2c0-0.8-0.1-1.3-0.3-1.5c-0.2-0.2-0.4-0.3-0.5-0.3c-0.5,0-1.1,0.3-1.6,0.9c-0.5,0.6-1,1.3-1.4,2
			c-0.5,0.8-0.9,1.8-1.3,2.8c0.1,0.5,0.2,0.9,0.4,1.3c0.2,0.3,0.4,0.6,0.6,0.9c0.3,0.2,0.6,0.4,1,0.4c0.5,0,0.9-0.2,1.3-0.7
			c0.4-0.5,0.7-1.1,1-1.7c0.3-0.7,0.5-1.4,0.6-2.1C77.9,22.4,77.9,21.8,77.9,21.2"/>
		<path class="st0" d="M87.9,17.4c0,0.1-0.1,0.5-0.2,0.9c-0.1,0.5-0.2,1-0.3,1.7c-0.1,0.7-0.2,1.4-0.3,2.2c-0.1,0.8-0.1,1.7-0.1,2.6
			c0,0.7,0,1.3,0.1,1.9c0.1,0.6,0.1,1.1,0.2,1.5c0.1,0.5,0.2,1,0.3,1.5c-0.1,0.4-0.3,0.7-0.6,0.8c-0.3,0.1-0.6,0.2-0.9,0.2
			c-0.3,0-0.5-0.1-0.8-0.2c-0.1-0.1-0.2-0.1-0.3-0.2c-0.5-0.6-0.9-1.5-1.1-2.6c-0.2-1.1-0.3-2.3-0.3-3.5c0-0.9,0-1.9,0.1-2.8
			c0.1-0.9,0.2-1.7,0.2-2.5c0.1-0.9,0.2-1.7,0.4-2.4c0-0.1,0.1-0.2,0.2-0.4c0.1-0.1,0.2-0.2,0.5-0.3c0.2-0.1,0.5-0.1,0.9-0.1
			c0.2,0,0.3,0,0.6,0.1c0.2,0,0.4,0.1,0.6,0.2c0.2,0.1,0.4,0.3,0.5,0.5C87.8,16.8,87.9,17.1,87.9,17.4 M89.3,8.9
			c0,0.2,0,0.5-0.2,0.9c-0.1,0.4-0.3,0.7-0.5,1.1c-0.2,0.4-0.6,0.7-1,1c-0.4,0.3-0.9,0.4-1.5,0.4c-0.6,0-1-0.2-1.2-0.5
			c-0.2-0.3-0.3-0.7-0.3-1.1c0-0.3,0.1-0.7,0.3-1c0.2-0.4,0.4-0.7,0.7-1c0.3-0.3,0.7-0.6,1.1-0.8c0.4-0.2,0.8-0.3,1.3-0.3
			c0.2,0,0.5,0.1,0.8,0.2C89.1,7.9,89.3,8.3,89.3,8.9"/>
		<path class="st0" d="M15,46.5c0.3,0.4,0.5,0.7,0.9,0.9c0.3,0.2,0.7,0.3,1.1,0.3c0.5,0,1-0.2,1.3-0.5c0.4-0.3,0.5-0.7,0.5-1.2
			c0-0.8-0.7-1.4-2-1.8c-0.1,0-0.2-0.1-0.3-0.1c-0.7-0.2-1.2-0.5-1.5-0.8c-0.3-0.4-0.5-0.8-0.5-1.4c0-0.6,0.2-1.2,0.7-1.6
			c0.5-0.4,1.1-0.6,1.8-0.6c0.4,0,0.8,0.1,1.2,0.2c0.4,0.2,0.7,0.4,1.1,0.8l-0.5,0.6c-0.3-0.3-0.6-0.5-0.9-0.6
			c-0.3-0.1-0.6-0.2-0.9-0.2c-0.5,0-0.9,0.2-1.2,0.5c-0.3,0.3-0.5,0.7-0.5,1.1c0,0.3,0.1,0.5,0.2,0.7c0.1,0.2,0.3,0.4,0.6,0.5
			c0.2,0.1,0.5,0.2,1,0.4c0.3,0.1,0.5,0.2,0.6,0.2c0.6,0.2,1.1,0.5,1.4,0.9c0.3,0.4,0.5,0.8,0.5,1.3c0,0.7-0.2,1.3-0.8,1.7
			c-0.5,0.5-1.1,0.7-1.9,0.7c-0.5,0-1-0.1-1.5-0.4c-0.5-0.3-0.8-0.6-1.1-1.1L15,46.5z"/>
		<polygon class="st0" points="28.5,48.4 28.5,40.6 26.2,40.6 26.4,39.9 31.4,39.9 31.4,40.6 29.3,40.6 29.3,48.3 		"/>
		<path class="st0" d="M38.4,39.9l0.8-0.1v5.4c0,0.9,0.2,1.6,0.5,2c0.3,0.4,0.9,0.6,1.7,0.6c0.8,0,1.3-0.2,1.7-0.6
			c0.3-0.4,0.5-1,0.5-2v-5.3l0.8-0.1v5.4c0,0.7,0,1.2-0.1,1.5c-0.1,0.3-0.3,0.6-0.5,0.9c-0.2,0.3-0.6,0.5-1,0.6
			c-0.4,0.1-0.8,0.2-1.3,0.2c-0.5,0-0.9-0.1-1.3-0.2c-0.4-0.2-0.7-0.4-1-0.6c-0.2-0.2-0.4-0.5-0.5-0.9c-0.1-0.3-0.1-0.8-0.1-1.5
			V39.9z"/>
		<path class="st0" d="M51.7,48.3v-8.4h1.1c0.9,0,1.6,0.1,2.1,0.2c0.5,0.1,0.9,0.3,1.3,0.6c0.6,0.4,1,0.9,1.3,1.4
			c0.3,0.6,0.4,1.3,0.4,2c0,1.3-0.4,2.3-1.3,3.1c-0.8,0.8-2,1.1-3.4,1.1H51.7z M52.4,40.6v7h1c1.2,0,2.1-0.3,2.8-0.9
			c0.7-0.6,1-1.5,1-2.6c0-1.1-0.3-1.9-1-2.6c-0.7-0.6-1.6-0.9-2.8-0.9H52.4z"/>
		<polygon class="st0" points="65.2,48.4 65.2,39.9 65.9,39.8 65.9,48.3 		"/>
		<path class="st0" d="M73.2,44.1c0-0.6,0.1-1.2,0.4-1.7c0.2-0.6,0.6-1,1-1.5c0.4-0.4,0.9-0.7,1.4-0.9c0.5-0.2,1.1-0.3,1.7-0.3
			c0.6,0,1.1,0.1,1.6,0.3c0.5,0.2,1,0.5,1.4,0.9c0.5,0.4,0.8,0.9,1,1.4c0.2,0.5,0.3,1.1,0.3,1.8c0,0.6-0.1,1.2-0.4,1.7
			c-0.2,0.6-0.6,1.1-1,1.5c-0.4,0.4-0.9,0.7-1.4,0.9c-0.5,0.2-1.1,0.3-1.6,0.3c-0.6,0-1.1-0.1-1.7-0.3c-0.5-0.2-1-0.5-1.4-0.9
			c-0.4-0.4-0.8-0.9-1-1.5C73.3,45.3,73.2,44.7,73.2,44.1 M73.9,44.1c0,1,0.4,1.9,1.1,2.6c0.7,0.7,1.6,1.1,2.6,1.1
			c1,0,1.9-0.4,2.6-1.1c0.7-0.7,1.1-1.6,1.1-2.6c0-1-0.3-1.9-1.1-2.6c-0.7-0.7-1.6-1.1-2.6-1.1c-1,0-1.9,0.4-2.6,1.1
			C74.3,42.2,73.9,43,73.9,44.1"/>
		<path class="st1" d="M66.5,36.7c0,0.5-0.4,0.9-0.9,0.9c-0.5,0-0.9-0.4-0.9-0.9c0-0.5,0.4-0.9,0.9-0.9
			C66.1,35.8,66.5,36.2,66.5,36.7"/>
		<rect x="14.4" y="36.4" class="st0" width="49.7" height="0.5"/>
		<rect x="66.9" y="36.4" class="st0" width="15" height="0.5"/>
		<path class="st2" d="M77.6,46.8c-0.2,0-0.4,0-0.7-0.1c-0.1,0-0.2-0.1-0.2-0.2c0-0.2,0.1-0.3,0.3-0.3c0.1,0,0.2,0.1,0.3,0.1
			c0.1,0,0.2,0,0.2,0c0.1,0,0.2,0,0.3,0c0.1,0,0.3-0.1,0.4-0.1c0.2-0.1,0.3-0.2,0.5-0.3c0.2-0.1,0.3-0.3,0.4-0.4
			c0.1-0.2,0.3-0.4,0.3-0.6c0.1-0.1,0.1-0.3,0.1-0.5c0-0.2,0-0.3,0-0.5c0-0.1,0-0.3-0.1-0.4c0-0.1,0-0.2,0.1-0.3
			c0.1-0.1,0.2-0.1,0.2-0.1c0.1,0,0.2,0.1,0.2,0.2c0,0.1,0.1,0.3,0.1,0.4c0,0.2,0,0.3,0,0.5c0,0.3-0.1,0.5-0.2,0.8
			c-0.1,0.2-0.2,0.5-0.4,0.7c-0.2,0.3-0.5,0.5-0.9,0.7c-0.2,0.1-0.5,0.2-0.7,0.3C78,46.8,77.8,46.8,77.6,46.8"/>
	</g>
</g>
</svg>
