<?xml version="1.0" encoding="utf-8"?>
<!-- Generator: Adobe Illustrator 24.0.1, SVG Export Plug-In . SVG Version: 6.00 Build 0)  -->
<svg version="1.1" id="Calque_1" xmlns="http://www.w3.org/2000/svg" xmlns:xlink="http://www.w3.org/1999/xlink" x="0px" y="0px"
	 viewBox="0 0 61.7 32.2" style="enable-background:new 0 0 61.7 32.2;" xml:space="preserve">
<style type="text/css">
	.st0{fill:#FFFFFF;}
	.st1{fill:#ff7200;}
	.st2{fill-rule:evenodd;clip-rule:evenodd;fill:#FFFFFF;}
</style>
<g>
	<g>
		<path class="st0" d="M17,10.5c0,1.1-0.2,2.2-0.7,3.2c-0.5,1-1.1,1.9-1.9,2.8c-0.8,0.8-1.6,1.6-2.6,2.3c-1,0.7-1.9,1.2-2.9,1.7
			c-1,0.5-1.9,0.8-2.7,1.1c-0.9,0.3-1.6,0.4-2.2,0.4c-0.5,0-0.8-0.1-0.9-0.3c-0.1-0.2-0.2-0.3-0.2-0.4c0-0.3,0.1-0.6,0.3-0.8
			c0.2-0.2,0.3-0.4,0.5-0.5c0.2-0.1,0.4-0.2,0.7-0.2c1.2-0.3,2.4-0.8,3.6-1.4c1.1-0.6,2.1-1.4,3-2.2c0.8-0.8,1.5-1.6,2-2.5
			c0.5-0.9,0.8-1.6,0.8-2.4c0-0.8-0.2-1.5-0.7-2.1c-0.4-0.6-0.9-1-1.5-1.4C11,7.3,10.4,7.1,9.9,6.9C9.3,6.7,9,6.6,8.7,6.6
			c0,0-0.1,0-0.1,0C8.6,6.7,8.6,6.8,8.6,6.8C8.5,7.2,8.4,7.6,8.4,8.1c0,0.4-0.1,0.9-0.1,1.4c0,0.5,0,1.1,0,1.6c0,0.6,0,1.3,0.1,1.9
			c0,0.6,0.2,1.2,0.3,1.6c0,0.1,0,0.2,0.1,0.2c0,0.1,0,0.2,0.1,0.3c0,0.1,0,0.2,0,0.3c0,0.3-0.1,0.6-0.4,0.8
			c-0.3,0.2-0.6,0.2-0.9,0.2c-0.5,0-0.8-0.2-1.1-0.5c-0.3-0.3-0.5-0.7-0.7-1.2c-0.2-0.5-0.2-0.9-0.3-1.4c0-0.5-0.1-0.9-0.1-1.3
			c0-0.9,0.1-1.9,0.2-2.9c0.1-1,0.2-2,0.3-2.9c0,0,0-0.1,0-0.1c0,0-0.1,0-0.2-0.1C5.1,6.1,4.6,6,4.1,6C3.7,6,3.5,6,3.3,6
			C3,6,2.7,5.9,2.7,5.7C2.6,5.5,2.6,5.4,2.6,5.4c0-0.4,0.2-0.7,0.4-1C3.2,4.2,3.4,4,3.7,3.9C4,3.8,4.3,3.7,4.6,3.7h0.9
			c0.2,0,0.5,0,0.7,0c0.1,0,0.2,0,0.2-0.1C6.5,3.1,6.7,2.7,7,2.3c0.4-0.4,0.9-0.6,1.4-0.6c0.1,0,0.2,0,0.4,0.1C9,1.9,9.1,2,9.1,2.2
			c0,0.1,0,0.2-0.1,0.5C9,3,8.9,3.4,8.9,3.9c0,0.1,0,0.1,0.1,0.2c0,0,0,0,0.1,0c0.9,0.2,1.9,0.5,2.8,0.8c1,0.4,1.8,0.8,2.6,1.4
			c0.8,0.5,1.4,1.2,1.9,1.9C16.7,8.8,17,9.6,17,10.5"/>
		<path class="st0" d="M32.3,10.8c0,1.2-0.2,2.4-0.5,3.5c-0.3,1.1-0.8,2.1-1.2,2.9c-0.5,0.8-1,1.5-1.5,2c-0.5,0.5-1,0.7-1.3,0.7
			c-0.5,0-1-0.2-1.3-0.6c-0.4-0.4-0.7-0.9-0.9-1.4c-0.3-0.6-0.5-1.3-0.7-2.1c0-0.1-0.1-0.2-0.1-0.2c0,0-0.1,0-0.1,0.1l-0.1,0.1
			c-0.3,0.5-0.6,1.1-0.9,1.6c-0.4,0.5-0.7,0.9-1.1,1.3c-0.4,0.4-0.7,0.7-1.1,0.9c-0.3,0.2-0.6,0.3-0.9,0.3c-0.5,0-0.9-0.2-1.2-0.8
			c-0.3-0.5-0.6-1.1-0.8-1.8c-0.2-0.7-0.3-1.4-0.4-2.1c-0.1-0.7-0.1-1.2-0.1-1.5c0-0.4,0-0.7,0-1.1c0-0.3,0-0.6,0.1-0.8
			c0-0.3,0.1-0.5,0.2-0.7c0.1-0.2,0.2-0.4,0.3-0.5c0.1-0.1,0.2-0.3,0.4-0.4c0.2-0.1,0.3-0.2,0.6-0.2c0.2,0,0.4,0,0.5,0.1
			c0.1,0.1,0.2,0.2,0.3,0.3c0.1,0.2,0.2,0.4,0.2,0.6c-0.1,0.3-0.1,0.5-0.2,0.8c0,0.3-0.1,0.6-0.1,0.9c0,0.3,0,0.7,0,1
			c0,0.2,0,0.4,0,0.7c0,0.3,0.1,0.7,0.1,1c0.1,0.3,0.2,0.7,0.3,0.9c0.1,0.3,0.3,0.4,0.5,0.4c0.1,0,0.2-0.1,0.4-0.2
			c0.2-0.1,0.4-0.4,0.7-0.7c0.3-0.3,0.5-0.8,0.8-1.3c0.3-0.5,0.6-1.2,0.9-2c0-0.4,0.1-0.8,0.3-1.2c0.2-0.3,0.5-0.5,1.1-0.5
			c0.2,0,0.4,0.1,0.6,0.2c0.2,0.1,0.3,0.4,0.3,0.8c0.1,0.9,0.2,1.7,0.4,2.4c0.1,0.6,0.3,1.2,0.5,1.7c0.2,0.5,0.4,0.7,0.7,0.7
			c0.2,0,0.4-0.1,0.6-0.4c0.2-0.2,0.5-0.6,0.7-1c0.2-0.4,0.4-1,0.5-1.6c0.1-0.6,0.2-1.4,0.2-2.2c0-0.3,0-0.6,0-0.8
			c0-0.2-0.1-0.4-0.1-0.5c0-0.1-0.1-0.3-0.1-0.4c0-0.1,0-0.3,0-0.5c0-0.4,0.1-0.7,0.3-1.1C30.2,8.2,30.6,8,31.1,8
			c0.5,0,0.8,0.2,0.9,0.7C32.2,9.2,32.3,9.9,32.3,10.8"/>
		<path class="st0" d="M42.6,19.8c0,0.2-0.1,0.4-0.2,0.6c-0.1,0.1-0.3,0.2-0.4,0.3c-0.2,0.1-0.4,0.1-0.6,0.1c-0.4,0-0.7-0.1-0.9-0.3
			c-0.3-0.2-0.5-0.5-0.6-0.7c-0.2-0.3-0.4-0.7-0.5-1.1c0-0.1-0.1-0.2-0.1-0.2c0,0-0.1,0-0.1,0.1l-0.1,0.1c-0.3,0.3-0.6,0.6-0.9,0.8
			c-0.3,0.2-0.6,0.4-0.9,0.5c-0.3,0.1-0.6,0.2-0.8,0.2c-0.2,0-0.4,0-0.6,0c-0.6,0-1.1-0.1-1.4-0.3c-0.3-0.2-0.6-0.5-0.8-0.7
			c-0.2-0.3-0.3-0.6-0.3-0.8c0-0.3-0.1-0.5-0.1-0.6c0-0.4,0.1-0.8,0.2-1.2c0.1-0.4,0.3-0.7,0.6-1.1c0.2-0.3,0.5-0.6,0.8-0.9
			c0.3-0.3,0.6-0.6,0.9-0.8c0.8-0.6,1.6-1,2.6-1.5c0.1,0,0.1,0,0.2-0.1c0.1-0.1,0.2-0.2,0.2-0.3c0-0.2-0.2-0.4-0.5-0.5
			c-0.4-0.1-0.8-0.1-1.2-0.1c-0.2,0-0.4,0-0.5,0c-0.2,0-0.3,0-0.4,0c-0.2,0-0.3,0-0.4,0c-0.2,0-0.4,0-0.5-0.1
			c-0.1-0.1-0.2-0.2-0.3-0.3c-0.1-0.1-0.1-0.2-0.1-0.3c0-0.1,0-0.2,0-0.3c0-0.1,0-0.2,0.1-0.3c0-0.1,0.1-0.3,0.3-0.4
			c0.2-0.2,0.4-0.3,0.7-0.4C36,9.4,36.4,9.3,37,9.3c0.4,0,0.8,0,1.3,0.1c0.5,0.1,1,0.2,1.5,0.4c0.5,0.2,0.9,0.4,1.2,0.7
			c0.3,0.3,0.5,0.7,0.5,1.1c0,0.3-0.1,0.6-0.4,0.9c-0.3,0.3-0.6,0.6-1.1,0.8c-0.4,0.3-0.9,0.5-1.4,0.8c-0.5,0.3-1,0.6-1.4,0.9
			c-0.4,0.3-0.8,0.6-1.1,1c-0.3,0.4-0.4,0.8-0.4,1.2c0,0.1,0,0.2,0.1,0.4c0.1,0.2,0.2,0.3,0.5,0.3c0.2,0,0.4-0.1,0.7-0.2
			c0.3-0.1,0.5-0.3,0.7-0.5c0.2-0.2,0.4-0.4,0.6-0.7c0.2-0.2,0.2-0.5,0.2-0.8c0,0,0,0,0-0.1v-0.2c0-0.1,0-0.3,0.1-0.5
			c0.1-0.2,0.2-0.4,0.3-0.5c0.1-0.2,0.3-0.3,0.5-0.4c0.2-0.1,0.4-0.2,0.6-0.2c0.1,0,0.2,0,0.4,0.1c0.1,0.1,0.2,0.2,0.2,0.4
			c0.1,0.6,0.2,1.1,0.3,1.7c0.1,0.4,0.2,0.9,0.4,1.3c0.2,0.4,0.4,0.8,0.7,1c0.1,0.1,0.2,0.2,0.3,0.3c0.1,0.1,0.1,0.2,0.2,0.3
			C42.6,19.6,42.6,19.7,42.6,19.8"/>
		<path class="st0" d="M53.1,12.2c0,0.8-0.1,1.7-0.3,2.6c-0.2,0.9-0.6,1.8-1,2.5c-0.4,0.8-0.9,1.4-1.5,1.9c-0.6,0.5-1.2,0.8-1.9,0.8
			c-0.4,0-0.7-0.1-1-0.3c-0.2-0.2-0.4-0.5-0.6-0.7c-0.2-0.3-0.3-0.6-0.4-1.1c0-0.1-0.1-0.1-0.1-0.1c-0.1,0-0.2,0-0.3,0.2
			c-0.1,0.1-0.2,0.2-0.2,0.3c-0.1,0.1-0.2,0.2-0.3,0.3c-0.1,0.1-0.3,0.2-0.5,0.2c-0.2,0-0.3,0-0.4-0.2c-0.1-0.1-0.1-0.3-0.2-0.4
			c0-0.2-0.1-0.3-0.1-0.5c0-0.2,0-0.3,0-0.4c0-1.1,0-2.3,0-3.6c0-1.3,0.1-2.7,0.2-4.1c0.1-1.4,0.2-2.8,0.4-4.2
			c0.2-1.4,0.4-2.6,0.7-3.7c0.1-0.1,0.1-0.3,0.2-0.4C45.7,1.2,45.8,1.1,46,1c0.1-0.1,0.3-0.1,0.5-0.1c0.3,0,0.5,0.1,0.7,0.2
			c0.2,0.1,0.3,0.3,0.4,0.4c0.1,0.2,0.1,0.4,0.2,0.6c-0.2,1.1-0.5,2.2-0.7,3.3c-0.2,1-0.3,2.2-0.5,3.5c-0.1,1.3-0.2,2.7-0.2,4.1
			c0,0.1,0,0.1,0,0.2c0,0.1,0,0.2,0.1,0.2c0,0,0.1,0,0.2-0.1c0.8-1.3,1.6-2.3,2.4-3c0.8-0.7,1.5-1,2.2-1c0.1,0,0.2,0,0.4,0
			c0.2,0,0.4,0.1,0.7,0.3c0.2,0.2,0.4,0.5,0.6,0.9C53,10.9,53.1,11.4,53.1,12.2 M50.8,13.2c0-0.6-0.1-0.9-0.2-1
			c-0.2-0.1-0.3-0.2-0.3-0.2c-0.4,0-0.7,0.2-1.1,0.6c-0.3,0.4-0.7,0.8-0.9,1.3c-0.3,0.5-0.6,1.2-0.9,1.9c0.1,0.3,0.2,0.6,0.3,0.8
			c0.1,0.2,0.2,0.4,0.4,0.6c0.2,0.2,0.4,0.2,0.7,0.2c0.3,0,0.6-0.2,0.8-0.5c0.3-0.3,0.5-0.7,0.7-1.2c0.2-0.5,0.3-0.9,0.4-1.4
			C50.8,14,50.8,13.5,50.8,13.2"/>
		<path class="st0" d="M57.4,10.6c0,0.1-0.1,0.3-0.1,0.6c-0.1,0.3-0.1,0.7-0.2,1.1c-0.1,0.4-0.1,0.9-0.2,1.5c0,0.5-0.1,1.1-0.1,1.7
			c0,0.4,0,0.9,0.1,1.3c0,0.4,0.1,0.7,0.1,1c0.1,0.4,0.1,0.7,0.2,1c0,0.3-0.2,0.5-0.4,0.6c-0.2,0.1-0.4,0.1-0.6,0.1
			c-0.2,0-0.4,0-0.5-0.1c-0.1,0-0.1-0.1-0.2-0.1c-0.3-0.4-0.6-1-0.7-1.7c-0.1-0.7-0.2-1.5-0.2-2.4c0-0.6,0-1.2,0.1-1.9
			c0-0.6,0.1-1.2,0.2-1.6c0.1-0.6,0.2-1.1,0.2-1.6c0-0.1,0-0.2,0.1-0.2c0.1-0.1,0.2-0.1,0.3-0.2c0.1,0,0.3-0.1,0.6-0.1
			c0.1,0,0.2,0,0.4,0c0.2,0,0.3,0.1,0.4,0.1c0.1,0.1,0.2,0.2,0.3,0.3C57.4,10.2,57.4,10.4,57.4,10.6 M58.4,5c0,0.1,0,0.3-0.1,0.6
			c-0.1,0.2-0.2,0.5-0.4,0.7c-0.2,0.3-0.4,0.5-0.7,0.6c-0.3,0.2-0.6,0.3-1,0.3c-0.4,0-0.6-0.1-0.8-0.3c-0.1-0.2-0.2-0.5-0.2-0.7
			c0-0.2,0.1-0.5,0.2-0.7c0.1-0.2,0.3-0.5,0.5-0.7c0.2-0.2,0.4-0.4,0.7-0.5C56.9,4.1,57.2,4,57.5,4c0.1,0,0.3,0,0.5,0.2
			C58.3,4.3,58.4,4.6,58.4,5"/>
		<path class="st0" d="M8.9,30c0.2,0.3,0.4,0.5,0.6,0.6c0.2,0.1,0.5,0.2,0.8,0.2c0.4,0,0.7-0.1,0.9-0.3c0.2-0.2,0.4-0.5,0.4-0.8
			c0-0.5-0.4-0.9-1.3-1.2c-0.1,0-0.2,0-0.2-0.1c-0.5-0.1-0.8-0.3-1-0.6c-0.2-0.2-0.3-0.5-0.3-0.9c0-0.4,0.2-0.8,0.5-1.1
			c0.3-0.3,0.7-0.4,1.2-0.4c0.3,0,0.6,0,0.8,0.2c0.2,0.1,0.5,0.3,0.7,0.5l-0.3,0.4c-0.2-0.2-0.4-0.3-0.6-0.4
			C10.7,26,10.5,26,10.3,26c-0.3,0-0.6,0.1-0.8,0.3c-0.2,0.2-0.3,0.4-0.3,0.7c0,0.2,0,0.3,0.1,0.5c0.1,0.1,0.2,0.2,0.4,0.3
			c0.1,0.1,0.4,0.2,0.7,0.3c0.2,0.1,0.3,0.1,0.4,0.1c0.4,0.1,0.7,0.3,0.9,0.6c0.2,0.3,0.3,0.6,0.3,0.9c0,0.5-0.2,0.9-0.5,1.2
			c-0.3,0.3-0.8,0.5-1.3,0.5c-0.4,0-0.7-0.1-1-0.3c-0.3-0.2-0.6-0.4-0.8-0.7L8.9,30z"/>
		<polygon class="st0" points="17.9,31.3 17.9,26.1 16.3,26.1 16.5,25.6 19.8,25.6 19.8,26.1 18.4,26.1 18.4,31.2 		"/>
		<path class="st0" d="M24.4,25.6l0.5-0.1v3.6c0,0.6,0.1,1.1,0.3,1.3c0.2,0.2,0.6,0.4,1.1,0.4c0.5,0,0.9-0.1,1.1-0.4
			c0.2-0.3,0.3-0.7,0.3-1.3v-3.5l0.5-0.1v3.6c0,0.4,0,0.8-0.1,1c-0.1,0.2-0.2,0.4-0.3,0.6c-0.2,0.2-0.4,0.3-0.6,0.4
			c-0.3,0.1-0.6,0.2-0.9,0.2c-0.3,0-0.6-0.1-0.9-0.2c-0.3-0.1-0.5-0.2-0.6-0.4c-0.1-0.2-0.3-0.4-0.3-0.6c-0.1-0.2-0.1-0.6-0.1-1
			V25.6z"/>
		<path class="st0" d="M33.3,31.2v-5.6h0.7c0.6,0,1.1,0,1.4,0.1c0.3,0.1,0.6,0.2,0.9,0.4c0.4,0.3,0.7,0.6,0.9,1
			c0.2,0.4,0.3,0.8,0.3,1.3c0,0.9-0.3,1.5-0.8,2c-0.6,0.5-1.3,0.8-2.3,0.8H33.3z M33.8,26.1v4.7h0.7c0.8,0,1.4-0.2,1.8-0.6
			c0.5-0.4,0.7-1,0.7-1.7c0-0.7-0.2-1.3-0.7-1.7c-0.5-0.4-1.1-0.6-1.8-0.6H33.8z"/>
		<polygon class="st0" points="42.3,31.3 42.3,25.6 42.8,25.5 42.8,31.2 		"/>
		<path class="st0" d="M47.6,28.4c0-0.4,0.1-0.8,0.2-1.2c0.2-0.4,0.4-0.7,0.7-1c0.3-0.3,0.6-0.4,0.9-0.6c0.3-0.1,0.7-0.2,1.1-0.2
			c0.4,0,0.8,0.1,1.1,0.2c0.3,0.1,0.6,0.3,0.9,0.6c0.3,0.3,0.5,0.6,0.7,1c0.2,0.4,0.2,0.8,0.2,1.2c0,0.4-0.1,0.8-0.2,1.2
			c-0.2,0.4-0.4,0.7-0.7,1c-0.3,0.3-0.6,0.5-0.9,0.6c-0.3,0.1-0.7,0.2-1.1,0.2c-0.4,0-0.8-0.1-1.1-0.2c-0.3-0.1-0.6-0.3-0.9-0.6
			c-0.3-0.3-0.5-0.6-0.7-1C47.7,29.2,47.6,28.8,47.6,28.4 M48.1,28.4c0,0.7,0.2,1.3,0.7,1.7c0.5,0.5,1,0.7,1.7,0.7
			c0.7,0,1.2-0.2,1.7-0.7c0.5-0.5,0.7-1.1,0.7-1.7c0-0.7-0.2-1.3-0.7-1.7c-0.5-0.5-1-0.7-1.7-0.7c-0.7,0-1.3,0.2-1.7,0.7
			C48.4,27.1,48.1,27.7,48.1,28.4"/>
		<path class="st1" d="M43.2,23.5c0,0.3-0.3,0.6-0.6,0.6c-0.3,0-0.6-0.3-0.6-0.6c0-0.3,0.3-0.6,0.6-0.6
			C42.9,22.9,43.2,23.1,43.2,23.5"/>
		<rect x="8.5" y="23.3" class="st0" width="33.1" height="0.4"/>
		<rect x="43.5" y="23.3" class="st0" width="10" height="0.4"/>
		<path class="st2" d="M50.6,30.2c-0.1,0-0.3,0-0.5-0.1c-0.1,0-0.1-0.1-0.1-0.1c0-0.1,0.1-0.2,0.2-0.2c0.1,0,0.1,0,0.2,0
			c0.1,0,0.1,0,0.2,0c0.1,0,0.1,0,0.2,0c0.1,0,0.2,0,0.3-0.1c0.1,0,0.2-0.1,0.3-0.2c0.1-0.1,0.2-0.2,0.3-0.3
			c0.1-0.1,0.2-0.2,0.2-0.4c0-0.1,0.1-0.2,0.1-0.3c0-0.1,0-0.2,0-0.3c0-0.1,0-0.2,0-0.3c0-0.1,0-0.1,0-0.2c0,0,0.1-0.1,0.2,0
			c0.1,0,0.1,0.1,0.1,0.1c0,0.1,0,0.2,0,0.3c0,0.1,0,0.2,0,0.3c0,0.2,0,0.3-0.1,0.5c-0.1,0.2-0.2,0.3-0.3,0.4
			c-0.2,0.2-0.4,0.4-0.6,0.5c-0.1,0.1-0.3,0.1-0.5,0.2C50.8,30.2,50.7,30.2,50.6,30.2"/>
	</g>
</g>
</svg>
