<?xml version="1.0" encoding="utf-8"?>
<!-- Generator: Adobe Illustrator 24.0.1, SVG Export Plug-In . SVG Version: 6.00 Build 0)  -->
<svg version="1.1" id="Calque_1" xmlns="http://www.w3.org/2000/svg" xmlns:xlink="http://www.w3.org/1999/xlink" x="0px" y="0px"
	 viewBox="0 0 500 399" style="enable-background:new 0 0 500 399;" xml:space="preserve">
<style type="text/css">
	.Ombre_x0020_portée{fill:none;}
	.Lueur_x0020_externe_x0020_5 pt{fill:none;}
	.Néon_x0020_bleu{fill:none;stroke:#8AACDA;stroke-width:7;stroke-linecap:round;stroke-linejoin:round;}
	.Ton_x0020_clair_x0020_chrome{fill:url(#SVGID_1_);stroke:#FFFFFF;stroke-width:0.3629;stroke-miterlimit:1;}
	.Swing_GS{fill:#FFDD00;}
	.Alysse_GS{fill:#A6D0E4;}
</style>
<linearGradient id="SVGID_1_" gradientUnits="userSpaceOnUse" x1="0" y1="-101" x2="6.123234e-17" y2="-102">
	<stop  offset="0" style="stop-color:#656565"/>
	<stop  offset="0.618" style="stop-color:#1B1B1B"/>
	<stop  offset="0.6292" style="stop-color:#545454"/>
	<stop  offset="0.9831" style="stop-color:#3E3E3E"/>
</linearGradient>
<g>
	<g id="professional-indian-man-videographer-with-gimball-video-slr-ronin-isolated-studio-background.psd_2_">
		<g>
			<path d="M247.7,55c0.9-0.4,1.7-0.9,2.7-0.9c0.1,0,0.4-0.1,0.4-0.2c0.5-0.6,1.2-0.6,1.9-0.9c0.1-0.6,0.4-1.1,1.2-1.4
				c-0.2-0.2-0.3-0.3-0.4-0.4c-0.1-0.1-0.2-0.2-0.4-0.3c0.9-0.8,1.7-1.3,2.9-1.2c0.4,0,0.9,0,1.3-0.2c0.5-0.2,0.9,0.2,1.5,0.1
				c1.4-0.5,2.9-0.7,4-1.8c0.1-0.1,0.3-0.1,0.4-0.2c0.7-0.3,1.4-0.5,2.1-0.8c0-0.4,0-0.8,0-1.2c0.3-0.1,0.6-0.1,0.8-0.2
				c1-0.1,1-0.1,2.3-1c0.3-0.2,0.7-0.3,1.1-0.5c0.3-0.1,0.5-0.1,0.8-0.2c0.2-0.1,0.4-0.3,0.5-0.4c0.5,0,1,0,1.6,0
				c0.1-0.2,0.2-0.4,0.3-0.6c0.1-0.2,0.1-0.4,0.1-0.7c0.9-0.3,1.4,0.5,2.2,0.7c0.3-0.1,0.7-0.2,1.1-0.4c0,0,0,0-0.1,0.1
				c0,0,0.1,0,0.1,0c0.1-0.1,0.3-0.2,0.4-0.2c0.6,0.1,1.2,0.2,1.7-0.3c0.2-0.2,0.8-0.2,1.1-0.2c0.4-0.1,0.9-0.2,1.5-0.3
				c1,0.5,2.2,1.2,3.7,0.7c0.1,0.1,0,0.4,0.3,0.2c-0.1,0-0.2-0.1-0.3-0.1c0.1-0.2,0.2-0.5,0.4-0.4c0.4,0.1,0.7,0.2,1.1,0.4
				c0.2-0.1,0.4-0.2,0.6-0.4l0,0c0.1,0,0.2,0,0.3,0.2c0,0,0,0,0.1,0c0,0-0.1,0-0.1,0c0-0.1,0-0.2,0.1-0.3c0.2-0.7,0.6-0.9,1.1-0.5
				c0.3,0.2,0.6,0.4,0.8,0.6c0.9,1,2.1,1.6,3.2,2.3c0.4,0.3,0.9,0.4,1.4,0.4c0.7,0,1.3,0.3,2,0.3c0.9,0.1,1.8,0.1,2.6,0.7
				c0.7-0.2,1.3,0.3,1.9,0.5c0.6,0.1,1.2,0.2,1.9,0.3c0.5,0.1,1,0.2,1.5,0.3c0.2,0,0.4-0.1,0.7-0.1c0.6,0.6,1.2,1.1,2.2,1.2
				c0.4-0.1,0.7-0.7,1.3-0.6c0.1,0,0.2-0.3,0.3-0.5c0.5,0,1.1-0.1,1.6,0c0.5,0.1,1,0.3,1.5,0.4c0.8,0.3,1.6,0.7,2.4,1
				c0.6,0.2,1.2,0.4,1.7,0.8c0.8,0.6,1.7,0.8,2.7,0.9c1.5,0.1,3,0.4,4.4,1.1c0.9,0.4,2,0.5,2.8,1.1c0.3,0.2,0.7,0.4,1,0.6
				c1.2,0.9,2.3,1.9,3.4,2.8c0.3,0.3,0.6,0.4,1,0.6c0.8,0.3,1.7,0.7,2.4,1.2c0.5,0.3,0.8,0.7,1.3,1.1c0.3,0.2,0.6,0.5,0.8,0.8
				c0.2,0.5,0.6,1,0.9,1.4c0.2,0.2,0.4,0.5,0.6,0.5c0.4,0.1,0.6,0.4,0.7,0.6c0.7,1.3,1.5,2.6,2.2,3.9c0.7,1.3,0.8,2.7,1,4.1
				c0,0.6,0,1.2,0.1,1.8c0.6,0.4,1.2,0.3,1.7,0.2c1,0,1.2-0.3,1-1.2c-0.2-1.1-0.4-2.1-0.5-3.2c0-0.3-0.1-0.6-0.1-0.8
				c0-0.8,0.2-1.2,1-1.6c0.4-0.1,0.8-0.2,1.1-0.3c2.5-0.6,7.1-1.1,10.1-0.7c0.2-0.2,0.5-0.4,0.7-0.6c1.1-0.9,2.3-0.9,3.6-0.7
				c0.3,0.1,0.7,0.2,0.9,0.5c0.5,0.5,1.2,0.6,1.9,0.7c1.4,0.1,2.7,0.3,4.1,0.5c1.2,0.2,2.1,0.8,2.6,2c1.1,0.1,2.2,0.3,2.5,1.6
				c-0.2,0.9-0.9,1.5-1.4,2.1c-0.1,0.2-0.3,0.3-0.4,0.5c-0.3,0.5,0,1.2,0.5,1.2c1,0.1,2.1,0,3.1,0.1c0.6,0,1.3,0,1.9,0.1
				c0.8,0.1,1.1,0.4,1.2,1.2c0.1,1,0.2,1.9,0.2,2.9c0,0.5-0.2,0.7-0.8,0.9c-0.8-0.5-1.7-0.6-2.7-0.4c-1.2,0.2-2.4,0.3-3.6,0.4
				c-0.3,0-0.5,0.1-0.7,0.1c-0.4,0.4-0.4,0.9-0.3,1.4c0.1,0.6,0.7,1.2,1.3,1.2c0.7,0,1.3,0.1,2-0.1c0.5-0.2,1-0.2,1.5-0.2
				c0.5,0,1,0.1,1.5,0.1c0.4,0,0.9-0.2,1.4-0.3c0.1,0.3,0.3,0.5,0.4,0.8c0,0.6,0,1.3,0,1.9c0,0.7-0.1,1.4-0.1,2c0,0.7,0,1.5-0.1,2.2
				c-0.1,0.7-0.4,1.4-0.6,2.2c0.2,0.2,0.4,0.4,0.7,0.7c2,1.7,4.4,2.8,7,3.5c1.3,0.3,2.6,0.8,3.8,1.4c1.9,1,3.2,2.5,3.9,4.5
				c0.4,1.1,0.6,2.2,0.9,3.3c0.3,1.4,0.7,2.7,1.5,4c0.5,0.9,0.9,2,1.2,3c0.3,1.1,0.6,2.3,0.8,3.5c0.6,3.3,1.2,6.6,2.1,9.9
				c0.7,2.8,1.3,5.6,2,8.3c1.3,5.1,3.1,10,5.3,14.8c0.5,1,1.1,2,1.7,3c0.7,1.1,1.4,2.2,2,3.4c1.1,2.1,2.1,4.2,3.2,6.2
				c0.2,0.4,0.5,0.6,0.9,0.8c0.6,0.3,1.2,0.7,1.8,1c0.9,0.6,1.7,1.2,2.5,2c1.1,1.1,2.1,2.4,3.2,3.6c1.1,1.2,1.8,2.8,2.4,4.3
				c0.7,1.7,1.6,3.4,2.6,5c0.7,1.1,1.2,2.2,1.8,3.3c1.2,2.3,2.4,4.5,3.7,6.7c1.5,2.6,3,5.1,4.1,7.9c0.6,1.5,1.6,2.8,2.9,4
				c3.2,2.7,5.9,5.9,8.3,9.3c1.5,2.1,2.9,4.4,4.1,6.7c1.4,2.6,2.9,5.1,4.3,7.6c0.2,0.3,0.3,0.6,0.5,0.9c1.5,3.8,3.1,7.6,4.8,11.3
				c1,2.1,1.5,4.3,2.1,6.5c0.9,3.2,1.3,6.5,2,9.7c0.6,2.8,1,5.6,1.3,8.4c0.4,2.9,0.7,5.7,1.1,8.6c0.3,2.4,0.6,4.8,1,7.3
				c0,0.2,0,0.5,0,0.7c-0.1,0.8-0.2,1.7-0.3,2.5c-0.1,0.6-0.2,1.2,0.2,1.8c-0.3,0.6-0.8,1.1-0.6,1.8c0,0.2,0,0.3-0.1,0.5
				c-0.5,1.4-0.6,2.9-0.8,4.3c-0.2,0.8-0.3,1.7-0.5,2.5c-0.5,1.8-0.9,3.6-1.4,5.5c-0.4,1.4-0.9,2.7-1.6,4c-0.5,0.9-1.2,1.8-2.1,2.5
				c-1.5,1.2-3.2,2.2-5.1,2.7c-1.7,0.4-3.3,0.9-4.9,1.4c-0.3,0.1-0.6,0.2-0.8,0.3c-1.1,0.7-2.3,0.9-3.6,1c-1.4,0.2-2.8,0.4-4.2,0.6
				c-0.2,0-0.3,0-0.5,0c-0.9,0-1.7,0-2.6,0c-2.4-0.1-4.8,0-7.2-0.3c-1.8-0.2-3.6-0.6-5.4-1c-1.5-0.3-2.9-0.6-4.3-0.9
				c-2.1-0.5-4.2-0.9-6.3-1.4c-4-0.9-7.9-1.9-11.8-3c-3.2-0.9-6.4-1.8-9.6-2.6c-4-1-8.1-2-12.1-2.8c-2.4-0.5-4.8-0.9-7.2-1.4
				c-1.6-0.3-3.2-0.3-4.8-0.5c-0.2,1-0.2,1.9-0.2,2.7c0,2.9,0,5.8,0,8.7c0,0.7-0.1,1.5-0.1,2.2c-0.1,1.6-0.1,3.3-0.1,4.9
				c0,1.6,0,3.2,0.1,4.8c0,1.6,0,3.2,0.1,4.8c0.1,2.2,0.2,4.4,0.3,6.6c0.1,1.1,0,2.3,0.1,3.4c0.1,1.8,0.2,3.6,0.3,5.4
				c0.1,1.1,0.2,2.3,0.3,3.4c0.2,2.5,0.4,5,0.6,7.5c0.1,1.6,0.2,3.2,0.4,4.8c0.2,1.7,0.4,3.4,0.7,5.1c0,0.2,0.1,0.4,0.1,0.7
				c0.3,2.3,0.6,4.5,0.9,6.8c0.4,2.5,0.9,4.9,1.7,7.3c0.4,1,0.7,1.9,0.7,3c0,0.2,0.1,0.5,0.1,0.7c0.5,1.2,0.6,2.5,0.4,3.8
				c0.7,1.2,1.4,2.3,2,3.4c0.5,0.8,0.8,1.6,0.9,2.6c0.2,1.4,0.6,2.8,0.7,4.2c0,0.7,0.2,1.5,0.4,2.2c0,0.2,0.2,0.4,0.2,0.6
				c0.3,2.2,0.5,4.4,0.8,6.6c0.1,0.7,0.2,1.3,0.3,2c-87.8,0-175.7,0-263.5,0c0.7-2.3,1.4-4.6,2.1-6.9c0.5-1.8,1-3.6,1.5-5.4
				c0.2-0.9,0.3-1.8,0.6-2.7c0.2-0.9,0.5-1.7,0.8-2.6c0-0.1,0-0.3,0.1-0.3c1-0.7,1.2-2.1,2.2-2.7c0.5-0.3,0.7-0.8,0.9-1.4
				c0.4-1.1,0.7-2.3,1.4-3.3c0.1-0.2,0.2-0.4,0.2-0.6c0-0.9,0-1.8,0.6-2.6c0.1-0.1,0.1-0.4,0.1-0.7c0-1,0.4-2,0.8-2.9
				c0.7-1.4,1.3-2.9,1.9-4.4c0.7-2,1.1-4.2,1.5-6.3c0.3-1.7,0.7-3.3,1-5c0.4-2,0.6-4.1,1-6.1c0.2-1.3,0.4-2.6,0.6-3.9
				c0.3-2.1,0.5-4.2,0.7-6.3c0.1-1.3,0.3-2.6,0.4-3.9c0.1-1.5,0.1-3,0.2-4.4c0.1-1.3,0.2-2.6,0.3-3.9c0.1-1.9,0.1-3.8,0.2-5.6
				c0.2-2.8-0.1-5.7,0.1-8.5c0.1-1.9-0.1-3.7-0.1-5.6c0-0.3-0.2-0.7-0.4-0.9c-0.3-0.4-0.4-0.8-0.4-1.3c0.1-1-0.1-2.1,0.4-3
				c0.1-0.2,0.1-0.6,0.1-0.8c0-1.8-0.1-3.6-0.2-5.5c-0.4,0-0.6,0-0.9,0.1c-3.9,1-7.8,2.1-11.8,3.1c-3.4,0.9-6.7,1.7-10.1,2.5
				c-2.6,0.6-5.1,1.1-7.8,1.1c-0.5,0-0.9,0.1-1.4,0.2c-0.5,0.1-0.9,0.2-1.4,0.2c-3.1,0.1-6.2,0.6-9.3,0.9c-1.6,0.2-3.2,0.3-4.8,0.5
				c-0.9,0.1-1.8,0.2-2.7,0.4c-2.1,0.3-4.3,0.5-6.4,0.7c-1.8,0.2-3.5,0.4-5.3,0.5c-1.4,0.1-2.7,0.1-4.1,0.2c-2,0.1-4,0.2-6,0.1
				c-1.9,0-3.8-0.2-5.6-0.3c-0.8-0.1-1.6-0.1-2.4-0.2c-1.6-0.2-3.3-0.4-4.9-0.5c-1.6-0.2-3.2-0.3-4.8-0.5c-0.8-0.1-1.7-0.3-2.5-0.4
				c-2-0.4-3.5-1.6-5-2.9c-1.9-1.6-3.3-3.6-4.8-5.6c-1.2-1.5-2.1-3.1-3.1-4.7c-1.2-2.1-1.9-4.4-2.6-6.7c-0.4-1.3-0.8-2.6-1.2-3.9
				c-0.5-1.9-1.1-3.7-1.3-5.6c-0.5-3.9-0.5-7.8-0.1-11.8c0-0.4,0-0.8,0-1.2c-0.4-2.4-0.9-4.7-1.3-7.1c-0.4-2.7-0.8-5.4-0.8-8.2
				c0-1.6,0-3.2,0.1-4.8c0.1-2.3,0.4-4.7,0.9-6.9c0.3-1.2,0-2.4-0.5-3.5c-0.2-0.5-0.4-0.9-0.4-1.5c-0.1-2.8-0.8-5.5-1.3-8.2
				c-0.5-2.6-0.9-5.2-1.4-7.7c-0.1-0.6-0.3-1.2-0.4-1.8c-0.2-0.8-0.3-1.7-0.5-2.5c-0.3-0.9-0.6-1.9-1-2.7c-0.6-1.1-0.5-2.1,0.2-3
				c0.4-0.5,0.8-1,1.2-1.4c0.7-0.6,1.2-1.4,1.6-2.2c0.9-1.7,1.7-3.3,2.4-5.1c0.6-1.5,1.4-2.9,2.5-4c1.6-1.8,3-3.8,4.4-5.7
				c1-1.4,2.2-2.6,3.3-3.9c1-1.3,2.4-2.3,3.5-3.4c0.8-0.8,1.6-1.6,2.6-2.2c0.1-1.3,0.2-2.6,0.4-3.9c0.2-1.2,0.6-2.4,0.9-3.7
				c-0.6-1.3-1.2-2.6-1.9-3.8c-1.1-2-1.7-4.1-2-6.3c-0.3-2.1-0.5-4.3-1.5-6.3c-0.2-0.5-0.3-1.1-0.3-1.7c0.1-1.9,0.2-3.9,0.5-5.8
				c0.1-0.9,0.1-1.8-0.2-2.7c-0.5-1.4-1-2.8-1.4-4.2c-0.2-0.5-0.3-1-0.4-1.5c-0.4-1.7,0-3.2,1.2-4.4c0.3-0.3,0.6-0.6,0.9-0.8
				c0.8-0.7,1.2-1.5,1.3-2.5c0.2-1.4-0.1-2.7-0.2-4.1c-0.1-0.7-0.2-1.4,0-2c0.4-2.2,1.7-3.8,3.7-4.8c0.7-0.3,1.4-0.5,2.1-0.7
				c0.3-0.1,0.7-0.1,1-0.2c0.9-0.2,1.5-0.8,1.7-1.7c0.1-0.4,0.2-0.9,0.3-1.3c0.9-2.6,2.3-4.7,4.5-6.3c0.8-0.6,1.5-1.2,2.1-2
				c0.5-0.6,1-1.2,1.6-1.8c1-1,2-2,3-3c1-1.1,2.2-1.6,3.7-1.5c0.7,0.1,1.4,0.2,2.2,0.2c0.1-1.8,0.4-3.4,0.8-5
				c-0.1-0.1-0.1-0.2-0.1-0.2c-1.1-0.4-1.4-1.3-1.2-2.3c0.1-0.3,0.1-0.7,0.1-1.1c-1.5-1.2-1.8-2.9-2.1-4.7c-0.2-1.4-0.4-2.7-0.2-4.1
				c0.2-0.3,0.5-0.7,0.8-1.1c-0.1-0.3-0.1-0.5-0.2-0.7c-0.6-1.6-0.2-3,0.5-4.4c0.2-0.5,0.6-0.8,1.2-0.9c0.5-0.1,1-0.1,1.5-0.2
				c0.4,0,0.8-0.1,1.2-0.2c0.1-0.5,0.2-0.9,0.3-1.3c0.2-1.2,0.4-2.4,0.6-3.5c0.2-1.1,0.6-1.5,1.7-1.6c1.2-0.1,2.4-0.2,3.7-0.3
				c0.4-0.6,0.3-1.3,0.1-2c-0.5-1.9-0.8-3.8-1.7-5.5c-0.3-0.6-0.2-1.2,0.2-1.8c0.3-0.4,0.6-0.5,1.1-0.4c0.5,0.1,0.7,0.4,0.8,0.8
				c0.1,0.4,0.1,0.9,0.3,1.3c0.1-0.5,0.1-1.1,0.2-1.6c1.1,0.3,1.4,0.6,1.3,1.4c-0.3,2.4,0.7,4.5,1.3,6.7c0.1,0.5,0.4,1,1,1.3
				c0.4,0,1,0,1.6,0c3.7,0,7.3,0.1,10.9,0.4c1.1,0.1,2.2,0.2,3,1.3c0.2,0.8-0.1,1.7-0.2,2.6c-0.1,0.8-0.3,1.7-0.4,2.4
				c0.3,0.6,0.8,0.5,1.2,0.5c1.9,0,3.9,0.1,5.8,0.1c3.9,0,7.9,0,11.8,0.1c2.6,0,5.1,0.1,7.7,0.2c1.9,0,3.8,0,5.6,0.1
				c3.9,0,7.9,0,11.8,0.1c2.6,0,5.1,0.1,7.7,0.1c2,0,4,0.1,6,0.1c3,0,6,0.1,9.1,0.1c2.5,0,5,0,7.5,0c2.6,0,5.2,0.2,7.9,0.2
				c2.7,0,5.4,0,8.1,0c0.2-0.2,0.5-0.4,0.7-0.6c0.8-0.7,1.7-1.1,2.8-1.2c0.2,0,0.3,0,0.5-0.1c3.6-0.2,7.2-0.4,10.8-0.6
				c0.9-0.1,1.6,0.2,2.1,0.9c1.3-0.4,2.6-0.4,3.9-0.4c3.4-0.1,6.8-0.2,10.3-0.3c0.4,0,0.9-0.1,1.3-0.2c0.1-0.2,0.2-0.4,0.2-0.5
				c0.4-5.4,0.7-10.8,1.1-16.3c-0.2-0.1-0.4-0.3-0.6-0.4c-2.6-1.2-4.4-3.2-5.6-5.8c-0.6-1.2-1.1-2.5-1.1-3.9c0-0.6-0.2-1.1-0.6-1.6
				c-0.8-1.1-1.6-2.2-2.7-3c-1.5-1.1-2.7-2.4-3.5-3.9c-1.7-3.1-2.5-6.4-1.6-9.9c0.1-0.4,0.2-0.8,0.4-1.1c0.1-0.1,0.3-0.1,0.4-0.2
				l0,0c-2.1,5.7,0.8,12.3,6.5,14.3c4.8,1.7,10.7,0.2,13.6-4.9c2.1-3.7,2.2-7.5,0.5-11.3c-0.1-0.2-0.2-0.4-0.3-0.6l0,0
				c0.1,0,0.3,0,0.3,0c1.2,1.4,1.8,3,2.1,4.8c0.1,0.6,0.2,1.1,0.3,1.7c0.1,0.7,0.3,1.4,0.7,2.1c0.2,0.4,0.4,0.8,0.6,1.2
				c0.1,0.3,0.2,0.7,0.4,0.9c0.7,0.8,1,1.7,1.2,2.4c0.6,0.6,1,1.1,1.5,1.6c1.2,1.4,2,2.9,2,4.8c0,0.5,0,1,0,1.5
				c0,0.4,0.1,0.8-0.2,1.2c-0.2,0.3-0.2,0.6,0,1c0.3,0.6,0.1,1.2-0.1,1.8c-0.6,2.1-1.7,3.9-3,5.5c-0.9,1.1-1.3,2.2-1.3,3.6
				c0,1.1-0.1,2.3-0.1,3.4c-0.1,2.7-0.3,5.5-0.5,8.2c0,0.8-0.1,1.6-0.2,2.4c0,0.4,0.1,0.8,0.1,1.2c0.4,0,0.7,0.1,1.1,0.1
				c1.9,0.1,3.9,0.1,5.8,0.1c0.8,0,1.7,0.1,2.7,0.2c0.5-0.6,1.2-0.8,2.1-0.8c0.7,0,1.5,0.1,2.2,0.1c0.7,0,0.9-0.1,1.2-0.9
				c0.2-0.5,0.5-1,0.9-1.5c0-0.2-0.1-0.5-0.1-0.7c0.1-0.6,1-0.5,0.8-1.2c-0.1-0.5-0.3-1-0.4-1.4c0.6-0.7,1.1-1.2,2-1.6
				c0.6-0.2,1.1-0.8,1.6-1.1c0.2-0.4-0.2-0.8,0.1-1.1l0,0c0,0-0.1-0.1,0-0.1c0-0.1,0.1-0.1,0.1-0.2l-0.1-0.1c0.2-0.6,0-1-0.5-1.5
				c0.3-0.2,0.6-0.4,0.9-0.5c0.5-0.2,1-0.5,1.2-1C246.8,55.6,247.3,55.3,247.7,55L247.7,55z M63.4,168L63.4,168L63.4,168z
				 M264.2,159.4L264.2,159.4L264.2,159.4z M424.9,235.8L424.9,235.8L424.9,235.8L424.9,235.8L424.9,235.8z M280.7,65.2L280.7,65.2
				L280.7,65.2C280.7,65.3,280.7,65.2,280.7,65.2z M283.4,63.8L283.4,63.8c-0.1-0.1-0.1-0.2-0.1-0.3c0-0.1-0.1-0.1-0.2-0.1
				c0,0.1,0,0.2,0.1,0.2C283.2,63.8,283.3,63.8,283.4,63.8z M254.8,73.2c0.3,0.1,0.6,0.1,0.9,0.2c-0.3,0.7,0.5,1.1,0.5,1.6
				c-0.2,0.4-0.5,0.5-0.7,0.4c-0.6-0.1-1.2-0.3-1.8-0.5c-0.6-0.3-1.2-0.7-1.8-1c-0.2-0.1-0.5,0-0.8,0c-0.1,0.6-0.2,1.1-0.3,1.6
				c-0.3,1.1-0.2,2.3-0.2,3.4c0,0.9,0.5,1.4,1.3,1.7c0.4,0.1,0.8,0.1,1.1,0.2c1-1.2,1-1.2,2.2-0.9c0.6,0.1,1.1,0.2,1.6,0.6
				c0.4,0.4,0.9,0.4,1.5,0.2c0.1-0.2,0.3-0.4,0.5-0.6c0.2-0.2,0.5-0.4,0.7-0.3c0.8,0.2,1.7,0,2.4,0.7c0.4,0.4,1,0.5,1.6,0.4
				c0.4-0.3,0.8-0.7,1.3-1.1c0.9,0.3,1.8,0.2,2.6,0.8c0.5,0.4,1.1,0.3,1.5-0.2c0.3-0.3,0.6-0.6,1-0.5c0.7,0,1.4,0,2,0.5
				c0.6,0.5,1.2,0.6,2,0.5c0.6-1,1.5-1.1,2.6-0.8c0.3,0.1,0.5,0.2,0.8,0.4c1.1,0.6,1.2,0.6,2.2-0.2c0.2-0.1,0.4-0.3,0.6-0.4
				c0.6,0.1,1.2,0.2,1.8,0.4c0.3,0.1,0.6,0.4,0.9,0.5c0.6,0.3,1.1,0.3,1.6-0.2c0.6-0.7,1.3-0.7,2-0.4c0.5,0.2,1,0.2,1.4,0.5
				c0.6,0.4,1.3,0.4,1.9-0.2c0.5-0.5,1.1-0.6,1.7-0.4c0.6,0.2,1.2,0.2,1.7,0.6c0.4,0.4,0.9,0.4,1.4,0.3c0.1-0.1,0.2-0.1,0.3-0.2
				c0.4-0.7,1-0.9,1.7-0.7c0.6,0.2,1.3,0.3,1.9,0.6c0.5,0.3,1.1,0.3,1.5-0.2c0.5-0.6,1.1-0.6,1.7-0.4c0.5,0.2,1.1,0.2,1.6,0.6
				c0.5,0.5,1.2,0.5,1.7,0c0.7-0.7,1.3-0.7,2.2-0.5c0.6,0.1,1.1,0.2,1.6,0.6c0.5,0.3,1,0.3,1.4-0.1c0.6-0.8,1.3-0.8,2.2-0.5
				c0.6,0.2,1.2,0.3,1.7,0.7c0.2,0.1,0.5,0.1,0.8,0.1c0.3-0.4,0.5-0.7,0.8-1c1.2-0.1,2.4,0.2,3.5,0.7c0.6,0.3,1.1,0.4,1.5-0.1
				c0.5-0.6,1.2-0.6,1.9-0.4c0.5,0.1,1,0.3,1.4,0.5c0.8,0.4,1.5,0.4,2.2-0.2c0.4-0.3,0.8-0.5,1.2-0.4c0.8,0.2,1.7,0.2,2.4,0.8
				c0.1,0.1,0.3,0,0.5,0.1c0.2-0.3,0.5-0.6,0.7-0.9c0.7-0.2,1.4-0.1,2,0.1c0.9,0.3,1.9,0.5,2.8,0.8c0.1,0,0.2-0.1,0.3-0.1
				c0-0.3,0.1-0.5,0.1-0.8c1.6-0.1,3,0.5,4.4,0.9c0.5-0.2,0.6-0.9,1.2-0.9c0.6,0,1.1,0,1.7,0.1c0.1,0,0.1,0,0.2,0.1
				c0.8,0.2,1.5,0.4,2.3,0.6c0.3-0.1,0.6-0.3,0.8-0.4c0.3-0.1,0.7-0.1,1-0.2c0.8-0.2,1-0.5,1-1.3c-0.1-0.9-0.4-1.7-1-2.3
				c-0.6-0.7-1.3-1.3-2.3-1.6c-0.4,1.1-1.4,0.9-2.3,0.9c-0.3,0-0.7-0.1-1-0.2c-0.6-0.1-1.1-0.2-1.7-0.3c-0.7,0.7-1.5,0.8-2.4,0.6
				c-0.5-0.1-1-0.2-1.5-0.3c-0.5-0.1-1-0.2-1.5-0.3c-0.5,0.7-1.2,0.8-2,0.7c-1.1-0.1-2.1-0.4-3.1-0.9c-0.3-0.1-0.5-0.2-0.8-0.3
				c-0.1,0-0.2,0.1-0.3,0.1c0.1,0.3,0.2,0.6,0.2,0.9c-0.1,0.1-0.2,0.2-0.3,0.2c-0.9,0-1.7,0-2.5-0.4c-0.6-0.3-1.2-0.4-2-0.3
				c-0.4,0.8-1.2,0.7-2,0.6c-1-0.1-1.8-0.7-2.7-1c-0.4-0.1-0.7-0.3-1.1-0.4c-0.2-0.1-0.5-0.1-0.5,0.3c0.2,0.1,0.4,0.2,0.5,0.4
				c0.1,0.1,0.2,0.3,0.1,0.4c0,0.1-0.2,0.2-0.4,0.3c-0.1,0.1-0.2,0.1-0.3,0.1c-1.4-0.1-2.7-0.4-3.9-1.1c-0.3-0.2-0.6-0.2-0.9-0.3
				c-0.1,0-0.2,0.1-0.3,0.2c0.2,0.3,0.3,0.5,0.5,0.9c-0.4,0.1-0.6,0.2-0.9,0.2c-1.3,0-2.6-0.5-3.8-0.7c-0.2-0.5-0.2-0.5-0.5-0.4
				c0.2,0.1,0.4,0.3,0.6,0.4c-0.2,0.6-0.6,1-1.2,0.9c-1-0.1-1.9,0-2.8-0.7c-0.5-0.3-1-0.6-1.5-0.8c-0.2-0.1-0.4-0.1-0.6,0.1
				c0,0.1,0,0.1,0,0.2c0.2,0.3,0.6,0.5,0.3,0.9c-0.2,0.2-0.5,0.3-0.7,0.3c-0.7-0.1-1.5-0.2-2.1-0.6c-0.6-0.4-1.2-0.7-1.8-1
				c-0.3-0.2-0.7-0.4-1.1,0c0,0.4,0.4,0.4,0.5,0.6c0.1,0.1,0.1,0.3,0.1,0.5c-0.1,0.1-0.2,0.2-0.4,0.3c-0.2,0-0.3,0-0.5,0
				c-1.3-0.2-2.4-0.6-3.5-1.2c-0.3-0.1-0.6-0.2-1-0.3c0,0-0.1,0.1-0.2,0.2c0.3,0.5,0.3,0.5,0.3,1.1c-0.8,0.3-1.7,0.1-2.5-0.2
				c-0.7-0.3-1.4-0.6-2.2-1c-0.2-0.1-0.4-0.2-0.6,0.1c0.1,0.1,0.2,0.3,0.2,0.4c0.1,0.5-0.1,0.8-0.5,0.8c-0.2,0-0.3,0-0.5,0
				c-1.2-0.1-2.3-0.6-3.3-1.2c-0.4-0.2-0.8-0.5-1.3-0.4c-0.1,0-0.1,0.1-0.2,0.2c0.2,0.3,0.4,0.6,0.7,0.9c-0.2,0.2-0.3,0.3-0.5,0.4
				c-0.8,0.1-1.6,0.1-2.3-0.3c-0.6-0.3-1.4-0.5-1.9-1.1c-0.2-0.2-0.6-0.3-0.8,0.2c0.1,0.1,0.3,0.2,0.3,0.4c0.1,0.2,0.2,0.4,0.1,0.6
				c-0.1,0.3-0.4,0.4-0.7,0.4c-0.1,0-0.2,0-0.3,0c-1.3-0.2-2.4-0.7-3.4-1.4c-0.3-0.3-0.7-0.4-1.2-0.1c0.1,0.2,0.2,0.4,0.2,0.6
				c0.1,0.5-0.1,0.8-0.6,0.8c-0.8-0.1-1.6,0-2.3-0.5c-0.6-0.4-1.2-0.6-1.8-1c-0.3-0.2-0.7-0.5-1.2-0.4c-0.3,0.9,0.8,0.9,0.7,1.6
				c-0.1,0.1-0.3,0.3-0.5,0.3c-0.7,0.1-1.5,0.1-2.1-0.3c-0.7-0.5-1.6-0.6-2.2-1.2c-0.3-0.3-0.8-0.3-1.3-0.5c0,0.3,0,0.5,0.1,0.6
				c0.2,0.2,0.5,0.3,0.6,0.6c0.1,0.2,0.2,0.4,0.2,0.6c-0.1,0.2-0.3,0.4-0.5,0.4c-0.8,0.1-1.6,0-2.3-0.4c-1-0.6-2.1-1.1-3.1-1.7
				C255.4,73.3,255.1,73.3,254.8,73.2C254.7,73.1,254.7,73,254.8,73.2C254.6,73,254.7,73.1,254.8,73.2z M280.1,116.8
				c0.3,0,0.6,0.1,0.6-0.5C280.4,116.4,280.3,116.6,280.1,116.8c0,0.3,0.1,0.5,0.1,0.8C280.6,117.2,280.2,117,280.1,116.8z
				 M279.1,66.7c0-0.2,0.1-0.4,0.1-0.6c0,0-0.1,0-0.1,0C279.1,66.4,279.1,66.5,279.1,66.7c0.2,0.2,0.3,0.5,0.6,1
				C279.7,67.1,279.7,67.1,279.1,66.7z M227.1,38.4c0.4-0.4,0.4-0.8,0.2-1.3C227.2,37.6,227.1,38,227.1,38.4c0,0.1,0,0.2,0,0.2
				C227.1,38.6,227.1,38.5,227.1,38.4z M420.5,233.5c0.3,0.1,0.6,0.3,0.9,0.3c0.3,0,0.5-0.1,0.5-0.5
				C421.1,233,421.1,233,420.5,233.5c-0.1,0.1-0.2,0.1-0.3,0.1C420.3,233.5,420.4,233.5,420.5,233.5z M303.9,132.7
				c0.5,0.4,0.5,0.4,0.9,0.2C304.4,132.8,304.1,132.8,303.9,132.7c-0.3-0.8-1.2-0.8-1.7-1.2c-0.7-0.7-0.6-1.8-1.4-2.5
				c-0.9,0.3-1.9,0.5-2.9,0.8c0.4,0.6,1,0.8,1.6,1.1c0.7,0.3,1.3,0.7,1.9,1l0,0c-0.3-0.1-0.7-0.1-1-0.2c-0.8-0.1-1.6-0.4-2.3-0.4
				c-0.9,0-1.7-0.1-2.5-0.2c-0.2,0-0.4-0.1-0.5,0c-0.1,0-0.3,0.2-0.3,0.3c0,0.1,0.1,0.3,0.1,0.5c0.1,0.1,0.2,0.1,0.3,0.2
				c1.3,0.2,2.6,0.4,3.9,0.6c0.8,0.1,1.7,0.3,2.6,0.4c0.2-0.1,0.6-0.2,1-0.3C303.1,132.8,303.5,132.8,303.9,132.7z M236.1,122.1
				c0.2-0.8,0.3-1.7,0.5-2.5c0.2-1.2,0.5-2.4,0.7-3.7c0.1-0.4-0.1-0.7-0.5-0.8c-0.4-0.2-0.8,0-1,0.3c-0.1,0.2-0.2,0.4-0.3,0.6
				c-0.1,0.3-0.1,0.6-0.1,0.8c0,1.6,0,3.3,0,4.9c0,0.2,0.2,0.4,0.3,0.6C235.8,122.2,236,122.1,236.1,122.1c0,0.9-0.1,1.8-0.2,2.7
				c-0.2,1.8-0.2,3.7,0.6,5.4c0.6,1.2,1.2,2.4,2.7,2.8c0.5,0.1,0.9,0.5,1,1c0.2,0.7,0.6,1.2,1.2,1.6c0.4,0.2,0.8,0.6,1.2,0.3
				c0.3-0.3,0.2-0.7,0.1-1.1c0-0.2-0.1-0.3-0.2-0.5c-0.1-0.4-0.3-0.8-0.3-1.1c0-0.4,0.3-0.8,0.5-1.3c-0.4-1.3-0.2-2.6,0.2-3.9
				c0.1-0.5,0.3-1,0.4-1.5c0.2-0.9-0.1-1.4-1.1-1.4c-0.5,0-0.9,0.1-1.4,0c-0.5-0.1-1.1-0.1-1.5-0.5c-0.1-0.6,0.3-0.8,0.5-1.1
				c0.6-0.7,1.3-1.5,1.8-2.2c0.7-0.9,0.6-1.8,0-2.7c-0.6-0.8-1.2-1.6-1.8-2.4c-0.2-0.2-0.4-0.4-0.7-0.5c-0.5-0.3-1.2-0.1-1.4,0.4
				c-0.2,0.5-0.3,1-0.4,1.5c-0.3,1.1-0.5,2.2-0.8,3.3C236.7,121.2,236.5,121.7,236.1,122.1z M265.6,162.8c0.3-0.1,0.5,0,0.7,0.3
				c1,1.3,2.1,2.7,2.3,4.5c0.2,1.3,1.1,2.2,2.4,2.6c2.2,0.8,4.5,1.2,6.8,1.8c1.8,0.4,3.4,0,4.9-1c0.5-0.3,1.1-0.7,1.6-1
				c1.6-0.8,3.1-1.6,4.7-2.4c0.4-0.2,0.9-0.5,1-1c-0.1-0.5-0.5-0.5-0.8-0.5c-0.7-0.1-1.3-0.1-1.9-0.6c0.2-0.5,0.8-0.8,0.6-1.5
				c-0.5-0.5-1.1-0.6-1.8-0.7c-0.4,0-0.8,0-1.2-0.2c-0.9-0.5-1.8-0.7-2.8-0.7c-1.5-0.1-2.9-0.6-4.3-1c-0.8-0.2-1.7-0.4-2.5-0.7
				c-1.6-0.5-3.1-1.1-4.6-1.7c-0.2-0.1-0.3-0.1-0.5-0.1c-0.8,0.1-1.5-0.1-2.2-0.6c-0.5-0.3-1.5,0-1.9,0.4c0,0.2-0.1,0.4-0.1,0.6
				c-0.3-0.1-0.6-0.1-1-0.2c0.4,0.6,0.7,1,0.9,1.4c-0.3,0.2-0.5,0.5-0.8,0.7C265.3,161.9,265.5,162.4,265.6,162.8L265.6,162.8z
				 M117.8,73.6c0-0.1,0-0.2,0-0.3C117.8,73.4,117.8,73.5,117.8,73.6c0,0.3,0.3,0.8-0.2,1.1c-1.2,0-2.3-0.5-3.3-1
				c-0.7-0.3-0.9-0.2-1.3,0.5c-0.1,0.1-0.2,0.3-0.3,0.4c-1.5,0.2-2.7-0.8-4.1-1.1c-0.9,1-1.9,1.1-3.1,0.5c-0.5-0.2-1-0.4-1.4-0.5
				c-0.1,0-0.2,0-0.4,0c-0.3,0.2-0.6,0.5-1,0.8c-1.4,0-2.7-0.4-4-1c-1,0.9-2.2,1-3.4,0.5c-0.3-0.1-0.7-0.1-1-0.3
				c-0.6-0.4-1.1-0.3-1.6,0c-0.8,0.6-1.6,0.5-2.4,0.1c-0.4-0.2-0.8-0.3-1.3-0.5c-0.5-0.2-1-0.1-1.4,0.2c-0.4,0.4-0.9,0.7-1.3,1.1
				c-0.8,0.8-1.3,1.7-1.3,2.9c0,0.4,0.2,0.7,0.6,0.8c0.9,0.2,1.8,0.3,2.7,0.4c0.2,0,0.5,0,0.7-0.1c0.6-0.4,1.2-0.3,1.8-0.3
				c0.8,0.1,1.6,0.1,2.4,0.2c0.3,0,0.6,0,0.8,0c1.6-0.2,3.2-0.3,4.6,0.3c1-0.5,1-0.4,2-0.4c0.3,0,0.6,0.1,0.9,0
				c0.9-0.2,1.7,0.1,2.4,0.3c1.7-0.6,3.2-0.4,4.8,0c0.4-0.1,0.9-0.5,1.3-0.4c1.3,0.3,2.6-0.2,3.8,0.5c0.6-0.3,1.1-0.5,1.7-0.4
				c0.5,0.1,1.1-0.1,1.7,0c0.5,0.1,1.1,0.4,1.6,0.6c0.4-0.2,0.7-0.4,1-0.6c1.4,0,2.8,0.2,4,0.7c0.4-0.3,0.7-0.5,1.1-0.7
				c1.3,0.2,2.7,0.4,4.1,0.6c1-0.6,1-0.5,2.3-0.5c0.9,0,1.8,0.3,2.6,0.6c0.4-0.2,0.7-0.5,1-0.5c0.9-0.1,1.8-0.1,2.7,0
				c0.5,0.1,1,0.4,1.5,0.6c0.9-0.6,0.9-0.6,1.7-0.5c0.4,0,0.8,0,1.2,0.1c0.3,0,0.7,0.1,1,0.2c0.3,0.1,0.6,0.3,1,0.5
				c0.2-0.2,0.4-0.4,0.7-0.5c0.2-0.1,0.5-0.3,0.8-0.3c1.2,0.2,2.4,0.1,3.5,0.8c0.1,0.1,0.3,0.1,0.5,0.1c0.8-0.9,0.8-0.9,1.7-0.7
				c1,0.2,2,0.2,3,0.8c0.3-0.2,0.5-0.4,0.7-0.5c0.3-0.1,0.7-0.3,1-0.3c0.9,0.2,1.9,0.1,2.8,0.7c0.3,0.2,0.6,0.2,0.9,0.3
				c0.4-0.3,0.6-1,1.1-0.8c0.9,0.2,1.9,0,2.8,0.7c0.3,0.2,0.7,0.2,1.1,0.3c1.1-0.9,1.1-0.9,2.5-0.7c0.5,0.1,1,0.2,1.5,0.4
				c0.4,0.2,1,0.3,1.4,0.4c0.3-0.4,0.6-0.7,0.9-1.1c1.5,0.2,2.9,0.2,4.1,1.1c0.2-0.2,0.3-0.4,0.5-0.5c0.2-0.2,0.4-0.4,0.5-0.6
				c0.8,0.1,1.5,0.1,2.1,0.3c0.6,0.2,1.2,0.5,1.9,0.9c0.3-0.3,0.5-0.7,0.9-0.8c0.4-0.2,0.9-0.1,1.3-0.2c0.3-1.4,0.4-2.8,0-4
				c-1.1-0.6-2.1-1.1-3.1-1.6c-0.1,0-0.2,0.1-0.3,0.1c0,0.4,0.1,0.9,0.1,1.2c-0.5,0.5-1,0.3-1.4,0.2c-1.2-0.5-2.5-1-3.7-1.6
				c-0.3,0.2-0.1,0.4-0.1,0.6c0.1,0.7-0.2,1-0.8,0.9c-0.7-0.1-1.3-0.3-1.9-0.6c-0.4-0.2-0.7-0.4-1.1-0.5c-0.4-0.1-0.7-0.3-1-0.4
				c-0.1,0.1-0.2,0.1-0.2,0.2c-0.1,0.4-0.1,0.8-0.6,1c-0.4,0.2-0.8,0.2-1.2,0.1c-0.4-0.1-0.8-0.2-1.1-0.4c-0.3-0.2-0.6-0.5-1-0.5
				c-0.4-0.1-0.8-0.3-1.2-0.5c-0.2,0.6-0.3,1-0.4,1.5c-1.1,0.2-1.1,0.2-4.6-1.5c-0.6,0.4,0,1.1-0.6,1.6c-1.6,0-2.9-1.2-4.5-1.6
				c-0.1,0.5-0.2,1-0.2,1.4c-1,0.2-1,0.2-1.5,0c-1-0.4-2-0.9-2.9-1.3c-0.1,0-0.2,0-0.3,0.1c-0.1,0.5-0.1,1-0.2,1.4
				c-0.7,0.2-1.2,0-1.8-0.2c-0.9-0.5-1.8-0.9-2.7-1.3c-0.1,0-0.2,0-0.3,0.1c-0.2,0.5,0.3,1-0.1,1.5c-1.8,0-3.3-1.1-5-1.8
				c-0.6,0.5,0.1,1.2-0.1,1.8c-0.4-0.1-0.7-0.1-1.1-0.2c-0.3-0.1-0.5-0.2-0.8-0.3c-1-0.4-2-1-3.1-1.2c0.1,0.6,0.1,1.1,0.2,1.7
				c-1.5,0.1-2.6-0.8-3.9-1.4c-0.3,0.1-0.7,0.2-1.1,0.2c-0.1,0.3-0.2,0.6-0.3,0.9c-0.6,0.1-1.2,0-1.8-0.3c-0.5-0.2-1-0.5-1.5-0.7
				c-0.5-0.2-0.9-0.1-1.3,0.4c-0.1,0.2-0.2,0.4-0.3,0.5c-1.2,0.3-2.1-0.3-3-0.7C118.9,73.7,118.4,73.5,117.8,73.6z M242.2,189.3
				L242.2,189.3L242.2,189.3c0.2,0.6,0.4,1.2,0.5,1.8c0.3,1.2,0.6,2.3,0.8,3.5c0.1,0.3,0,0.6,0,0.9c-0.7,0.4-1.5,0-2.1,0.5
				c0,0.1-0.1,0.3,0,0.5c0.1,0.3,0.3,0.5,0.5,0.7c0.1,0.1,0.3,0.2,0.5,0.2c0.4,0.1,0.8,0.1,1.1,0.2c0.1,1.3-1.2,0.7-1.7,1.4
				c0,0.2-0.1,0.4,0,0.7c0,0.2,0.2,0.4,0.4,0.6c0.5,0.5,0.4,1.1,0.2,1.7c-0.2,0.7-0.9,1-1.3,1.6c-0.1,1.8-0.2,3.5-0.3,5.3
				c-0.2,4-0.4,8-0.5,12c0,0.3,0,0.7,0,1c0,0.7,0.3,1.2,1,1.4c0.5,0.2,1.1,0.2,1.7,0.3c0.8,0.1,1.6,0.2,2.4,0.3
				c0.1,0.5,0.1,1,0.2,1.5c0.2,0.1,0.4,0.2,0.5,0.2c1.8,0.2,3.6,0.3,5.4,0.5c0.7,0.1,1.5,0,2.2,0.2c1.1,0.3,2.1,0.4,3.2,0.3
				c1-0.1,1.9,0,2.6,0.9c0.1,0.1,0.2,0.2,0.3,0.2c1.4,0.4,2.6,1.4,4.2,1.3c0.7,0.7,1.3,1.3,1.9,1.9c0.5,0,0.5-0.4,0.6-0.7
				c0.2-1,0.3-2,0.5-3c0.1-0.7,0.2-1.3,0.5-2c2.1,0,4,0.4,6,0.7c2,0.4,3.9,0.7,5.8,1.1c0.5-0.3,0.7-0.7,0.8-1.2
				c0.1-0.5,0.2-1,0.4-1.5c0-0.2,0.2-0.3,0.3-0.4c0.5-0.1,0.9-0.2,1.3-0.3c0.1-0.2,0.2-0.5,0.2-0.7c0.3-2.2,0.5-4.4,0.7-6.6
				c0.4-3.4,0.5-6.8,1.3-10.2c0.3-1.2,0.5-2.4,0.8-3.7c0.2-0.8,0.3-1.7,0.4-2.5c0.1-0.6,0-1.1,0-1.7c0-0.4-0.2-0.6-0.7-0.7
				c-0.4,0.2-0.8,0.4-1.3,0.5c-1.5,0.5-2.9,1-4.4,1.3c-3,0.7-6.1,0.5-9.2,0.1c-5.5-0.7-10.9-1.9-16.2-3.3c-2.3-0.6-4.4-1.6-6.3-2.9
				c-1.4-1-2.8-2-4-3.2C243,189.6,242.7,189.2,242.2,189.3z M267.7,182.6c0.2-0.1,0.4-0.1,0.6-0.2c1.3,0.1,2.2,1.3,3.5,1.2
				c0.4-0.3,0.7-0.5,0.9-0.7c1.2,0.1,2.4,0.1,3.4,0.8c0.5,0.3,1,0.2,1.5-0.1c0.1,0,0.2,0,0.3,0c0.2,0.2,0.4,0.4,0.6,0.5
				c1.5-0.2,3,0.3,4.3-0.5c0.6,0.1,1.1,0.3,1.6,0.4c0.6,0.1,1.1-0.3,1.6-0.6c0.1-0.1,0.2-0.1,0.3-0.1c1.2-0.1,2-1.1,3.2-1.2
				c0.2,0,0.4-0.3,0.6-0.4c0.3-0.2,0.7-0.4,1-0.6c0.3-0.2,0.7-0.4,1-0.7c0.4-0.4,0.8-1,1.2-1.4c0.5-0.6,0.8-1.3,1.5-1.6
				c0.2-0.1,0.4-0.4,0.5-0.6c1.2-1.9,2.3-3.8,4.3-5c0,0,0.1-0.1,0.1-0.1c0.8-1,1.9-1.8,3.1-2.4c1.3-0.6,1.9-1.9,2.4-3.2
				c-0.2-1,0.5-1.6,1-2.3c-0.3-1.2,0.2-2.3,1.1-3c0.4-0.4,0.4-0.9,0.6-1.3c0.2,0,0.4-0.1,0.7-0.1c0.2-0.4,0.4-0.8,0.6-1.2
				c1.2-1.6,2-3.5,3.1-5.1c0.4-0.6,0.6-1.2,0.4-1.9c-0.1-0.6,0-1.2,0.6-1.5c0.6-0.3,0.8-0.8,1-1.3c0.8-2.3,1.9-4.5,2.6-6.9
				c0.3-1.3,0.4-2.6,0.6-3.9c0.1-0.6-0.1-1.2-0.7-1.7c-0.4-0.3-0.9-0.4-1.2,0c-0.3,0.3-0.5,0.6-0.6,1c-0.3,1-0.9,1.4-1.8,1.6
				c-0.3,0-0.6,0-0.9,0c-1.1,0-2.3,0-3.4,0c-1.2,0-2.3-0.1-3.3-0.7c-0.5-0.3-1.1-0.4-1.6-0.6c-2.3-0.6-4.3-1.8-6-3.4
				c-0.4-0.4-0.8-0.6-1.3-0.7c-0.4-0.1-0.8,0.1-0.9,0.5c-0.1,0.3,0.1,0.8-0.5,1c-0.8-0.5-1.5-1.4-2.6-1.6c-0.1,0.3-0.2,0.5-0.2,0.7
				c0,0.5,0,1,0,1.5c0,0.2-0.1,0.4-0.4,0.4c-0.5-0.3-0.4-0.8-0.5-1.2c-0.1-0.7-0.1-1.5-0.2-2.2c-0.1-0.7-0.1-1.5-0.2-2.2
				c0-0.7,0-1.4,0-2.1c0-0.5,0-1,0.2-1.5c0.2-0.4,0.3-0.8,0.2-1.2c-0.3-1,0.1-1.7,0.9-2.2c1.7-1.2,3.3-2.5,5.4-2.9
				c0.1,0,0.2-0.1,0.3-0.1c0.8-0.3,1.6-0.5,2.5-0.3c0.3,0.1,0.6,0,0.8,0c1.5-0.4,3.2,0.1,4.7-0.7c0,0,0.1,0,0.2,0
				c0.8,0.1,1.6-0.2,2.3-0.6c0.8-0.4,1.6-0.6,2.5-0.5c1,0.1,2,0.3,3,0.4c0.1,0,0.2,0,0.4,0c0.3-0.3,0.6-0.6,0.9-1
				c-0.3-0.4-0.5-0.7-0.7-1c-0.5-0.5-1.1-1-1.6-1.5c-0.6-0.6-0.6-1.2,0.1-1.7c0.1-0.1,0.2-0.1,0.3-0.2c0.8-0.4,1.3-1.1,1.7-1.8
				c0.4-0.7,0.5-1.1-0.1-1.7c-0.4-0.5-1-1-1.5-1.4c-0.3-0.2-0.6-0.4-0.8-0.6c-0.3-0.2-0.4-0.6-0.2-1c0.3-0.2,0.7-0.4,1.2-0.6
				c-0.2-0.5-0.4-0.8-0.6-1.2c0.1-0.2,0.1-0.3,0.2-0.4c1-1.2,1.7-2.6,1.5-4.2c0-0.1,0-0.2,0-0.3l0,0c0.2-0.4,0.2-0.7,0-1.1
				c-0.2-0.3-0.2-0.6-0.3-0.9l0,0c0.1-0.2,0.4-0.4,0.3-0.5c-0.1-0.5-0.3-1-0.8-1.2c-0.4-0.2-0.9-0.3-1.3-0.4l0,0
				c-0.2-0.2-0.4-0.4-0.7-0.3c-0.1,0.2-0.3,0.4-0.4,0.6c-1-0.1-2-0.2-3-0.4c-1.1-0.2-2.1-0.6-3.2-0.7c-1.5-0.2-3-0.8-4.5-0.6
				c-0.8,0.1-1.7,0.3-2.5-0.1c-2.2-0.1-3.2-0.3-4.8-1c-0.3,0.1-0.7,0.2-1,0.3c-0.5-0.2-1-0.4-1.4-0.4c-0.6,0-1.1-0.2-1.5-0.7
				c-0.4-0.5-0.9-1-1.7-0.8c-0.2,0-0.4-0.2-0.6-0.2c-0.5-0.2-1.1-0.4-1.6-0.5c-1.2-0.2-2.5-0.2-3.6-0.8c-0.2-0.1-0.6-0.1-0.8-0.1
				c-0.4-0.1-0.8-0.1-1.2-0.2c-0.5-0.2-0.9-0.1-1.3-0.1c-0.6,0.1-1.3,0.2-1.8,0c-0.9-0.4-1.9-0.4-2.8-0.5c-0.3,0-0.5-0.2-0.8-0.3
				l0,0c-0.3,0.1-0.7,0.2-1,0c-0.3-0.2-0.7-0.4-1.1-0.2c-0.9,0.3-1.8-0.1-2.7-0.2c-2-0.5-4-0.3-5.5,1.3c0,0.4,0,0.8-0.3,1.2
				c-0.2,0.2-0.5,0.7-0.4,0.9c0.2,0.6,0,1.2-0.3,1.6c-0.5,0.7-0.5,1.5-0.6,2.3c0,0.6,0,1.3,0,1.9c0,0.3,0,0.7-0.1,1
				c-0.6,1.2-0.6,2.5-0.1,3.8c-0.8,0.7-1.2,1.5-1.4,2.5c0,0.1-0.2,0.1-0.3,0.2c-0.2-0.1-0.3-0.3-0.5-0.4c-1.1,0.6-1.3,0.7-1.4,1.2
				c-0.1,0.7-0.5,1.1-0.9,1.6c-0.1,0.2-0.2,0.4-0.2,0.7c0.3,0.2,0.6,0.3,0.9,0.5c-1.6,1.9-1.6,1.9-1.8,3.1c1-0.4,1.9-0.7,2.6-1.5
				c0.3-0.3,0.7-0.6,1-0.9c0,0,0.1,0,0.1,0c0,0,0.1,0,0.1,0c-0.1,0-0.2,0-0.3,0c0.3-0.5,0.8-0.6,1.4-0.5c1.8,0,3.6,0.3,5.3,1
				c1.1-0.7,2.2-0.4,3.3,0c0.5,0.2,1,0.3,1.5,0.4c0.6,0,1.1,0.2,1.6,0.6c0.9,0.6,1.9,1.3,2.8,1.9c0.1,0,0.3,0,0.4,0
				c0.3,0.2,0.5,0.5,0.8,0.6c0.6,0.1,1.1,0.3,1.5,0.7c0.1,0.1,0.3,0.3,0.4,0.2c0.7-0.2,0.9,0.6,1.4,0.8c0.3-0.1,0.6-0.1,0.8-0.2
				c0.5,0.4,1,0.8,1.5,1.2c0.1,0.4,0.1,0.8,0.2,1c0.6,0.4,1.2,0.7,1.6,1c0.2,0.6,0.3,1.1,0.6,1.5c0.7,1.1,0.5,2.1-0.2,3.2
				c-0.9,1.4-2.2,2.5-3.3,3.6c-0.5,0.5-1.1,0.7-1.7,0.5c-0.9-0.3-1.4,0.2-1.8,0.7c-1.5-0.1-2.9-0.2-4.4-0.4c0,0-0.1,0-0.1,0.1
				c0,0,0,0.1,0,0.2c0.6,0.2,1.2,0.4,1.7,0.6c0.6,0.2,1.2,0,1.7,0.6c-0.2,0.1-0.3,0.3-0.4,0.3c-1.8,0.5-3.6,1-5.5,1.5
				c-3.4,0.8-6.6,0.3-9.6-1.3c-0.4-0.2-0.8-0.5-1.1-0.8c-0.9-0.9-1.8-1.8-2.6-2.7c-0.4-0.4-0.7-0.9-0.9-1.4
				c-0.3-0.6-0.6-1.3-1.1-1.7c-0.9-0.8-1.9-1.5-3.3-1c-0.5,1-1,2.1-1.5,3.2c-0.1,0.2-0.1,0.4-0.1,0.7c0,1.1,0.2,2.2,0.1,3.2
				c-0.1,1,0.2,1.8,0.6,2.6c0.3,0.5,0.6,1.1,0.7,1.7c0.2,1.1,0.2,2.1,0.2,3.2c0,0.4,0,0.8,0.1,1.2c0.2,0.7,0.2,1.4-0.1,2.2
				c-0.3,0.6-0.2,1.2,0.2,1.8c0.5,0.8,0.8,1.6,1.1,2.5c0.3,0.9,0.8,1.8,1.6,2.4c0.3,0.3,0.6,0.7,0.9,1c0.4,0.5,0.9,0.6,1.5,0.5
				c1.3-0.2,2.5-0.6,3.6-1.4c1.8-1.3,3.9-2.1,5.9-3.1c1-0.5,2.2-0.7,3.2,0.1c0.1,0.1,0.2,0.1,0.4,0.1c0.3-0.1,0.8-0.3,1.2-0.4
				c0.7-0.2,1.4,0.5,1.1,1.3c-0.1,0.2-0.2,0.4-0.3,0.6c-0.5,0.7-0.4,1.4-0.1,2.1c0.7,1.7,0.9,2,2.8,2.5c1.8,0.4,3.4,1.1,4.6,2.7
				c0.3,0.4,0.7,0.6,1.2,0.7c1.7,0.1,3.4,0.3,5-0.7c0.5-0.3,1.1-0.6,1.7-0.8c1-0.3,2-0.5,3-0.8c0.6,0,1,0.8,1.7,0.6
				c0.5-0.5,0.5-1.2,0.6-1.9c0-0.9-0.1-1.7-0.5-2.5c-0.2-0.5-0.5-0.9-0.8-1.3c-0.2-0.3-0.3-0.6-0.3-1c-0.1-0.7-0.1-1.5-0.2-2.2
				c0.9-0.7,1.2-0.8,1.9-0.2c0.3,0.3,0.7,0.6,0.9,1c0.5,1.2,1,2.4,1.4,3.7c0.3,0.9,0.4,1.9,0.3,2.9c-0.2,1.6-0.4,3.3-0.9,4.9
				c-0.1,0.3-0.2,0.6-0.3,1c0,0.3,0,0.6,0,0.8c0,0.4,0.3,0.8,0.8,0.8c1.3-0.1,2.3,0.6,3.1,1.5c0.3,0.4,0.8,0.7,1.2,1
				c0.2,0.2,0.5,0.4,0.6,0.6c0.4,1.2,1.1,2.4,0.7,3.8c-0.1,0.3-0.1,0.7-0.1,1c0,0.5-0.2,0.9-0.7,1.1c-0.5,0.3-1.1,0.6-1.6,0.9
				c-1-0.7-1.8-1.5-2.9-1.8c-1.2,0.3-2.3,0.9-3.1,1.8c-0.8,0.9-1.5,1.9-2.2,2.8c-0.5,0.6-0.9,1.3-1.7,1.6c-0.8,0.4-1.3,0.8-1.2,1.8
				c0.1,0.4-0.4,0.8-0.8,0.7c-1.1-0.3-2.3,0.3-3.4-0.4c-0.2-0.1-0.4,0-0.7,0c-1.6,0.4-3.2,0.2-4.7,0c-0.7-0.1-1.3-0.2-2-0.3
				c-2.1-0.2-4-1.1-5.8-1.8c-0.3-0.1-0.5-0.3-0.7-0.5c-1-0.9-2-1.9-3-2.8c-0.1-0.1-0.2-0.3-0.3-0.4c-1.2-2.1-2.4-4.2-3-6.5
				c-0.4-1.6-1.3-2.9-2.3-4.2c-0.7-0.9-1.3-0.8-1.8,0.2c-0.3,0.4-0.5,0.9-0.8,1.3c-0.5,0.6-0.6,1.2-0.5,1.9c0,0.1-0.1,0.2-0.3,0.3
				c-0.2-0.1-0.4-0.2-0.5-0.4c-0.3-1-0.6-2-0.8-3c-0.3-1-0.5-2.1-0.8-3.1c-0.2-0.6-0.7-0.8-1.4-0.7c-0.5,0.1-0.8,0.3-0.8,0.9
				c-0.1,1.3-0.3,2.6,0.2,3.9c0.1,0.3,0.1,0.6,0.1,0.8c0,1,0.3,1.9,1.1,2.6c0.9,0.8,0.9,1.8,0.3,2.8c0.7,1,0.7,2.2,1.1,3.2
				c-0.1,0-0.2,0.1-0.3,0.1c0,0-0.1,0.1-0.1,0.1c0.1,0,0.2,0,0.2,0c0.1-0.1,0.1-0.2,0.1-0.3c0.3,0.1,0.5,0.4,0.3,0.7
				c-0.2,0.3-0.4,0.7-0.5,0.9c0.5,0.9,1,1.7,1.3,2.5c0.2,0.7,0.6,1.3,1.1,1.7c1.4,0.9,1.6,2.7,2.9,3.7c0.1,0.1,0.1,0.3,0.2,0.5
				c0.1,0.4,0.3,0.7,0.4,1.1c0.8,0.2,1.7,0.3,1.9,1.3c0,0.1,0.1,0.2,0.2,0.3c1.2,0.7,2.1,1.7,3.6,1.8l0,0c0.1,0,0.3,0,0.4,0
				C267.9,182.1,267.9,182.1,267.7,182.6c0.1,0.2,0.1,0.4,0.1,0.5c0,0,0.1,0,0.1-0.1C267.9,182.9,267.8,182.7,267.7,182.6z
				 M273,278.4c0.6,0,1.1-0.1,1.7-0.1c0.4,0,0.7,0.5,0.6,0.9c-0.2,0.9-0.4,1.9-0.6,2.8c-0.1,0.4-0.4,0.7-0.8,0.7
				c-0.7,0.1-1.4,0.1-2,0.1c-0.4,0-0.8,0-1.1,0.4c0,0.3-0.1,0.7-0.1,1.1c-0.1,2.7-0.3,5.4-0.4,8c-0.2,3.5-0.4,7-0.5,10.4
				c0,0.4,0,1,0.2,1.3c0.6,1.1,0.4,2.2,0.3,3.3c0,0.8-0.5,1.2-1.2,1.5c-0.3,0.1-0.5,0.2-0.8,0.2c-2.6,0.4-5.1,0.2-7.6-0.5
				c-0.5-0.1-1-0.4-1.4-0.7c-0.2-0.2-0.5-0.5-0.5-0.8c-0.1-1-0.2-2.1,0.3-3c0.4-0.7,0.5-1.4,0.5-2.1c0.3-6,0.6-12,0.9-18
				c0-0.5,0.1-1-0.1-1.5c-0.4-0.4-0.8-0.5-1.3-0.5c-1.4-0.2-2.7-0.3-4.1-0.4c-0.4,0-0.9,0-1.2-0.2c-1.2-0.6-2.4-0.5-3.7-0.6
				c-4-0.2-8.1-0.4-12.1-0.5c-1.4-0.1-2.9-0.1-4.3-0.1c-1.1,0-2.2,0.3-3.3,0.5c0,1.2,0,1.2,0.4,1.9c0.2,0.3,0.4,0.6,0.5,0.9
				c0.1,0.4,0.2,0.9-0.4,1.2c-0.7-0.4-1.4-0.8-2.1-1.1c-0.5-0.3-1.1-0.4-1.7-0.2c-0.7,0.3-1.4,0.6-2,0.9c-0.6,0.3-1,0.9-1.1,1.6
				c-0.1,0.9,0,1.8,0.3,2.7c0.2,0.8,0.7,1.3,1.3,1.7c1.9,1.2,4.2,1,5.4-1.2c0.1-0.2,0.2-0.6,0.6-0.5c0.1,0.1,0.2,0.3,0.2,0.4
				c0.2,2.5-0.6,4.9-0.7,7.3c0,0.4-0.4,0.7-0.8,0.7c-1,0-1.9,0-2.9,0c-1.4,0-2.7,0-4.1,0.1c-0.6,0-1,0.3-1.1,0.9
				c-0.2,1.1-0.4,2.2-0.6,3.4c0,0.4,0.1,0.8,0.2,1.1c0.1,0.3,0.3,0.6,0.5,0.9c-0.4,0.3-0.7,0.5-1,0.7c-0.2,0.2-0.3,0.5-0.1,0.8
				c0.3,0.1,0.6,0.1,0.9,0.2c0,0,0,0.1,0,0.2c-0.3,0.3-0.6,0.5-0.8,0.9c-0.5,0.8-0.1,1.6,0.8,1.8c0.3,0.1,0.6,0,0.7,0.5
				c-0.3,0.3-0.7,0.6-1.1,0.8c0,0.2-0.1,0.3-0.1,0.4c0.2,1.9-0.2,3.6-0.9,5.3c-0.2,0.5-0.3,1-0.2,1.5c0.2,1.1,0.3,2.2,0,3.2
				c-0.4,0.9-0.5,1.9-0.6,2.8c-0.2,1.7-0.9,3.1-1.8,4.5c-0.1,0.2-0.2,0.4-0.2,0.6c0,0.3,0,0.6-0.2,0.8c-0.3,0.3-0.3,0.6-0.2,0.9
				c0.1,0.6,0.2,1.1,0.2,1.7c-0.2,1.8-0.3,3.6-1.1,5.3c-0.2,0.5-0.5,1-0.7,1.6c-0.2,0.4-0.3,0.9-0.4,1.3c-0.1,0.7-0.4,1.5-0.3,2.2
				c0.1,0.9-0.6,1.3-0.8,2c-0.1,0.3-0.1,0.6-0.2,0.8c-0.5,2.9-0.9,5.7-1.3,8.6c-0.3,2-0.5,4-0.9,5.9c-0.3,1.8-0.8,3.5-1.2,5.3
				c-0.4,1.7-1,3.3-1.2,5c0,0.4-0.2,0.8-0.4,1.1c-0.5,1.6-1,3.1-1.5,4.7c-0.2,0.8-0.5,1.7-0.6,2.5c-0.1,1.6-0.8,3.1-1,4.7
				c-0.9,1.5-1,3.4-2,4.9c-0.1,0.2-0.1,0.4-0.2,0.7c-0.4,1.8-0.8,3.5-1.7,5.2c-0.5,1-0.8,2.3-0.9,3.8c0.6,0,1.2,0.1,1.9,0.1
				c2.2,0,4.3,0.1,6.5,0.1c27.9,0,55.7,0,83.6,0c0.9,0,1.7,0,2.6,0c0.3,0,0.5-0.1,0.9-0.2c-0.1-0.4-0.1-0.7-0.2-1.1
				c-1.3-5.1-2.6-10.2-4-15.2c-1-3.6-1.9-7.1-2.9-10.7c-0.6-2.2-1.3-4.4-1.9-6.6c-0.8-3.1-1.1-6.3-1.3-9.5
				c-0.2-3.5-0.2-7.1-0.7-10.6c-0.3-2.2-0.6-4.4-0.8-6.6c-0.3-3.2-0.4-6.5-0.7-9.7c-0.1-1.9-0.2-3.8-0.4-5.6
				c-0.1-1.2-0.2-2.4-0.3-3.6c-0.3-3.2-0.5-6.5-0.8-9.7c-0.4-4-0.8-8.1-1.1-12.1c-0.3-4.3-0.6-8.7-0.9-13c-0.3-4-0.5-8.1-0.8-12.1
				c-0.2-2.6-0.3-5.2-0.5-7.9c0-0.5-0.1-1,0.2-1.5c0.4-0.4,1-0.3,1.5-0.3c2.7,0,5.5-0.1,8.2-0.1c0.5,0,1-0.1,1.5-0.2
				c0.3-0.1,0.3-0.3,0.1-0.6c-0.2,0-0.5-0.1-0.8-0.1c-2.5-0.1-4.9-0.2-7.4-0.3c-1.5-0.1-2.9-0.2-4.4,0.4c-0.1-0.5-0.3-0.9-0.3-1.2
				c-0.1-1.7-0.1-3.3-0.1-5c0-1.4,0-2.9,0.1-4.3c0-0.9-0.2-1.7-0.7-2.4c-0.4,0-0.7,0-1,0c-0.3,0-0.6-0.1-0.9-0.1
				c-0.3,0.3-0.4,0.7-0.7,0.9c-0.3,0.2-0.7,0.4-1,0.6c-0.1,1.2-0.4,2.3-1.2,3.2c-0.5,0.5-0.5,1.2-0.6,1.9c-0.2,4.1-0.4,8.2-0.6,12.3
				c-0.1,1,0.3,1.6,1.2,2c0.3,0.1,0.5,0.2,0.7,0.4c1.3,0.9,2.1,2.1,2,3.8c-0.1,1.3-0.2,2.6-0.3,4c-0.8,0.5-1.7,0.1-2.4,0.4
				c-0.5-0.3-0.8-0.5-1.3-0.8c-0.4,0.3-0.7,0.6-1,0.9c-0.3,0.3-0.9,0.1-1.2,0.5c1.2,1,1.2,1.2,0.3,2.4c-0.1,0.2-0.2,0.3-0.3,0.5
				c0.5,0.5,1.1,0.5,1.7,0.7c0.7,0.2,1.4,0,1.9-0.6C273.3,279.7,273.5,279.1,273,278.4L273,278.4z M83.6,140
				c-0.2,0.6-0.5,1.3-0.2,2.1c0.5,1.5,0.4,3.1,1.3,4.6c0.6,1.1,0.2,2.3-0.8,3.1c-0.3,0.3-0.7,0.6-1.1,0.8c-0.7,0.4-1.4,0.7-2.2,1
				c-0.3,0.1-0.6,0.2-0.6,0.6c0.2,0.2,0.4,0.5,0.6,0.7c0.4,0.4,0.8,0.8,1.1,1.3c0.7,1.1,0.7,2.1-0.2,3.1c-0.8,0.9-1.8,1.5-3.1,1.7
				c-1.1,0.1-2.1,0.4-3.1,0.5c-0.1,0.2-0.2,0.3-0.2,0.4c-0.4,2.1-0.9,4.1-1.1,6.2c0,0.4-0.1,0.8-0.2,1.2c-0.1,0.5-0.1,1,0.1,1.5
				c0.3,0.8,0.2,1.7-0.1,2.5c-0.3,0.7-0.4,1.4-0.4,2.2c-0.1,0.8,0,1.7-0.2,2.5c-0.1,0.6-0.1,1.2,0.3,1.8c0.2,0.4,0.3,0.9,0.4,1.3
				c0.1,1.1,0.5,2.1,0.3,3.2c0,0.3,0.1,0.5,0.2,0.8c0.1,0.3,0.2,0.6,0.2,0.8c0,0.7-0.3,1.5,0.2,2.1c0,0.1,0,0.2,0,0.3
				c-0.5,1.3-0.2,2.5,0.2,3.7c0.1,0.2,0.2,0.5,0.1,0.6c-0.4,0.9-0.1,1.6,0.3,2.4c-0.2,0.4-0.3,0.6-0.4,0.8c0.3,1,0.4,1.9,0.9,2.7
				c0.6,1,0.6,2.2,1.2,3.1c0.6,2.1,1.2,4.3,1.7,6.4c0.6,2.8,1.1,5.6,1.2,8.4c0,0.9,0.1,1.7,0.2,2.6c0.7,3.8,0.9,7.6,0.6,11.4
				c-0.2,2.3-0.4,4.7-0.8,6.9c-0.1,0.8-0.2,1.6,0.2,2.3c0.4,0.7,0.6,1.5,1.3,2c0.2-0.2,0.4-0.3,0.5-0.5c1-0.8,1.9-1.6,3-2.2
				c1.4-0.7,2.8-1.2,4.3-1.5c1.1-0.2,2.2-0.5,3.2-1.2c0.3-0.2,0.7-0.4,1-0.6c1.1-0.7,2.3-1.4,3.4-2.3c0.7-0.5,1.5-0.6,2.1-1.1
				c1.3-1,2.8-1.5,4.2-2.3c1.2-0.7,2.3-1.4,3.2-2.5c0.7-0.8,1.2-1.7,1.9-2.4c0.7-0.8,1.5-1.2,2.6-0.9c0.3,0.1,0.5,0.3,0.9,0
				c0-0.2,0-0.5,0.1-0.7c0.3-1,0.8-1.5,1.8-1.5c0.7,0,1.4,0.1,2,0.2c1.1,0.2,2.2,0.2,3.1-0.9c0.1-0.5,0.3-1.2,0.4-1.9
				c0.1-0.9,0.4-1.7,1-2.3c1.6-1.5,3.3-2.9,5.3-3.7c1.6-0.6,3.1-1.5,4-3c0.6-1,1.5-1.5,2.6-1.8c0.9-0.2,1.6-0.7,2.3-1.3
				c0.8-0.7,1.5-1.6,2-2.5c0.7-1.1,1.6-1.7,2.8-2c0.8-0.2,1.5-0.5,2.2-1.1c0-0.4,0.1-0.8,0.1-1.3c0-0.7-0.2-1.4-0.2-2
				c0-0.9,0.4-1.6,1.3-2c0.4-0.2,0.8-0.4,1.3-0.5c0.8-0.3,1.6-0.5,2.2-1.2c1.8-0.9,2.9-2.6,3.8-4.3c0.8-1.6,1.7-3.1,2.8-4.5
				c0.6-0.8,1.3-1.5,1.5-2.4c0.6-0.3,1.2-0.6,1.7-0.9c0.7-0.6,1.5-0.8,2.2-1.2c0.8-0.4,1.5-0.5,2.3-0.3c0.7,0.2,1.3,0.2,2,0.1
				c0.4-0.1,0.8-0.1,1.2-0.1c4-0.1,8-0.5,11.9-1c1.4-0.2,2.7-0.4,4.1-0.4c3.1,0,6.2-0.1,9.2,0.3c1.3,0.2,2.6,0.2,3.8,0.7
				c0.7,0.3,1.5,0.1,2.2,0c1.1-0.2,2.1-0.4,3.2-0.6c0.8-0.1,1.6-0.1,2.4-0.3c1.2-0.3,2.5-0.4,3.7-0.6c0.3,0,0.6-0.2,1-0.3
				c0-0.4,0.1-0.7,0.1-1.1c0.1-7.4,0.2-14.7,0.2-22.1c-0.5-0.2-0.9-0.4-1.4-0.6c-0.1-0.6-0.2-1.1-0.2-1.7c0-1.4-0.1-2.9,0-4.3
				c0-1.5,0.1-1.5,1.6-1.9c0.1-0.4,0.2-0.7,0.3-1.2c0.5-0.3,1-0.7,1.4-1c0-0.8,0-1.6,0-2.4c0-0.7,0-1.5,0-2.2c0-0.8,0.1-1.6-0.1-2.4
				c-0.3-0.1-0.5-0.1-0.7-0.1c-1.6,0-3.2-0.4-4.7-0.7c-1-0.1-1.7-0.6-2.2-1.4c-0.3-0.5-0.6-0.8-1.1-1c-0.2-0.1-0.4-0.3-0.6-0.5
				c0-1,0-1.9,0-2.8c0.2-4.9,0.4-9.8,0.6-14.7c0.1-1.6,0.1-3.2,0.2-4.8c0-0.4,0-0.9,0.3-1.1c0.6-0.6,0.7-1.4,0.9-2.2
				c0.1-0.8,0.4-1.5,0-2.3c-0.1-0.2,0-0.6,0-0.8c0.1-1.7,0.1-3.4,0.2-5.1c0-1.1,0-2.2,0.3-3.2c0.4-1.2,0.3-2.5,0.5-3.7
				c0.1-0.5,0-0.9-0.3-1.3c-0.2-0.3-0.3-0.6-0.5-0.9c-0.1-0.1-0.2-0.1-0.3-0.2c-0.3,0.3-0.7,0.6-1,0.9c-1,0-2.1-0.1-3.1-0.1
				c-3.1-0.2-6.1-0.4-9.2-0.6c-1-0.1-1.9-0.4-2.6-1.1c-0.3-0.3-0.6-0.7-0.9-1c-0.4,0-0.7,0-1.1,0c-4.8-0.1-9.6-0.2-14.4-0.3
				c-10.5-0.1-21-0.3-31.5-0.4c-8.4-0.1-16.8-0.2-25.2-0.3c-2,0-4-0.1-6-0.1c-4.2,0-8.4,0-12.7-0.1c-0.2,0-0.4,0-0.4,0.4
				c0.3,0.2,0.7,0.4,1,0.7c1.4,1.1,2,2.6,1.7,4.4c-0.1,0.6-0.2,1.1-0.4,1.7c-1.1,3-1.5,6.2-2.3,9.3c-0.4,1.7-0.9,3.3-1.7,4.8
				c-0.5,0.9-1,1.8-1.4,2.7c-1.2,2.3-1.9,4.7-2.1,7.4c-0.1,2-0.4,4.1-0.6,6.1c-0.1,0.9-0.5,1.8-0.7,2.6c-0.2,0.6-0.2,1.2,0.1,1.8
				c0.5,1.1,0.8,2.3,0.6,3.5c-0.1,1.1,0.1,2,0.7,2.9c0.7,1.2,0.5,2.3-0.4,3.3C85.1,138.6,84.4,139.2,83.6,140z M346.6,98.3
				c-1.5-3.3-3.1-6.7-4.7-10c-1.5-0.3-5.3-0.3-6.8,0c-0.4,0.4-0.5,0.8-0.2,1.4c0.2,0.4,0.4,0.9,0.7,1.3c0.3,0.6,0.2,1.3,0.3,1.9
				c-0.5,0.6-0.2,1.3-0.2,1.9c0.1,0.7-0.5,1.4-0.1,2.1c-0.2,0.3-0.3,0.6-0.5,0.9c0.6,0.8-0.1,1.6,0.2,2.4c-0.3,0.7-0.8,1.2-0.9,2.1
				c-0.1,0.7-0.6,1.4-0.9,2.2c-0.1,0.1,0,0.3-0.1,0.5c-0.4,1.3-0.7,2.8-1.3,4c-0.4,0.7-0.7,1.5-1.1,2.3c-0.4,0.8-0.6,1.8-1.2,2.4
				c-0.6,0.7-0.6,1.6-0.9,2.3c0,0.1,0,0.1-0.1,0.2c-1.6,2.7-2.3,5.7-3.7,8.4c-0.2,0.5-0.4,0.9-0.5,1.4c-0.1,0.3-0.2,0.6,0.1,1.1
				c0.5-0.2,1-0.4,1.5-0.6c2.4-0.7,4.8,1.2,4.4,3.7c-0.2,1-0.2,2-0.2,3.1c0,0.6,0.1,1.3-0.1,1.9c-0.6,1.8-1.1,3.6-2.4,5.1
				c-0.7,0.8-1.2,1.6-1.9,2.4c-1.6,2-2.8,4.3-4.5,6.2c-0.2,0.2-0.4,0.5-0.7,0.7c-1.5,1.4-2.8,2.8-3.6,4.7c-0.3,0.7-0.8,1.3-1.3,2
				c-0.2,0.4-0.6,0.7-0.7,1.1c-0.4,1-0.7,2.1-1.2,3c-0.2,1.6-1.1,3-1.9,4.4c-0.5,1-0.9,2.1-1.5,3.1c-1.3,1.9-2.6,3.9-4.3,5.5
				c-0.5,0.5-0.9,1-1.4,1.5c0.3,0.6,0.8,0.6,1.2,0.7c0.5,0.2,1,0.2,1.5,0.4c2.5,0.7,4.8,1.8,7.3,2.3c0.2,0,0.4,0.2,0.6,0.3
				c0.3,0.1,0.5,0.3,0.8,0.3c1.1,0.1,2.3,0.3,3.4,0.3c1.4,0,2.7,0.1,4.1-0.1c1.4-0.2,2.7,0.1,4.1,0c1,0,1.9,0,2.9,0.1
				c2,0.2,4,0.5,5.9,0.9c1.8,0.3,3.6,0.6,5.4,0.8c1.2,0.2,2.5,0.2,3.7,0.5c2.2,0.5,4.3,1,6.5,1.5c1.8,0.5,3.7,0.7,5.6,0.8
				c0.4,0,0.8,0,1.2-0.1c1-0.3,2-0.3,3,0c0.9,0.3,1.7,0.6,2.4,1.2c1.6,1.2,2.9,2.7,4,4.4c1.4,2.1,2,4.5,2.9,6.7
				c0.7,1.7,1.6,3.1,3.5,3.7c0.8,0.3,1.5,0.8,2.1,1.3c0.1,0.2,0.2,0.4,0.2,0.6c0.3,1.3,0.5,2.7,0.9,4c0.2,0.8,0.3,1.7,0.1,2.5
				c-0.1,0.8-0.1,1.5,0.1,2.2c0.2,0.1,0.4,0.3,0.7,0.4c1.1,0.4,1.7,1.3,2.3,2.2c0.1,0.2,0.2,0.4,0.3,0.6c0.1,0.2,0.3,0.3,0.5,0.4
				c1.4-0.6,2.9-0.8,4.4-0.8c1.6,0.1,3,1.5,3.1,3.1c0.1,1-0.1,1.9-0.6,2.8c1.2,0.7,2.3,1.4,3.5,2c1.2,0.6,1.9,1.9,3.2,2.5
				c0.6-1.7-0.1-3.2-0.2-4.8c0-0.2-0.2-0.4-0.3-0.6c-0.9-1.7-2.1-3.1-3.3-4.6c-0.7-0.8-1.4-1.5-2-2.3c-2-2.5-4.1-5-6.1-7.6
				c-1-1.3-1.8-2.7-2-4.5c-0.2-1.6-0.6-3.2-1.2-4.8c-0.4-1.2-0.7-2.4-0.7-3.7c-0.1-2.8-0.2-5.6,0.3-8.4c0.1-0.3-0.1-0.6-0.1-1
				c-0.5,0-0.9,0.1-1.3,0.1c-4.3,0.7-8.5,1.5-12.8,2.2c-0.7,0.1-1.4,0.2-2.2-0.2c-0.5-2.2-1-4.4-1.1-6.8c-0.8-0.8-1.1-1.7-0.7-2.8
				c0.2-0.7,0.2-1.3,0.1-2c-0.2-1.6-0.5-3.3-0.7-4.9c-0.3-2-0.9-3.9-0.6-5.9c0-0.4-0.1-0.8-0.3-1.1c-0.7-1.5-1-3-0.8-4.7
				c0.1-0.8,0.1-1.7,0.1-2.6c0-0.2-0.2-0.5-0.3-0.8c-2.1,0.8-3.7,0-5.2-1.3c-0.8-0.7-1.5-1.4-2.1-2.2c-0.3-0.4-0.6-1-0.7-1.5
				c-0.4-1.7-0.5-3.4,0.3-5c0.1-0.2,0.1-0.4,0.2-0.8c-0.3-0.3-0.7-0.5-1-0.8c-1.2-1.2-2.2-4.4-1.8-6c0.1-0.4,0.3-0.9,0.5-1.3
				c0.7-1.7,1.4-3.5,2.2-5.2c-0.4-0.9-1-1.3-1.8-1.7c-0.8-0.4-1.6-0.8-2.4-1.3c-1.1-0.6-1.8-1.5-2.2-2.7c-0.1-0.3-0.2-0.6-0.3-1
				c-0.6-1.6-0.5-3.2,0.3-4.8c1-1.8,1.9-3.6,2.9-5.4c0.1-0.3,0.2-0.6,0.3-0.9c-0.4-0.4-0.8-0.4-1.2-0.4c-1.4-0.1-2.3-0.9-3.1-1.9
				c-0.3-0.3-0.4-0.8-0.5-1.3c-0.1-0.9,0-1.7,0.6-2.4c0.7-0.8,1.1-1.7,1.5-2.7C345.9,100.4,346.2,99.4,346.6,98.3z M390,140.1
				c0.4-0.5,0.7-0.8,1-1.2c1.2-1.5,1.8-3.2,0.9-5.1c-0.1-0.3-0.2-0.7-0.2-1c0.1-0.9,0.3-1.8,0.4-2.7c0.1-1,0.5-1.8,1.3-2.5
				c0.5-0.5,0.9-1,1.2-1.7c0.2-0.5,0.4-1.1,0.6-1.6c0.1-0.5,0.2-1.1,0.2-1.7c0-0.6-0.1-1.1-0.2-1.7c-0.5-2.3-0.9-4.6-1.4-6.9
				c-0.3-1.5-0.5-3-0.9-4.5c-0.3-1.1-0.6-2.2-1.1-3.2c-0.6-1-1.1-2-1.4-3.1c-0.2-0.7-0.4-1.4-0.6-2.1c-0.2-0.8-0.4-1.6-0.6-2.3
				c-0.6-1.6-1.6-2.9-3.1-3.7c-1.2-0.6-2.4-1.1-3.7-1.4c-2.7-0.7-5.1-1.8-7.3-3.6c-0.6-0.5-1.2-1-1.4-1.9c-0.1-0.6-0.4-0.9-0.9-1.2
				c-1.4-0.8-2.9-1.4-4.5-1.4c-0.6,0-1.1-0.1-1.7-0.2c-0.5-0.1-0.8-0.4-0.9-0.9c-0.2-1.1-0.3-2.1-0.5-3.2c-0.5-2.8-0.9-5.6-1.4-8.4
				c-0.1-0.6-0.2-1.1-0.7-1.7c-0.3-0.1-0.7-0.1-1.1-0.2c-1-0.3-1.9-0.1-2.7,0.6c-0.6,0.5-1.3,1-1.9,1.4c-0.3,0.2-0.7,0.4-1,0.5
				c-1.1-0.9-1.9-1.8-2.4-2.8c-0.3-0.7-0.5-1.4-0.4-2.2c0-0.2,0.2-0.5,0.4-0.8c0.6,0.4,1.1,0.8,1.6,1.1c1.8,1.1,3.7,0.8,5-0.9
				c0.2-0.3,0.4-0.5,0.6-0.7c0.4,0.2,0.8,0.3,1.1,0.4c2.1,0.1,4.2,0.5,6.2,1.1c0.2-0.2,0.4-0.5,0.6-0.7c-0.2-0.4-0.5-0.3-0.8-0.4
				c-0.4-0.1-0.8-0.2-1-0.5c-0.5-0.8-1.2-0.9-2.1-0.9c-0.4,0-0.8,0-1.2-0.1c-0.5,0-1-0.2-1.4-0.6c-0.2-0.2-0.5-0.3-0.7-0.4
				c-1.1-0.2-2.2-0.3-3.2-1.1c-0.4-0.4-1-0.3-1.5-0.1c-0.5,0.2-0.9,0.5-1.3,0.8c-0.5,0.4-1,0.5-1.6,0.5c-0.3,0-0.6-0.1-0.8-0.2
				c-1-0.1-2-0.2-3.1,0.2c-0.1,0.8,0,1.6,0.2,2.4c1.1,6.2,2.3,12.5,3.3,18.7c0.2,1,0.3,1.9,0.5,2.9c0.2,0.9-0.1,1.5-0.8,2.1
				c-0.9,0.7-1.9,1.5-2.7,2.3c-1.1,1-2.2,2-2.6,3.5c-0.3,1-0.4,2.1-0.5,3.2c0.4,0.4,0.8,0.7,1.1,1.1c0.5,0.5,1.1,0.6,1.7,0.6
				c0.3,0,0.7-0.1,1-0.1c1.7-0.2,3.4-0.6,5.1-0.5c0.8,0.1,1.5-0.2,2.1-0.5c0.9-0.4,1.7-0.9,2.4-1.6c0.5-0.5,1-1,1.4-1.5
				c0.6-0.8,1.4-0.9,2.3-0.7c0.4,0.1,0.6,0.3,0.7,0.7c0.1,0.2,0.1,0.4,0.1,0.7c0.1,0.7,0.4,1.2,1,1.5c0.2,0.1,0.5,0.3,0.7,0.5
				c0.8,0.6,1.6,0.8,2.6,0.5c1.1-0.3,2.1-0.2,3.2,0c-1.1,0.4-2.2,0.5-3.3,0.5c-0.7,0-1.4,0-2,0.1c-3.8,0.5-7.6,1.3-11.5,1.5
				c-0.2,0-0.5,0-0.7,0.1c-0.9,0.3-1.9,0.5-2.7,1c-1.5,0.8-2.5,1.9-2.6,3.7c0,0.4-0.3,0.9-0.4,1.3c-0.2,0.8-0.5,1.7,0,2.5
				c0.5,0.8,0.8,1.6,1.2,2.5c0.5,1.2,1.5,2,3,1.7c0.9-0.2,1.9-0.4,2.9-0.4c1.1-0.1,2.2-0.2,3.2,0c1.8,0.2,3.6,0.6,5.4,0.6
				c0.7,0,1.5,0.1,2.1,0.6c0,0.4,0,0.8,0,1.3c0.3,0,0.5,0,0.7-0.1c0.4-0.2,0.9-0.5,1.3-0.8c0.8-0.5,1.6-0.8,2.6-0.9
				c0.2,0,0.4,0.1,0.8,0.1c-0.2,0.3-0.3,0.5-0.5,0.6c-0.7,0.6-1.6,0.9-2.4,1.2c-1.1,0.3-2.2,0.6-3.3,0.9c-3.2,1.1-6.4,2.2-9.5,3.4
				c-0.8,0.3-1.4,0.7-2,1.3c-0.6,0.5-0.9,1.2-0.9,1.9c0,1,0,2,0,3c0.5,0.9,0.9,1.7,1.4,2.5c0.5,1,1.3,1.7,2.5,1.9
				c1.2,0.2,2.4,0.3,3.6,0.1c2.6-0.5,5.2-1,7.8-1.4c1.1-0.2,2.2-0.5,3.2-1.1c0.8-0.4,1.6-0.8,2.5-1.2c0.1,0,0.3,0,0.5,0.1
				c-0.3,0.3-0.4,0.4-0.6,0.5c-1.4,1.1-3,1.6-4.6,2.1c-1.2,0.4-2.5,0.8-3.7,1.3c-1.7,0.6-3.4,1.1-5.1,1.6c-1.6,0.5-3,1.1-4.2,2.2
				c-0.5,0.5-1.2,0.9-1.8,1.3c-0.9,0.6-2,1.1-2.8,2c0,0.6,0.3,1.3-0.1,1.9c-0.7,1.2-0.4,2.4-0.4,3.7c0,0.6,0.3,1.1,0.9,1.3
				c0.6,0.3,1.3,0.5,1.9,0.9c0.6,0.3,1.2,0.4,1.8,0.2c1.4-0.4,2.7-1.2,3.8-2.2c0.3-0.2,0.6-0.5,0.7-0.7c1.5-0.1,2.8-0.2,4.1-0.3
				c0.5,0,1,0.1,1.5,0.2c1.6,0.3,3.2,0.1,4.6-0.8c0.4-0.3,0.9-0.5,1.3-0.7c0.3-0.1,0.6-0.3,1-0.3c0.7,0,1.5,0.1,2.3,0.1
				c-0.1,0.4-0.3,0.8-0.4,1.1c-0.1,0.3-0.1,0.6,0.2,0.8c0.5-0.1,1-0.1,1.5-0.2c0.6,1.5,0.6,1.5,2,2c0.2,0.1,0.4,0.1,0.6,0.2
				c0.2,0.1,0.3,0.2,0.4,0.2c-0.7,0.8-1.6,0.5-2.4,1c0.1,0.2,0.2,0.4,0.4,0.5c0.3,0.1,0.7,0.2,1,0.2c0.9,0,1.7-0.1,2.5-0.3
				c1.2-0.2,1.6-0.2,2.5,0c-0.9,0.8-1.9,1.3-3.1,1.3c-0.6,0-1.2-0.1-1.9-0.2c-0.2,0-0.5,0-0.5,0.3c0.6,1,1.2,2.1,1.7,3.1
				c0.3,0.6,0.7,0.9,1.3,1c1,0.2,1.9,0.3,2.9,0.4c0.7,0.1,1.5,0.2,2.2,0.2c0.5,0,1,0.2,1.5,0.1c1.5-0.2,3.1-0.3,4.6-0.3
				c0.2,0,0.3-0.1,0.5-0.1c1.2,0,2.6-1.9,2.7-3c0-0.2,0-0.5-0.1-0.7c-0.5-0.9-0.6-2-0.8-3c-0.1-0.6-0.4-1.1-1-1.3
				c-1.2-0.5-2.2-1.4-3.1-2.3c-0.3-0.3-0.5-0.6-0.6-1c-0.2-0.7-0.5-1.4-0.8-2.1C390.3,141.4,390.2,140.8,390,140.1z M69.6,112.7
				c-0.2,0.1-0.3,0.1-0.4,0.2c-0.5,0.9-1.2,1.1-2.1,1.1c-2.7,0-5.3-0.7-7.9-1.4c-0.4-0.1-0.8-0.4-1.1-0.8c-1.3-1.6-2.2-3.3-2.7-5.3
				c-0.2-0.8-0.2-1.6-0.2-2.4c0-0.9,0.5-1.2,1.4-0.9c0.3,0.1,0.6,0.3,0.9,0.5c0.4,0.2,0.8,0.5,1.2,0.7c1.6,0.7,3.2,1.4,4.8,2.2
				c1.4,0.7,2.8,1.5,4.2,2.2c1.1,0.6,2.1,1,3.4,0.7c0.4-0.1,0.9,0,1.4,0c1.1,0.1,2.2,0.3,3.2,0.4c0.9,0.1,1.7-0.1,2.4-0.7
				c0.7-0.7,1.3-1.5,1.3-2.5c0-0.9-0.1-1.7-0.1-2.6c0-0.5-0.2-0.9-0.5-1.2c-0.9-1-2-1.9-3.2-2.5c-2.2-1.1-4.3-2.3-6.5-3.4
				c-1.1-0.6-2.3-1.1-3.4-1.6c-1.1,0.7-2.1,0.8-3.3,0.4c-0.2-0.1-0.5,0-0.7-0.1c-1-0.1-1.9,0.3-2.6,1c-0.5,0.6-1.1,1.2-1.6,1.7
				c-0.9,1-1.8,1.9-2.6,2.9c-0.8,0.9-1.6,1.7-2.6,2.5c-1.7,1.3-3,3-3.7,5c-0.2,0.5-0.3,1.1-0.5,1.6c-0.4,1.5-1.3,2.4-2.8,2.8
				c-0.4,0.1-0.8,0.1-1.2,0.3c-0.7,0.2-1.3,0.3-1.9,0.6c-1.9,0.9-2.8,2.6-2.7,4.7c0,0.6,0.1,1.1,0.2,1.7c0.1,0.6,0.1,1.3,0.1,1.9
				c0,2-0.4,3.7-2.1,5c-0.2,0.2-0.4,0.4-0.6,0.6c-0.8,0.9-1.1,2-0.7,3.2c0.1,0.3,0.2,0.7,0.3,1c0.5,1.4,0.9,2.8,1.4,4.2
				c0.3,0.9,0.7,1.9,0.4,2.8c-0.3,1.3-0.3,2.7-0.4,4.1c-0.2,1.5,0.1,2.8,0.6,4.2c0.3,1,0.7,2.1,0.8,3.1c0.3,2.1,1.1,4.1,1.3,6.1
				c0,0.2,0.1,0.3,0.2,0.5c0.6,1.2,1.2,2.5,1.8,3.7c0.3,0.5,0.7,0.9,1.2,1.1c1.6,0.7,3.3,0.8,5,0.5c0.8-0.1,1.4-0.6,1.8-1.4
				c0.6-1.4,0.8-2.8,1.2-4.2c-0.2-0.2-0.3-0.3-0.4-0.4c-0.3-0.1-0.5-0.2-0.8-0.2c-0.9-0.1-1.7-0.1-2.6-0.2c-0.9,0-1.7-0.1-2.6-0.4
				c2.4-0.6,3.7-1.1,4-1.5c0-0.3,0-0.6,0-0.9c0.3-0.1,0.6-0.2,0.8-0.3c0-0.4,0.1-0.7,0.1-1.1c0.3-0.1,0.6-0.2,0.9-0.2
				c0.9-0.1,1.8,0.2,2.6,0.6c0.6,0.3,1.3,0.5,2,0.5c2.8,0,5.5,0.7,8.2,1.5c0.3,0.1,0.7,0.2,1,0.2c1.4,0,2.7,0.5,3.9,1.1
				c1,0.6,2,0.7,3.1,0.4c1.2-0.3,2.4-0.6,3.7-0.9c0.7-0.2,1.2-0.7,1.5-1.3c0.6-1,0.9-2.1,1-3.2c0.1-0.7-0.1-1.2-0.5-1.8
				c-0.4-0.5-0.9-0.9-1.5-1.1c-0.7-0.3-1.5-0.6-2.2-0.9c-2.1-0.9-4.1-1.6-6.2-2.6c-2.3-1.1-4.8-1.9-7.3-2.6
				c-2.2-0.6-4.4-1.2-6.6-1.8c-1.3-0.4-2.5-1-3.8-1.6c-0.1,0-0.1-0.2-0.3-0.5c0.7,0,1.2,0.3,1.7,0.5c1.3,0.4,2.6,1,3.9,1.3
				c1.5,0.3,3.1,0.4,4.6,0.5c2.2,0.1,4.3,0.6,6.2,1.6c1.3,0.7,2.5,1.3,3.8,2c1.5,0.8,3.1,1.4,4.8,1.1c0.6,0.3,0.9,1,1.6,1
				c1.5,0.2,2.9,0.1,3.8-1.2c0.1-0.1,0.2-0.3,0.4-0.4c0.5-0.5,0.7-1.1,0.8-1.9c0-0.7,0-1.4,0-2.1c0-0.3-0.1-0.6-0.3-0.8
				c-0.2-0.3-0.5-0.6-0.8-0.9c-3.6-2.9-7.3-5.7-11.1-8.3c-0.9-0.6-1.8-1-2.8-1.2c-0.8-0.2-1.7-0.3-2.5-0.5c-1.7-0.4-3.5-0.7-5.2-1.2
				c-1.2-0.3-2.4-0.8-3.6-1.2c-0.2-0.1-0.4-0.2-0.7-0.5c1.2-0.4,1.7,0.6,2.5,0.8c0.9-0.2,1.9-0.1,2.9,0.4c0.2,0.1,0.5,0.2,0.8,0.2
				c1.4,0.1,2.8,0.2,4.2,0c0.1-0.1,0.2-0.2,0.3-0.3c0.5-0.7,0.9-0.8,1.6-0.5c0.2,0.1,0.4,0.2,0.6,0.4c0.7,0.5,1.4,1,2.1,1.5
				c1.2,0.9,2.4,1.8,3.5,2.7c0.7,0.6,1.5,1.1,2.4,1.3c1,0.2,2,0.4,3,0.6c0.4,0.1,0.9,0.1,1.4,0.1c0.6,0,1.1-0.2,1.5-0.7
				c0.5-0.7,1.1-1.3,1.6-2c0.2-0.3,0.4-0.6,0.4-0.9c-0.2-1.2-0.5-2.4-0.8-3.6c0-0.1-0.1-0.2-0.2-0.3c-1.7-2.5-3.7-4.8-6.1-6.6
				c-0.9-0.7-1.8-1.4-2.7-2.1c-0.9-0.7-1.7-1.4-2.3-2.4c0.3-0.4,0.5-0.7,0.8-1C71.2,113.2,70.4,112.9,69.6,112.7z M393.8,167.8
				c0.1,0.7-0.7,0.6-0.8,1.2c0.4,0.9,1.3,1.6,1.9,2.5c-0.1,0.4-0.2,0.7-0.3,1.1c0.1,0.3,0.3,0.6,0.3,0.9c0.1,1.3,0.8,2.3,1.5,3.4
				c0.4,0.5,0.6,1.1,0.5,1.8c0,0.3,0,0.7,0.2,1c0.4,0.9,0.8,1.8,0.8,2.8c0,0.3,0.1,0.6,0.3,0.8c0.8,1.8,1.6,3.5,2.2,5.4
				c0.1,0.2,0.2,0.4,0.3,0.6c0.5,1.1,1.3,2.1,1.4,3.4c0,0.3,0.2,0.5,0.3,0.8c1.1,2.1,1.8,4.3,2.2,6.6c0,0.3,0.1,0.6,0.2,0.8
				c0.1,0.3,0.6,0.5,0.9,0.3c0.5-0.4,1-0.8,1.4-1.2c2-1.9,4-3.7,4.9-6.5c0-0.2,0.1-0.3,0.2-0.5c0.9-1.8,1.6-3.6,2-5.6
				c0-0.2,0.1-0.5,0.2-0.7c0.9-1.8,0.8-3.9,1.1-5.8c0.1-0.6,0-1.1,0.3-1.7c0.2-0.4,0.1-0.8-0.1-1.1c-0.9-1.6-1.8-3.2-2-5
				c-0.1-0.4-0.2-0.8-0.4-1.1c-0.1-0.3-0.3-0.6-0.3-1c-0.1-1.4-0.7-2.6-1.5-3.7c-0.8-1.1-1.2-2.3-1-3.7c0.1-0.5,0.1-1-0.1-1.5
				c-0.3-1.2-0.7-2.4-1-3.6c-0.3-1.3-1.1-2.2-1.9-3.2c-0.3-0.3-0.6-0.6-0.9-0.7c-0.9-0.4-1.9-0.8-2.8-1.2c-0.5-0.2-0.9-0.1-1.3,0.3
				c-0.2,0.2-0.4,0.5-0.6,0.8c-1,2.2-2.7,3.8-4.4,5.4c-0.3,0.3-0.8,0.5-1.2,0.7c-1.8,0.6-3.6,1.5-5.6,1.4c-0.2,0-0.5,0-0.7,0.1
				c-0.2,0-0.5,0-0.3,0.4c0.6,0,1.1,0,1.7,0c0.5,0,1.1-0.4,1.7,0c-0.6,0.4-1.2,0.3-1.7,0.5c-0.5,0.2-1.1,0.1-1.6,0.7
				c0.8,0.2,1.5,0.2,2.1,0.3c0.3,0,0.6,0,0.7,0.3c0.1,0.8-0.7,1.1-1.1,1.6C391.9,166.7,393.2,167,393.8,167.8z M261.4,243.8
				c-1-0.5-1.8-0.4-2.7-0.4c-4.9-0.2-9.8-0.5-14.7-0.7c-0.9,0-1.8,0-2.7,0c-1.1,0-2,0.4-2.9,0.9c-0.7,0.4-1,0.9-1,1.7
				c0,0.6,0.1,1.3-0.2,1.9c-0.4,0.8-0.6,1.6-0.6,2.5c0,0.7-0.5,1.1-1.2,1.3c-0.6,0.1-1.2,0.3-1.8,0.4c-0.5,0.1-1,0.3-1.5,0.4
				c-0.6,0.2-0.9,0.6-1.1,1.2c-0.2,0.7-0.4,1.4-0.6,2.1c-0.1,0.3,0.2,0.7,0.5,0.8c0.2,0,0.5,0,0.7,0c1.4-0.2,2.8-0.3,4.3-0.1
				c0.3,0.1,0.6,0,0.9,0c1.2-0.2,2.2,0.4,3.3,0.8c0.4,0.1,0.5,0.5,0.5,0.8c0,0.5-0.2,0.9-0.6,1.2c-0.8,0.6-1.4,1.3-2.4,1.4
				c-0.1,0-0.2,0.1-0.3,0.2c-0.1,0.1,0,0.3-0.1,0.5c0.2,0.1,0.4,0.2,0.6,0.2c0.6,0.1,1,0.5,1.1,1.1c0.1,0.6,0.5,1.1,1,1.5
				c0.7,0.6,0.4,1.6-0.5,1.9c-0.7,0.2-1.4,0.3-2.2,0.5c-0.2,0-0.3,0.2-0.5,0.3c0.2,0.5,0.5,0.4,0.8,0.4c1,0,1.9,0.3,2.9,0.1
				c1.2-0.3,2.4-0.3,3.5,0.2c0.4,0.2,0.8,0.2,1.2,0.2c2.5,0.2,5,0.3,7.5,0.4c0.4,0,0.8,0,1.1-0.3c0.4-0.3,0.8-0.4,1.3-0.3
				c1.2,0.1,2.4-0.1,3.6,0.2c0.4,0.1,0.8,0.1,1.2,0.1c1.2,0,1.6-0.3,1.7-1.4c0.1-0.9,0.1-1.8,0.2-2.7c0.2-3.3,0.3-6.6,0.5-9.9
				c0-0.8,0-1.6-0.5-2.3c-0.3-0.5-0.3-1.1-0.3-1.6c0.1-1.4,0.1-2.8,0.2-4.3C261.5,244.7,261.4,244.3,261.4,243.8z M183.7,191.1
				c1.3-0.1,2.6,0.1,3.6-0.7c0.2-0.2,0.5-0.3,0.8-0.3c1.2,0.1,2.4,0.2,3.6,0.3c0.5,0.1,0.7,0.6,0.5,1.1c-0.1,0.3-0.3,0.6-0.4,0.9
				c-0.2,0.4-0.1,0.7,0.2,0.9c0.3,0.2,0.8,0.3,1.1,0c0.4-0.3,0.7-0.7,0.7-1.3c0-0.3-0.1-0.6-0.1-0.9c0-0.4,0.3-0.8,0.7-0.8
				c0.5-0.1,0.9-0.1,1.4-0.1c2,0.1,4.1,0.2,6.1,0.4c0.7,0,1.5,0.4,2.4,1.1c-1.8,1.1-2.1,1.4-2.4,2.3c0,0,0.1,0.1,0.1,0.1
				c0.2,0,0.5-0.1,0.7-0.2c1.6-0.7,3.2-1.1,5-1.2c0.2,0,0.5-0.1,0.7-0.1c2.5-0.4,5-0.3,7.5,0c1.3,0.2,2.6,0.4,3.9,0.6
				c1,0.1,2,0.3,3,0.8c0.8,0.4,1.5,0.8,2.3,1.2c0.8,0.4,1.4,0.2,1.9-0.5c0.2-0.3,0.4-0.7,0.5-1.1c0.1-0.3,0.1-0.6,0.1-0.8
				c0.2-0.8,0.5-1.1,1.4-1.1c0.3,0,0.7,0.1,1,0.1c0.6,0.1,1.1,0.1,1.7,0.2c1.1,0.1,2.3,0.2,3.4,0.2c0.4,0,0.8,0,1.2-0.1
				c0.7-0.1,1.1-0.5,0.9-0.8c-0.2-0.5-0.7-0.4-1-0.4c-2.1-0.1-4.1-0.1-6.2-0.2c-1.3-0.1-2.6-0.1-3.9-0.2c-1.8-0.1-3.5-0.2-5.3-0.3
				c-0.2,0-0.5-0.1-0.5-0.4c0.2-0.1,0.4-0.2,0.6-0.2c0.6-0.2,1-0.5,1.3-1c0.7-1.3,1.8-2,3.1-2.6c0.8-0.3,1.7-0.5,2.2-1.4
				c0.1-0.2,0.6-0.3,0.9-0.5c0.6-0.2,0.8-0.6,0.8-1.2c-0.1-0.8-0.2-1.6-0.3-2.4c0-0.2-0.2-0.4-0.3-0.5c-0.9-0.1-1.3,0.9-2.2,0.7
				c0.1-0.3,0.2-0.4,0.3-0.6c0.2-0.4,0.5-0.8,0.6-1.2c0.3-0.9,0.1-1.1-0.9-1.6c-0.6,0.2-1.1,0.5-1.6,0.7c-0.5,0.1-0.9-0.3-0.9-0.8
				c0-0.6,0.3-1,0.9-1.1c0.3-0.1,0.6,0,0.8-0.1c0.2-0.1,0.4-0.2,0.5-0.4c0.2-0.3,0.1-0.5,0-0.7c-1.1-0.3-2-0.5-2.9-0.9
				c-1.2-0.6-2.3-1.3-3.3-2c-1-0.7-2-1.3-3.3-1.3c-0.9,0-1.3-0.6-1.4-1.5c-0.1-0.7,0-1.4,0.5-1.9c0.2-0.2,0.3-0.3,0.4-0.5
				c0.3-0.4,0.2-0.6-0.6-1c-0.2,0.2-0.4,0.5-0.7,0.7c-0.4,0.4-0.8,0.5-1.2,0.2c-0.7-0.5-1.3-1.1-1.3-2.1c0-0.4,0-0.9-0.5-1.3
				c-0.1,0-0.4-0.1-0.6-0.1c-0.8-0.2-1.4-0.6-1.7-1.5c-0.1-0.2-0.1-0.5-0.4-0.3c-0.4,1-0.6,2-0.4,3.1c0.2,0.7,0.1,1.6-0.3,2.3
				c-0.2,0.3-0.2,0.8-0.2,1.2c-0.1,1.6-0.2,3.3-0.2,5c0,1.4,0,2.7,0,4.2c0.3,0.2,0.7,0.4,1,0.6c-1,1.7-1,1.7-1.1,3.7
				c0,0.5,0,1,0,1.5c0,0.3,0.1,0.7,0.2,0.9c2.3,0.9,2.4,1.2,2.1,3.2c-0.8-1.8-1-1.9-2.5-1.7c-0.1,0.4-0.2,0.7-0.2,1.1
				c0,0.6,0.4,0.9,1,0.8c0.3,0,0.5-0.1,0.9-0.2c-0.4,0.9-1.2,0.5-1.7,0.8c-0.1,0.6,0.2,1.2-0.4,1.6c-1.3,0.3-3,0.3-3.8-0.2
				c-0.8-0.5-1.7-0.6-2.6-0.6c-3.4-0.2-6.7-0.3-10.1-0.5c-0.7,0-1.4,0-2,0.2c-0.9,0.3-1.8,0.4-2.7,0.3c-1.3-0.1-2.6-0.1-3.9-0.1
				c-0.2,0-0.6-0.1-0.7,0.3C183,189.9,183,189.9,183.7,191.1z M39.8,208.9c0.9,0.3,1.8,0.1,2.6-0.3c0.9-0.4,1.9-0.8,2.8-1.3
				c1.3-0.5,2.6-1,3.8-1.6c1.4-0.7,2.7-1.5,4-2.3c1.5-0.8,2.6-1.9,3.6-3.3c0.6-0.8,0.6-1.6,0.4-2.4c-0.3-0.8-0.6-1.6-0.8-2.4
				c-0.1-0.3-0.2-0.6-0.1-0.8c0.3-1.1-0.1-2.2-0.1-3.4c0-0.3-0.2-0.7-0.4-0.9c-0.6-0.8-0.8-1.8-0.8-2.8c0-0.8-0.1-1.6-0.1-2.4
				c0-1.3,0.1-2.5-0.4-3.5c0.1-0.8,0.9-1.1,0.6-2c-0.1-0.1-0.3-0.2-0.5-0.3c-0.2-0.1-0.5-0.3-0.7-0.4c-0.1-1.6-0.1-1.6-1.2-2.4
				c-0.2-0.1-0.4-0.3-0.5-0.4c-0.7-0.6-1.1-1.3-0.9-2.3c0-0.2,0-0.4,0-0.7c-1.3-0.8-2.6-1.2-3.9-1.9c-0.1-0.1-0.3-0.1-0.5-0.1
				c-1.1,0-1.7-0.5-2.1-1.4c-0.3-0.7-0.7-1.3-1-2c-0.1-0.2-0.2-0.5-0.7-0.6c-0.1,0.3-0.2,0.6-0.3,0.9c-0.1,0.7-0.2,1.4-0.2,2
				c-0.1,1-0.2,1.9-0.9,2.7c0.4,1.4,0.4,2.9,1,4.2c0.2,0.5,0.2,1-0.1,1.5c-0.8,1.4-1,3-1.1,4.6c0,0.9-0.1,1.7-0.1,2.6
				c0,0.7-0.1,1.5-0.1,2.2c0,0.6,0,1.2-0.3,1.8c-0.4,0.9-0.5,1.8-0.5,2.8c0,1.2,0.1,2.5-0.5,3.7c-0.2,0.3-0.2,0.8-0.2,1.2
				c0,1.2,0.2,2.5,0,3.7c-0.1,0.3,0,0.7,0,1C40.2,204.4,40.1,206.6,39.8,208.9z M277.3,236.8c-1.1-0.1-1.4,0-1.8,0.5
				c-0.8,1.3-1.8,2.5-2,4.1c-0.1,0.9,0.2,1.3,1.1,1.4c0.9,0.1,1.8,0,2.7,0.2c0.6,0.2,1.2,0,1.7-0.5c0.2-0.2,0.5-0.4,0.7-0.6
				c1.2,0.3,2.2,0.6,3.3,0.7c2.5,0.3,4.9,0.9,7.5,0.8c0.1,0,0.2,0,0.3,0c1.1,0.3,2.2,0.2,3.1-0.7c1.1,0.6,2.2,0.5,3.4,0.6
				c1.5,0,3,0,4.5,0c0.7,0,1.3,0.1,2,0.4c1.1,0.5,1.8,0.2,2.2-1c0.7-2.2,0.6-4.4-0.1-6.6c0-0.1-0.2-0.2-0.4-0.4
				c-0.3,0.2-0.7,0.4-1,0.5c-0.2-0.4-0.3-0.8-0.4-1.1c-1.1-0.1-2-0.2-2.9-0.4c-0.9-0.2-1.8-0.3-2.7,0.1c-0.5,0.2-1.1,0.2-1.7,0.2
				c-0.8,0-1.7,0-2.7-0.1c-0.4-0.2-0.9-0.8-1.6-0.8c-1.7,0-3.3-0.1-5-0.1c-1.1,0-2.3,0.1-3.4-0.1c-0.6-0.1-1.1-0.1-1.7-0.1
				c-1.3,0-1.7,0.3-2.1,1.5c-0.2,0.5-0.2,1.1-0.3,1.7c-0.1,0.6-0.1,1.3-0.1,1.9c0,0.3-0.1,0.5-0.2,0.9
				C278.5,238.9,277.7,237.9,277.3,236.8z M235.3,110.9c0.3-0.3,0.6-0.6,0.9-0.8c1.3-1.2,2.7-1.3,4.2-0.4c0.7,0.4,1.2,0.8,1.7,1.4
				c0.5,0.6,1,1.3,1.5,1.9c0.2,0.3,0.5,0.5,0.9,0.9c0-1,0.1-1.8,0.1-2.7c0.1-1.5,0.1-3.1,0.1-4.6c-0.1-2,0-4,0-6
				c0-1.2,0.1-2.4,0.2-3.6c0.1-1.5-0.1-3.1-0.2-4.6c0-0.7-0.2-1.4-0.3-2.2c-0.5,0-1-0.1-1.4,0c-2.2,0.1-4.3,0.2-6.5,0.4
				c-0.8,0.1-1.6-0.1-2.2-0.7c-0.1-0.1-0.2,0-0.4,0c-0.3,0.2-0.4,0.5-0.4,0.9c0,1.3,0,2.5,0.1,3.8c0,0.2,0,0.5,0.1,0.7
				c0.3,0.7,0.3,1.4,0.3,2.2c0.1,2.3,0.1,4.6,0.2,6.8c0,0.4,0,0.8-0.1,1.2c-0.1,0.4-0.3,0.7-0.4,0.9c0.1,1,0.2,1.9,0.4,2.7
				C234.9,109.8,234.9,109.8,235.3,110.9z M234,75.9c-1-1.1-1.1-1.1-2.3-1.1c-0.1,0-0.2,0-0.3,0c-2.3,0-4.7,0-7-0.1
				c-0.4,0-0.9-0.2-1.3-0.2c-0.4-0.1-0.8-0.2-1.2-0.1c-1.6,0.3-3.2,0.2-4.8,0.2c-3.5,0-7-0.1-10.4,0c-2.3,0-4.6,0.2-6.8,0.3
				c-0.5,0-1,0.2-1.4,0.2c-0.7,0.9-0.7,1.8-0.6,2.7c0,0.6-0.1,1.3,0.4,1.7c1.1-0.1,2-0.1,3-0.2c0.3-0.4,0.6-0.7,0.7-0.9
				c3.1,0,6.1,0,9.1-0.2c2.3-0.1,4.7-0.2,7-0.1c1,0,1.9-0.1,2.7-0.8c0.1-0.1,0.2-0.1,0.4-0.1c0.8,0.7,1.6,0.6,2.4,0
				c0,0,0.1-0.1,0.2-0.1c0.1,0,0.2,0,0.3,0.1c0.1,0.1,0.1,0.3,0.2,0.4c0.1,0.2,0.2,0.4,0.3,0.6c1.9,0.3,3.8-0.2,5.6,0.2
				c0.3,0.4,0.6,0.7,0.8,1c0.9-0.1,1.8-0.2,2.8-0.3c0.2,0.2,0.3,0.5,0.5,0.7c0.3,0.5,0.7,0.8,1.2,0.8c0.4,0,0.8,0,1.2,0
				c2.3,0,4.7,0.1,7,0.1c1.2,0,2.4,0,3.6,0c0.6,0,1.3-0.1,1.7-0.6c0-0.5,0-1,0-1.5c-0.7-0.4-1.4-0.3-2-0.3c-2.6,0-5.3,0-7.9,0
				c-1.4,0-2.7,0-4.1-0.1c-0.2,0-0.5-0.1-0.3-0.4c1.3,0,2.6,0,4,0c2.7,0,5.4,0.1,8,0.1c0.5,0,0.9,0,1.4-0.1c0.4-0.1,0.7-0.4,0.8-0.8
				c0.2-1.1-0.3-1.5-1.1-1.5c-0.3,0-0.7,0-1,0c-3.1-0.1-6.3-0.2-9.4-0.3c-0.7,0-1.5,0-2.2,0C234.6,75.4,234.3,75.6,234,75.9z
				 M211.9,107.9c-0.5,0.8-0.5,1.7-0.5,2.5c0,1.2,0,2.4,0.1,3.6c0.1,1.5,0.2,3,0.2,4.4c0,1.4,0.1,2.7-0.1,4.1
				c-0.1,1.3-0.2,2.5-0.2,3.7c0,1.4,0.4,2.7,0.1,4.1c-0.1,0.4,0.3,0.8,0.9,0.9c1.1,0.2,2.3,0.3,3.4,0.4c0.6,0.1,1.1-0.2,1.6-0.5
				c0.8-0.6,1.2-1.3,1.3-2.3c0.1-1.6,0.2-3.3,0.4-4.9c0.4-3.4,0.2-6.8,0.1-10.2c-0.1-2.3-0.5-4.5,0.5-6.7c0-0.1,0-0.1,0-0.2
				c0.1-1-0.2-1.6-1.2-1.7c-1.9-0.3-3.9-0.3-5.8-0.1c-0.7,0.1-1.1,0.5-1.3,1.2C211.1,106.8,211.4,107.3,211.9,107.9z M176.6,203.6
				c-0.6-0.4-1.1,0-1.5,0.3c-0.3-0.3-0.5-0.5-0.8-0.7c-0.9,0.3-1.6,0.9-2.5,0.5c-0.8-0.3-1.8-0.4-2.3-1.3c-0.5,0.1-0.9,0.2-1.4,0.3
				c0.1,0.3,0.1,0.5,0.1,0.7c-0.5,0.5-1.2,0.5-1.9,0.7c-0.1,0-0.2,0.1-0.3,0.3c0.1,0.3,0.2,0.7,0.2,1c-0.2,0.2-0.4,0.3-0.6,0.5
				c0.1,0.4,0.4,0.9,0.4,1.3c0,0.4-0.1,0.9-0.2,1.3c-0.1,0.5,0.1,0.9,0.4,1.3c0.5,0.8,0.9,1.6,1,2.5c0.1,0.4,0.2,0.8,0.4,1.1
				c0.6,0.7,0.6,1.4,0.7,2.2c0.1,0.7-0.1,1.4,0.4,2c0.1,0.1,0,0.4,0,0.6c0,0.2,0,0.5,0.1,0.6c0.4,0.5,0.8,1,1.5,1.2
				c0.4-0.2,0.8-0.5,1.3-0.8c1.4,0.5,2.6,1.1,4.1,1.2c0.3,0,0.5,0.2,0.8,0.4c0.2,0.1,0.3,0.1,0.5,0.1c0.3-0.2,0.3-0.4,0.1-0.6
				c-0.3-0.2-0.7-0.3-1.1-0.4c-0.2-0.1-0.4-0.2-0.2-0.5c0.6,0,1.2,0,1.8,0c0.4-1.2,0.8-2.3,1-3.5c0.5-2.6,0.9-5.3,1.3-7.9
				c0.2-1.2-0.1-2.4-0.3-3.6c-0.1-0.3-0.2-0.5-0.3-0.8c-0.4-0.8-1.2-1-2-0.5C177.1,203.2,176.9,203.4,176.6,203.6z M234.3,154.4
				c-0.3,1.3-0.4,6.3-0.2,11.7c0,0.2-0.1,0.5,0.3,0.6c0.4-0.2,0.9-0.5,1.4-0.8c2.3-1.7,4.5-3.4,6.7-5.3c0.8-0.7,1-1.5,0.8-2.4
				c-0.3-1.1-0.6-2.2-0.9-3.3c-0.2-0.9-0.3-1.9-0.4-2.9c-0.2-2.1-0.2-4.2,0-6.3c-0.2-0.2-0.3-0.4-0.5-0.5c-1.6-1.3-2.5-3.1-2.7-5.2
				c-0.1-0.9-0.3-1.7-0.7-2.4c-0.2-0.3-0.3-0.7-0.5-1.1c-0.5-1.2-1-2.4-1.6-3.6c-0.3,0.3-0.6,0.5-0.8,0.6c-0.3,0.2-0.6,0.3-0.9,0.5
				c-0.2,0.4-0.3,0.8-0.6,1c-0.4,0.5-0.6,1-0.6,1.6c0,1-0.1,1.9-0.2,2.9c0,1.5,0,3,0,4.5c0.4,0.3,0.8,0.6,1.2,0.9
				c0.1,0.5,0.3,0.9,0.4,1.3c0.8,0.3,1.6-0.1,2.2,0.6c0.3,0.8,0,1.7,0,2.5c0,0.8,0,1.6-0.1,2.4c-0.1,0.8,0.1,1.7-0.2,2.6
				C235.6,154.2,234.9,154.3,234.3,154.4z M184.6,274.1c0.3-0.1,0.5-0.1,0.6-0.1c0.8-0.2,1-0.4,1.1-1.1c0-0.2,0-0.5,0-0.7
				c0-0.7-0.4-1.1-1-1.2c-0.4-0.1-0.9-0.1-1.4-0.2c-5.2-0.3-10.5-0.5-15.7-0.8c-1,0-1.9-0.1-2.9-0.3c-0.6-0.2-1.2-0.1-1.9-0.1
				c-1.3,0-2.5,0-3.8-0.1c-2.2-0.1-4.3-0.1-6.5-0.2c-0.3,0-0.7,0-1-0.1c-1-0.1-2-0.2-3.1-0.3c-1.3-0.1-2.6-0.2-3.9-0.3
				c-1.3-0.1-2.6,0.2-3.9-0.3c-0.1,0-0.2,0-0.3,0c-0.1,0.1-0.4,0.2-0.4,0.3c0,0.2,0,0.4,0.1,0.6c0.1,0.1,0.2,0.3,0.4,0.3
				c0.5,0.2,0.9,0.5,1,1c0.1,0.5,0.5,0.7,1,0.8c0.6,0.1,1.1,0.1,1.7,0.2c1.6,0.1,3.2,0.2,4.8,0.3c3.1,0.2,6.1,0.4,9.2,0.6
				c1.7,0.1,3.4,0,5.1,0.3c0.4,0.1,0.9,0,1.4,0c0.4,0,0.8-0.1,1.2,0c2.8,0.1,5.6,0.3,8.4,0.5c0.4,0,0.8,0.1,1.1,0.2
				c0.2,0.4,0.3,0.8,0.5,1.2c0.1,0.3,0.4,0.4,0.8,0.2c0.2-0.3,0.3-0.7,0.6-1.3c1.7,0.3,3.5,0,5.3,0.4c0,0.4,0,0.7,0.1,1.1
				c0.1,0.2,0.3,0.4,0.5,0.4c0.2,0,0.5-0.1,0.5-0.3C184.4,274.9,184.5,274.5,184.6,274.1z M217.2,226.3c-0.4-0.4-0.9-0.3-1.3-0.2
				c-1.2,0.1-2.4,0.3-3.6,0.4c-1,0.1-1.9,0.1-2.9-0.1c-0.4-0.1-0.9-0.1-1.4-0.1c-0.6,0-1.1,0.3-1.3,0.9c-0.4,1.2-1,2.5-0.4,3.8
				c0.1,0.3,0.1,0.7,0.1,1c0.1,0.5,0.4,0.8,0.8,1.1c0.3,0.2,0.7,0.4,1.1,0.5c2.5,0.5,5,0.5,7.5-0.2c0.1,0,0.1,0,0.2-0.1
				c1.9-0.8,3.9-1.6,5.4-2.9c1-0.9,2-1.8,3.1-2.6c0.2-0.1,0.4-0.3,0.5-0.5c0.3-0.9,1.4-1.4,1.4-2.5c0-0.1,0.2-0.3,0.3-0.4
				c1.5-1.2,1.5-3.1,2.2-4.7c0,0,0-0.1,0-0.2c-0.1-1,0.1-2,0.4-3c0.1-0.4,0.1-0.9,0-1.4c-0.1-0.5-0.2-1-0.1-1.5c0.1-0.6-0.4-1-1-1
				c-0.6,0-1,0.4-1,1c0,1,0.1,1.9,0.1,2.9c0,1.1-0.1,2.2-0.5,3.2c-0.5,1.3-1,2.7-1.5,4c-0.1,0.2-0.2,0.3-0.3,0.4
				c-0.9,1-1.8,1.9-2.7,2.8c-1.2,1.2-2.6,1.9-4.2,2.5c-0.1-0.6-0.2-1.1-0.4-1.5C217.6,227.3,217.4,226.8,217.2,226.3z M246.2,276.9
				c0.4,0,0.8-0.1,1.3-0.1c4.8,0.1,9.7,0.2,14.5,0.6c0.3,0,0.7,0.1,1,0c0.6-0.1,1-0.5,1.1-1.1c0.1-0.8-0.4-1.4-1.3-1.5
				c-0.9-0.1-1.8-0.1-2.7-0.2c-2.3-0.1-4.6-0.2-6.8-0.3c-3.6-0.2-7.2-0.4-10.8-0.5c-3.8-0.1-7.6,0-11.5,0c-0.2,0-0.5,0-0.7,0.1
				c-0.5,0.1-0.7,0.5-0.8,1c-0.1,0.4,0,0.8,0.4,1c0.6,0.3,0.9,0.6,1.1,1.2c0.1,0.2,0.3,0.3,0.5,0.5c0.3-0.5,0.6-0.9,0.9-1.4
				c1.7,0,3.4,0,5.1,0.4c0.1,0.2,0.1,0.4,0.1,0.5c0,0.4,0.1,0.8,0.6,0.9c0.4,0.1,0.6-0.3,0.8-0.5c0.1-0.1,0.2-0.1,0.2-0.2
				c0.6-0.1,1.1-0.1,1.5-0.3c1.1-0.5,2.2-0.4,3.2-0.1c0.1,0.1,0.2,0.1,0.2,0.2c0.8,1.3,0.8,1.3,1.6,0.1
				C245.9,277.1,246,277.1,246.2,276.9z M211.9,82.1c-0.1,0.1-0.3,0.2-0.5,0.3c-0.6,0.4-0.9,1-1,1.7c-0.1,0.4-0.1,0.8-0.1,1.2
				c-0.1,2.1,0.1,4.1,0.3,6.1c0.1,0.8,0.3,1.1,1.2,1.1c2.5,0.2,5,0,7.5-0.1c0.5,0,0.8-0.3,0.8-0.9c0.1-1,0.2-1.9,0.3-2.9
				c0.1-0.6-0.1-1.1-0.4-1.6c-0.1-0.1-0.3-0.3-0.4-0.3c-0.2,0-0.5,0.1-0.6,0.3c-0.2,0.2-0.2,0.5-0.3,0.8c-0.2,0.5-0.3,1.1-0.6,1.6
				c-0.2,0.4-0.4,0.7-0.7,1c-1.5,1.3-4.4,0.8-5.3-1c-0.2-0.4-0.4-0.8,0-1.3c0.3,0.1,0.6,0.2,1,0.2c3,0.7,5.4-1.5,4.8-4.6
				c-0.1-0.7-0.2-1.3,0-2c-0.3-0.4-0.5-0.7-0.6-1c0.1-0.4,0.2-0.8,0.3-1.3c-1.6-0.3-3.1-0.4-4.7-0.1c-0.8,0.2-1.2,0.8-1.3,1.6
				C211.9,81.4,211.9,81.7,211.9,82.1z M206.9,200.8c0.7,0.4,1.4,0.4,2.3,0.2c1.6-0.3,3.2-0.2,4.8-0.1c0.6,0,1.2,0,1.9,0.1
				c1.2,0.1,2.5,0.2,3.5,1.1c0.6,0.5,1.3,0.9,2,1.3c0.5,0.3,1,0.2,1.4-0.2c0.4-0.6,0.5-1.2,0-1.5c-0.9-0.6-1.8-1.3-2.7-1.7
				c-0.5-0.2-0.9-0.4-1.2-0.8c-0.3-0.4-0.7-0.6-0.9-1c-0.5-0.6-1-0.9-1.7-1c-1.1-0.2-2.1-0.5-3.2-0.6c-2.1-0.2-4.2,0-6.2,0.7
				c-0.7,0.2-1.2,0.5-1.6,1.2c-0.1,0.3-0.4,0.7-0.6,0.8c-1,0.2-1.5,1.2-2.4,1.5c-0.6,0.1-0.8,0.8-0.5,1.4c0.4,0.7,1,0.9,1.6,0.5
				c0.3-0.2,0.6-0.5,1-0.6C204.9,201.5,205.8,201.2,206.9,200.8z M152.1,265.7c1.6,1.1,1.7,1.2,3.2,1.3c2.2,0.1,4.4,0.3,6.7,0.4
				c0.5,0,1,0,1.5-0.1c0.9-0.2,1.9-0.2,2.7,0c1.4,0.5,2.9,0.5,4.4,0.6c4.7,0.2,9.3,0.4,14,0.6c0.3,0,0.7,0,1,0
				c0.4,0,0.7-0.4,0.6-0.9c-0.1-0.5-0.3-0.9-0.8-1c-0.4-0.1-0.9-0.2-1.3-0.2c-1.9-0.1-3.8-0.4-5.8-0.4c-2.3,0-4.7-0.1-7-0.3
				c-2.3-0.3-4.6-0.2-6.8-0.3c-3.2-0.2-6.5,0-9.7-0.7c-0.7-0.1-1.4-0.1-2,0.2C152.4,265,152,265.2,152.1,265.7z M219.5,94.2
				c-0.4-0.2-0.8-0.4-1.2-0.5c-1.2-0.2-2.4-0.3-3.6-0.2c-0.6,0-1.1,0.1-1.7,0.2c-0.5,0.1-0.8,0.4-0.9,0.9c0,0.2,0,0.5,0,0.7
				c0,1.9,0,3.9-0.1,5.8c0,0.4,0,0.8,0.1,1.2c0.1,0.6,0.4,1.1,1,1.2c1.6,0.3,3.2,0.2,4.8-0.1c0.6-0.1,1-0.6,1-1.2
				c0-0.2,0.1-0.5,0-0.7c-0.1-1.6,0.1-3.2,0.3-4.8C219.4,96,219.4,95.2,219.5,94.2z M267.8,154.7c0.1,0.3,0.1,0.4,0.1,0.5
				c1.3,0.3,2.5,0.9,3.8,1c0.8,0,1.5,0.4,2.1,1c0.1,0.2,0.2,0.3,0.2,0.5c0.1,1.1,0.7,1.6,1.8,1.8c0.7,0.1,1.3,0.4,1.9,0.8
				c1.1,0.6,2.3,1.2,3.7,1c0.3-0.1,0.6,0.1,1,0.1c0.3-0.6,0.6-1.2,0.9-1.8c0.6-0.1,1.1-0.1,1.7,0.1c1.5,0.6,3.1,1,4.6,1.8
				c0.2,0.1,0.4,0.2,0.6-0.2c-0.1-0.2-0.1-0.4-0.3-0.5c-0.5-0.6-1.1-1-1.9-1.3c-1.6-0.6-3.2-1.5-4.8-2.2c-1.2,1-2,0.2-2.8-0.4
				c-0.4,0.2-0.7,0.4-1,0.5c0-0.3-0.1-0.6-0.1-0.9c-0.4-0.1-0.9-0.2-1.3-0.4c-0.5-0.3-0.9-0.6-1.6-0.5c-0.6,0.1-1.2-0.2-1.8-0.3
				c-0.6-0.1-1.2,0.2-1.8-0.2c-0.5-0.3-1.2-0.2-1.8-0.3c-0.3,0-0.7,0-1,0C268.9,154.8,268.9,154.9,267.8,154.7z M85.6,104.3
				c0,0.7,0.1,1.2,0.1,1.6c0,0.1,0,0.2,0.1,0.3c0.2,0.6,0.7,1,1.2,1c0.5,0,0.8-0.3,1.1-0.7c0.1-0.2,0.2-0.4,0.3-0.6
				c0.3-1,0.8-1.9,1-2.9c0.8-3.1,1.5-6.2,2.2-9.3c0.1-0.4,0.2-0.9,0.2-1.3c0-0.4-0.2-0.8-0.6-1c-0.4-0.2-0.8,0-1.1,0.3
				c-0.3,0.3-0.6,0.7-0.8,1.1c-0.2,0.4-0.4,0.9-0.6,1.4c-0.4,0.8-0.6,1.6-1.1,2.3c-0.9,1.3-1.4,2.7-1.5,4.3
				C86,102.1,85.8,103.3,85.6,104.3z M196.8,75.3c-3.9-0.4-7.9,0.2-11.9,0.2c-0.4,0-0.8,0.2-1.1,0.2c-0.5,1.8-0.2,2.3,1.5,2.4
				c3.5,0.1,6.9,0.1,10.4,0.1c0.4,0,0.8-0.1,1.2-0.2C197.3,77,197.5,76.2,196.8,75.3z M125.6,223.8c0.1,0.6,0.4,0.6,0.7,0.6
				c1.3,0.1,2.5,0.1,3.8,0.2c0.7,0.1,1.3,0,2-0.4c1.8-0.9,3.7-1.8,5.5-2.8c0.3-0.2,0.6-0.3,0.9-0.4c1.9-0.5,3.8-0.9,5.7-1.1
				c0.5,0,1-0.1,1.5-0.2c0.5-0.1,1-0.1,1.6-0.2c-0.2-0.2-0.5-0.2-0.7-0.2c-4.1,0-8.1,0.3-12.1,0.7c-0.5,0.1-1,0.2-1.5,0.4
				c-2,0.8-4,1.7-6,2.6C126.6,223.3,126.1,223.5,125.6,223.8z M82.4,106.8c-0.9,1.1-1.3,2.3-1.5,3.6c-0.1,0.6-0.1,1.1-0.1,1.7
				c0,0.1-0.1,0.2-0.1,0.3c-0.3,0.1-0.6,0.3-1,0.4c0.8,1.4,1.9,2,3.4,2c0.6,0,1.1-0.2,1.5-0.7c0.9-1.1,1.3-2.5,1.7-3.9
				c0.2-0.7-0.1-1.3-0.7-1.6c-0.5-0.3-1-0.7-1.5-1.1C83.6,107.2,83.1,106.9,82.4,106.8z M123.6,230.1c-0.5,1-0.7,2-0.6,3
				c0.1,0.8,0.5,1.5,1.3,1.9c1,0.5,2,0.7,3.1,0.8c0.9,0.1,1.3-0.2,1.6-1c0.4-1,0.5-2.1,0.5-3.2c-0.1-1-0.6-1.5-1.6-1.6
				c-1.1-0.1-2.3-0.1-3.4-0.1C124.2,230,123.9,230.1,123.6,230.1z M207.3,249.6c0,0,0-0.1,0-0.1c1.7,0.1,3.4,0.1,5.1,0.2
				c2,0.1,4.1,0.3,6.1,0.5c0.4,0,0.8,0,1.2,0c0.2,0,0.4,0,0.5-0.1c0.1-0.1,0.3-0.2,0.3-0.4c0-0.2-0.1-0.5-0.2-0.6
				c-0.3-0.4-0.8-0.4-1.3-0.4c-2.9,0.2-5.8-0.2-8.7-0.3c-0.7,0-1.5,0-2.2-0.1c-3.6-0.2-7.3-0.5-10.9-0.7c-0.4,0-0.9,0-1.3,0.2
				c-0.2,0-0.4,0.3-0.4,0.5c0,0.2,0.1,0.5,0.3,0.6c0.2,0.2,0.5,0.3,0.8,0.3c1.4,0.1,2.7,0.4,4.1,0.2c0.3-0.1,0.6,0,0.9,0
				C203.4,249.4,205.3,249.5,207.3,249.6z M134.2,232.7c-0.1-0.2-0.2-0.4-0.3-0.5c-0.2-0.9-0.9-1.1-1.7-1.1c-0.6,0-1,0.3-1.2,0.8
				c-0.4,0.9-0.5,1.9-0.2,2.8c0.1,0.4,0.4,0.7,0.8,0.8c0.4,0.1,0.8,0.2,1.2,0.1c0.4-0.1,0.8-0.3,1.3-0.5c0.4,0.7,0.6,1.4,0.7,2.1
				c0.1,0.6,0.2,1.1,0.4,1.6c0.1,0.2,0.3,0.3,0.6,0.4c0.3-0.6,0.4-1.2,0.8-1.6c0.9-0.9,0.7-2,0.6-3.1c-0.1-1.2-0.5-2.5-0.8-3.7
				c0-0.2-0.2-0.4-0.4-0.6C134.9,230.9,135,232,134.2,232.7z M271.7,150.3c0-0.5,0.1-0.8,0-1.1c-0.2-1.2-0.5-2.3-0.7-3.5
				c-0.2-0.9-0.7-1.2-1.6-1.1c-0.2,0-0.5,0.1-0.7,0.1c-1.9,0.6-3.7,1.4-5.3,2.7c-0.3,0.2-0.7,0.5-0.6,1.1c0.3,0.1,0.7,0.1,1.1,0.3
				c0.3,0.2,0.6,0.4,1,0.7c0.7-0.1,1.4-0.2,2.2-0.3c0.4,0,0.8,0,1.1,0.2c0.7,0.4,1.3,0.8,2.2,0.5
				C270.6,149.8,271.1,150.1,271.7,150.3z M257.5,268.8c-0.3,0.1-0.5,0.1-0.5,0.1c-0.4,0.7-1.1,0.9-1.9,0.9c-0.7,0-1.5,0.1-2.2,0.1
				c-0.6,0-1.3,0.1-1.9,0c-1,0-2-0.1-3.1-0.2c-1.6-0.1-3.2-0.2-4.8-0.2c-0.6,0-1.2,0.1-1.8,0.3c-0.2,0.1-0.5,0.3-0.7,0.5
				c-0.2,0.2-0.1,0.6,0.2,0.7c0.6,0.1,1.2,0.3,1.8,0.3c3.2,0.2,6.5,0.4,9.7,0.6c0.5,0,1,0,1.5-0.3c0.4-0.2,0.9-0.2,1.3-0.3
				c0.5-0.1,1,0,1.5-0.1c0.5-0.1,0.8-0.5,0.8-1C257.5,269.8,257.5,269.4,257.5,268.8z M216.2,205.2c-0.2-0.3-0.4-0.6-0.6-0.7
				c-0.4-0.3-0.9-0.5-1.3-0.9c-0.7-0.7-1.6-0.9-2.5-1c-1.2-0.1-2.3,0.1-3.4,0.4c-0.3,0.1-0.6,0.3-0.9,0.5c-0.6,0.6-1.2,1.3-1.8,2
				c0,0.4,0.2,0.6,0.5,0.6c0.8,0.2,1.6,0.4,2.3,0.6c0.9,0.4,1.8,0.4,2.6-0.1c1.3-0.7,2.7-1,4.1-1.2
				C215.6,205.6,215.8,205.4,216.2,205.2z M178.3,243.3C178.3,243.4,178.3,243.4,178.3,243.3c1.1,0.1,2.2,0.1,3.3,0.1
				c0.8,0,1.6,0,2.4-0.1c1.1-0.1,1.6-0.9,1.2-1.9c-0.1-0.4-0.4-0.6-0.8-0.6c-0.6,0-1.1,0.1-1.7,0.1c-1.5,0.1-3.1,0.3-4.6,0.4
				c-1.4,0.1-2.9,0-4.3,0c-0.5,0-0.9,0-1.4,0c-0.5,0.1-0.8,0.5-0.8,1c0,0.4,0.3,0.8,0.6,0.9c0.3,0.1,0.6,0.1,0.8,0.1
				C174.9,243.4,176.6,243.3,178.3,243.3z M156.9,219.8c-0.4,2.5-0.1,6.9,0.5,8.2c0.2,0,0.4,0,0.7,0c1.4-0.2,1.5-0.4,1.7-1.7
				c0.2-1.9,0.5-3.7,0.8-5.6c0-0.3,0-0.5,0-0.9C159.3,219.5,158.1,219.5,156.9,219.8z M221.7,233c-0.4-0.3-0.8,0-1.1,0.1
				c-1.3,0.4-2.5,0.8-3.8,1.1c-4,1-7.9,0.8-11.8-0.2c-0.4-0.1-0.9-0.3-1.3-0.4c-0.2,0-0.5,0-0.5,0.4c0.1,0.1,0.2,0.3,0.3,0.3
				c0.3,0.2,0.6,0.3,0.9,0.5c4.5,2.1,9.1,2.1,13.8,0.4c1-0.4,1.9-0.8,2.8-1.3C221.3,233.7,221.7,233.5,221.7,233z M168.2,195.9
				c0.4,0.5,1,0.6,1.5,0.6c2.8,0.1,5.7,0.2,8.5,0.3c0.2,0,0.5,0,0.7-0.1c0.1-0.1,0.3-0.2,0.3-0.3c0-0.2-0.1-0.4-0.2-0.6
				c-0.4-0.4-0.9-0.4-1.5-0.4c-1,0-2,0-3.1-0.1c0.6-0.2,1.1-0.2,1.7-0.2c0.5,0,1,0,1.5,0c0.2,0,0.4-0.2,0.5-0.3
				c-0.2-0.6-0.6-0.6-1-0.6c-1.4-0.1-2.8-0.2-4.3-0.3c-0.9,0-1.7,0-2.6,0c-0.2,0-0.4,0.2-0.6,0.3c0.1,0.3,0.2,0.6,0.3,0.8
				C169.5,195.3,168.6,195.1,168.2,195.9z M199.4,291.4c0.4-0.3,0.7-0.5,1-0.8c0.4-0.3,0.5-0.7,0.3-1.1c-0.2-0.4-0.5-0.6-1-0.6
				c-0.5,0-1,0.2-1.3,0c-1-0.4-2,0.1-3-0.3c-0.3-0.1-0.7,0.1-0.8,0.5c-0.1,0.4-0.2,0.9-0.3,1.3c-0.2,0.1-0.3,0.1-0.5,0.2
				c-0.2,0.1-0.4,0.2-0.6,0.3c-0.5,0.3-0.7,0.9-0.5,1.3c0.2,0.6,0.8,1,1.3,0.9c0.5-0.1,0.9-0.5,1-1c0.1-0.4,0.1-0.8,0.1-1.1
				c0.4-0.3,0.7-0.6,1.1-0.3c-0.1,0.2-0.3,0.5-0.3,0.7c-0.2,1.1,0.4,1.8,1.5,1.7c0.3,0,0.6-0.1,0.8-0.1c0.5-0.1,0.8-0.4,0.9-0.9
				C199.3,292,199.3,291.7,199.4,291.4z M348.6,112.9c-0.2,0.3-0.4,0.5-0.5,0.7c-0.4,0.8-0.7,1.7-1.2,2.5c-0.4,0.8-0.4,1.5-0.1,2.3
				c0.5,1.4,1.9,1.9,3.2,1.3c0.6-0.3,1.3-0.5,1.9-0.7c0.2-0.1,0.3-0.2,0.6-0.4c-0.4-0.5-0.9-0.8-1.2-1.3c-0.3-0.5-0.5-1.2-0.7-1.7
				c-0.1-0.3-0.3-0.6-0.5-0.9C349.6,114.1,349.1,113.5,348.6,112.9z M219.6,196.3c-0.2-0.2-0.4-0.4-0.6-0.5
				c-0.7-0.3-1.4-0.7-2.2-0.9c-2.9-0.9-5.9-1-8.9-0.5c-1.7,0.3-3.4,1-4.9,1.9c-0.2,0.1-0.5,0.3-0.2,0.8c1.3-0.3,2.7-0.7,4.1-0.9
				c1.4-0.2,2.8-0.4,4.2-0.4c1.4,0,2.8,0.2,4.3,0.3C216.7,196.1,218,196.6,219.6,196.3z M352.7,129.3c-0.8,1.4-1.1,2.8-1.6,4.2
				c-0.1,0.3,0,0.7,0.1,1c0.3,0.8,0.9,1.6,1.6,2.2c0.7,0.6,1.6,0.7,2.4,0.2c0.5-0.3,1-0.7,1.5-1.2c0.5-0.4,0.4-1-0.2-1.2
				c-1.4-0.6-2.1-1.7-2.8-2.9C353.2,130.9,353,130.2,352.7,129.3z M215.8,48c0.1-0.1,0.2-0.2,0.2-0.3c0-0.7-0.3-1.2-1-1.4
				c-0.7-0.2-1.3-0.4-1.9-0.6c-0.2-0.1-0.4-0.2-0.4-0.5c0.6-0.1,1.2,0.1,1.8,0.1c0.3,0,0.6,0.1,0.7-0.4c-0.2-0.2-0.3-0.5-0.5-0.8
				c-0.1-0.2-0.4-0.5-0.4-0.7c0-0.7-0.3-1.1-0.9-1.3c-0.7-0.3-1.3-0.7-1.9-1.2c-0.4-0.4-0.9-0.7-1.6-0.6c0.2,1.2,0,2.5,0.7,3.6
				c0.1,1.3,1,2.1,2,2.8C213.6,47.4,214.7,47.8,215.8,48z M136.4,271.1c0.4,0,0.8,0,1.1,0c0.2,0,0.5,0,0.7-0.1
				c0.1-0.1,0.2-0.3,0.2-0.4c0-0.1-0.1-0.2-0.2-0.2c-0.6,0-1.2,0-1.7,0c-0.7-0.5-0.6-1.3-1.5-1.5c-0.3,0.2-0.7,0.4-1.1,0.7
				c-0.8-0.2-1.6-0.4-2.4-0.6c-0.6,0.6-0.7,1.3-0.3,2.2c0.2,0,0.4,0,0.7,0c1.1,0,1.5,0.4,1.7,1.5c0,0.3,0,0.7,0,0.9
				c1.2,0.9,1.2,0.9,2.2,0.7c0.7-0.1,1.3-0.2,2-0.2c0.3,0,0.5-0.2,0.3-0.6C136.2,272.9,136.1,272.7,136.4,271.1z M384.2,170.2
				c0.2-0.1,0.4-0.1,0.5-0.2c1.1-0.9,2.2-1.8,3.2-2.8c0.2-0.2,0.2-0.6,0-0.8c-0.7-0.7-1.6-1.3-2.6-1.6c-1.1-0.3-2.2-0.4-3.3-0.5
				c-0.5,0.4-0.4,0.8-0.2,1.1c0.7,1.2,1.2,2.4,1.7,3.7C383.7,169.6,384,169.9,384.2,170.2z M244.5,115.7c-1-0.5-1.6-1.3-2.3-2.1
				c-0.5-0.6-0.9-1.1-1.4-1.7c-0.6-0.7-1.3-1.1-2.2-1.3c-0.2-0.1-0.5,0-0.5,0.5c1.2,0.6,1.6,1.9,2.1,3.1c0,0.1,0.1,0.2,0.1,0.3
				c0.9,1.9,1.9,3.7,3.6,5.1C244.8,118.6,244.9,118,244.5,115.7z M77.5,64.6c-0.7,0.1-1.5-0.1-2.2-0.3c-0.9-0.3-1.7,0.1-2.4,0.7
				c-0.5,0.4-0.6,1.2-0.3,1.7c0.3,0.5,0.7,1,1.4,1.3c0.7-0.3,1.4-0.6,2.1-0.9c0.2-0.4,0.3-0.7,0.5-1.3c0,0.6,0,0.9-0.1,1.3
				c-0.4,1.3-1.4,1.8-2.7,1.3c-1.3-0.5-2.2-1.4-2.3-2.9c0-0.2,0.2-0.6-0.3-0.7C71,65.5,70.9,65.9,71,67c0.1,0.6,0.3,1.1,0.8,1.5
				c1.2,1.1,2.9,1.3,4.2,0.5c0.7-0.4,1.4-0.9,1.6-1.7C77.8,66.4,78.1,65.5,77.5,64.6z M166.8,188.3c-0.1,0.5-0.2,1.1-0.4,1.8
				c2.2,0.5,4.3,0.6,6.4,0.6c0.4-0.5,0.8-1.1,1.2-1.5c0.5-0.4,1.1-0.6,1.7-0.9c-0.4-0.5-0.9-0.5-1.3-0.4c-1.3,0.3-2.6,0.2-3.9,0.2
				c-0.7,0-1.5-0.1-2.2-0.2C167.8,187.9,167.3,187.8,166.8,188.3z M161.8,193.2c0.1-0.2,0.3-0.4,0.4-0.6c0.4-0.6,0.2-1.2-0.5-1.3
				c-0.4,0-0.9-0.1-1.4,0c-0.7,0-1.2,0.4-1.5,1c-0.5,0.8-0.6,1.6-0.1,2.4c0.8,1.3,0.8,2.6,0.2,3.9c0,0.1-0.1,0.1-0.1,0.2
				c-0.2,0.5,0.1,1,0.6,1.3c0.7,0.3,1,0.1,1.6-0.7c-0.6-1.7-0.6-1.8,0.1-3.5c0.2-0.5,0.5-1.1,0.2-1.7c-0.4-0.1-0.9-0.3-1.3-0.4
				c-0.1-0.4,0.1-0.6,0.3-0.6C160.6,193,161,193.1,161.8,193.2z M271.6,123.1c-0.6,0.7-1.1,1.4-1.7,2c-0.6,0.6-1.2,1-2.1,0.7
				c-0.3-0.1-0.7-0.1-1-0.1c-0.8,0-1.3-0.3-1.8-0.9c-0.3-0.3-0.5-0.6-0.7-1c-0.2-0.3-0.6-0.4-0.9-0.3c-0.3,0-0.6,0.5-0.5,0.7
				c0.1,0.2,0.2,0.4,0.4,0.5c0.6,0.5,1.3,0.9,2,1.3c0.1,0.1,0.3,0.2,0.5,0.2c1,0.2,2,0.2,3,0.6c0.6-0.2,1.2-0.4,1.7-0.5
				c0.4-0.1,0.9-0.1,1.3-0.2c0.3,0,0.7-0.1,1-0.2c0.4-0.1,0.7-0.3,0.8-0.8C273.3,124.2,272.5,123.6,271.6,123.1z M239.1,189.4
				c0-0.1,0.1-0.2,0.1-0.3c-0.3-0.2-0.6-0.5-0.9-0.6c-0.4-0.1-0.8-0.1-1.2-0.2c-1.9-0.1-3.7-0.2-5.6-0.3c-1.4-0.1-2.8-0.1-4.3-0.1
				c-0.7,0-1.4,0.1-1.9,0.6c-0.2,0.1-0.2,0.3-0.4,0.7c2.5-0.3,4.8,0.1,7.1,0.1C234.4,189.1,236.7,189.6,239.1,189.4z M372.1,175.9
				c-0.1,1.4,0,2.2,0.3,2.9c0.2,0.5,0.6,0.8,1.2,0.8c0.3,0,0.6,0,0.8-0.1c1.5-0.3,1.7-0.5,1.5-2.1c0-0.4,0-0.8-0.1-1.2
				c-0.1-0.3-0.2-0.6-0.3-1C374.3,175.1,373.1,175.1,372.1,175.9z M191.5,286c0.3,0.3,0.4,0.5,0.5,0.5c0.5,0.1,1,0.3,1.5,0.3
				c2.9,0.4,5.9,0.4,8.9,0.4c1.5,0,3-0.1,4.4,0.1c0.3,0,0.7,0.1,0.9-0.3c0.1-0.3-0.2-0.5-0.9-0.5c-1.3,0-2.5-0.1-3.8-0.1
				c-1.4-0.1-2.8-0.2-4.3-0.3c-1.2-0.1-2.4-0.1-3.6-0.3C194,285.8,192.9,285.8,191.5,286z M248.8,73.3c0.2-0.4,0.1-0.7-0.2-0.8
				c-0.3-0.1-0.6-0.1-0.8-0.1c-3.8-0.2-7.6-0.4-11.5-0.5c-0.5,0-0.9,0-1.4,0.1c-0.1,0-0.3,0.2-0.3,0.4c0,0.1,0.1,0.3,0.3,0.4
				c0.3,0.1,0.7,0.1,1,0.1c4,0.2,8,0.4,12,0.5C248.2,73.4,248.5,73.3,248.8,73.3z M211.7,254.9c1,0.5,2.1,0.8,3.1,0.8
				c0.8,0,1.6,0,2.4,0c1.4,0,2.7,0.1,4.1,0.1c1.1,0.1,1.2,0.2,1.3,1.4c0,0.3,0.1,0.6,0.2,1.1c0.3-0.1,0.6-0.1,0.7-0.2
				c0.7-0.7,1-1.6,1.1-2.6c0-0.3-0.3-0.5-0.5-0.6c-0.1,0-0.2,0-0.3,0c-2.1,0.3-4.1,0.1-6.1-0.1C215.7,254.6,213.7,254.6,211.7,254.9
				z M370.4,164.7c0.8,0.2,1.3,0,1.7-0.5c0.3-0.5,0.6-1,0.9-1.5c0-0.7,0-1.5,0-2.2c0-0.7,0.5-1.4,0.3-2.1c-0.1-0.1-0.2-0.1-0.2-0.1
				c-1.1,0.1-1.8,0.9-2.6,1.5c-0.1,0.1-0.2,0.3-0.3,0.4c-0.4,0.7-0.3,1.3,0,2C370.4,162.9,370.7,163.7,370.4,164.7z M61.1,111.7
				c0.3-0.2,0.5-0.3,0.6-0.4c0.8-0.8,0.8-1.4,0.1-2.2c-0.6-0.7-1.3-1.3-2.1-1.7c-0.3-0.2-0.8-0.3-1.1-0.2c-0.9,0-1.4,0.9-0.9,1.7
				c0.1,0.2,0.3,0.4,0.4,0.6C58.8,110.4,59.8,111.1,61.1,111.7z M205.4,252.4c0.2-0.6-0.1-0.9-0.5-1c-0.4-0.1-0.9-0.1-1.3-0.2
				c-0.6-0.1-1.3-0.1-1.8-0.3c-0.7-0.2-1.3-0.3-2-0.2c-0.6,0.1-1.1,0.2-1.7,0.3c-1.1,0.2-2.2,0.5-3.4,0.2c-0.4-0.1-0.8-0.1-1,0.5
				c0.2,0.4,0.6,0.4,1,0.4c2,0,4,0,6,0.1c1.3,0,2.6,0.1,3.9,0.2C204.9,252.5,205.2,252.4,205.4,252.4z M183.8,73.5
				c0.8,0.4,1.4,0.3,2,0.3c2-0.1,4-0.2,6-0.2c1.2,0,2.4,0,3.6-0.1c0.5,0,1,0,1.5-0.1c0.3-0.1,0.4-0.3,0.2-0.7c-0.3,0-0.6-0.1-1-0.1
				c-1.9,0-3.8,0.2-5.6,0.1c-2-0.1-3.9,0.2-5.8,0.2c-0.2,0-0.5,0.1-0.6,0.2C184,73.1,183.9,73.2,183.8,73.5z M183.6,80.6
				c0.4,0.6,0.9,0.5,1.3,0.5c3.9,0.1,7.8,0.1,11.6,0.1c0.5,0,0.8-0.3,0.7-0.5c-0.1-0.3-0.4-0.4-0.7-0.4c-0.5,0-0.9,0-1.4,0
				c-1.3,0-2.6,0-3.9,0c-2.1,0-4.1,0-6.2-0.1C184.5,80.2,184,80.1,183.6,80.6z M259.6,115.5c-0.1,0.6,0.2,0.9,0.7,0.9
				c0.5,0,1-0.1,1.5,0c1.6,0.1,3.3,0.3,4.9,0.5c0.2,0,0.5,0,0.7-0.1c0.1,0,0.2-0.2,0.3-0.4c0-0.1,0-0.2-0.1-0.3
				c-0.2-0.1-0.4-0.3-0.6-0.4c-1.4-0.6-2.8-1.1-4.1-1.6c-0.5,0.2-0.8,0.3-1.1,0.4c-0.3,0.1-0.6,0.1-0.7,0.3
				C260.7,115.5,260.2,115.3,259.6,115.5z M63.8,73c-0.2,0.6-0.4,1.2-0.5,1.7c0,0.8,0.1,1.7,0.1,2.5c0,0.1,0.1,0.2,0.2,0.3
				c0.6,0.1,1.2,0.2,1.8,0.2c0.4,0.1,0.8-0.2,0.9-0.6c0.3-1,0.5-2.1,0-3.1C65.5,73.6,64.5,73.8,63.8,73z M220.9,247
				c0.2,0.1,0.4,0.2,0.6,0.2c2,0.1,4,0.3,6,0.4c0.2,0,0.4-0.1,0.6-0.2c0.2-0.1,0.3-0.6,0.1-0.7c-0.1-0.1-0.3-0.3-0.4-0.3
				c-0.8-0.1-1-0.6-1.2-1.2c0-0.1-0.2-0.1-0.3-0.2c-0.4,0.1-0.8,0.2-1.2,0.4c-0.2,0.1-0.4,0.2-0.5,0.4c-0.3,0.6-0.8,0.6-1.3,0.6
				c-0.6,0-1.3,0-1.9,0C221,246.3,220.8,246.5,220.9,247z M195.1,221.2c0.3,0.5,0.6,0.8,0.6,1.2c0.2,1.1,1,1.9,1.4,2.9
				c0.2,0.6,1,0.8,1.6,0.4c0.5-0.3,0.6-1,0.1-1.5c-0.5-0.6-0.8-1.2-1.1-1.9c-0.2-0.5-0.4-0.9-0.6-1.4c-0.3-0.7-0.9-0.8-1.5-0.3
				C195.4,220.7,195.3,220.9,195.1,221.2z M239.9,136.6c-0.1,0.4-0.2,0.6-0.2,0.8c0.3,1,0.5,2,0.6,3c0.1,0.6,0.4,1.2,0.7,1.7
				c0.1,0.2,0.3,0.3,0.7,0.2c0.5-1.3,0.6-2.8,0.6-4.2c0-0.5-0.4-1-0.9-1.1C241,136.8,240.6,136.7,239.9,136.6z M153,232.7
				c-0.1,0.5-0.1,0.9-0.2,1.2c0,0.4-0.1,0.9-0.1,1.3c1.4,0.7,3.3,0.7,3.6,0.1c-0.2-0.3-0.4-0.6-0.5-0.9c0.2-0.4,0.4-0.7,0.6-1
				C155.3,232.3,154.8,232.2,153,232.7z M72.4,91.7c-0.1,1-0.2,1.8-0.3,2.7c-0.1,0.4,0,0.8,0.4,1c0.6,0.3,1.1,0.5,1.8,0.2
				c0.1-0.1,0.3-0.2,0.3-0.4c0.1-0.3,0.1-0.6,0.2-0.8c0-0.4,0-0.8,0.1-1.2c0.1-0.4,0.3-0.7,0.5-1.1C74.3,91.8,73.4,91.6,72.4,91.7z
				 M189.5,252.4c-0.2,0-0.5,0.1-0.9,0.2c-0.4,0-0.8,0-1.2,0c-0.9,0-1.5,0.6-1.7,1.6c0,0.3,0.2,0.7,0.5,0.8c0.7,0.1,1.3,0.3,2,0.3
				c0.3,0,0.7-0.1,0.9-0.3c0.4-0.4,0.8-1,1.1-1.5C190.6,253,190.2,252.4,189.5,252.4z M194,244.4c-0.5,0.1-1,0.1-1.4,0.3
				c-0.4,0.2-0.9,0.2-1.3,0.2c-0.6-0.1-1.2-0.2-1.9-0.3c-0.4,0-0.8,0-1.1,0.3c-0.1,0.1-0.2,0.3-0.2,0.4c0,0.1,0.2,0.3,0.3,0.4
				c0.3,0.1,0.7,0.1,1,0.1c0.7,0,1.4-0.1,2,0.1c1.1,0.4,2.2,0,3.4,0c0.5,0,0.9-0.4,0.8-0.9c-0.1-0.5-0.3-1-0.4-1.5
				c0-0.1-0.2-0.1-0.4-0.2C194.6,243.7,194.3,244,194,244.4z M211.4,217.2c0.1,0.1,0.1,0.2,0.2,0.3c1,0.4,1.7-0.1,2.2-0.8
				c0.5-0.6,0.6-1.4,0.2-2.1c-0.4-0.7-1-1.3-1.6-1.8c-0.6-0.5-1.5-0.1-1.8,0.6c-0.2,0.5,0.1,1.1,0.6,1.2c0.4,0.1,0.9,0.1,1.3,0.1
				c0.3,0.5,0,0.8-0.2,1.2C212,216.3,211.4,216.6,211.4,217.2z M204,285.6c-1.2-0.7-1.6-0.8-2.9-0.8c-1.7-0.1-3.4-0.2-5.1-0.2
				c-0.7,0-1.4,0.1-2,0.2c-0.1,0-0.3,0.2-0.4,0.3c0.2,0.1,0.3,0.3,0.4,0.3C197.3,285.7,200.7,285.9,204,285.6z M197.5,274.1
				c0.3-0.2,0.4-0.5,0.1-0.7c-0.1-0.1-0.5-0.2-0.6-0.2c-0.9,0.5-1.7,0.3-2.6-0.1c-0.8-0.4-1.7-0.5-2.6-0.7c-0.7-0.1-1.2,0.3-1.3,1
				c-0.1,0.5-0.1,1-0.1,1.5c0,0.1,0.2,0.3,0.3,0.5c0.3-0.4,0.5-0.7,0.8-1.1C193.5,274.1,195.5,274,197.5,274.1z M218.1,283.3
				c-0.3-0.4-0.5-0.8-0.9-1.2c-0.4-0.4-0.9-0.5-1.4-0.3c-0.5,0.2-0.9,0.5-1,1.1c0,0.5-0.1,1,0,1.5c0.1,0.6,0.5,1,1.1,1.1
				c0.6,0,1.1,0,1.7-0.3C217.8,284.6,218,284,218.1,283.3z M206.7,183.3c0.1,0,0.2,0,0.2,0.1c0.1-1,0.2-1.9,0.2-2.9
				c0-7.1,0.1-14.1,0.1-21.2c0-0.4,0-0.7,0-1.1c-0.1,0.2-0.2,0.3-0.2,0.5c0,6.3-0.1,12.6-0.1,19c0,0.9,0,1.7-0.1,2.6
				C206.8,181.2,206.8,182.2,206.7,183.3z M147.3,230.7c0.4,0,0.7,0,1.1-0.1c0.3-0.1,0.5-0.5,0.4-0.8c-0.1-0.3-0.3-0.5-0.6-0.5
				c-0.2,0-0.5-0.1-0.7,0c-0.9,0.1-1.8,0.3-2.7,0.4c-0.1,0.4-0.1,0.7-0.2,1c-0.1,0.3-0.2,0.6-0.3,0.9c0.6,0.7,1.3,0.7,2.1,0.5
				C147.2,231.8,147,231.2,147.3,230.7z M208.2,262.8c-1.4-0.2-2.7-0.4-4-0.6c-0.4,0.9-0.1,1.6,0.5,2.2c0.7,0.6,1.5,0.7,2.4,0.4
				C207.9,264.5,208.2,263.8,208.2,262.8z M239.9,186.8c-0.3-0.5-0.7-1-1-1.5c-0.3-0.5-0.7-1-1-1.6c-0.3-0.5-0.6-1.1-1-1.8
				c-0.7,1.4-0.4,2.7-0.5,3.9c0.2,0.2,0.2,0.3,0.3,0.3c1,0.3,2,0.6,2.9,0.9C239.7,186.9,239.7,186.9,239.9,186.8z M186.9,187.8
				c-0.4-0.3-0.5-0.5-0.7-0.5c-0.5-0.1-1-0.1-1.5-0.2c-1.4-0.1-2.7,0-4.1-0.2c-1.1-0.1-2.2-0.1-3.2,0c-0.3,0-0.6,0-0.7,0.4
				c0.2,0.4,0.5,0.5,0.8,0.4c1.4-0.1,2.7,0.5,4.1,0.2c1.3,0.3,2.6,0,3.9,0.1C185.9,188,186.3,187.9,186.9,187.8z M64.4,159.1
				c-0.4-0.7-0.8-1.4-1.2-2.1c-0.2-0.4-0.7-0.6-1.2-0.4c-0.5,0.1-0.8,0.5-0.7,1c0.1,0.4,0.2,0.9,0.4,1.3c0.3,0.5,0.6,1,1,1.6
				c0.2,0.3,0.4,0.4,0.8,0.3C63.8,160.3,64.3,159.8,64.4,159.1z M346.5,103.2c-0.5,0.7-1,1.3-1.4,1.9c-0.4,0.6-0.3,1.3,0.2,1.8
				c0.2,0.2,0.4,0.4,0.7,0.5c0.5,0.3,1,0.1,1.2-0.5c0.1-0.3,0.2-0.6,0.1-0.8c-0.1-0.8-0.3-1.7-0.4-2.5
				C346.9,103.5,346.7,103.4,346.5,103.2z M216.2,291.3c-0.4,0.4-0.4,0.9-0.1,1.3c0.2,0.4,0.6,0.5,1,0.5c0.7,0,1.5,0.1,2.2,0.1
				c0.5,0,0.9-0.4,0.9-0.8c0-0.6-0.3-1-0.8-1.1C218.3,291.1,217.2,291,216.2,291.3z M201,254.3c-0.1-0.1-0.2-0.2-0.2-0.2
				c-2.8-0.2-5.7-0.5-8.5-0.7c-0.3,0-0.5,0.1-0.8,0.1c-0.4,0.5-0.4,1-0.5,1.5c0,0.2,0.1,0.4,0.5,0.4c0.1-0.1,0.3-0.3,0.4-0.4
				c0.4-0.5,0.9-0.7,1.5-0.7c2.3,0,4.7-0.2,7,0.1C200.6,254.5,200.9,254.5,201,254.3z M368.6,151.9c0,0.4,0,0.8-0.1,1.2
				c-0.1,0.4-0.5,0.8-0.2,1.4c1.2,0.2,2.3-0.2,3.3-1c-0.4-0.5-0.6-0.9-1-1.2c-0.3-0.3-0.8-0.5-1.2-0.6
				C369.2,151.6,368.9,151.8,368.6,151.9z M186.8,196.1c0,0.3,0,0.4,0.1,0.6c0.2,0.7,0.8,1.2,1.5,1.1c0.8-0.1,1.3-0.9,1-1.7
				c-0.2-0.5-0.4-0.9-0.7-1.3c-0.4-0.5-1.3-0.4-1.5,0.3C186.9,195.4,186.8,195.8,186.8,196.1z M164.5,186.9c0.2,0.1,0.4,0.2,0.6,0.2
				c0.9,0,1.8,0.1,2.7,0c1-0.1,1.9,0,2.9,0.1c0.7,0.1,1.5,0.1,2.2,0.1c0.1,0,0.3-0.2,0.5-0.3c-0.3-0.1-0.5-0.3-0.7-0.3
				c-0.8-0.1-1.6-0.1-2.4-0.1c-1,0-2-0.1-3.1-0.1C166.4,186.5,165.5,186.4,164.5,186.9z M209.2,212.3c0.9-0.2,1.7-0.4,2.4-0.5
				c0.8-0.2,1.6,0.5,2.4,0.3c0.2-0.4,0-0.6-0.2-0.8c-0.7-0.5-1.5-0.8-2.4-0.7c-0.8,0.1-1.5,0.4-2.1,1
				C209.3,211.7,209.3,212,209.2,212.3z M308.8,133.2c0.4-0.5,0.6-1,0.6-1.5c0-0.3-0.1-0.7-0.4-0.9c-0.3-0.1-0.6,0-0.8,0.1
				c-0.1,0.1-0.2,0.1-0.3,0.2c-0.7,0.6-1.4,1.2-2.1,1.8C306.8,133.4,307.8,133.5,308.8,133.2z M271.1,238c0.4,0,0.7,0.1,0.9,0
				c0.9-0.3,1.6-1,2.3-1.6c0.3-0.2,0.1-0.5-0.5-0.8c-0.3,0.2-0.6,0.5-0.9,0.7c-0.3-0.2-0.4-0.4-0.7-0.6c-0.3-0.2-0.6-0.3-0.9-0.1
				c-0.2,0.2-0.3,0.5-0.3,0.7C271,236.8,271,237.3,271.1,238z M187.8,278.5c0.5,0,0.9-0.1,1.3-0.1c0.4-0.1,0.7-0.4,0.6-0.7
				c0-0.3-0.2-0.6-0.4-0.7c-0.9-0.5-1.9-0.5-2.8-0.2c-0.3,0.1-0.5,0.5-0.4,0.8c0.1,0.2,0.3,0.6,0.5,0.6
				C187,278.4,187.5,278.4,187.8,278.5z M372.8,171.3c-0.6,0.1-1,0.1-1.4,0.2c-0.4,0.1-0.8-0.4-1.4-0.1c0,0.6,0.2,1.1,0.8,1.3
				c0.6,0.2,1,0.4,1.4,0.9c0.4,0.4,0.7,0.3,1.3-0.3c-0.2-0.3-0.4-0.5-0.5-0.8C372.9,172.1,372.9,171.7,372.8,171.3z M234.6,264.3
				c1.1,0.3,1.9-0.3,2.9-0.6c-0.4-0.5-0.7-0.8-0.9-1.2c-0.2-0.4-0.2-1-1-1C234.9,262.2,235,263.3,234.6,264.3z M138.1,231
				c0.9,0.9,1,0.9,2.1,0.3c0.1-0.4,0.2-0.9,0.2-1.3c0-0.1,0-0.2,0-0.3c0-0.6-0.8-1-1.3-0.7c-0.2,0.1-0.4,0.4-0.6,0.6
				C138.4,230,138.3,230.5,138.1,231z M214.5,262.3c-0.3,0.1-0.5,0.1-0.7,0.2c-0.2,0.2-0.4,0.4-0.4,0.7c0,0.7,0.5,1.3,1.3,1.3
				c0.7,0.1,1.3-0.3,1.5-1c0.1-0.3-0.1-0.7-0.4-0.8C215.3,262.4,214.9,262.4,214.5,262.3z M202.6,292.4c0-0.7-0.6-1.3-1.4-1.2
				c-0.7,0-1.2,0.6-1.2,1.2c0,0.7,0.6,1.3,1.3,1.2C202,293.6,202.6,293.1,202.6,292.4z M218,238.7c0.1,0.2,0.1,0.3,0.1,0.3
				c0.8,0.1,1.6,0.3,2.3,0.3c0.9-0.1,1.7-0.1,2.5,0.2c0.2,0.1,0.5,0,0.7,0c0.1,0,0.2-0.3,0.3-0.4c0-0.1-0.1-0.4-0.2-0.4
				c-0.2-0.1-0.4-0.1-0.6-0.1c-0.7,0.1-1.4,0.2-2,0C220,238.3,219,238.5,218,238.7z M133.7,265.8c1,1,1.9,1.3,3.1,1.1
				c0.3-0.1,0.8,0,0.9-0.4c0.1-0.6-0.5-0.5-0.8-0.6c-0.4-0.1-0.7-0.3-1.1-0.4c-0.4-0.1-0.9-0.1-1.3-0.1
				C134.2,265.4,134,265.6,133.7,265.8z M142.4,228.8c-0.3,0-0.6,0-0.8,0.1c-0.3,0.1-0.5,0.2-0.6,0.5c-0.1,0.3,0.1,0.7,0.4,0.9
				c0.7,0.4,1.4,0.4,2.1,0.3c0.4-0.1,0.6-0.4,0.6-0.7c0-0.4-0.2-0.8-0.7-0.9C143.1,228.8,142.8,228.8,142.4,228.8z M197.8,261.5
				c-0.3,0-0.4,0-0.6,0c-0.7,0.1-1,0.8-0.7,1.4c0.3,0.5,0.8,0.8,1.5,0.7c0.6-0.1,1-0.5,1.2-1.1c0.1-0.3-0.1-0.6-0.3-0.7
				C198.5,261.7,198.1,261.6,197.8,261.5z M172.6,283.9c0.6-0.3,1-0.5,1.4-0.8c0.2-0.1,0.2-0.6,0-0.7c-0.2-0.1-0.4-0.3-0.6-0.3
				c-0.9-0.1-1.6,0.5-1.6,1.4c0,1,0.5,1.6,1.5,1.6c0.1,0,0.3-0.2,0.4-0.3C173.4,284.5,173.1,284.3,172.6,283.9z M197.5,258.2
				c-0.9-0.4-1.9-0.7-2.9-0.8c-0.5-0.1-1.1,0.4-1.2,1c-0.1,0.5,0.3,1,0.8,0.8C195.2,258.9,196.3,258.6,197.5,258.2z M81.7,67.4
				c0.1-0.7,0.2-1.2,0.2-1.7c0-0.6-0.3-1-0.9-1c-0.5,0-1,0-1.6,0c0.4,0.6,0.7,1,1,1.5C80.6,66.6,81,67,81.7,67.4z M232.3,266.4
				c0.5-0.6,0.6-1.2,0.6-1.7c0-1,0.1-2,0.5-3c0.1-0.3,0-0.6-0.2-0.8c-0.1-0.1-0.3-0.1-0.5-0.1c-0.3,0.1-0.4,0.4-0.4,0.7
				c0,0.1,0,0.1,0,0.2c0.2,1.1,0.1,2.1-0.1,3.2C232.1,265.4,231.9,265.8,232.3,266.4z M370.5,156.9c1,0,1.7-1.1,1.3-2
				c-0.1-0.4-0.6-0.5-1-0.3c-0.5,0.3-0.8,0.7-1,1.3C369.4,156.4,369.8,156.9,370.5,156.9z M138.5,240.1c-0.3-0.6-0.8-0.6-1.3-0.5
				c-0.4,0.1-0.7,0.4-0.8,0.8c-0.1,0.4-0.2,0.8-0.2,1.2c0,0.3,0.1,0.5,0.5,0.6C137.9,241.3,137.9,241.3,138.5,240.1z M215.3,287.7
				c0-0.1,0-0.3,0-0.4c-1.6-0.1-3.2-0.5-4.9-0.4c-0.3,0-0.6,0-0.8,0.1c-0.1,0-0.2,0.2-0.3,0.4c1.7,0.6,3.3,0.2,4.9,0.4
				C214.6,287.8,215,287.7,215.3,287.7z M226.8,280.2c0.5,0,0.8,0,1.1,0c0.3,0,0.5-0.2,0.6-0.5c0.1-0.3-0.1-0.6-0.4-0.7
				c-0.7-0.4-1.4-0.4-2.1-0.2c-0.3,0.1-0.5,0.3-0.5,0.6c0,0.3,0.1,0.6,0.4,0.7C226.3,280.1,226.7,280.2,226.8,280.2z M227.9,88.4
				c0.3,0.2,0.4,0.3,0.5,0.3c1.1,0.1,2.3,0.2,3.4,0.3c0.2,0,0.4,0,0.5-0.1c0.2-0.1,0.2-0.3,0.4-0.5c-0.2-0.1-0.4-0.3-0.5-0.3
				c-1.2,0-2.4,0-3.6,0.1C228.4,88.1,228.2,88.2,227.9,88.4z M56.9,173.4c0.2-0.7,0.3-1.1,0.4-1.6c-1.3-0.1-1.5,0.1-1.6,1.2
				c0.4,0.4,0.8,0.9,1.1,1.2c0.5-0.2,0.8-0.3,1.2-0.4c0.2-0.1,0.4-0.3,0.1-0.5C57.8,173.3,57.5,173.3,56.9,173.4z M268.2,236.6
				c0.4-0.1,0.7-0.1,1-0.2c0.2-0.1,0.3-0.3,0.3-0.5c0-0.1-0.1-0.4-0.2-0.4c-0.7-0.4-1.5-0.4-2.2-0.1c-0.1,0.1-0.2,0.4-0.3,0.6
				c0,0.1,0.1,0.3,0.3,0.4C267.4,236.5,267.8,236.5,268.2,236.6z M61.3,175.2c-0.4-0.2-0.6-0.4-0.9-0.6c-0.3-0.2-0.5-0.5-0.8-0.7
				c-0.4,0.1-0.8,0.2-1.1,0.4c-0.2,0.1-0.5,0.3-0.2,0.8C59.2,175.3,60.1,175.7,61.3,175.2z M215.9,259.1c1.1,0.6,1.8,0.9,2.7,1
				c0.3,0,0.5-0.2,0.6-0.5c0.1-0.3-0.1-0.5-0.4-0.7c0,0-0.1-0.1-0.2-0.1C217.9,258.6,217.1,258.7,215.9,259.1z M384.5,160.7
				c-0.7-0.2-1.3,0-1.8,0.2c-0.3,0.1-0.5,0.3-0.5,0.6c0,0.3,0.3,0.6,0.7,0.6c0.7,0.1,1.3-0.2,1.6-0.9
				C384.6,161.1,384.6,160.9,384.5,160.7z M265.1,118.5c1.1,0.7,2.8,1,4.1,0.9c0.1-0.3-0.1-0.4-0.3-0.5
				C267.8,118.5,266.7,118.2,265.1,118.5z M266.1,237.4c-0.1-0.7-0.2-1.2-0.4-1.7c-0.1-0.4-0.4-0.6-0.8-0.6c-0.2,0-0.4,0.1-0.6,0.3
				c-0.2,0.3-0.3,0.7,0,0.9c0.5,0.3,0.4,0.9,0.7,1.4C265.4,237.6,265.7,237.5,266.1,237.4z M203.7,88.2c-1.1-0.4-2.1-0.4-3.1-0.2
				c0,0.6,0.3,0.8,0.7,0.8C202.2,88.9,203,88.7,203.7,88.2z M224.7,274.4c-0.8,0.2-0.8,0.2-1.4,0.8c0.3,0.3,0.5,0.5,0.8,0.8
				c0.2,0.3-0.1,0.8,0.5,1c0.3-0.6,0.5-1.5,0.5-2C225,274.7,224.8,274.5,224.7,274.4z M187.6,251.4c0.8,0.2,1.4,0.3,2.1,0.4
				c0.2,0,0.4,0,0.7-0.1c0.1,0,0.2-0.2,0.2-0.3c0-0.1-0.1-0.4-0.2-0.4c-0.9-0.3-1.8-0.4-2.6,0C187.7,251.1,187.7,251.2,187.6,251.4z
				 M231.4,168.8c-0.4,0.8-0.6,2-0.4,3.3c0,0.1,0.2,0.2,0.3,0.4c0.4-0.7,0.2-1.3,0.3-1.9C231.6,170,231.7,169.4,231.4,168.8z
				 M168.6,191.3c-0.2,0-0.6,0.1-0.9,0.2c-0.2,0-0.2,0.4-0.1,0.6c0.4,0.4,0.9,0.6,1.5,0.4c0.3-0.1,0.7-0.1,0.7-0.6
				c0-0.3-0.3-0.6-0.8-0.6C168.9,191.3,168.8,191.3,168.6,191.3z M235.3,245.9c0.1-0.5-0.2-0.6-0.5-0.7c-0.6-0.2-1.3-0.4-1.9,0.3
				c0.2,0.2,0.3,0.4,0.5,0.5C234,246.2,234.7,246.2,235.3,245.9z M366.8,149.1c-0.9-0.3-1.5-0.3-2.1,0.1c-0.1,0.1-0.2,0.4-0.2,0.6
				c0,0.1,0.2,0.3,0.3,0.3C365.6,150.1,366.2,149.9,366.8,149.1z M231.2,179.4c0.4-1.2,0.4-2.3,0.3-3.6c-0.2,0.1-0.5,0.2-0.5,0.3
				C230.8,177.2,230.9,178.3,231.2,179.4z M200.7,237.7c-0.8-0.1-1.5-0.3-2.3-0.4c-0.3,0-0.6,0.2-0.6,0.5c0,0.2,0.2,0.4,0.4,0.4
				C199.1,238.2,199.9,238.3,200.7,237.7z M276,244.7c-0.3,0.1-0.6,0.1-0.9,0.3c-0.1,0-0.2,0.3-0.2,0.4c0,0.1,0.1,0.3,0.3,0.4
				c0.6,0.2,1.1,0.1,1.6-0.1c0.1-0.1,0.2-0.3,0.2-0.4c0-0.1-0.1-0.2-0.2-0.3C276.6,244.8,276.3,244.8,276,244.7z M187.1,280.5
				c-0.1,0.4,0.1,0.7,0.4,0.9c0.3,0.2,0.6,0.3,0.9,0.3c0.2,0,0.4-0.2,0.5-0.4c0.2-0.3,0.1-0.8-0.3-0.8
				C188.2,280.3,187.6,280.2,187.1,280.5z M416.3,218.2c-0.1,0.1-0.2,0.1-0.2,0.2c-0.1,0.6,0.1,1.2,0.6,1.6c0.1,0.1,0.2,0.1,0.3,0
				c0.1-0.1,0.3-0.2,0.3-0.4c0.1-0.6-0.2-1.1-0.6-1.4C416.5,218.2,416.4,218.2,416.3,218.2z M184.7,286.6c0,0.3,0.2,0.7,0.6,0.7
				c0.4,0.1,0.8-0.3,0.9-0.8c0-0.3-0.2-0.7-0.6-0.7C185.1,285.8,184.8,286.1,184.7,286.6z M184.2,282.8c0.8,0.2,1.4,0.3,2-0.1
				c-0.2-0.2-0.3-0.4-0.4-0.4C185.3,282.2,184.8,282.3,184.2,282.8z M202.2,238.1c0.4,0.4,0.9,0.5,1.5,0.3c0.2-0.1,0.3-0.4,0.2-0.6
				c-0.2-0.3-0.6-0.4-0.9-0.3C202.6,237.6,202.2,237.6,202.2,238.1z M187.1,241c0.5,0,0.8-0.3,0.7-0.5c0-0.3-0.3-0.5-0.6-0.5
				c-0.3,0-0.7-0.1-0.9,0.3c0,0.1,0,0.3,0,0.3C186.6,240.7,186.9,240.9,187.1,241z M247.4,69.3c-1-0.6-1-0.6-1.7-0.1
				C246.5,69.6,246.5,69.6,247.4,69.3z M230.3,242.5c-0.1-0.1-0.1-0.3-0.3-0.4c-0.4-0.2-0.8-0.2-1.1,0.1c-0.1,0.1-0.1,0.3,0,0.4
				c0.2,0.4,0.8,0.4,1.2,0.1C230.2,242.8,230.3,242.6,230.3,242.5z M365.6,179.6c0-0.3-0.4-0.6-0.7-0.5c-0.3,0.1-0.5,0.3-0.5,0.6
				c0,0.4,0.3,0.7,0.6,0.6C365.4,180.3,365.6,180,365.6,179.6z M262,242.6c0.4-0.3,0.5-0.7,0.4-1.2c0-0.2-0.4-0.4-0.5-0.2
				c-0.2,0.2-0.3,0.4-0.4,0.7C261.4,242.2,261.5,242.6,262,242.6z M139,227.6c0.5,0.4,0.9,0.5,1.5,0.5c0-0.2,0-0.4-0.1-0.5
				C140,227.2,139.6,227.2,139,227.6z M416.3,217.4c0.2-0.2,0.4-0.3,0.5-0.5c0.1-0.2-0.1-0.5-0.5-0.5c-0.2,0-0.3,0-0.5,0.1
				c-0.2,0.1-0.3,0.4-0.1,0.6C415.8,217.2,416,217.3,416.3,217.4z M195,371.6c0.1-0.6-0.1-1-0.4-1.4c-0.1-0.1-0.3-0.1-0.4,0
				c0,0-0.1,0.2-0.1,0.3C194.2,370.9,194.3,371.4,195,371.6z M147.1,228.4c0-0.4-0.1-0.6-0.4-0.7c-0.3-0.1-0.7-0.1-0.9,0.2
				c-0.2,0.2,0.1,0.4,0.7,0.5C146.6,228.4,146.8,228.4,147.1,228.4z M207.3,259.5c0.2-0.2,0.4-0.4,0.4-0.6c0.1-0.2-0.3-0.4-0.6-0.4
				c-0.3,0.1-0.4,0.2-0.3,0.5C206.9,259.2,207.1,259.3,207.3,259.5z M305.7,67c-0.1,0.9-0.1,1.5-0.2,2.1c0,0.1,0.1,0.2,0.2,0.2
				C306,68.4,306,68.4,305.7,67z M149.8,273.7c-0.5-0.1-0.9-0.3-1.5,0.1C148.9,274.2,149.3,274.1,149.8,273.7z M74.5,61.8
				c-0.1,0-0.2,0-0.3,0c0,0.4,0,0.8,0.1,1.1c0.1,0.2,0.3,0.3,0.6,0.1C74.8,62.6,74.6,62.2,74.5,61.8z M225.9,36.2
				c0.4-0.4,0.6-0.7,0.4-1.2c0-0.1-0.3-0.1-0.4-0.2C225.7,35.3,225.5,35.7,225.9,36.2z M136.9,228.6c-0.2,0.4-0.4,0.6-0.4,0.8
				c-0.1,0.3,0.2,0.6,0.5,0.5c0.2,0,0.5-0.3,0.4-0.6C137.3,229.1,137.1,228.9,136.9,228.6z M227.5,242.8c0.5-0.6,0.4-1,0-1.3
				c-0.1-0.1-0.2-0.1-0.3,0c-0.1,0-0.2,0.2-0.2,0.2C227.1,242.1,227.3,242.3,227.5,242.8z M265.7,275.4c0-0.4-0.3-0.6-0.6-0.6
				c-0.3,0-0.6,0.2-0.5,0.5c0,0.3,0.3,0.5,0.6,0.4C265.4,275.7,265.6,275.5,265.7,275.4z M272,273.2c-0.4-0.5-0.7-0.4-1.1-0.3
				c-0.1,0-0.2,0.2-0.2,0.2c0,0.1,0.1,0.2,0.2,0.3C271.3,273.6,271.7,273.7,272,273.2z M187,288.9c1-0.4,1-0.4,1-1.1
				C187.4,288.1,187.4,288.1,187,288.9z M199.9,195.5c-0.5-0.4-0.8-0.3-1.1-0.1c-0.1,0.1-0.1,0.2-0.1,0.3c0,0.1,0.2,0.2,0.3,0.2
				C199.2,195.8,199.5,195.6,199.9,195.5z M280.2,228.4c0.9-0.6,0.9-1,0.1-1.4C280.3,227.4,280.3,227.8,280.2,228.4z M213.2,223.4
				c-0.1-0.2-0.1-0.3-0.2-0.4c-0.3-0.2-0.7,0-0.9,0.2c0,0,0,0.1,0,0.1c0.2,0.1,0.4,0.3,0.6,0.2C212.8,223.7,213,223.5,213.2,223.4z
				 M289.7,63.2c0.1-0.7,0-1-0.3-1.4C289.3,62.3,289.1,62.7,289.7,63.2z M262.6,236c0.1-0.1,0.2-0.3,0.2-0.5c0-0.2-0.2-0.4-0.4-0.4
				c-0.2-0.1-0.4,0.1-0.4,0.4C262,235.7,262.2,236,262.6,236z M272,234.3c-0.4-0.4-0.4-0.4-0.9,0C271.4,234.3,271.7,234.3,272,234.3
				z M209.7,137.1c-0.2,0-0.3-0.1-0.4-0.1c-0.1,0-0.1,0.2-0.2,0.3c0.1,0,0.3,0.1,0.4,0.1C209.6,137.4,209.6,137.2,209.7,137.1z
				 M275,126.4c0.1,0,0.3-0.1,0.4-0.2c0,0,0-0.3,0-0.3c-0.1,0-0.3-0.1-0.5,0c-0.1,0.1-0.2,0.2-0.2,0.4
				C274.8,126.3,274.9,126.4,275,126.4z M267.8,122.1c0.2-0.2,0.4-0.3,0.4-0.5c0.1-0.1,0-0.3-0.1-0.4c-0.1-0.1-0.3-0.1-0.4,0
				c-0.1,0.1-0.2,0.3-0.2,0.4C267.6,121.7,267.7,121.9,267.8,122.1z M217.6,131.8c0.8,0.2,0.8,0.2,1.5,0
				C218.6,131.8,218.2,131.8,217.6,131.8z M190.1,239.8c-0.2-0.1-0.3-0.3-0.4-0.3c-0.1,0-0.2,0.2-0.3,0.3c0.1,0.1,0.2,0.3,0.3,0.3
				C189.8,240.1,189.9,239.9,190.1,239.8z M241,224.3c0.2-0.1,0.3-0.1,0.4-0.2c0.1-0.3,0-0.4-0.3-0.5c-0.1,0-0.2,0.1-0.4,0.2
				C240.8,224,240.9,224.2,241,224.3z M310,67.3c-0.1,0-0.2,0-0.2,0c0,0.3,0.1,0.6,0.1,1c0,0,0.1,0,0.1,0
				C310,67.9,310,67.6,310,67.3z M421.3,231.9c-0.1-0.1-0.2-0.3-0.3-0.2c-0.2,0-0.4,0.2-0.3,0.5c0,0.1,0.2,0.2,0.3,0.1
				C421.1,232.2,421.2,232.1,421.3,231.9z M185.4,288.8c-0.1-0.1-0.3-0.2-0.4-0.1c-0.1,0-0.1,0.2-0.2,0.3c0.1,0,0.3,0.1,0.4,0.1
				C185.3,289.1,185.3,288.9,185.4,288.8z M226.3,282.8c-0.2-0.1-0.3-0.3-0.4-0.3c-0.1,0-0.3,0.1-0.2,0.1c0,0.1,0.1,0.3,0.2,0.4
				C226,283,226.1,282.9,226.3,282.8z M197.5,275.3c-0.1,0-0.2-0.1-0.3-0.1c0,0-0.1,0.1-0.1,0.1c0.1,0.1,0.1,0.1,0.2,0.2
				C197.4,275.5,197.5,275.4,197.5,275.3z M221.2,274.7c-0.1,0.1-0.1,0.1-0.2,0.2c0.1,0.1,0.1,0.2,0.2,0.2c0.1,0,0.1-0.1,0.2-0.2
				C221.3,274.8,221.3,274.7,221.2,274.7z M235.1,195.1c-0.1,0.1-0.2,0.2-0.3,0.3c0.1,0.1,0.2,0.2,0.2,0.2c0.1,0,0.2-0.1,0.3-0.2
				C235.3,195.3,235.2,195.3,235.1,195.1z M322.2,64.5C322.2,64.5,322.2,64.5,322.2,64.5c0.1-0.2,0.1-0.5,0.1-0.7c0,0-0.1,0-0.1,0
				C322.2,64,322.2,64.3,322.2,64.5z M192.8,238.2c-0.1-0.2-0.1-0.3-0.2-0.4c-0.2-0.1-0.4-0.2-0.5,0.1c0,0.1,0.1,0.2,0.1,0.3
				C192.4,238.2,192.6,238.2,192.8,238.2z M299.1,64.5c-0.1,0.1-0.2,0.2-0.2,0.2c0,0.1,0.1,0.2,0.2,0.2c0.1-0.1,0.2-0.2,0.2-0.3
				C299.3,64.6,299.2,64.5,299.1,64.5z M227.5,253c-0.1,0.2-0.2,0.3-0.3,0.4c0.1,0.1,0.2,0.2,0.2,0.2c0.1,0,0.2-0.1,0.4-0.2
				C227.7,253.3,227.6,253.2,227.5,253z M307.7,68.8c0.3-0.3,0.3-0.6,0-1.1C307.7,68.2,307.7,68.5,307.7,68.8z M218.8,264.7
				c-0.1,0.1-0.2,0.1-0.3,0.2c0.1,0.1,0.2,0.2,0.3,0.3c0,0,0.2-0.1,0.2-0.1C218.9,264.9,218.9,264.8,218.8,264.7z M163.2,187.6
				c0-0.1-0.1-0.2-0.1-0.2c-0.1,0-0.2,0.1-0.3,0.1c0,0.1,0.1,0.2,0.1,0.2C163,187.7,163.1,187.7,163.2,187.6z M374.9,180.4
				c-0.1-0.1-0.1-0.2-0.2-0.2c0,0-0.1,0-0.1,0.1c0,0.1,0,0.2,0,0.3C374.7,180.5,374.8,180.4,374.9,180.4z M303.9,128.6
				c0.2,0.1,0.3,0.3,0.4,0.3c0.1,0,0.2-0.2,0.3-0.3c-0.1-0.1-0.2-0.3-0.3-0.3C304.2,128.3,304.1,128.5,303.9,128.6z M368.8,157.4
				c0-0.1,0-0.2-0.1-0.2c-0.1,0-0.2,0-0.3,0c0,0.1,0.1,0.2,0.1,0.3C368.6,157.5,368.7,157.4,368.8,157.4z M268.7,274.1
				c-0.1-0.1-0.1-0.1-0.2-0.2c0,0-0.1,0.1-0.1,0.1c0.1,0.1,0.1,0.1,0.2,0.2C268.7,274.2,268.7,274.1,268.7,274.1z M166.9,203
				c-0.1-0.1-0.1-0.1-0.2-0.2c0,0-0.1,0-0.1,0.1c0,0.1,0,0.2,0,0.2C166.8,203.1,166.9,203,166.9,203z M203.2,254.4
				c0.4,0.1,0.5,0.1,0.6,0.1c0,0,0.1-0.1,0.1-0.2c0,0-0.1-0.1-0.1-0.1C203.7,254.3,203.5,254.4,203.2,254.4z M420.2,226.3
				c-0.1-0.1-0.2-0.2-0.3-0.2c-0.1,0.1-0.2,0.2-0.2,0.4c0,0,0.2,0.2,0.2,0.2C420,226.6,420.1,226.5,420.2,226.3z M237,245.2
				c-0.1,0-0.2-0.1-0.3-0.1c-0.1,0-0.1,0.2-0.1,0.3c0.1,0,0.2,0.1,0.3,0.1C237,245.4,237,245.3,237,245.2z M123.5,241.8
				c0-0.1-0.1-0.2-0.1-0.3c-0.1,0-0.2,0-0.3,0.1c0.1,0.1,0.1,0.2,0.2,0.4C123.3,241.9,123.4,241.9,123.5,241.8z M68.1,168.4
				c-0.2,0-0.3,0-0.4,0c0,0,0,0.1,0,0.1c0.1,0,0.3,0,0.4,0C68.1,168.6,68.1,168.5,68.1,168.4z M195.3,365.9
				c-0.1-0.2-0.1-0.3-0.2-0.4c-0.1,0-0.2,0.1-0.2,0.1c0,0.1,0,0.2,0.1,0.3C195,365.9,195.2,365.9,195.3,365.9z M323.6,74.4
				c0,0-0.1-0.1-0.1-0.1c0,0,0,0.1-0.1,0.1c0,0,0.1,0.1,0.1,0.1C323.5,74.6,323.5,74.5,323.6,74.4z M61.4,167.4c-0.1,0-0.2,0-0.3,0
				c0,0.1,0,0.1,0,0.2c0.1,0,0.2,0,0.3,0C61.4,167.5,61.4,167.5,61.4,167.4z M61,171.7c0.1,0,0.1-0.1,0.2-0.1c0,0-0.1-0.1-0.1,0
				c-0.1,0-0.1,0.1-0.2,0.1C60.9,171.6,60.9,171.7,61,171.7z M334,74.6c0,0,0.1,0,0.1-0.1c0,0,0-0.1,0-0.1c-0.1,0-0.1,0.1-0.2,0.1
				C333.9,74.5,334,74.6,334,74.6z M339.2,74.6c0,0,0.1,0,0.1,0c0,0,0-0.1,0-0.1c0,0-0.1,0-0.1,0C339.1,74.5,339.2,74.5,339.2,74.6z
				 M226.1,253.4c0,0,0.1,0,0.1,0c0,0,0-0.1,0-0.1c0,0-0.1,0-0.1,0C226.1,253.3,226.1,253.3,226.1,253.4z M180.9,80.9
				C180.9,80.9,180.8,80.9,180.9,80.9c0,0.1,0,0.2,0.1,0.2c0,0,0-0.1,0-0.1C181,80.9,180.9,80.9,180.9,80.9z M283.7,65.3
				c0.1,0.1,0.1,0.2,0.2,0.2c0,0,0.1-0.1,0.1-0.1c0-0.1-0.1-0.2-0.1-0.2C283.7,65.2,283.7,65.2,283.7,65.3z M169.9,220.7
				c0,0,0,0.1,0,0.1c0.1,0,0.1,0,0.2-0.1c0,0,0-0.1-0.1-0.1C169.9,220.6,169.9,220.7,169.9,220.7z M178.5,83.3c0,0-0.1,0-0.1,0
				c0,0,0,0.1,0.1,0.1c0,0,0.1,0,0.1,0C178.6,83.4,178.6,83.3,178.5,83.3z M230.7,258.3c-0.1-0.1-0.2-0.1-0.2-0.2
				c0,0-0.1,0.1-0.1,0.1c0,0.1,0.1,0.2,0.1,0.2C230.6,258.4,230.7,258.3,230.7,258.3z M304.3,64.8c0,0-0.1-0.1-0.1-0.1
				c0,0.1-0.1,0.1-0.1,0.2c0,0,0.1,0.1,0.1,0.1C304.3,64.9,304.3,64.9,304.3,64.8z M141.8,262.8c0,0,0,0.1,0,0.1
				c0.1,0,0.1,0,0.2-0.1c0,0,0-0.1-0.1-0.1C141.8,262.8,141.8,262.8,141.8,262.8z M194,263.8c0,0-0.1,0-0.1,0c0,0.1,0,0.1,0.1,0.2
				c0,0,0.1,0,0.1-0.1C194.1,263.9,194.1,263.8,194,263.8z M231.4,182.3c0,0-0.1,0-0.1,0c0,0.1,0,0.2,0,0.3c0,0,0.1,0,0.1,0
				C231.4,182.5,231.4,182.4,231.4,182.3z M135.9,276.3c0,0,0.1,0.1,0.1,0.1c0,0,0-0.1,0.1-0.1c0,0-0.1-0.1-0.1-0.1
				C136,276.2,136,276.2,135.9,276.3z M268.8,281.4c0,0,0-0.1-0.1-0.1c0,0-0.1,0-0.1,0c0,0.1,0.1,0.1,0.1,0.2
				C268.7,281.5,268.7,281.4,268.8,281.4z M225,33.2L225,33.2L225,33.2L225,33.2z M259.7,72.9c0,0,0-0.1-0.1-0.1
				c0,0.1,0,0.1-0.1,0.2C259.7,72.9,259.7,72.9,259.7,72.9z M219.1,247.4c0.1-0.1,0.1-0.1,0.1-0.2c0,0-0.1,0-0.1,0
				C219.1,247.3,219.1,247.3,219.1,247.4z M276,73.3l0.1,0L276,73.3L276,73.3z M52.2,171.3c0,0-0.1-0.1-0.1,0c0,0,0,0.1-0.1,0.1
				c0,0,0.1,0.1,0.1,0C52.1,171.4,52.1,171.4,52.2,171.3z M75.5,79.6l0-0.1l-0.1,0L75.5,79.6z M271.8,127.3c0,0,0.1,0,0.1-0.1
				c0,0,0-0.1,0-0.1c-0.1,0-0.1,0.1-0.2,0.1C271.7,127.2,271.8,127.2,271.8,127.3z M173.4,83.3c0,0,0.1,0,0.1,0.1
				c0,0,0.1-0.1,0.1-0.1c0,0-0.1-0.1-0.1-0.1C173.4,83.2,173.4,83.3,173.4,83.3z M278,65.5c0,0,0.1,0,0.1,0c0,0,0-0.1,0-0.1
				c-0.1,0-0.1,0-0.2,0C278,65.4,278,65.5,278,65.5z M294.9,63.3L294.9,63.3l0,0.1L294.9,63.3z M286.2,64.3L286.2,64.3L286.2,64.3
				L286.2,64.3z M300,64.1L300,64.1l0,0.1L300,64.1z M358.8,288.7c0,0-0.1-0.1-0.1-0.1c0,0-0.1,0-0.1,0.1c0,0,0.1,0.1,0.1,0.1
				C358.7,288.8,358.7,288.7,358.8,288.7z M243.3,226L243.3,226l0.1,0.1L243.3,226z M243.4,227.2l0.1,0.1l0.1-0.1L243.4,227.2z
				 M357.6,289c0,0,0,0.1,0,0.1c0,0,0.1,0,0.1,0c0-0.1,0-0.1,0-0.2C357.7,289,357.6,289,357.6,289z M169.4,390.1L169.4,390.1l0,0.1
				L169.4,390.1z"/>
			<path d="M202.7,29.1c-0.2-0.1-0.4-0.3-0.5-0.4c-0.6-1.5-0.6-3.1-0.3-4.7c1.1-4.9,4.7-7.8,9.4-7.9c4.9-0.2,8.6,3.2,9.6,7.2
				c0.7,2.7,0.3,5.2-1,7.6c-0.2,0.3-0.4,0.6-0.8,0.4l0,0c1.9-2.6,2-5.5,1-8.5c-0.4-1.1-1-2.1-1.7-3c-1-1.3-2.3-2.2-3.9-2.6
				c-2-0.5-3.9-0.6-5.9,0.1c-2.8,1-4.7,2.9-5.8,5.7C202.2,24.9,201.9,27,202.7,29.1L202.7,29.1z"/>
			<path d="M201,22.3c-0.1-0.4-0.2-0.9,0.2-1.2l0,0C201.1,21.5,201,21.9,201,22.3L201,22.3z"/>
			<path d="M219.1,31.1c0.2,0.3,0.1,0.6,0,1l0,0C219.1,31.8,219.1,31.5,219.1,31.1L219.1,31.1z"/>
			<path d="M202.6,29.1C202.6,29.2,202.6,29.4,202.6,29.1C202.6,29.4,202.6,29.2,202.6,29.1L202.6,29.1z"/>
			<path d="M201.3,20.3c0.1,0.3,0.2,0.6-0.2,0.8l0,0C201.2,20.8,201.3,20.5,201.3,20.3L201.3,20.3z"/>
			<path d="M221.3,19.7c-0.1-0.3-0.2-0.6-0.2-0.8l0,0C221.1,19.2,221.2,19.5,221.3,19.7L221.3,19.7z"/>
			<path d="M286.8,41.9c-0.1,0-0.2,0-0.3,0c0,0-0.1-0.1-0.1-0.1c0.1-0.1,0.2-0.2,0.2-0.1C286.7,41.7,286.8,41.8,286.8,41.9
				L286.8,41.9z"/>
			<polygon points="244.1,60.1 243.9,60.2 244,60.2 			"/>
			<path d="M244,60.2C244,60.2,244,60.2,244,60.2L244,60.2z"/>
			<path d="M245,59.4c-0.3-0.1-0.4-0.2-0.1-0.4c0,0,0.1,0.1,0.1,0.1C245.1,59.3,245.1,59.4,245,59.4L245,59.4z"/>
			<polygon points="247.7,55 247.7,54.9 247.7,55 			"/>
			<path d="M217.4,33.3C217.5,33.3,217.5,33.3,217.4,33.3L217.4,33.3z"/>
			<path d="M218,33.2c-0.2,0.1-0.3,0.1-0.5,0.2l0,0C217.6,33.3,217.8,33.2,218,33.2L218,33.2z"/>
			<path d="M218.2,32.7c-0.2,0.1-0.3,0.2-0.2,0.5l0,0C218,33,218.1,32.9,218.2,32.7L218.2,32.7z"/>
			<path d="M218.6,32.4c-0.2,0.1-0.3,0.2-0.5,0.3l0,0C218.4,32.8,218.6,32.7,218.6,32.4L218.6,32.4z"/>
			<path d="M219.1,32.1c-0.2,0.1-0.3,0.2-0.5,0.3l0,0C218.8,32.3,219,32.2,219.1,32.1L219.1,32.1z"/>
			<polygon points="201.3,20.2 201.4,20.3 201.3,20.3 			"/>
			<path d="M221.1,18.9c0,0-0.1,0-0.1,0C221,18.9,221,18.9,221.1,18.9L221.1,18.9z"/>
			<path d="M227.5,290c-0.4,0-0.7,0-1.1-0.1c-0.3-0.1-0.7-0.3-0.8-0.5c-0.3-0.6-0.6-1.2-0.8-1.9c-0.2-0.5,0-1,0.4-1.4
				c1-0.9,2.2-1.1,3.5-0.8c0.9,0.2,1.7,1.5,1.6,2.4c0,1.1-0.7,2-1.8,2.2C228.3,290,227.9,290,227.5,290z M227.7,289.1
				c0.3,0,0.7-0.4,0.7-0.8c0-0.4-0.3-0.8-0.7-0.8c-0.4,0-0.7,0.3-0.7,0.6C226.9,288.6,227.2,289.1,227.7,289.1z"/>
			<path d="M273,278.4c0-0.1,0-0.2,0-0.2C273,278.2,273,278.3,273,278.4L273,278.4z"/>
			<path d="M313.1,99.4c-0.6-0.2-0.9-0.3-1.4-0.5c0.5-0.2,0.7-0.3,1-0.3C312.7,98.6,312.8,98.9,313.1,99.4z"/>
			<path d="M315,99.7c-0.3,0.1-0.6,0.1-1,0.2c0-0.5,0.1-0.6,0.5-0.5C314.7,99.5,314.8,99.7,315,99.7L315,99.7z"/>
			<path d="M257.3,170.8c0.1,0.1,0.1,0.2,0.2,0.3c-0.2,0-0.3,0.1-0.5,0.1c0,0-0.1-0.1-0.1-0.1C257.1,170.9,257.2,170.8,257.3,170.8z
				"/>
			<path d="M314,98.4c-0.1,0-0.2-0.1-0.2-0.1c0,0,0-0.1,0.1-0.1c0.1,0,0.2,0.1,0.2,0.1C314,98.3,314,98.4,314,98.4z"/>
			<path d="M267,182.2c0-0.1,0-0.2,0-0.3C267,182,267,182,267,182.2C267,182.1,267,182.2,267,182.2z"/>
			<path d="M312.8,95.7L312.8,95.7L312.8,95.7z"/>
			<path d="M314.6,97.8L314.6,97.8L314.6,97.8z"/>
			<path d="M275.9,112.5c-0.1,0-0.3,0-0.4,0C275.6,112.5,275.7,112.5,275.9,112.5z"/>
			<path d="M356.9,66.8c-0.4-0.6-0.4-1-0.1-1.4c0.2-0.2,0.4-0.4,0.7-0.4c0.3,0,0.7,0,0.9,0.2c0.2,0.1,0.2,0.4,0.4,0.8
				c-0.4,0.1-0.7,0.2-1,0.3C357.5,66.3,357.3,66.5,356.9,66.8z"/>
			<path d="M385.7,142.3c-0.4,0.5-0.8,0.3-1.2,0.1c-0.1-0.5,0.2-0.6,0.5-0.6C385.4,141.8,385.6,142,385.7,142.3z"/>
			<path d="M43,156.4c1.3,0.2,2.1,0.9,3.1,1.1c0.1,0.4-0.2,0.4-0.4,0.4c-0.9,0-1.7-0.3-2.3-0.9C43.3,157,43.3,156.8,43,156.4z"/>
			<path d="M244.2,200.7c0.2,1.4,0.1,2.8,0.1,4.2c0,0.3-0.4,0.6-0.7,0.6c-0.4,0-0.8,0-1-0.4c0-0.5,0.5-0.4,0.8-0.5
				c0.7-0.3,0.9-0.8,0.4-1.4c-0.5-0.6-0.4-1.3-0.5-1.9C243.1,200.8,243.4,200.7,244.2,200.7z"/>
			<path d="M224.5,193.1c-0.8,0-1.4-0.1-2-0.1c-0.2-0.2-0.3-0.5-0.1-0.5c0.6-0.3,1.3-0.3,1.9,0.1
				C224.5,192.6,224.5,192.8,224.5,193.1z"/>
			<path d="M211.5,166.9c-0.1,0.1-0.2,0.2-0.3,0.2c-0.1,0-0.3-0.2-0.3-0.3c0-0.1,0.1-0.3,0.2-0.3
				C211.3,166.4,211.5,166.7,211.5,166.9z"/>
			<path d="M208.3,186.4c0-0.1-0.1-0.2-0.1-0.2c0.1,0,0.2-0.1,0.3-0.1c0.1,0,0.1,0.2,0.1,0.2C208.5,186.4,208.4,186.4,208.3,186.4z"
				/>
			<path d="M284.7,165.7c-0.2-0.1-0.3-0.1-0.3-0.2c0.1-0.2,0.2-0.3,0.3-0.5c0,0,0.2,0.1,0.2,0.1
				C284.9,165.4,284.8,165.5,284.7,165.7z"/>
			<path d="M268.4,160.7c0,0-0.1,0.1-0.1,0.1c0,0-0.1-0.1-0.1-0.1c0,0,0.1-0.1,0.1-0.1C268.3,160.6,268.4,160.6,268.4,160.7z"/>
			<path d="M215.1,84.9c-0.4,0-0.8,0.1-1.3,0.2c0-0.2-0.1-0.4-0.1-0.5c0.2-0.4,0.5-0.6,0.9-0.5C215.1,84.2,215.3,84.5,215.1,84.9z"
				/>
			<path d="M75.4,66c-0.6,0.1-1,0.3-1.4,0.3c-0.2,0-0.5,0-0.6-0.1c-0.1-0.1-0.1-0.4,0-0.6c0.2-0.6,0.6-0.9,1.1-0.8
				C75.1,64.9,75.5,65.3,75.4,66z"/>
			<path d="M301.5,132.1L301.5,132.1L301.5,132.1z"/>
			<polygon points="216.1,283.6 216,283.6 216,283.5 			"/>
		</g>
	</g>
</g>
</svg>
