<?xml version="1.0" encoding="utf-8"?>
<!-- Generator: Adobe Illustrator 24.0.1, SVG Export Plug-In . SVG Version: 6.00 Build 0)  -->
<svg version="1.1" id="Calque_1" xmlns="http://www.w3.org/2000/svg" xmlns:xlink="http://www.w3.org/1999/xlink" x="0px" y="0px"
	 viewBox="0 0 500 249" style="enable-background:new 0 0 500 249;" xml:space="preserve">
<style type="text/css">
	.Ombre_x0020_portée{fill:none;}
	.Lueur_x0020_externe_x0020_5 pt{fill:none;}
	.Néon_x0020_bleu{fill:none;stroke:#8AACDA;stroke-width:7;stroke-linecap:round;stroke-linejoin:round;}
	.Ton_x0020_clair_x0020_chrome{fill:url(#SVGID_1_);stroke:#FFFFFF;stroke-width:0.3629;stroke-miterlimit:1;}
	.Swing_GS{fill:#FFDD00;}
	.Alysse_GS{fill:#A6D0E4;}
</style>
<linearGradient id="SVGID_1_" gradientUnits="userSpaceOnUse" x1="0" y1="-251" x2="6.123234e-17" y2="-252">
	<stop  offset="0" style="stop-color:#656565"/>
	<stop  offset="0.618" style="stop-color:#1B1B1B"/>
	<stop  offset="0.6292" style="stop-color:#545454"/>
	<stop  offset="0.9831" style="stop-color:#3E3E3E"/>
</linearGradient>
<g>
	<path d="M495.4,120.5c-0.3,0-0.4,0.3-0.7,0.4c-8.7,0-17.5,0-26.2,0c-3.8,0-7.6,0-11.3,0c-0.4,0-0.9-0.1-1.2,0.3
		c-0.1,0.1-0.2,0.1-0.3,0.1c-1,0-2,0-3,0c-0.1,0-0.3-0.3-0.2-0.5c0-0.1,0-0.1,0.1-0.2c0.2-0.2,0.4-0.3,0.5-0.5c0.7,0,1.4,0,2.1,0
		c0.3-0.2,0.6-0.4,1-0.4c4.5,0,8.9,0,13.4,0c0.3,0,0.5,0,0.8,0c0.4,0,0.6-0.2,0.9-0.4c2.8,0,5.6,0,8.5,0c0.2,0,0.4,0,0.5-0.1
		c0,0,0.1-0.1,0.1-0.1c0-0.1-0.1-0.1-0.1-0.1c-0.4,0-0.9,0-1.3,0c-5.6,0-11.2,0-16.8,0c-0.3,0-0.6,0-0.9,0c-0.2,0-0.3-0.2-0.5-0.3
		c-0.3-0.2-0.2-0.6-0.4-0.8c-0.2-0.3-0.2-0.3,0.1-0.6c0.1-0.1,0.2-0.1,0.3-0.2c0.5,0,1.1,0,1.7,0c0.2,0,0.3-0.3,0.3-0.4
		c-0.1-0.1-0.1-0.3-0.2-0.3c-0.8,0-1.5,0-2.3,0c-0.3,0-0.6,0-0.9,0c-0.2,0-0.4-0.3-0.6-0.3c-0.4,0-0.7,0-1-0.4
		c-0.3,0-0.6-0.2-0.8-0.5c-0.2-0.2-0.4-0.3-0.6-0.4c-0.2,0-0.2-0.2-0.1-0.4c0.2-0.3,0.5-0.3,0.8-0.5c0,0,0-0.1,0-0.1
		c0-0.1-0.1-0.1-0.1-0.1c-1.4,0-2.9,0-4.3,0c-0.2,0-0.3-0.2-0.3-0.4c0-0.3,0.1-0.6,0.3-0.8c0.3-0.3,0.7-0.2,1-0.5
		c0.1-0.2,0.4-0.1,0.5-0.1c0.9,0,1.9,0,2.8,0c0.1,0,0.3-0.2,0.3-0.4c0-0.3,0-0.6-0.4-0.7c-0.1,0-0.1,0-0.2-0.1
		c-0.1,0-0.1-0.1-0.2-0.1c-0.3-0.2-0.3-0.3-0.1-0.7c0.1-0.2,0.1-0.4,0-0.5c-0.1-0.1-0.3-0.3-0.4-0.4c-0.2-0.2-0.3-0.4-0.3-0.7
		c0-0.1,0-0.3-0.1-0.4c-0.2-0.4-0.7-0.6-0.7-1.1c-0.3-0.3-0.6-0.6-0.9-0.9c-0.2,0-0.4,0-0.6,0c-0.4-0.1-0.7,0.2-1,0.3
		c-0.2-0.2-0.3-0.4-0.5-0.6c-0.1-0.1,0.1-0.5,0.2-0.5c1.1,0,2.1,0,3.2,0c0.1,0,0.2,0.1,0.3,0.2c0.2,0.2,0.4,0.3,0.6,0.5
		c0.1,0.1,0.4,0.1,0.5-0.1c0.2-0.2,0.4-0.3,0.6-0.5c0.1-0.1,0.2-0.1,0.3-0.1c0.3,0.1,0.5,0.4,0.8,0.4c0.3,0,0.6,0,0.9,0
		c4.8,0,9.7,0,14.5,0c0.3-0.2,0.5-0.4,0.9-0.4c1.6,0,3.3,0,4.9,0c0.5,0,1,0.2,1.4-0.3c0,0,0.1,0,0.1,0c0.2,0.2,0.5,0.3,0.9,0.3
		c0.8,0,1.6,0,2.5,0c0.4,0,0.6-0.2,0.8-0.4c3.1,0,6.3,0,9.4,0c0.4,0,0.5,0.1,0.5,0.6c0,0.1,0,0.2,0.1,0.4c0,0.1,0.2,0.2,0.3,0.2
		c0,3.1,0,6.3,0,9.4c-0.1,0-0.3,0-0.3,0.2c0,0.2-0.1,0.4-0.1,0.5c0,0.2-0.2,0.4-0.3,0.4c-1.9,0-3.9,0-5.8,0c-2.3,0-4.6,0-7,0
		c-0.1,0-0.3,0-0.3,0.1c0,0,0,0.1,0,0.1c0,0.1,0.1,0.1,0.1,0.1c0.5,0.1,1-0.1,1.4,0.3c0,0,0.1,0,0.1,0c0.2-0.2,0.4-0.3,0.7-0.3
		c3.5,0,7,0,10.6,0c0.1,0,0.2,0,0.4,0.1c0.1,0,0.1,0.1,0.1,0.1c0.1,0.5,0.1,1,0,1.5c0,0-0.1,0.1-0.1,0.1c-0.2,0-0.4,0.1-0.5,0.1
		c-3.7,0-7.4,0-11.1,0c-0.3,0.2-0.6,0.5-1,0.4c-0.3-0.1-0.6,0-0.9,0.3c-0.1,0.1-0.2,0-0.3-0.1c-0.2-0.1-0.3,0-0.3,0.1
		c0,0.1,0,0.3,0,0.4c0,0.2,0.1,0.4,0.3,0.4c0.3,0,0.6,0.1,0.9-0.2c0.2-0.2,0.4-0.3,0.6-0.5c4.3,0,8.7,0,13,0
		C495.4,119.8,495.4,120.2,495.4,120.5z M475.1,117.1c0.3-0.2,0.5-0.4,0.8-0.4c0.3,0,0.6,0,0.9,0c0.9,0,1.9,0,2.8-0.1
		c0,0,0.1-0.1,0.1-0.1c0,0-0.1-0.1-0.1-0.1c-0.2-0.1-0.4-0.1-0.5-0.1c-5.1,0-10.3,0-15.4,0c-0.2,0-0.4,0-0.6,0
		c-0.1,0-0.2,0.1-0.3,0.2c0,0.1,0,0.2,0,0.4c0.1,0.1,0.2,0.2,0.3,0.2C467.2,117.1,471.2,117.1,475.1,117.1z"/>
	<path d="M489,247.4c0-0.1-0.1-0.2-0.1-0.3c0-0.1-0.2-0.3-0.1-0.3c0.4-0.4,0.3-0.8,0.3-1.2c0-0.1,0-0.1,0-0.2c0-0.2,0-0.4,0.1-0.5
		c0.1-0.1,0.1-0.2,0.2-0.3c0-0.5,0-1.1,0-1.7c-0.1-0.4,0.2-0.7,0.4-1c0-1,0-2.1,0-3.2c0.2-0.3,0.4-0.5,0.4-0.8c0-0.9,0-1.9,0-2.8
		c0-0.3,0-0.6,0.3-0.9c0.1-0.1,0.1-0.2,0.1-0.3c0-0.3,0-0.6,0-0.9c0-0.2,0.1-0.4,0.2-0.5c0.1-0.2,0.2-0.3,0.2-0.5c0-1.1,0-2.3,0-3.4
		c0.1-0.2,0.2-0.3,0.4-0.5c0-0.5,0-1.1,0-1.7c0-0.5-0.2-0.8-0.7-1.1c-0.4,0-1,0-1.5,0c-0.2,0-0.4-0.1-0.5-0.2
		c-0.3-0.3-0.6-0.2-0.8,0c-0.3,0.2-0.6,0.2-0.9,0.1c-0.3-0.1-0.6-0.3-0.8-0.4c-0.3-0.2-0.5-0.3-0.9-0.3c-0.2,0-0.4,0-0.6,0
		c-0.4,0-0.6-0.2-0.9-0.4c-0.5,0-1,0-1.5,0c-0.2,0-0.4-0.1-0.5-0.2c-0.1-0.1-0.3-0.2-0.5-0.2c-0.6,0-1.3,0-1.9,0
		c-0.3-0.2-0.5-0.4-0.9-0.4c-0.3,0-0.6,0-0.9,0c-0.4,0.1-0.7-0.2-1-0.4c-0.7,0-1.4,0-2,0c-0.3-0.2-0.6-0.4-1-0.4c-0.3,0-0.6,0-0.9,0
		c-0.4,0-0.6-0.2-0.9-0.4c-0.6,0-1.2,0-1.9,0c-0.2,0-0.4-0.1-0.5-0.2c-0.2-0.1-0.3-0.2-0.5-0.2c-0.5,0-1,0-1.5,0
		c-0.3-0.2-0.5-0.4-0.9-0.4c-0.4,0-0.9,0-1.3,0c-0.4,0.1-0.7-0.2-1-0.4c-0.7,0-1.4,0-2,0c-0.3-0.2-0.5-0.4-0.9-0.4
		c-0.4,0-0.8,0-1.1,0c-0.4,0-0.6-0.2-0.9-0.4c-0.5,0-1,0-1.5,0c-0.2,0-0.4-0.1-0.5-0.2c-0.2-0.2-0.5-0.2-0.7-0.2
		c-0.1,0-0.3,0-0.3-0.2c-0.1-0.3-0.3-0.5-0.4-0.8c-0.3-0.6,0.2-1.3,0.9-1.3c0.1,0,0.1,0,0.2,0c0.2,0,0.4,0,0.6,0.1
		c0.2,0.1,0.3,0.2,0.5,0.3c0.8,0,1.6,0,2.4,0c0.3,0.2,0.6,0.4,1,0.4c0.4-0.1,0.9,0,1.3,0c0.2,0.1,0.4,0.2,0.6,0.4c0.6,0,1.2,0,1.8,0
		c0.2,0,0.4,0.1,0.5,0.2c0.1,0.1,0.3,0.2,0.5,0.2c0.5,0,1,0,1.5,0c0.3,0.2,0.5,0.4,0.9,0.4c0.5,0,1,0,1.5,0c0.4,0,0.6,0.2,0.9,0.4
		c0.5,0,1.1,0,1.7,0c0.3,0.2,0.6,0.4,1,0.4c0.4-0.1,0.9,0,1.3,0c0.2,0.1,0.4,0.2,0.6,0.4c0.6,0,1.2,0,1.8,0c0.2,0,0.4,0.1,0.5,0.2
		c0.1,0.1,0.3,0.2,0.5,0.2c0.5,0,1,0,1.5,0c0.3,0.2,0.5,0.4,0.9,0.4c0.5,0,1,0,1.5,0c0.4,0,0.6,0.2,0.9,0.4c0.7,0,1.4,0,2,0
		c0.3,0.2,0.6,0.5,1,0.4c0.2,0,0.4,0,0.6,0c0.4,0,0.6,0.2,0.9,0.4c0.6,0,1.2,0,1.8,0c0.1,0,0.3,0,0.4,0.1c0.4,0.3,0.8,0.3,1.2,0.3
		c0.2,0,0.4-0.2,0.4-0.3c0-0.1,0-0.1,0-0.2c0.1-0.5-0.2-1.1,0.3-1.6c0-0.4,0.1-0.7,0.1-1.1c0-0.4,0.2-0.6,0.4-0.8c0-0.4,0-0.8,0-1.1
		c0-0.2-0.1-0.3-0.2-0.5c-0.3-0.6-0.3-1.2,0.2-1.8c0-0.6,0-1.3,0-2c0-0.2,0-0.4,0.1-0.5c0.1-0.2,0.2-0.3,0.3-0.5c0-2.3,0-4.7,0-7
		c0.2-0.3,0.4-0.6,0.4-1c0-2.2,0-4.4,0-6.6c0-0.4,0.2-0.6,0.4-0.9c0-0.5,0-1,0-1.5c0-0.2,0.1-0.4,0.2-0.5c0.1-0.2,0.2-0.3,0.2-0.5
		c0-1.6,0-3.3,0-4.9c0.1-0.2,0.2-0.3,0.3-0.5c0-0.1-0.1-0.1-0.1-0.2c-0.2-0.2-0.3-0.4-0.1-0.7c0.1-0.1,0.3-0.3,0.3-0.5
		c0-0.4,0-0.9,0-1.3c0-0.3,0-0.3,0.4-0.8c0-2.1,0-4.1,0-6.2c0.2-0.3,0.4-0.6,0.4-1c-0.1-0.7,0-1.4,0-2c0.1-0.2,0.2-0.4,0.4-0.5
		c0-0.8,0-1.6,0-2.4c0-0.2,0.2-0.3,0.4-0.3c0,24.8,0,49.6,0,74.4C493.3,247.4,491.1,247.4,489,247.4z"/>
	<path d="M5.3,107.3c1.4,0,2.9,0,4.3,0c0.3,0,0.5,0.1,0.7,0.3c0.3,0.2,0.6,0.1,0.9,0.1c0.2,0,0.4-0.1,0.5-0.2c0.1-0.1,0.2-0.2,0.3,0
		c0.2,0.3,0.6,0.2,0.8,0.4c0.4,0.3,0.8,0.3,1.2,0c0,0,0.1-0.1,0.2-0.1c0.5-0.1,1-0.2,1.4,0.2c0.3,0.3,0.7,0.2,1-0.1
		c0.1-0.1,0.2-0.1,0.3,0c0.4,0.3,0.8,0.4,1.2,0.1c0.2-0.1,0.3-0.2,0.5-0.2c0.4,0,0.8,0,1.1,0c0.2,0.1,0.3,0.2,0.5,0.3
		c0.5-0.4,1-0.4,1.6-0.2c0.2,0.1,0.4,0.3,0.7,0.3c0.9,0,1.8,0,2.6,0c0.2-0.1,0.4-0.2,0.5-0.4c0.8,0,1.6,0,2.4,0
		c0.5-0.2,0.8-0.7,1.1-1c0-0.5,0-0.9,0-1.4c0-0.1,0.1-0.1,0.2-0.2c0,0,0.1,0.1,0.1,0.1c0,0.8,0,1.6,0,2.4c0.2,0.5,0.6,0.8,0.9,1.1
		c0,0,0.1,0,0.1,0c0,0,0.1-0.1,0.1-0.1c0-0.4,0-0.8,0-1.1c0-0.1,0-0.3,0.1-0.3c0.4-0.4,0.3-0.8,0.3-1.2c0-0.2,0-0.4,0-0.6
		c0-0.1,0.1-0.1,0.1-0.1c0.1,0.1,0.2,0.1,0.2,0.2c0,0.4,0,0.8,0.3,1c0,0.4,0.4,0.6,0.4,1c0,0.3,0.4,0.5,0.6,0.7c0.9,0,1.9,0,2.8,0
		c0.3,0,0.6-0.1,0.9-0.3c0.1-0.1,0.3-0.1,0.5,0c0.2,0.2,0.4,0.3,0.7,0.3c1.3,0,2.5,0,3.8,0c1.1,0,2.3,0,3.4,0c0.3,0,0.5,0.1,0.7,0.3
		c0,0,0.1,0.1,0.2,0.1c0.3,0,0.6,0,0.9,0.2c0.2,0.2,0.6,0.2,0.8,0.4c0.1,0.2,0.3,0.1,0.5,0.1c1.1,0,2.1,0,3.2,0c0.4,0,0.7,0.2,1,0.4
		c1.2,0,2.4,0,3.6,0c0.1,0,0.2-0.2,0.2-0.2c0-0.7,0-1.4,0-2c0.2-0.4,0.5-0.6,0.4-1.1c0-0.3,0-0.6,0-0.9c0-0.1,0.2-0.2,0.3-0.2
		c0.2-0.1,0.4,0.1,0.4,0.3c0,1.8,0,3.6,0,5.5c0,0.1-0.2,0.2-0.2,0.2c-1.2,0-2.4,0-3.6,0c-0.2-0.2-0.5-0.5-0.8-0.7
		c-0.1-0.1-0.5,0-0.5,0.1c0,0.5-0.5,0.7-0.7,1.1c-0.2,0.2-0.1,0.5,0.1,0.6c0.1,0.1,0.2,0.1,0.3,0.1c0.1,0.1,0.1,0.2,0.1,0.3
		c0,0.1,0,0.3-0.2,0.3c-0.2,0-0.4,0-0.6,0c-5.2,0-10.3,0-15.5,0c-0.4,0-0.7-0.2-1-0.4c-1.1,0-2.1,0-3.2,0c-0.1,0.1-0.3,0.2-0.5,0.3
		c-0.1-0.1-0.2-0.1-0.3-0.2c-0.4-0.2-0.8-0.2-1,0.1c-0.2,0.2-0.4,0.3-0.6,0.5c-0.1-0.1-0.2-0.2-0.2-0.3c0-0.2-0.1-0.4-0.3-0.4
		c-0.5,0-1,0-1.5,0c-4.7,0-9.4,0-14.1,0c-0.3-0.2-0.5-0.4-0.8-0.4c-2.2,0-4.4,0-6.6,0C5.3,110.6,5.3,108.9,5.3,107.3z"/>
	<path d="M5.3,232.7c0.3,0,0.5,0,0.8,0c0.3,0,0.6,0,0.9-0.3c0.2-0.2,0.4-0.1,0.5-0.1c0.5,0,1,0.1,1.4-0.3C9,232,9.1,232,9.3,232
		c0.5,0,1,0,1.5,0c0.3-0.2,0.5-0.4,0.9-0.4c0.5,0,1,0,1.5,0c0.4,0,0.6-0.2,0.8-0.4c0.6,0,1.1,0,1.7,0c0.3-0.2,0.6-0.5,1-0.4
		c0.2,0,0.4,0,0.6,0c0.4,0,0.6-0.2,0.9-0.4c0.4,0,0.8,0,1.3,0c0.4,0,0.7-0.2,1-0.4c0.6,0,1.2,0,1.7,0c0.3-0.2,0.6-0.5,1-0.4
		c0.2,0,0.4,0,0.6,0c0.4,0,0.6-0.2,0.8-0.4c0.5,0,1,0,1.5,0c0.3,0,0.5,0.1,0.6,0.3c0.3,0.3,0.4,0.9,0.1,1.2
		c-0.3,0.3-0.5,0.5-0.8,0.8c-0.4,0-0.8,0-1.2,0c-0.1,0-0.3,0-0.3,0.1c-0.4,0.4-0.8,0.3-1.2,0.3c-0.4,0-0.7,0.1-1,0.3
		c-0.3,0-0.6,0-0.9,0c-0.3,0-0.6,0-0.9,0.3c-0.1,0.1-0.2,0.1-0.3,0.1c-0.3,0-0.6,0-0.9,0c-0.1,0-0.3,0-0.3,0.1
		c-0.3,0.3-0.7,0.3-1,0.3c-0.1,0-0.3,0-0.4,0c-0.4-0.1-0.6,0.2-0.9,0.4c-0.4,0-0.8,0-1.3,0c-0.3,0-0.6,0.1-0.9,0.3
		c-0.2,0.1-0.4,0.1-0.5,0.1c-0.2,0-0.4,0-0.6,0c-0.4,0.5-1,0.4-1.6,0.4c-0.2,0-0.4,0-0.5,0.1c-0.1,0.1-0.2,0.1-0.3,0.2
		c-0.5,0-1,0-1.5,0c-0.2,0-0.4,0.1-0.5,0.2c-0.1,0.1-0.2,0.1-0.3,0.2c-0.1,0-0.1,0-0.2,0c-0.5,0-1.1-0.2-1.6,0.3c-0.4,0-0.9,0-1.3,0
		C5.3,234.5,5.3,233.6,5.3,232.7z"/>
	<path d="M495.4,171.9c-0.2,0-0.3-0.1-0.4-0.3c0-0.1,0-0.2,0.1-0.3c0.1-0.1,0.2-0.1,0.3-0.1C495.4,171.4,495.4,171.6,495.4,171.9z"
		/>
	<path d="M323.1,23c0,5.4,0,10.7,0,16c0.2,0.3,0.4,0.6,0.4,1.1c0,3.8,0,7.7,0,11.5c0,1.9,0,3.8,0,5.7c0,0.4,0.2,0.6,0.4,0.9
		c0,6.6,0,13.3,0,20c0,0.5-0.1,1,0.3,1.4c0.1,0.1,0.1,0.2,0.1,0.4c0,0.2,0,0.4,0,0.6c0,6.4,0,12.7,0,19.1c0,0.3,0,0.6,0,0.9
		c0,0.2-0.2,0.4-0.3,0.4c-0.6,0-1.3,0-1.9,0c-18.6,0-37.3,0-55.9,0c-29.3,0-58.6,0-87.8,0c-0.6,0-1.3,0-1.9,0
		c-0.1,0-0.2-0.1-0.3-0.2c0-0.4,0-0.8,0-1.1c0-4.2,0-8.3,0-12.5c0-0.5-0.1-1,0.3-1.4c0.1-0.1,0.1-0.2,0.1-0.4c0-0.5,0-1,0-1.5
		c0-6.3,0-12.6,0-18.9c0-0.6,0-1.3,0-1.9c0.2-0.3,0.4-0.5,0.4-0.9c0-5.9,0-11.8,0-17.7c0-0.3,0-0.6,0-0.9c0-0.1,0.1-0.2,0.2-0.3
		c0.1-0.2,0.2-0.3,0.2-0.5c0-0.5,0-1,0-1.5c0-4.9,0-9.8,0-14.7c0.2-0.3,0.4-0.5,0.4-0.9c0-2.3,0-4.5,0-6.8c0-0.6-0.1-1.1,0.4-1.6
		c-0.1-0.6,0.3-0.9,0.6-1.3c0.1-0.1,0.2-0.2,0.3-0.3c0.2-0.3,0.6-0.4,0.9-0.6c0.2-0.1,0.4-0.2,0.7-0.2c0.8,0,1.5,0,2.3,0
		c0.2,0,0.4-0.1,0.5-0.2c0.2-0.1,0.3-0.2,0.5-0.2c0.5,0,1,0,1.5,0c11.1,0,22.2,0,33.2,0c0.3-0.2,0.5-0.4,0.9-0.4c0.4,0,0.8,0,1.1,0
		c32.2,0,64.3,0,96.5,0c0.9,0,1.8,0.1,2.6,0c0.6,0,0.9,0.4,1.4,0.5c0.4,0.4,0.8,0.8,1.2,1.2c0.1,0.5,0.5,0.8,0.5,1.4
		c0,1.6,0,3.3,0,4.9C322.7,22.4,322.9,22.7,323.1,23z"/>
	<path d="M321.6,162.5c0,0.1,0,0.3,0,0.4c0,0.2-0.4,0.5-0.5,0.3c-0.4-0.4-0.9-0.3-1.2-0.8c-0.1-0.2-0.3-0.3-0.4-0.4
		c-0.2-0.2-0.5-0.4-0.7-0.6c-0.3,0-0.5-0.3-0.8-0.4c-0.6-0.1-0.7-0.7-1.2-0.8c-0.4-0.1-0.8-0.4-1.1-0.6c-0.2-0.1-0.3-0.3-0.4-0.4
		c-0.1-0.1-0.3-0.2-0.5-0.2c-0.1,0-0.3,0-0.4-0.1c-0.4-0.4-0.8-0.3-1.2-0.3c-0.1,0-0.3,0-0.3-0.1c-0.4-0.4-0.8-0.8-1.2-1.2
		c-0.1-0.1-0.1-0.3,0-0.5c0.1-0.1,0.2-0.2,0.2-0.3c0-0.1,0-0.3,0-0.4c-0.2-0.3-0.4-0.6-0.9-0.6c-0.5,0-0.9,0-1.2,0.4
		c-0.2,0.2-0.3,0.4-0.6,0.3c-0.4,0-0.7,0.1-1.1-0.2c-0.2-0.2-0.5-0.2-0.7,0c-0.5,0.4-0.9,0.9-1.4,1.3c-0.4,0-0.7,0-1.1,0
		c-0.4,0-0.6,0.2-0.9,0.4c-0.6,0-1.2,0-1.9,0c-0.2,0-0.4,0.1-0.5,0.2c-0.1,0.1-0.3,0.2-0.5,0.2c-0.6,0-1.3,0-1.9,0
		c-0.4-0.5-0.9-0.4-1.4-0.4c-0.2,0-0.3-0.1-0.2-0.3c0.2-0.4,0.4-0.8,0.6-1.1c0-0.1,0-0.1,0-0.2c0-0.1-0.1-0.1-0.1-0.1
		c-0.2-0.1-0.4-0.1-0.5-0.1c-1.6,0-3.1,0-4.7,0c-0.2,0.1-0.4,0.4-0.7,0.4c-0.6-0.1-0.9,0.4-1.4,0.5c-0.2,0.2-0.4,0.4-0.6,0.5
		c-0.2,0.1-0.5,0.2-0.7,0.3c-0.3,0.2-0.5,0.4-0.4,0.8c0,0.2,0,0.4,0,0.6c0,0.2,0.1,0.3,0.3,0.4c0.4,0.1,0.6,0.5,1,0.5
		c0,0,0.1,0.1,0.1,0.1c0,0.4,0.4,0.6,0.4,1c0,0.3,0.1,0.5,0.2,0.7c0.3,0.5,0.2,0.9-0.2,1.3c-0.1,0.1-0.2,0.2-0.3,0.2
		c-0.6,0-1.1,0-1.7,0c-26.9,0-53.9,0-80.8,0c-0.6,0-1.3,0-1.9,0c0,0-0.1,0.1-0.1,0.1c0.1,0.1,0.1,0.2,0.2,0.2c0.1,0,0.2,0,0.4,0
		c0.7,0,1.4,0,2.1,0c26.3,0,52.6,0,79,0c0.9,0,1.8,0,2.6,0c0.1,0,0.1,0.1,0.2,0.1c0.1,0.1,0,0.2-0.1,0.3c-0.1,0.1-0.3,0.2-0.4,0.4
		c-3.3,0-6.7,0-10,0c-0.5,0-1.1-0.2-1.6,0.3c-0.1,0.1-0.2,0.1-0.4,0.1c-0.3,0-0.5,0-0.8,0c-17.6,0-35.1,0-52.7,0c-0.3,0-0.6,0-0.9,0
		c-0.3-0.2-0.5-0.4-0.9-0.4c-4.3,0-8.7,0-13,0c-1.3,0-2.5,0-3.8,0c-0.2,0-0.4,0-0.5-0.1c-0.2-0.1-0.3-0.2-0.5-0.3
		c-0.6,0-1.1,0-1.7,0c-0.2-0.1-0.3-0.2-0.5-0.3c-0.3-0.1-0.7,0.1-0.8-0.2c-0.1-0.3-0.1-0.6-0.1-0.9c0-0.2,0.1-0.4,0.3-0.4
		c0.1,0,0.3,0,0.4,0c0.1,0,0.2,0,0.3-0.1c0.2-0.2,0.4-0.3,0.7-0.3c0.5,0,1,0,1.5,0c0.4,0,0.6-0.2,0.8-0.4c0.1-0.1,0.2-0.4,0.1-0.5
		c-0.1-0.1-0.2-0.2-0.3-0.2c-0.2,0-0.4-0.1-0.5,0c-0.3,0.3-0.7,0.3-1,0.5c-0.1,0.1-0.2,0.2-0.3,0c-0.2-0.3-0.6-0.2-0.8-0.4
		c-0.2-0.1-0.5-0.2-0.6-0.3c-0.3-0.2-0.5-0.3-0.9-0.3c-0.3,0-0.4-0.3-0.6-0.4c-0.2-0.1-0.5,0.1-0.7-0.1c-0.3-0.2-0.5-0.3-0.9-0.3
		c-0.4,0-0.9,0-1.3,0c-0.3-0.3-0.6-0.5-0.9-0.8c-0.6,0-1.3,0-1.9,0c-0.1,0-0.3,0-0.3-0.1c-0.4-0.4-0.8-0.3-1.2-0.3
		c-0.1,0-0.2,0-0.3-0.1c-0.3-0.3-0.7-0.2-1-0.5c-0.1-0.1-0.2-0.1-0.3-0.1c-0.3,0-0.5,0-0.7-0.2c-0.5-0.5-1.1-1.1-1.6-1.6
		c-0.1-0.1-0.7-0.1-0.9,0c-0.2,0.2-0.5,0.4-0.7,0.6c-0.3-0.3-0.6-0.6-1-0.9c-0.1-0.1-0.3-0.2-0.5-0.2c-0.4,0-0.6-0.2-0.6-0.5
		c0-0.4-0.1-0.8,0.2-1.1c0.1-0.1,0.1-0.2-0.1-0.3c-0.4,0-0.9,0-1.3,0c-0.2,0-0.3,0.2-0.3,0.4c0,0.2,0,0.5-0.2,0.7
		c-0.2,0.3-0.3,0.5,0,0.8c0.1,0.1,0.2,0.3,0.2,0.5c0,0.4,0.1,0.8-0.2,1.1c-0.1,0.1-0.1,0.2,0.1,0.3c0.2,0.2,0.2,0.6,0.4,0.8
		c0.1,0.1,0.1,0.2,0.1,0.3c0,0.5,0,1,0.4,1.4c0,0,0,0.1,0,0.2c-0.1,0.2-0.2,0.3-0.3,0.4c-0.3,0.3-0.4,0.6-0.4,1
		c0,0.2-0.2,0.3-0.3,0.3c-0.6,0-1.1,0-1.7,0c-0.1,0-0.3,0-0.4,0c-0.2,0.1-0.3,0.2-0.5,0.3c-0.6,0-1.2,0-1.9,0
		c-0.2,0-0.4-0.1-0.5-0.2c-0.2-0.1-0.3-0.2-0.5-0.2c-0.6,0-1.3,0-1.9,0c-0.2,0.2-0.4,0.3-0.6,0.5c-0.2,0.2-0.2,0.2-0.7,0.2
		c-0.1,0-0.1,0-0.2,0c-0.4,0.2-0.7,0.5-1.2,0.4c0,0-0.1,0.1-0.2,0.1c-0.2,0.2-0.5,0.3-0.9,0.3c-4.8,0-9.7,0-14.5,0
		c-0.6,0-1.1,0-1.7,0c-0.2,0-0.4,0-0.5-0.1c-0.2-0.1-0.3-0.2-0.5-0.3c-2.1,0-4.1,0-6.2,0c-0.3-0.2-0.6-0.5-1-0.4c-0.3,0-0.6,0-0.9,0
		c-0.4,0-0.6-0.2-0.9-0.4c-0.9,0-1.9,0-2.8,0c-0.4,0-0.9,0.1-1.2-0.3c-0.1-0.1-0.2-0.1-0.3-0.1c-0.9,0-1.8,0-2.6,0
		c-0.3-0.2-0.5-0.4-0.8-0.4c-0.2,0-0.4,0-0.6,0c-0.5,0.1-0.8-0.3-1.2-0.4c-0.4-0.1-0.6-0.4-0.7-0.8c-0.1-0.2-0.3-0.4-0.4-0.6
		c-0.3-0.4-0.3-0.4,0-1c0.1-0.1,0-0.2-0.1-0.3c-0.1,0-0.1,0-0.2,0c-0.7-0.1-0.7-0.1-0.7-0.6c0-0.1,0-0.1,0-0.2
		c0.1-0.4-0.2-0.7-0.4-1c0-1.1,0-2.2,0-3.2c0-0.1,0.1-0.2,0.2-0.2c0.1,0,0.3,0,0.3,0.1c0.1,0.1,0.1,0.2,0.2,0.3
		c0.1,0.2,0.2,0.3,0.4,0.3c0.5,0.1,0.8-0.2,1.1-0.6c0-0.3,0.2-0.5,0.3-0.7c0.1-0.1,0-0.2-0.2-0.2c-0.6,0-1.1,0-1.7,0
		c-0.3,0.2-0.6,0.5-1,0.4c-0.2,0-0.4,0-0.6,0c-0.3,0-0.5-0.1-0.7-0.3c-0.2-0.1-0.4-0.1-0.5-0.1c-0.4,0-0.7,0-1-0.3
		c-0.1-0.1-0.2-0.1-0.3-0.1c-0.5,0.1-0.7-0.2-0.9-0.5c-0.2-0.2-0.1-0.5-0.1-0.7c0-0.2,0.3-0.2,0.4-0.3c0.1,0,0.2-0.1,0.3-0.2
		c0-0.2,0-0.4,0-0.6c0-4.7,0-9.3,0-13.9c-0.2-0.4-0.5-0.6-0.4-1.1c0-9.7,0-19.4,0-29.1c0-0.2,0-0.4,0-0.6c0-0.1,0.2-0.2,0.3-0.2
		c0.2-0.1,0.4,0.1,0.4,0.2c0,0.6,0,1.1,0,1.7c0,7.3,0,14.6,0,21.9c0.2,0.3,0.4,0.6,0.4,1c0,5.9,0,11.7,0,17.6c0,0.4,0,0.9,0,1.3
		c0,0.1,0.1,0.3,0.1,0.3c0.2,0.3,0.2,0.6,0.2,0.9c0,0.1,0,0.1,0.1,0.2c0.1,0.1,0.2,0.1,0.3,0.1c0.1,0,0.3,0,0.3-0.2
		c0-0.2,0-0.4,0-0.6c0-3.9,0-7.8,0-11.7c0-0.4-0.2-0.7-0.4-1c0-7.7,0-15.5,0-23.2c-0.1-0.3-0.4-0.5-0.4-0.9c0-2.8,0-5.5,0-8.3
		c0.1-0.1,0.1-0.1,0.1-0.2c0.2-0.2,0.4-0.5,0.8-0.5c3.8,0,7.6,0,11.3,0c0.2,0.1,0.3,0.2,0.5,0.4c1.1,0,2.2,0,3.4,0
		c0.4,0,0.9,0.5,0.9,0.8c-0.1,0.4,0.2,0.7,0.4,1c0,1.3,0,2.6,0,3.9c0.2,0.3,0.4,0.6,0.4,1c0,4.5,0,9.1,0,13.6c0,0.6,0,1.1,0,1.7
		c0,0.4,0.2,0.6,0.4,0.9c0,2.9,0,5.9,0,8.9c0,0.4-0.1,0.9,0.3,1.2c0.1,0.1,0.1,0.4,0.1,0.5c0,2,0,3.9,0,5.9c0,2,0,4,0,6
		c-0.1,0.2-0.2,0.3-0.3,0.5c0.6,0.3,1.2,0.2,1.7-0.2c0.7,0,1.4,0,2.1,0c0.5-0.4,1-0.4,1.6-0.3c0.1,0,0.2,0.2,0.2,0.3
		c0.2,0.4,0.2,0.4,0.4,0.2c0.3-0.3,0.7-0.5,0.7-1c0-0.1,0.2-0.2,0.3-0.2c0.6,0,1.1,0,1.7,0c0.2-0.1,0.4-0.3,0.6-0.4c0.6,0,1.3,0,2,0
		c0.4,0,0.7,0.2,1,0.4c0.9,0,1.8,0,2.6,0c0.2,0,0.5,0.1,0.7-0.1c0.2-0.2,0.4-0.3,0.7-0.3c0.1,0,0.2-0.2,0.2-0.3c0-0.9,0-1.9,0-2.8
		c0.2-0.3,0.4-0.5,0.4-0.9c0-3.1,0-6.2,0-9.3c0-0.3-0.1-0.6-0.3-0.9c-0.2-0.4-0.2-0.8,0-1.3c0.1-0.2,0.2-0.3,0.4-0.4
		c0.4-0.1,0.6-0.4,1-0.5c0.3-0.1,0.5-0.3,0.7-0.6c-0.3-0.3-0.4-0.6-0.3-1c0-0.3,0.1-0.6,0.3-0.9c0.1-0.2,0.1-0.4,0-0.5
		c-0.3-0.3-0.5-0.5-0.8-0.8c-0.1-0.1-0.3-0.1-0.3,0c-0.3,0.2-0.5,0.4-0.8,0.4c-0.3,0.3-0.7,0.3-1,0.5c-0.2,0.2-0.6,0.2-0.8,0.4
		c-0.2,0.2-0.5,0.1-0.7,0.1c-0.1,0-0.3-0.1-0.3-0.2c0-0.4,0-0.8,0-1.1c0-0.2,0.1-0.4,0.2-0.5c0.3-0.3,0.5-0.5,0.8-0.8
		c0.4,0,0.8,0,1.2,0c0.2,0,0.3-0.1,0.5-0.2c0.5-0.2,1.1-0.3,1.6,0.1c0,0,0.1,0.1,0.2,0.1c0.3,0,0.6,0.1,0.9-0.2
		c0.3-0.3,0.5-0.6,0.4-1c0-0.1-0.1-0.3-0.2-0.3c-0.4-0.1-0.8-0.2-1.1,0c-0.4,0.3-0.8,0.3-1.2,0.3c-0.1,0-0.3,0-0.3-0.1
		c-0.3-0.3-0.7-0.2-1-0.3c-0.1,0-0.1-0.1-0.1-0.1c0.1-0.1,0.2-0.2,0.3-0.2c0.2,0,0.5,0,0.8,0c0.1,0,0.3,0,0.3-0.1
		c0.3-0.2,0.6-0.2,0.9-0.3c0.2,0,0.3-0.2,0.2-0.3c-0.1-0.2-0.2-0.3-0.2-0.5c-0.1-0.2-0.3-0.3-0.6-0.3c-0.1,0-0.3,0-0.3,0.1
		c-0.2,0.2-0.6,0.2-0.8,0.4c-0.4,0.3-0.9,0.4-1.2,0.8c-0.2,0.3-0.5,0.6-0.9,0.6c-0.2,0.2-0.5,0.4-0.7,0.6c-0.2,0.2-0.5,0.1-0.7,0.1
		c-0.1,0-0.3-0.1-0.3-0.2c0-0.4,0-0.8,0-1.1c0-0.1,0-0.3,0.1-0.3c0.3-0.4,0.6-0.8,1.1-1c0.4-0.2,0.8-0.4,1.2-0.4
		c0.4-0.4,0.9-0.4,1.4-0.3c0.4,0,0.7-0.2,1-0.4c0.7,0,1.4,0,2.1,0c0.1-0.1,0.3-0.2,0.4-0.4c0.1-0.1,0.1-0.2,0-0.3
		c-0.1-0.1-0.3-0.1-0.3-0.1c-0.3,0.2-0.6,0.4-1,0.4c-0.5,0-1,0-1.5,0c-0.2,0-0.4,0-0.5-0.1c0,0-0.1-0.1-0.1-0.1
		c0.1-0.1,0.1-0.2,0.2-0.3c0.1-0.1,0.3-0.3,0.5-0.3c0.3,0,0.6,0,0.9,0c0.1,0,0.3,0,0.4-0.1c0.4-0.4,0.9-0.3,1.4-0.3
		c0.1,0,0.3-0.2,0.3-0.4c0-0.1,0-0.3,0-0.4c0-0.1-0.1-0.3-0.2-0.3c-0.4,0-0.9,0-1.3,0c-0.1,0-0.2-0.1-0.2-0.2c0,0,0.1-0.1,0.1-0.2
		c0.2-0.2,0.4-0.4,0.8-0.4c0.2,0,0.4,0,0.6,0c0.2,0,0.3-0.2,0.3-0.4c0-0.3,0-0.5,0-0.8c0-0.2-0.1-0.3-0.3-0.4
		c-0.4-0.1-0.5-0.4-0.2-0.7c0.2-0.3,0.3-0.6,0.2-0.9c0-0.2-0.2-0.3-0.4-0.3c-0.3,0-0.5,0-0.8,0c-0.1,0-0.2-0.1-0.3-0.2
		c0,0,0.1-0.1,0.1-0.1c0.3,0,0.6-0.2,0.8-0.5c0.2-0.3,0.2-0.6,0.1-0.9c-0.1-0.2-0.3-0.2-0.5-0.2c-0.2,0-0.2-0.1-0.1-0.3
		c0.3-0.6,0.3-0.6-0.3-0.9c-0.1,0-0.1-0.1-0.2-0.1c0.3-0.3,0.6-0.6,0.9-0.9c0,0,0.1,0,0.2,0c0.3,0.1,0.7,0.3,1,0.5
		c0.1,0,0,0.2-0.1,0.3c-0.1,0.1-0.2,0.3-0.1,0.5c0,0.2,0.3,0.3,0.3,0.5c0,0.2-0.2,0.3-0.3,0.5c0,0.3,0,0.6,0,0.9
		c0,0.1,0.2,0.2,0.3,0.2c0.4,0,0.9,0,1.3,0c0.1,0,0.2,0.2,0.1,0.2c0,0.1-0.1,0.1-0.1,0.1c-0.1,0-0.3,0-0.4,0c-0.4,0-0.5,0.3-0.8,0.5
		c-0.2,0.2-0.1,0.4-0.1,0.5c0,0.3,0.1,0.5,0.4,0.5c0.1,0,0.3,0,0.4,0c0.1,0,0.1,0,0.2,0.1c0.1,0.1,0.1,0.2,0,0.3
		c-0.6,0.4-0.7,1-0.5,1.7c0,0.1,0.2,0.2,0.3,0.2c0.1,0.1,0.2,0,0.3-0.1c0.1-0.1,0.2-0.2,0.3-0.2c0.1-0.1,0.5,0,0.5,0.2
		c0.1,0.2,0,0.5-0.1,0.5c-0.3,0.1-0.6,0.2-0.8,0.4c-0.6,0-0.5,0.4-0.5,0.8c0,0.2,0.2,0.3,0.4,0.3c0.5,0,1,0,1.5,0c0.6,0,1.3,0,1.9,0
		c0.1,0,0.2,0.1,0.3,0.1c0.6,0.3,1.1,0.3,1.6,0c0.4-0.3,0.8-0.2,1.2,0.1c0.1,0.1,0.3,0.1,0.5,0.2c0.1,0.1,0.2,0.2,0.2,0.3
		c0,0.3,0,0.6-0.3,0.8c-0.4,0.3-0.5,0.3-1,0c-0.1,0-0.1-0.1-0.2-0.1c-0.5,0-1,0-1.5,0c-0.3,0-0.4,0.1-0.5,0.4c0,0.2-0.2,0.3-0.4,0.3
		c-0.5,0-1,0-1.4,0.4c-0.1,0.1-0.2,0-0.4,0c-0.1,0-0.1,0-0.2,0c-0.1,0-0.1,0.1-0.1,0.1c-0.1,0.1,0,0.2,0.1,0.2c0.1,0,0.3,0,0.3,0.1
		c0.5,0.5,1,0.3,1.5-0.1c0.5,0,1.1,0,1.7,0c0.2,0,0.3,0.1,0.3,0.4c0,0.1,0.1,0.2,0.2,0.3c0.1,0.1,0.3,0.3,0.4,0.4c0.5,0,1.1,0,1.7,0
		c0.1,0.3,0.2,0.4,0.3,0.3c0,0,0-0.1,0-0.1c-0.1-0.1-0.2-0.2-0.3-0.1c0-0.2-0.2-0.3-0.3-0.5c-0.1-0.1,0-0.2,0.1-0.3
		c0.3,0,0.6-0.1,0.9,0.2c0.4,0.4,0.8,0.8,1.2,1.2c0,0,0.1,0,0.1,0.1c0.3-0.2,0.5-0.6,0.9-0.7c0.3-0.1,0.4-0.3,0.4-0.5
		c0-0.1,0-0.3,0-0.4c0-0.1,0.4-0.3,0.5-0.2c0.2,0.2,0.4,0.3,0.6,0.5c0.4,0.3,0.5,0.3,0.9-0.1c0.1-0.1,0.3-0.2,0.4-0.4
		c0.3,0.2,0.2,0.6,0.5,0.7c0.2,0.1,0.4,0.3,0.4,0.5c-0.4,0.4-0.7,0.9-1.3,1c-0.3,0.2-0.6,0.5-0.5,0.9c0,0.2,0,0.4,0,0.6
		c0,0.1,0.2,0.2,0.2,0.2c1.1,0,2.3,0,3.4,0c0.3,0,0.5,0.2,0.6,0.3c0,0,0.1,0.1,0.1,0.1c0.2,0.2,0.1,0.6-0.1,0.6
		c-0.3,0.1-0.5,0.3-0.8,0.4c-0.3,0.1-0.6,0-0.9,0c0,0-0.1,0.1-0.1,0.1c0,0.1,0,0.2,0.2,0.2c0.1,0,0.2,0,0.4,0c0.4,0,0.9,0,1.4,0
		c0.3,0.2,0.6,0.5,0.9,0.8c1,0,2.1,0,3.2,0c0.1,0,0.2-0.1,0.3-0.1c0.6-0.3,1.1-0.3,1.6,0c0.3,0.2,0.6,0.2,0.9,0.1
		c0.3-0.3,0.7-0.7,1.1-1c0.2-0.2,0.2-0.4,0.3-0.6c0.2-0.4,0.4-0.7,0.6-1.1c0.1-0.2,0.1-0.5,0.3-0.7c0.2-0.2,0.4-0.4,0.5-0.7
		c0.1-0.3,0.4-0.5,0.6-0.7c0.2-0.2,0.4-0.4,0.7-0.7c0.1-0.1,0.2-0.3,0.3-0.5c0.2-0.5,0.6-0.8,1-1.1c0.3,0,0.5-0.2,0.6-0.4
		c0.4-0.4,0.7-0.7,1.1-1.1c0.2-0.2,0.2-0.4,0.3-0.6c0.1-0.3,0.4-0.5,0.7-0.6c1.1-0.5,1.1-0.6,1.7-1.1c0.3-0.3,0.5-0.7,1-0.8
		c0.5-0.1,0.8-0.6,1.1-1c0.3-0.3,0.6-0.6,0.9-0.9c0.4-0.1,0.7,0,0.9-0.2c0.2-0.1,0.5-0.2,0.6-0.3c0.3-0.2,0.5-0.3,0.9-0.3
		c0.4,0.1,0.7-0.1,1-0.4c1,0,1.9,0,2.8,0c0.3-0.2,0.6-0.5,1-0.4c0.3,0.1,0.6,0,0.9,0c0.3-0.3,0.6-0.5,0.9-0.8c5.7,0,11.3,0,17,0
		c0.5,0,1,0,1.5,0c0.2,0,0.4-0.1,0.5-0.2c0.2-0.1,0.3-0.2,0.5-0.2c0.5,0,1,0,1.5,0c0.3,0.2,0.5,0.4,0.8,0.4c2.5,0,5,0,7.6,0
		c5.7,0,11.5,0,17.2,0c0.3,0,0.6-0.1,0.9-0.3c0.4-0.2,0.9-0.2,1.2,0c0.3,0.2,0.5,0.3,0.9,0.3c0.4,0,0.9,0,1.3,0
		c0.2,0.2,0.4,0.3,0.6,0.5c0.2,0.2,0.5,0.2,0.7,0.3c0.2,0.2,0.5,0.4,0.7,0.7c0.3,0.4,0.8,0.3,1.1,0.7c0.3,0.4,0.8,0.4,1.1,0.7
		c0.2,0.1,0.3,0.1,0.5,0.1c0.1,0,0.3,0,0.4,0.1c0.4,0.4,0.8,0.3,1.2,0.3c0.1,0,0.3,0,0.3,0.1c0.2,0.2,0.6,0.2,0.8,0.4
		c0.4,0.3,0.4,0.2,0.7,0.2c0.5,0,1,0,1.5,0c0.1,0,0.3,0,0.3,0.1c0.4,0.4,0.8,0.3,1.2,0.3c0.4,0,0.5,0.4,0.8,0.4
		c0.3,0,0.4,0.2,0.6,0.4c0.2,0.2,0.5,0.4,0.5,0.7c0,0.3,0.3,0.5,0.6,0.7c0.3,0,0.7,0,1.1,0c0.2,0,0.4,0.1,0.5,0.2
		c0.3,0.2,0.6,0.3,0.8,0.4c0.3,0.2,0.6,0.1,0.9,0.2c0.3,0.1,0.5,0.4,0.8,0.3c0.1,0,0.2,0,0.4,0.1c0.1,0,0.1,0.1,0.2,0.1
		c0.1,0.1,0.3,0.3,0.4,0.4c0.2,0.2,0.4,0.3,0.6,0.5c0.6,0,0.8,0.8,1.4,0.8c0.2,0.2,0.4,0.3,0.6,0.5c0.3,0.3,0.7,0.3,1,0.5
		c0.2,0.2,0.5,0.1,0.7,0.1c0.5,0,1,0,1.6,0c0.2,0.1,0.4,0.3,0.5,0.5c0.3,0.3,0.8,0.3,1.1,0.6c0.2,0,0.4,0,0.6,0
		c0.7-0.6,1.6-0.3,2.3-0.4c0.3,0.2,0.5,0.4,0.9,0.4c0.2,0,0.4,0,0.6,0c0.3,0,0.6,0.1,0.9,0.3c0.1,0.1,0.4,0.1,0.5,0.2
		c0.3,0.2,0.5,0.3,0.9,0.3c0.2,0,0.4,0,0.6,0c0.3,0,0.5-0.1,0.7-0.3c0.4-0.2,0.9-0.2,1.2,0c0.3,0.2,0.7,0.3,1.1,0.3
		c0.9,0,1.8,0,2.6,0c0.3,0.2,0.5,0.4,0.9,0.4c0.3,0,0.6,0,0.9,0c0.1,0,0.2,0.1,0.3,0.2c0.4,0.3,0.8,0.3,1.2,0
		c0.2-0.1,0.3-0.2,0.5-0.2c1.1,0,2.3,0,3.4,0c0.4,0,0.6,0.2,0.9,0.4c0.9,0,1.9,0,2.8,0c0.4,0,0.7,0.3,1,0.4c0.8,0,1.6,0,2.4,0
		c0.3,0.2,0.5,0.4,0.8,0.4c0.2,0,0.4,0.1,0.5,0.1c0.5,0.3,1.1,0.4,1.4,0.1c0.3-0.2,0.7-0.3,1.1-0.3c0.4,0,0.6-0.2,0.8-0.4
		c0.6,0,1.1,0,1.7,0c0.1,0,0.1,0,0.2,0c0.1,0,0.3,0,0.4-0.1c0.3-0.4,0.8-0.2,1.2-0.4c0.2-0.1,0.4-0.3,0.7-0.3c0.4,0,0.7,0,1.2,0
		c0.2,0.2,0.5,0.5,0.8,0.8c0.3,0.3,0.6,0.3,1,0.3c0.1,0,0.3,0,0.4,0c0.1,0,0.3-0.3,0.2-0.5c-0.2-0.3-0.4-0.6-0.4-1
		c0-0.1-0.1-0.2-0.1-0.3c-0.1-0.3-0.3-0.6-0.4-0.8c-0.2-0.3-0.4-0.4-0.8-0.4c-0.2,0-0.4,0-0.6,0c-0.2,0-0.3-0.2-0.3-0.4
		c0-0.3-0.1-0.7,0.1-0.9c0.2-0.3,0.3-0.7,0.3-1c0-0.1,0.1-0.2,0.2-0.2c0.1,0,0.3,0,0.3,0.1c0.4,0.4,0.8,0.8,1.2,1.2
		c0.1,0.6,0.5,0.8,0.9,1.2c0,0,0.1,0.1,0.1,0.1c0.1,0,0.3,0.1,0.4,0c0.3-0.2,0.6-0.4,0.6-0.9c0-0.8,0-1.5,0-2.2
		c0.6-0.5,1.1-1.1,1.7-1.6c0.2,0.1,0.2,0.1,0.6,0.5c0,0.4,0,0.9,0,1.3c0.2,0.3,0.5,0.6,0.8,0.9c0,0.5,0,1.1,0,1.6
		c0,0.2-0.2,0.3-0.2,0.5c0,0,0,0.1,0,0.1c0.1,0.1,0.2,0.2,0.3,0.1c0.5-0.3,1-0.4,1.4-0.9c0.1-0.1,0.2-0.1,0.3-0.2
		c0.2,0.2,0.4,0.4,0.6,0.5c0.3,0.2,0.8,0.2,1,0c0.1-0.1,0.3-0.3,0.4-0.4c0.2-0.1,0.2-0.2,0.4,0c0.2,0.2,0.5,0.1,0.7,0.1l0,0
		c0,0.1,0,0.1,0,0.2c-0.2,0.2-0.4,0.5-0.3,0.8c0,0.2,0,0.4,0,0.6c0,0.1-0.1,0.3-0.2,0.3c-0.6,0.1-0.9,0.6-1.3,1.1c0,0,0,0.1,0,0.2
		c0.1,0.1,0.1,0.3,0.2,0.3c0.7,0,1.4,0,2.1,0c0.3-0.1,0.5-0.4,0.8-0.7c0.2-0.2,0.2-0.2,0.2-0.7c0.1-0.5,0.4-0.8,0.8-0.9
		c0.1,0,0.1,0,0.2,0c0.3,0,0.5-0.2,0.7-0.3c0.4,0.2,0.7,0.5,0.9,0.9c0.1,0.4,0.1,0.7,0,1.1c-0.4,0.3-0.4,0.9-0.8,1.2
		c-0.4,0.4-0.8,0.8-1.2,1.2c-0.3,0.3-0.2,0.6-0.2,0.9c0,0.1,0.1,0.2,0.2,0.3c0.1,0,0.3,0,0.3,0c0.3-0.2,0.6-0.5,0.8-0.8
		c0.8-0.8,0.8-0.9,1.6-0.1c0.2,0.2,0.4,0.3,0.5,0.5c0.1,0.2,0.2,0.5,0.3,0.6c0.3,0.4,0.7,0.7,1,1.1c0,2.7,0,5.4,0,8.1
		c0,0.1-0.2,0.3-0.4,0.3c-0.1,0-0.3,0-0.4,0c-0.2,0-0.3,0.2-0.3,0.4c0,0.3,0,0.5,0,0.8c0,0.2,0.1,0.3,0.3,0.4c0.3,0,0.6,0,0.9,0.1
		c0.1,0,0.3,0.4,0.2,0.5c0,0.1-0.1,0.1-0.1,0.2c-0.1,0.1-0.1,0.2-0.2,0.3c0,0.7,0,1.3,0,2c0,0.4,0.2,0.7,0.4,1c0,0.7,0,1.4,0,2.1
		c-0.1,0.2-0.2,0.3-0.3,0.5c0.1,0.2,0.3,0.4,0.3,0.6c0,0.3,0,0.5,0,0.8c0,0.6-0.3,1-1,1c-0.3,0-0.4,0.1-0.5,0.4
		c0,0.2-0.2,0.3-0.4,0.3c-0.2,0-0.5,0-0.7,0.2c-0.1,0.1-0.3,0.2-0.5,0.2c-0.6,0-1.3,0-1.9,0c-0.3,0.2-0.5,0.4-0.6,0.7
		c0,0.1,0,0.2,0.1,0.3c0,0,0.1,0,0.1,0c0.2-0.1,0.4-0.3,0.7-0.3c0.4,0,0.8,0,1.2,0c0.6,0.6,1.3,1.2,1.9,1.9c0.1,0.1,0.2,0.2,0.2,0.3
		c0.2,0.7,0.8,1.1,1.4,1.3c0.3,0.3,0.7,0.3,1,0.5c0.1,0.1,0.2,0.1,0.3,0.1c0.5-0.1,0.7,0.4,1.2,0.4c0.4,0,0.9,0,1.3,0
		c0.3,0,0.4,0.2,0.7,0.4c1.1,0,2.2,0,3.4,0c0.5,0,1,0.1,1.4-0.3c0.1-0.1,0.2-0.1,0.4-0.1c0.4,0,0.9,0,1.3,0c0.1,0,0.2-0.1,0.3-0.1
		c0.2-0.1,0.3-0.2,0.5-0.3c0.2,0,0.3-0.2,0.5-0.3c0.2-0.1,0.4-0.1,0.5-0.2c0.2-0.2,0.5-0.4,0.5-0.8c0-0.5,0-1,0-1.5
		c0.2-0.4,0.7-0.3,0.9-0.6c0.2,0,0.4-0.1,0.5-0.1c2.1,0,4.3,0,6.4,0c0.4,0,0.7-0.1,1-0.4c0.3,0,0.5-0.2,0.7-0.3
		c0.2-0.1,0.4-0.1,0.5-0.2c0.3-0.2,0.6-0.2,0.9-0.3c0.2,0,0.4-0.2,0.7-0.4c1,0,2,0,3,0c0.5,0,1,0.1,1.4-0.3c0.1-0.1,0.2-0.1,0.4-0.1
		c0.4,0,0.8,0,1.1,0c0.4-0.3,0.6-0.5,0.7-0.9c0-0.1,0.2-0.2,0.3-0.2c0.3,0,0.6,0,1,0c0.3,0.2,0.5,0.5,0.8,0.8c0.2,0.2,0.2,0.2,0.7,0
		c0.1,0,0.3-0.1,0.4,0c0.3,0.2,0.5,0.4,0.6,0.7c0,0.2,0.2,0.4,0.3,0.4c0.5-0.1,0.8,0.3,1.2,0.4c0.1,0,0.2,0.1,0.3,0.2
		c0.3,0.2,0.6,0.2,0.9,0.2c0.2,0.1,0.4,0.3,0.6,0.3c0.3,0,0.6,0,0.9,0.3c0.2,0.2,0.4,0.1,0.5,0.1c0.5-0.1,0.9,0.1,1.2,0.5
		c0.1,0.1,0.3,0.3,0.4,0.4c-0.1,0.3-0.4,0.5-0.5,0.7c0,0-0.1,0.1-0.1,0.1c0,0.1,0.1,0.1,0.1,0.1c0.4,0,0.8,0,1.1,0
		c0.4,0,0.7,0,1.1,0.3c0.1,0.1,0.2-0.1,0.2-0.2c0.2-0.5,0.3-0.5,0.6-0.3c0.2,0.1,0.4,0.3,0.7,0.3c0.1,0,0.3,0,0.4,0
		c0.3,0.2,0.5,0.4,0.8,0.3c0.4-0.1,0.5,0.3,0.8,0.4c0.2,0.1,0.5-0.1,0.7,0.1c0.2,0.2,0.4,0.3,0.7,0.3c0.2,0,0.4,0,0.6,0
		c0.1,0,0.2,0.1,0.3,0.2c0.1,0.1,0.2,0.2,0.3,0.2c0.4,0.1,0.8-0.1,1.1,0.1c0.3,0.2,0.5,0.3,0.9,0.3c0.3,0,0.4,0.2,0.6,0.4
		c0.5-0.1,0.8,0.2,1.2,0.4c0.4,0.1,0.6,0.5,1,0.5c0.1,0.1,0.3,0.3,0.4,0.4c0.2,0.2,0.2,0.5,0,0.7c-0.1,0.1-0.3,0.3-0.5,0.4
		c-1,0-2,0-3,0c-0.4,0-0.6,0.2-0.9,0.4c-5.1,0-10.2,0-15.3,0c-0.3,0.2-0.6,0.4-1,0.4c-4,0-7.9,0-11.9,0c-0.3,0-0.5,0-0.8,0
		c-0.4,0-0.6,0.2-0.9,0.4c-4.4,0-8.8,0-13.2,0c-0.3,0-0.6,0-0.9,0c-0.1,0-0.2,0.1-0.3,0.2c-0.2,0.1-0.3,0.2-0.5,0.2
		c-0.5,0-1,0-1.5,0c-5.4,0-10.8,0-16.2,0c-0.3,0.2-0.5,0.4-0.9,0.4c-4.2,0-8.3,0-12.5,0c-0.1,0-0.2,0-0.4-0.1
		c-0.5-0.5-1-0.9-1.4-1.4C322,162.5,321.8,162.5,321.6,162.5c0-0.2-0.1-0.4-0.4-0.4c0-0.1,0-0.2-0.1-0.3c0,0-0.1,0-0.1,0
		c-0.1,0.1,0,0.2,0.3,0.3C321.2,162.3,321.3,162.4,321.6,162.5z M258.1,155.9c0.2-0.2,0.3-0.3,0.4-0.5c0,0,0.1-0.1,0.2-0.1
		c0.1,0.1,0.2,0.2,0.2,0.2c0,0.1,0,0.3,0,0.4c-0.1,0.5,0.3,0.8,0.4,1.2c0,0.2,0.2,0.3,0.4,0.3c1.5,0,3,0,4.5,0c0.1,0,0.1,0,0.2,0
		c0.1,0,0.1-0.1,0.1-0.1c0-0.2,0.1-0.5,0.1-0.7c0-0.1,0.2-0.2,0.3-0.2c0.1,0,0.3,0,0.3,0.1c0.1,0.2,0.1,0.4,0.1,0.5
		c0,0.2,0.2,0.4,0.3,0.4c0.3,0,0.5,0,0.8,0c0.9,0,1.8,0,2.6,0c0.3,0,0.4-0.2,0.5-0.4c0.1-0.3,0.3-0.5,0.6-0.7c0.1,0,0.2,0,0.3,0.1
		c0.1,0.1,0.1,0.2,0,0.3c-0.1,0.1-0.1,0.2-0.1,0.3c0.2,0.2,0.4,0.5,0.8,0.5c1.1,0,2.3,0,3.4,0c0.1,0,0.3-0.3,0.2-0.5
		c-0.1-0.1-0.1-0.2-0.2-0.3c-0.1-0.1-0.1-0.2,0-0.3c0.1,0,0.3-0.1,0.4,0c0.3,0.2,0.5,0.4,0.6,0.7c0,0.2,0.2,0.4,0.3,0.4
		c1.1,0,2.3,0,3.4,0c0.2,0,0.4-0.1,0.4-0.3c0-0.1,0-0.1,0-0.2c0.1-0.6,0.1-0.6,0.7-0.6c0.4,0,0.4,0.1,0.2,0.4c0,0.1-0.1,0.1-0.1,0.2
		c-0.1,0.3,0.1,0.6,0.3,0.6c1.2,0,2.4,0,3.6,0c0,0,0.1-0.1,0.1-0.1c0.1-0.2,0.2-0.6,0-0.9c-0.2-0.3-0.3-0.5-0.2-0.9
		c0-0.3,0-0.6-0.3-0.9c-0.1-0.1-0.1-0.2-0.1-0.3c0-0.2,0-0.4-0.1-0.5c-0.2-0.2-0.3-0.5-0.3-0.9c0-0.2,0-0.4,0-0.6
		c-0.4-0.4-0.3-1.1-1-1.4c-0.9,0-1.9,0-3,0c-0.4,0-0.5,0.2-0.6,0.6c0,0.1-0.4,0.2-0.5,0.2c-0.3-0.2-0.6-0.5-0.8-0.7
		c-1,0-2.1,0-3.1,0c-0.3,0-0.4,0.2-0.5,0.4c-0.1,0.4-0.4,0.4-0.7,0.1c-0.2-0.2-0.4-0.5-0.8-0.6c-0.6,0-1.2,0-1.9,0
		c-0.4,0-0.8,0-1.1,0c-0.2,0-0.4,0.1-0.4,0.3c0,0.2-0.1,0.3-0.3,0.4c-0.2,0.1-0.4-0.1-0.5-0.2c-0.2-0.2-0.4-0.3-0.6-0.5
		c-1,0-2,0-3,0c-0.4,0-0.5,0.2-0.6,0.6c0,0.1-0.4,0.2-0.5,0.2c-0.3-0.2-0.6-0.5-0.8-0.7c-1,0-1.9,0-2.9,0c-0.1,0-0.1,0.1-0.2,0.1
		c-0.2,0.2-0.4,0.3-0.6,0.5c-0.2,0.2-0.4,0.2-0.7,0c-0.4-0.3-1-0.1-1.4-0.5c-0.1-0.1-0.2-0.1-0.4-0.1c-0.6,0-1.3,0-1.9,0
		c-0.3,0.2-0.5,0.4-0.7,0.6c-0.1,0.1-0.4,0.1-0.5,0c-0.2-0.2-0.5-0.4-0.7-0.6c-1,0-2,0-3,0c-0.2,0.2-0.5,0.4-0.7,0.6
		c-0.1,0.1-0.4,0.1-0.5,0c-0.2-0.2-0.5-0.4-0.7-0.6c-0.9,0-1.8,0-2.6,0c-0.3,0-0.5,0.1-0.7,0.3c-0.1,0.1-0.3,0.3-0.4,0.4
		c-0.1,0.1-0.4,0.1-0.5,0c-0.2-0.2-0.5-0.4-0.7-0.6c-0.9,0-1.8,0-2.7,0c-0.3,0-0.5,0.1-0.6,0.3c-0.1,0.1-0.2,0.2-0.3,0.3
		c-0.2,0.2-0.5,0.2-0.7,0c-0.2-0.2-0.5-0.4-0.7-0.6c-0.5,0-1,0-1.6,0c-0.5,0-1-0.1-1.5,0.1c-0.3,0.2-0.5,0.4-0.7,0.6
		c-0.1,0.1-0.3,0.1-0.4,0c-0.3-0.2-0.6-0.5-0.8-0.7c-1,0-1.9,0-2.9,0c-0.2,0.2-0.4,0.4-0.7,0.6c-0.2,0.2-0.4,0.2-0.7,0
		c0,0-0.1-0.1-0.1-0.1c-0.3-0.3-0.5-0.5-1-0.5c-0.8,0-1.6,0-2.5,0c-0.4,0.4-0.8,0.8-1.2,1.2c-0.1,0.1-0.1,0.3-0.2,0.5
		c0,0.1-0.4,0.2-0.5,0.2c-0.1,0-0.3-0.4-0.2-0.5c0.2-0.2,0.3-0.4,0.5-0.6c0.2-0.2,0.2-0.3-0.1-0.6c-0.1-0.1-0.2-0.1-0.3-0.2
		c-0.9,0-1.9,0-2.9,0c-0.2,0.2-0.5,0.5-0.8,0.7c-0.2,0.2-0.2,0.4-0.3,0.6c-0.1,0.1-0.2,0.2-0.3,0.3c-0.1,0.1-0.2,0.1-0.3,0.1
		c0,0-0.1-0.1-0.1-0.2c-0.1-0.4,0-0.7,0.3-1c-0.2-0.2-0.3-0.4-0.5-0.5c-1.1,0-2.1,0-3.1,0c-0.3,0.3-0.6,0.7-0.9,1
		c0,0.3-0.2,0.5-0.3,0.7c0,0-0.1,0.1-0.1,0.2c0,0.3,0,0.6-0.2,0.9c-0.2,0.2-0.2,0.6-0.4,0.8c-0.2,0.2-0.3,0.5-0.4,0.8
		c-0.2,0.3-0.2,0.6-0.4,0.8c0,0.3-0.3,0.5-0.4,0.8c-0.1,0.1,0.1,0.4,0.2,0.5c0.1,0,0.1,0,0.2,0c1.1,0,2.1,0,3.2,0
		c0.3,0,0.4-0.2,0.6-0.3c0.2-0.2,0.2-0.4,0.3-0.6c0.1-0.1,0.2-0.1,0.3-0.1c0.1,0,0.2,0.1,0.3,0.2c0,0.1,0,0.2,0,0.4
		c0.1,0.5,0.1,0.5,0.6,0.5c1,0,2,0,3,0c0.4-0.4,0.8-0.7,1.2-1c0,0,0.1,0,0.1,0.1c0.1,0.2,0.1,0.4,0.1,0.5c0,0.2,0.2,0.4,0.3,0.4
		c0.3,0,0.5,0,0.8,0c0.9,0,1.8,0,2.6,0c0.3,0,0.4-0.2,0.5-0.4c0-0.2,0.2-0.3,0.3-0.4c0.1-0.1,0.2-0.1,0.3-0.1c0.1,0,0.1,0.2,0.1,0.3
		c0,0.1,0,0.1,0,0.2c0,0.4,0.1,0.5,0.4,0.5c0.1,0,0.3,0,0.4,0c1.3,0,2.6,0,4,0c0.4,0,0.6-0.2,0.8-0.5c0.1-0.2,0.1-0.3,0.1-0.5
		c0-0.4,0.2-0.6,0.5-0.8c0,0,0.1-0.1,0.2-0.1c0,0,0.1,0.1,0.1,0.1c0,0.5,0.1,1,0.1,1.5c0,0,0.1,0.1,0.1,0.1c0.4,0,0.7,0.1,1.1,0.1
		c7.2,0,14.4,0,21.5,0c0.3,0,0.6,0,0.9,0c0.2,0,0.4-0.2,0.4-0.3C258.1,156.8,258.1,156.3,258.1,155.9z M248.5,122.4
		c-0.2-0.1-0.3-0.3-0.6-0.3c-0.3,0-0.6,0-0.9,0c-0.4,0-0.5,0.3-0.8,0.4c-0.2,0-0.5,0.1-0.7-0.1c-0.1-0.1-0.3-0.3-0.5-0.3
		c-2.4,0-4.9,0-7.4,0c-0.1,0.2-0.3,0.3-0.5,0.5c0.3,0.4,0.6,0.6,1.1,0.6c0.8,0,1.6,0,2.4,0c0.2,0.1,0.3,0.2,0.5,0.4
		c3.2,0,6.5,0,9.7,0c0.4,0,0.6-0.2,0.8-0.4c0.5,0,1,0,1.5,0c0.2,0,0.4,0.1,0.5,0.2c0.1,0.1,0.3,0.2,0.5,0.2c0.2,0,0.5,0,0.8,0
		c0.2-0.2,0.4-0.3,0.5-0.5c0.1-0.1,0.1-0.2,0-0.3c0-0.1-0.1-0.2-0.2-0.2c-0.4,0-0.8,0-1.1,0c-0.3,0-0.4,0.2-0.7,0.3
		c-0.1-0.1-0.3-0.2-0.5-0.3c-0.6,0-1.2,0-1.8,0c-0.2,0-0.4-0.1-0.5-0.2c-0.1-0.1-0.3-0.2-0.5-0.2c-0.3,0-0.6,0-0.9,0
		C248.8,122,248.7,122.3,248.5,122.4z M326.1,154c0,0.5,0,1.1,0,1.7c0,0.2,0.2,0.3,0.4,0.3c2.1,0,4.1,0,6.2,0c0.2,0,0.2-0.1,0.1-0.3
		c-0.2-0.2-0.3-0.4-0.2-0.7c0.1-0.6-0.2-1-0.6-1.3c-0.1-0.1-0.3-0.3-0.4-0.3c-1.5,0-3,0-4.5,0c-0.4,0-0.6,0.2-0.8,0.4
		C326.2,153.9,326.2,153.9,326.1,154z M143.5,143.5c0.1-0.1,0.2-0.2,0.3-0.3c0.1-0.1,0.1-0.2,0.2-0.3c-0.1,0-0.2-0.1-0.3-0.1
		c-1.2,0-2.4,0-3.5,0c-0.1,0-0.2,0.2-0.2,0.3c0,0.1,0,0.3,0.1,0.3c0.5,0.2,1,0.1,1.5,0.1c0.1,0,0.2-0.1,0.3-0.2
		c0.3-0.2,0.4-0.2,0.7,0c0.1,0,0.1,0.1,0.2,0.1c0,0,0.1,0.1,0.1,0C143,143.2,143.2,143.3,143.5,143.5z M175,127c0-0.1,0-0.3-0.1-0.3
		c-0.1,0-0.3-0.1-0.3-0.1c-0.3,0.3-0.6,0.6-0.9,0.9c-0.1,0.1-0.1,0.2-0.1,0.3c-0.1,0.3,0.1,0.6,0.4,0.8c0.2,0.2,0.3,0.2,0.4,0
		c0.2-0.2,0.4-0.3,0.3-0.6c0-0.3,0-0.5,0.2-0.7C174.9,127.2,174.9,127.1,175,127z M168,151.1c0.5,0,0.9,0,1.4,0
		c0.2,0,0.3-0.2,0.3-0.4c0-0.1-0.1-0.3-0.2-0.3c-0.2,0-0.5-0.1-0.7,0c-0.4,0-0.5-0.3-0.8-0.4c-0.1,0-0.2,0-0.3,0.1
		c-0.1,0.1-0.2,0.4,0,0.5C167.7,150.8,167.9,151,168,151.1z M148.7,152.3c0.1,0,0.3,0,0.4,0c0.1,0,0.1-0.2,0.2-0.3
		c0.1-0.1,0-0.3-0.1-0.3c-0.3-0.1-0.5-0.3-0.8-0.4c-0.2-0.1-0.5,0-0.7,0c-0.1,0-0.3,0.4-0.2,0.5c0.2,0.3,0.4,0.6,0.9,0.6
		C148.4,152.2,148.6,152.3,148.7,152.3z M342.9,154.9c-0.5,0-1,0-1.5,0.1c-0.1,0-0.2,0.2-0.2,0.3c0,0.1,0,0.3,0.1,0.3
		c0.6,0.2,1.2,0.1,1.8,0.1c0,0,0.1-0.1,0.1-0.1c0,0,0.1-0.1,0-0.1C343.2,155.2,343.1,155.1,342.9,154.9z M270.7,130.4
		c-0.3,0.1-0.7-0.1-1.1,0.1c0,0-0.1,0.1-0.1,0.1c0.2,0.2,0.4,0.3,0.5,0.5c0.5,0,1,0.1,1.4-0.3c0.1-0.1,0.2-0.1,0.3-0.1
		c0.2-0.1,0.2-0.2,0.1-0.2c0,0-0.1-0.1-0.1-0.1C271.5,130.3,271.2,130.4,270.7,130.4z M165,150C165,150,165,150,165,150
		c0.5,0,1,0,1.5-0.1c0,0,0.1-0.1,0.1-0.1c-0.1-0.1-0.1-0.2-0.2-0.2c-0.9,0-1.9,0-2.8,0c-0.1,0-0.2,0.1-0.2,0.2c0,0,0.1,0.1,0.1,0.1
		C164,150,164.5,150,165,150z M165.5,151.7c0,0-0.1-0.1-0.1-0.1c-0.4,0-0.7,0-1.1,0c-0.1,0-0.2,0.2-0.2,0.3
		c-0.1,0.2,0.1,0.4,0.2,0.4c0.4,0,0.7,0.1,1-0.3C165.4,151.9,165.4,151.8,165.5,151.7z M228.2,130.7c0.2,0,0.4,0,0.6,0
		c0.1,0,0.1-0.1,0.2-0.2c0,0-0.1-0.1-0.1-0.1c-0.5,0-1,0-1.4,0c0,0-0.1,0.1-0.1,0.1c0,0,0.1,0.1,0.1,0.1
		C227.6,130.8,227.9,130.7,228.2,130.7z M179.2,151.5c0.2,0,0.5,0,0.7,0c0.1,0,0.1-0.1,0.2-0.2c0,0-0.1-0.1-0.1-0.1
		c-0.5,0-1,0-1.4,0c0,0-0.1,0.1-0.1,0.1c0.1,0.1,0.1,0.2,0.2,0.2C178.9,151.5,179.1,151.5,179.2,151.5z M335.8,126.1
		c0,0,0.1-0.1,0.1-0.1c0-0.4-0.1-0.5-0.5-0.5c0,0-0.1,0.1-0.1,0.1C335.3,125.8,335.6,126.1,335.8,126.1z M339,155.6
		c0.2,0,0.4,0,0.5,0c0.1,0,0.2-0.2,0.1-0.2c0,0-0.1-0.1-0.1-0.1c-0.1,0-0.1,0-0.2,0c-0.1,0-0.1,0-0.2,0c-0.2,0-0.3,0.1-0.5,0.2
		C338.8,155.5,338.9,155.6,339,155.6z M314.7,139.6c-0.1-0.1-0.2-0.2-0.3-0.1c-0.1,0-0.2,0.1-0.3,0.2c0,0,0.1,0.1,0.1,0.1
		c0.2,0.1,0.4,0.1,0.5,0C314.7,139.6,314.7,139.6,314.7,139.6z M171.1,121.8c0,0-0.1-0.1-0.1-0.1c0,0-0.1,0.1-0.1,0.1
		c0,0,0.1,0.1,0.1,0.1C171.1,122,171.1,121.9,171.1,121.8z M181,127.9c0,0-0.1-0.1-0.1-0.1c0,0-0.1,0.1-0.1,0.1
		c0,0.1,0.1,0.2,0.2,0.1C180.9,128,180.9,127.9,181,127.9z M170.8,130.9c0,0-0.1-0.1-0.1-0.1c0,0-0.1,0.1-0.1,0.1
		c0,0.1,0.1,0.2,0.2,0.1C170.7,131,170.7,130.9,170.8,130.9z M340.8,132.8c0,0-0.1-0.1-0.1-0.1c0,0-0.1,0.1-0.1,0.1
		c0,0.1,0.1,0.2,0.2,0.1C340.8,132.9,340.8,132.8,340.8,132.8z"/>
	<path d="M184.8,228.2c0-0.2,0.1-0.5-0.1-0.7c-0.3-0.3-0.2-0.7-0.5-1c-0.1-0.1-0.1-0.2-0.1-0.3c0.1-0.3-0.2-0.6-0.3-0.8
		c0.3-0.4,0.7-0.7,1.1-1.1c0-0.3,0-0.6,0-0.9c-0.1-0.5,0.2-0.8,0.6-1.1c0.1,0.1,0.2,0.2,0.2,0.3c-0.1,0.4,0.1,0.7,0.4,1
		c0,1.2,0,2.4,0,3.6c0,0.4-0.1,0.9,0.3,1.2c0.1,0.1,0.1,0.4,0.1,0.5c0,0.9,0,1.9,0,2.8c0.2,0.3,0.4,0.5,0.4,0.8c0,0.5,0,1,0,1.5
		c0,0.4,0.2,0.6,0.4,0.8c0,0.6,0,1.1,0,1.7c0.2,0.3,0.4,0.6,0.4,1c-0.1,0.4,0,0.9,0,1.3c0.2,0.3,0.4,0.5,0.4,0.9c0,0.2,0,0.5,0,0.8
		c0,0.1,0,0.3,0.1,0.4c0.4,0.4,0.3,0.8,0.3,1.2c0,0.1,0,0.2,0.1,0.3c0.2,0.2,0.3,0.5,0.3,0.9c0,0.3,0,0.6,0.3,0.9
		c0.2,0.2,0.1,0.4,0.1,0.5c0,0.2-0.1,0.5,0.1,0.7c0.3,0.3,0.3,0.7,0.3,1c0,0.1,0.1,0.2,0.2,0.3c0.1,0.1,0.1,0.2-0.1,0.3
		c-0.2,0-0.5,0-0.7,0c-11.1,0-22.3,0-33.4,0c-0.3,0-0.6,0-0.9-0.1c0,0-0.1-0.1-0.1-0.1c0-0.1-0.1-0.2-0.1-0.4c0-0.4,0-0.9,0-1.3
		c0-18.1,0-36.2,0-54.4c0-0.5,0-1,0-1.5c0-0.2,0.2-0.4,0.3-0.4c1.6,0,3.1,0,4.7,0c0.2,0.1,0.3,0.2,0.5,0.4c2,0,4.1,0,6.2,0
		c1.3,0,2.5,0,3.8,0c0.4,0,0.7,0.2,1,0.4c7.4,0,14.7,0,22.1,0c0.4,0.3,0.8,0.4,1.2,0.4c0.1,0,0.1,0.1,0.1,0.1c0,0,0,0.1-0.1,0.1
		c-0.2,0.2-0.3,0.4-0.6,0.5c-0.1,0-0.2,0.1-0.3,0.1c-0.5,0.3-0.7,0.9-1.3,1c-0.4,0.3-0.7,0.7-1.1,1c-0.2,0.1-0.5,0.2-0.7,0.3
		c-0.3,0.2-0.4,0.5-0.7,0.6c-0.3,0-0.4,0.3-0.6,0.4c-0.3,0-0.5,0.4-0.8,0.4c-0.4,0-0.6,0.5-1,0.4c-0.2,0.2-0.5,0.4-0.8,0.4
		c-0.3,0.3-0.7,0.3-1,0.5c-0.2,0.2-0.6,0.2-0.8,0.4c0,0-0.1,0.1-0.2,0.1c-0.3,0-0.6,0-0.9,0.2c-0.2,0.2-0.6,0.2-0.8,0.4
		c-0.1,0.1-0.2,0.1-0.3,0.1c-0.6,0-1.3,0-1.9,0c-0.1,0-0.2-0.1-0.3-0.2c-0.2-0.2-0.4-0.2-0.7-0.2c-0.2,0-0.4,0-0.6,0
		c-0.7-0.6-1.6-0.3-2.3-0.4c-0.3,0-0.6-0.2-0.8-0.4c-3.5,0-6.9,0-10.4,0c-0.1,0.1-0.3,0.2-0.5,0.3c-0.2,0.1-0.5,0.1-0.7,0.1
		c-0.4-0.5-0.9-0.3-1.4-0.4c-0.2,0-0.3-0.1-0.3-0.4c0-0.1,0-0.3,0-0.4c0.1,0,0.2,0,0.3-0.1c0-0.1,0-0.2-0.1-0.1
		c-0.1,0-0.2,0.2-0.1,0.3c-0.5,0.1-0.7,0.4-0.8,0.9c0,0.5,0,1,0,1.5c0.4,0.4,0.8,0.7,1.1,1.1c0.4,0.5,0.9,0.6,1.4,0.9
		c0.2,0.1,0.5,0.2,0.7,0.3c0.2,0.1,0.4,0.2,0.7,0.3c0.2,0.1,0.3,0.2,0.5,0.2c0.5,0,1,0,1.5,0c0.3,0.2,0.5,0.4,0.9,0.4
		c0.6,0,1.3,0,1.9,0c0.4,0,0.6,0.2,0.8,0.4c0.7,0,1.5,0,2.3,0c0.2,0,0.4-0.1,0.5-0.2c0.2-0.1,0.3-0.2,0.5-0.2c1,0,2,0,3,0
		c0.3-0.2,0.5-0.4,0.9-0.4c0.6,0,1.1,0.1,1.6-0.4c0.3,0,0.6,0,0.9-0.2c0.2-0.3,0.6-0.1,0.9-0.2c0.4-0.5,1.1-0.2,1.5-0.6
		c0.2-0.2,0.5-0.1,0.7-0.1c0.2,0,0.4,0.1,0.5-0.1c0.2-0.3,0.6-0.2,0.8-0.4c0.3-0.3,0.7-0.2,1-0.5c0.3,0,0.6-0.2,0.8-0.4
		c0.3,0,0.5-0.3,0.8-0.4c0.4-0.1,0.5-0.3,0.8-0.5c0.2-0.2,0.4-0.3,0.7-0.3c0.2,0,0.4,0,0.5-0.2c0.2-0.2,0.3-0.4,0.6-0.5
		c0.3-0.1,0.6-0.2,0.8-0.5c0.2-0.2,0.4-0.3,0.5-0.5c0.2-0.2,0.4-0.2,0.7-0.3c0.2-0.1,0.3-0.3,0.5-0.3c0.4-0.1,0.6-0.5,1-0.4
		c0.2-0.2,0.5-0.4,0.7-0.6c0.3-0.3,0.5-0.7,1-0.8c0.5-0.1,0.7-0.5,1-0.8c0.3-0.3,0.6-0.6,0.9-0.9c0.2-0.2,0.6-0.2,0.8-0.4
		c0.2-0.3,0.5-0.5,0.8-0.8c0.2-0.2,0.4-0.5,0.7-0.7c0.3-0.2,0.7-0.3,0.9-0.6c0.3-0.3,0.6-0.6,0.9-0.9c0.3-0.3,0.6-0.5,0.8-0.8
		c0.3-0.3,0.6-0.4,0.9-0.6c0.3-0.2,0.6-0.5,0.8-0.8c0.5-0.4,0.9-0.9,1.4-1.3c0.7-0.2,1.1-0.8,1.6-1.3c0.5-0.4,0.9-0.9,1.4-1.3
		c0.3-0.2,0.7-0.3,0.9-0.6c0.2-0.2,0.5-0.4,0.7-0.7c0.6-0.1,0.9-0.6,1.3-1c0.2-0.2,0.4-0.3,0.6-0.5c0.6,0,0.8-0.8,1.4-0.8
		c0.2,0,0.3-0.2,0.4-0.3c0.3-0.2,0.6-0.5,0.8-0.8c0.4,0,0.6-0.3,0.9-0.6c0.1-0.1,0.3-0.2,0.5-0.2c0.4-0.4,1.1-0.4,1.4-0.9
		c0.1-0.1,0.2-0.2,0.3-0.2c0.6,0.2,0.9-0.4,1.4-0.4c0.2-0.2,0.5-0.3,0.8-0.4c0.2-0.1,0.4-0.3,0.7-0.3c0.3-0.2,0.6-0.4,1-0.4
		c0.2-0.1,0.4-0.3,0.6-0.4c0.3-0.1,0.6,0,0.9-0.2c0.2-0.2,0.6-0.2,0.8-0.4c0,0,0.1-0.1,0.2-0.1c0.6,0.1,1-0.4,1.5-0.5
		c0.2-0.2,0.5-0.3,0.9-0.3c0.3,0,0.6,0,0.9-0.3c0.2-0.2,0.4-0.1,0.5-0.1c0.2,0,0.5,0.1,0.7-0.1c0.3-0.2,0.5-0.3,0.9-0.3
		c0.2,0,0.4,0,0.6,0c0.4,0,0.6-0.2,0.9-0.4c0.4,0,0.8,0,1.3,0c0.4,0.1,0.7-0.2,1-0.4c0.6,0,1.1,0,1.7,0c0.3-0.2,0.5-0.4,0.8-0.4
		c0.6,0,1.3,0,1.9,0c0.4,0,0.6-0.2,0.8-0.4c0.9,0,1.9,0,2.8,0c0.4,0,0.9,0.1,1.2-0.3c0.1-0.1,0.4-0.1,0.5-0.1c1.1,0,2.1,0,3.2,0
		c0.3-0.2,0.5-0.4,0.9-0.4c5.5,0,11.1,0,16.6,0c0.4,0,0.6,0.2,0.8,0.4c1.2,0,2.4,0,3.6,0c0.3,0.2,0.6,0.4,1,0.4c0.9,0,1.9,0,2.8,0
		c0.2,0.1,0.4,0.2,0.5,0.4c0.7,0,1.4,0,2,0c0.4,0,0.4,0,1,0.4c0.6,0,1.1,0,1.7,0c0.3,0.2,0.5,0.4,0.8,0.4c0.4,0,0.8,0,1.1,0
		c0.3,0,0.5,0.1,0.7,0.3c0.1,0.1,0.2,0.1,0.3,0.1c0.2,0,0.4-0.1,0.5,0.1c0.3,0.3,0.7,0.3,1,0.3c0.1,0,0.3,0,0.4,0
		c0.4,0.4,0.9,0.3,1.4,0.4c0.1,0,0.2,0.1,0.3,0.2c0.2,0.2,0.4,0.2,0.7,0.2c0.4,0,0.5,0.4,0.8,0.4c0.4,0,0.7,0.1,1,0.4
		c0.2,0.3,0.5,0.4,0.8,0.4c0.1,0,0.3,0,0.3,0.1c0.3,0.3,0.7,0.2,1,0.5c0.1,0.2,0.3,0.1,0.5,0.1c0.2,0,0.4,0,0.5,0.2
		c0.3,0.5,1,0.5,1.4,0.9c0.6,0.2,1.1,0.5,1.7,0.8c0.1,0,0.1,0,0.2,0c0.2,0.2,0.5,0.4,0.7,0.6c0.2,0.1,0.5,0.1,0.7,0.3
		c0.3,0.4,0.7,0.5,1.1,0.7c0.3,0.2,0.5,0.6,0.9,0.6c0.2,0,0.3,0.2,0.4,0.3c0.3,0.3,0.5,0.7,1,0.8c0.4,0.1,0.6,0.5,0.9,0.7
		c0.2,0.1,0.4,0,0.5,0.2c0.4,0.4,0.9,0.9,1.4,1.3c0.7,0.2,1.1,0.8,1.6,1.3c0.5,0.4,0.9,0.9,1.3,1.3c1.2,1.2,2.5,2.5,3.7,3.7
		c0.3,0.3,0.6,0.6,0.9,0.9c0.3,0.3,0.6,0.6,0.9,0.9c0.3,0.3,0.6,0.5,0.8,0.8c0.3,0.4,0.7,0.4,1.1,0.7c0.3,0.2,0.4,0.4,0.7,0.7
		c0.6,0.5,1,1.3,1.9,1.5c0.2,0.2,0.4,0.4,0.7,0.6c0.3,0.3,0.5,0.7,1,0.8c0.3,0.2,0.5,0.5,0.9,0.7c0.3,0.1,0.6,0.2,0.8,0.5
		c0.2,0.2,0.4,0.3,0.6,0.4c0.3,0.1,0.5,0.4,0.7,0.6c0.2,0.1,0.5,0.2,0.7,0.3c0.2,0.1,0.4,0.3,0.6,0.5c0.1,0.1,0.2,0.1,0.3,0.1
		c0.5,0.1,0.5,0.1,0.7,0.2c0.1,0.1,0.3,0.3,0.4,0.4c0.1,0.1,0.2,0.1,0.3,0.1c0.2,0,0.5,0,0.7,0.2c0.3,0.2,0.7,0.2,1,0.5
		c0.3,0,0.5,0.1,0.7,0.3c0.2,0.2,0.5,0.1,0.7,0.1c0.3,0.1,0.5,0.4,0.8,0.4c0.2,0,0.5,0,0.8,0c0.1,0,0.1,0.1,0.2,0.1
		c0.2,0.2,0.4,0.3,0.7,0.3c0.4,0,0.8,0,1.1,0c0.4,0,0.6,0.2,0.8,0.4c2.3,0,4.7,0,7,0c0.3-0.2,0.6-0.5,1-0.4c0.4,0.1,0.7-0.1,1-0.4
		c0.5,0,0.8-0.1,1.2-0.4c0,0,0.1,0,0.2,0c0.5-0.1,0.5-0.1,0.7-0.2c0.4-0.4,0.7-0.7,1-1c0.1-0.5,0.1-1,0-1.5c0-0.1-0.1-0.1-0.1-0.1
		c0,0-0.1,0-0.1,0.1c-0.1,0.6-0.6,0.9-1,1.3c-0.1,0.1-0.4,0.1-0.5,0.1c-0.4-0.1-0.7,0.1-1,0.4c-1.2,0-2.4,0-3.6,0
		c-0.4,0-0.9,0.1-1.2-0.3c-0.1-0.1-0.2-0.1-0.3-0.1c-0.8,0-1.5,0-2.3,0c-0.3-0.2-0.5-0.4-0.8-0.4c-1.9,0-3.8,0-5.7,0
		c-0.3,0-0.5-0.1-0.7-0.3c0,0-0.1-0.1-0.2-0.1c-0.6,0.2-0.9-0.4-1.4-0.4c-0.2-0.2-0.5-0.3-0.8-0.4c-0.3-0.1-0.6-0.2-0.8-0.4
		c-0.4-0.3-1-0.3-1.2-0.8c-0.3-0.1-0.5-0.3-0.8-0.4c-0.2-0.1-0.4-0.3-0.6-0.5c-0.4,0-0.7-0.3-0.9-0.6c-0.3-0.5-1-0.5-1.4-1
		c-0.3-0.4-0.7-0.7-1.1-1.1c-0.7-0.2-1.1-0.8-1.6-1.3c0,0-0.1-0.1-0.1-0.2c0.2,0,0.4-0.1,0.5-0.1c2.2,0,4.4,0,6.6,0
		c0.2,0,0.4,0,0.6,0c0.4,0,0.6-0.2,0.8-0.4c3.9,0,7.8,0,11.7,0c0.5,0,1,0.1,1.4-0.3c0.1-0.1,0.4-0.1,0.5-0.1c2.2,0,4.4,0,6.6,0
		c1.5,0,3,0,4.5,0c0.3-0.2,0.5-0.4,0.9-0.4c1.1,0,2.1,0,3.2,0c0.2,0,0.3,0.2,0.3,0.4c0,0.6,0,1.3,0,1.9c0,2.6,0,5.2,0,7.7
		c0,0.3,0.1,0.5,0.3,0.7c0.1,0.2,0.1,0.4,0,0.5c-0.2,0.2-0.3,0.4,0,0.6c0.1,0.1,0,0.2-0.1,0.3c-0.3,0.4-0.3,0.8,0,1.2
		c0.2,0.3,0.2,0.4,0,0.7c-0.2,0.3-0.2,0.6-0.2,0.9c0.5,0.4,0.4,1,0.4,1.6c0,4.3,0,8.7,0,13c0,0.3,0,0.6,0,0.9
		c-0.1,0.1-0.2,0.3-0.3,0.3c-0.1,0.1-0.1,0.2-0.1,0.3c0.1,0.3,0.4,0.5,0.4,0.8c0,0.3,0,0.6,0,0.9c0,0.5,0,1,0,1.5
		c0,0.2-0.1,0.3-0.2,0.5c-0.1,0.2-0.2,0.5-0.3,0.7c-0.1,0.2-0.3,0.4-0.5,0.5c-0.2,0.3-0.1,0.6-0.1,0.9c0,0.3,0,0.6,0,0.9
		c0.1,0.2,0.2,0.3,0.3,0.5c-0.2,0.2-0.4,0.5-0.3,0.8c0,0.1,0,0.1,0,0.2c-0.1,0.3-0.4,0.5-0.4,0.8c0,0.2,0,0.5,0,0.8
		c0,0.4,0,0.8,0,1.1c-0.1,0.1-0.1,0.1-0.1,0.2c-0.3,0.3-0.4,0.7-0.2,1c0.3,0.4,0.3,0.8,0.6,1.1c0.1,0.1,0.1,0.3-0.1,0.5
		c-0.1,0.1-0.1,0.2-0.2,0.3c0,1.7,0,3.4,0,5.1c0,0.1,0,0.1-0.1,0.2c-0.5,0.5-0.4,1,0.1,1.5c0,1,0,2,0,3c0,0.4,0,0.7,0.1,1.1
		c0.2,0.2,0.2,0.6,0.4,0.8c0.3,0.4,0.3,0.8,0.3,1.2c0,0.2-0.2,0.4-0.3,0.4c-0.3,0-0.5,0-0.8,0c-12.2,0-24.3,0-36.5,0
		c-0.3,0-0.5,0-0.8,0c-0.1,0-0.2-0.2-0.2-0.3c0-0.2-0.1-0.5,0.1-0.7c0.2-0.2,0.3-0.4,0.3-0.7c0-0.2,0-0.4,0.1-0.5
		c0.1-0.1,0.2-0.3,0.2-0.5c0-0.3,0-0.6,0-0.9c0-0.2,0.1-0.4,0.2-0.5c0.1-0.2,0.2-0.3,0.2-0.5c0-0.2,0-0.4,0-0.6
		c0-0.3,0.4-0.5,0.4-0.8c0-0.3,0-0.6,0.1-0.9c0-0.2,0.2-0.3,0.3-0.5c0-0.6,0-1.1,0-1.7c0.2-0.3,0.5-0.6,0.4-1c0-0.2,0-0.4,0-0.6
		c0-0.4,0.2-0.6,0.4-0.8c0-0.6,0-1.2,0-1.9c0-0.2,0.1-0.4,0.2-0.5c0.1-0.1,0.2-0.3,0.2-0.5c0-0.8,0-1.5,0-2.2
		c0.2-0.3,0.4-0.5,0.4-0.9c0-0.7,0-1.4,0-2.1c0-0.4,0.2-0.7,0.4-1c0-1.2,0-2.4,0-3.6c0.2-0.3,0.4-0.6,0.4-1c0-1.1,0-2.1,0-3.2
		c0.1-0.2,0.3-0.4,0.4-0.5c0-0.9,0-1.9,0-2.8c0-0.4,0.2-0.7,0.4-1c0-1.1,0-2.1,0-3.2c0.2-0.3,0.4-0.5,0.4-0.8c0-0.5,0-1,0-1.5
		c0-0.4,0.2-0.6,0.4-0.8c0-0.6,0-1.1,0-1.7c0.2-0.3,0.4-0.6,0.4-1c-0.1-0.5-0.1-1,0.3-1.4c0,0,0-0.1,0-0.2c0-0.3,0.1-0.6,0.3-0.9
		c0.1-0.2,0.1-0.4,0-0.5c-0.2-0.2-0.4-0.1-0.7,0.1c-0.7,0.7-1.4,1.4-2.1,2.1c-0.4,0.4-0.8,0.8-1.2,1.2c-0.4,0.4-0.7,0.9-1.3,1
		c-0.4,0.3-0.7,0.7-1.1,1c-0.6,0.1-0.9,0.6-1.3,1c-0.2,0.2-0.4,0.5-0.7,0.6c-0.2,0.1-0.4,0.2-0.6,0.3c-0.5,0-0.7,0.5-1.2,0.5
		c-0.4,0.4-1,0.4-1.4,0.9c-0.3,0.2-0.7,0.2-0.9,0.6c-0.2,0.3-0.5,0.3-0.8,0.5c-0.2,0.1-0.4,0.2-0.7,0.3c-0.3,0.1-0.5,0.4-0.7,0.6
		c-0.3,0.3-0.6,0.5-0.8,0.8c-0.3,0.4-0.8,0.3-1.1,0.7c-0.2,0.3-0.6,0.4-0.9,0.6c-0.3,0.2-0.7,0.2-1.1,0.3c-0.4,0.3-0.7,0.7-1.1,1
		c-0.3-0.1-0.4-0.3-0.6-0.4c-0.2-0.2-0.2-0.2-0.4,0c-0.2,0.1-0.5,0.2-0.6,0.3c-0.1,0.1-0.1,0.4-0.2,0.5c-0.2,0.2-0.4,0.5-0.7,0.7
		c-0.2,0.2-0.6,0.2-0.8,0.4c-0.1,0.1-0.2,0.1-0.3,0c-0.1-0.1-0.2-0.2-0.3-0.2c-0.4,0-0.8,0-1.1,0c-0.1,0-0.2,0-0.3-0.1
		c-0.2-0.2-0.5-0.3-0.9-0.3c-0.3,0-0.6,0.1-0.9,0.3c-0.3,0.2-0.8,0.2-1-0.1c-0.3-0.3-0.6-0.6-1-0.9c-0.5,0-1-0.1-1.5,0
		c-0.6,0.1-1-0.3-1.5-0.5c0,0-0.1-0.1-0.1-0.1c-0.1-0.2,0-0.8,0.2-0.8c0.5-0.1,0.5-0.4,0.5-0.8c0-0.2-0.2-0.3-0.4-0.3
		c-0.1,0-0.3,0-0.4,0c-0.6,0.1-1-0.2-1.1-0.7c-0.1-0.4-0.4-0.7-0.7-0.8c-0.4-0.1-0.6-0.5-1-0.5c-0.4-0.4-0.8-0.8-1.2-1.2
		c-0.1-0.1-0.1-0.4-0.2-0.5c-0.2-0.2-0.2-0.4,0-0.6c0.1-0.1,0.1-0.3,0.1-0.3c-0.2-0.3-0.3-0.7-0.5-1c-0.1-0.2-0.2-0.4-0.2-0.7
		c0-0.6,0-1.3,0-1.9c0-0.3-0.1-0.5-0.3-0.6c-0.3-0.3-0.5-0.5-0.5-1c0-0.1,0-0.3-0.1-0.3c-0.3-0.2-0.2-0.6-0.4-0.8
		c-0.3-0.3-0.2-0.5,0-0.8c0.3-0.3,0.1-0.7,0.2-1.1c0-0.2-0.1-0.4-0.3-0.4c-0.1,0-0.3,0-0.4,0c-0.1,0-0.3-0.1-0.3-0.1
		c-0.3-0.2-0.6-0.2-0.9-0.3c-0.2,0-0.3-0.2-0.3-0.4c0-0.2,0-0.4,0-0.6c0-0.3,0.1-0.5,0.3-0.7c0.1-0.1,0.3-0.3,0.4-0.4
		c0.1-0.1,0.1-0.4,0-0.5c-0.2-0.2-0.3-0.4-0.5-0.6c-0.1-0.1-0.1-0.2-0.1-0.3c0-0.4-0.1-0.7-0.4-1c-0.2-0.2-0.4-0.3-0.6-0.5
		c0,0-0.1,0-0.2,0c-0.4,0.2-0.7,0.4-1.2,0.4c-0.4,0-0.8,0-1.1,0c-0.1-0.1-0.3-0.2-0.4-0.4c-0.1-0.1-0.2-0.3-0.2-0.5
		c0-0.2,0-0.4-0.1-0.5c-0.2-0.2-0.3-0.4-0.3-0.7c0-0.9,0-1.9,0-2.8c0-0.3,0-0.6-0.3-0.9c-0.1-0.1-0.1-0.2-0.1-0.3c0-0.3,0-0.6,0-0.9
		c0-0.1,0-0.3-0.1-0.3c-0.4-0.4-0.3-0.8-0.3-1.2c0-0.2-0.1-0.4-0.3-0.4c-0.1,0-0.1,0-0.2,0c-0.2,0-0.4,0-0.5-0.1
		c-0.2-0.2-0.4-0.3-0.7-0.3c-0.3-0.3-0.6-0.6-0.9-0.9c0-0.6,0-1.2,0-1.8c0.2-0.5,0.8-0.8,1.1-1.3c0-0.1,0-0.2,0.1-0.4
		c0-0.6,0-1.3,0-1.9c0.3-0.4,0.4-0.9,0.7-1.3c0.1-0.1-0.1-0.4-0.3-0.4c-0.1,0-0.3,0-0.4,0c-0.6,0-1.1,0-1.8,0
		c-0.2-0.2-0.4-0.4-0.6-0.6c0-0.4,0-0.7,0-1.1c-0.2-0.2-0.4-0.4-0.6-0.7c-0.2-0.3-0.5-0.4-0.8-0.3c-0.1,0-0.2,0-0.3-0.1
		c-0.1-0.1-0.3-0.2-0.4-0.4c-0.2-0.2-0.4-0.3-0.7-0.3c-0.2,0-0.4-0.1-0.5-0.2c-0.1-0.1-0.3-0.2-0.5-0.2c-0.5,0-1,0-1.5,0
		c-0.4,0-0.9,0.2-1.3-0.1c-0.3-0.2-0.7-0.2-1-0.5c-0.1-0.2-0.3-0.1-0.5-0.1c-0.2,0-0.5,0.1-0.7-0.1c-0.2-0.2-0.4-0.3-0.6,0
		c-0.1,0.1-0.2,0.1-0.3-0.1c-0.1-0.1-0.3-0.2-0.5-0.2c-0.8,0-1.5,0-2.3,0c-1,0-2,0-3,0c-0.3-0.2-0.5-0.4-0.8-0.4c-0.9,0-1.9,0-2.8,0
		c-0.3,0-0.6,0-0.9,0.3c-0.1,0.1-0.2,0.1-0.3,0.1c-0.3,0-0.6,0-0.9,0c-0.2,0-0.4-0.1-0.5-0.2c-0.2-0.1-0.3-0.2-0.5-0.2
		c-1.5,0-3,0-4.5,0c-0.2,0.1-0.3,0.2-0.5,0.4c-0.8,0-1.6,0-2.4,0c-0.4,0-0.7,0.2-1,0.4c-0.7,0-1.4,0-2.1,0c-0.3,0.2-0.5,0.4-0.8,0.4
		c-0.5,0-1,0-1.5,0c-0.3,0-0.6-0.1-0.9,0.2c-0.3,0.3-0.7,0.2-0.9,0.6c-0.2,0.3-0.6,0.4-0.9,0.6c-0.2,0.1-0.3,0.2-0.5,0.2
		c-0.4,0-0.9,0-1.3,0c-0.2,0-0.4,0.1-0.5,0.2c-0.2,0.2-0.4,0.2-0.7,0.2c-0.4,0-0.7,0.1-1,0.3c-0.4-0.1-0.6,0.4-1,0.4
		c-0.2,0.2-0.5,0.4-0.7,0.6c-0.3,0.2-0.7,0.3-1,0.5c-0.3,0-0.5,0.3-0.8,0.4c-0.3,0-0.4,0.3-0.6,0.4c-0.2,0.1-0.5,0.1-0.6,0.3
		c-0.2,0.2-0.4,0.4-0.6,0.4c-0.2,0.1-0.3,0.1-0.5,0.3c-0.2,0.2-0.4,0.3-0.5,0.5c-0.1,0.1-0.2,0.2-0.2,0.3c0,0.4,0,0.9,0,1.3
		c0,0.2,0.3,0.4,0.3,0.6c0,0.4,0,0.8,0,1.1c0,0.2-0.1,0.3-0.4,0.3c-0.3,0-0.4,0.2-0.6,0.4c-0.2,0.2-0.5,0.4-0.8,0.3
		c-0.1,0-0.2,0-0.2,0c-0.4,0.4-0.9,0.4-1.4,0.4c-0.1,0-0.2,0.1-0.3,0.1c-0.2,0.1-0.3,0.2-0.5,0.2c-0.4,0-0.8,0-1.1,0
		c-0.1,0-0.3,0.2-0.3,0.4c0,0.7,0,1.4,0,2.1c0,0.2-0.1,0.4-0.2,0.5c-0.2,0.2-0.5,0.4-0.6,0.7c0,0.4-0.3,0.5-0.5,0.7
		c-0.2,0.2-0.4,0.4-0.7,0.7c-0.3,0.3-0.5,0.5-0.9,0.6c0,0-0.1,0.1-0.1,0.1c0,0.4-0.3,0.7-0.6,0.9c-0.6,0.6-1.3,1.2-1.9,1.9
		c-0.4,0.4-0.9,0.7-1,1.3c-0.4,0.4-0.8,0.8-1.2,1.2c-0.2,0.2-0.5,0.2-0.6,0.3c-0.2,0.2-0.5,0.4-0.7,0.7c-0.2,0.2-0.3,0.4-0.5,0.5
		c-0.3,0.2-0.7,0.3-1,0.5c-0.5-0.1-0.8,0.2-1.2,0.4c-0.1,0-0.1,0-0.2,0c-0.2,0-0.4,0-0.5,0.1c-0.4,0.6-1.2,0.7-1.6,1.2
		c-0.2,0.3-0.7,0.3-1,0.5c-0.3,0-0.4,0.2-0.7,0.3c-0.2,0.1-0.5,0.1-0.7,0.3c-0.1,0.1-0.2,0.2-0.3,0.1c-0.4-0.1-0.7,0.2-1,0.4
		c-0.2,0.1-0.4,0.3-0.7,0.3c-0.3,0.1-0.6,0.2-0.8,0.4c-0.4,0-0.9,0-1.3,0c-0.1,0-0.2-0.1-0.3-0.2c-0.3-0.2-0.6-0.2-0.9-0.2
		c-0.3,0-0.3,0-0.7-0.2c-0.2-0.1-0.4-0.2-0.7-0.3c-0.4-0.2-0.4-0.2-0.7-0.2c-0.2,0-0.4,0-0.6,0c-0.3,0-0.6-0.1-0.9-0.3
		c-0.2-0.1-0.5-0.1-0.7-0.3c-0.1-0.1-0.2-0.1-0.3-0.1c-0.5,0-1,0-1.4-0.4c-0.3,0-0.6,0-0.9-0.2c-0.2-0.2-0.6-0.2-0.8-0.4
		c-0.1-0.1-0.2-0.1-0.3-0.1c-0.5,0-1,0-1.5,0c-0.1,0-0.2,0.1-0.3,0.2c-0.2,0.2-0.4,0.2-0.7,0.2c-0.2,0-0.5-0.1-0.7,0.1
		c-0.2,0.2-0.5,0.3-0.9,0.3c-0.2,0-0.4,0.2-0.4,0.3c0,1.7,0,3.4,0,5.1c0.1,0.2,0.2,0.3,0.4,0.5c0,1.7,0,3.4,0,5.1
		c0,0.4,0.2,0.7,0.4,1c0,1.1,0,2.1,0,3.2c0.2,0.3,0.4,0.5,0.4,0.8c0,0.6,0,1.1,0,1.7c0,0.1,0.1,0.2,0.1,0.3c0.1,0.2,0.2,0.3,0.2,0.5
		c0,0.3,0,0.6,0,0.9c0,0.1,0,0.3,0.1,0.3c0.3,0.3,0.3,0.7,0.3,1.1c0,0.2,0,0.4,0,0.6c0,0.1,0.1,0.2,0.1,0.3c0.2,0.2,0.3,0.4,0.2,0.7
		c0,0.4,0.3,0.5,0.4,0.8c0.1,0.2-0.1,0.5,0.1,0.7c0.2,0.2,0.2,0.6,0.4,0.8c0.2,0.2,0.2,0.5,0.3,0.7c0.1,0.2,0.3,0.4,0.3,0.7
		c0,0.2,0.3,0.4,0.4,0.6C184.2,227.8,184.4,228.1,184.8,228.2c0,0.4,0,0.7,0.4,0.9c0.1,0.1,0.2,0.1,0.3,0.1c0.1-0.1,0.1-0.2,0.1-0.3
		C185.4,228.5,185.2,228.2,184.8,228.2z"/>
	<path d="M408,187c4.1,0,8.2,0,12.2,0c0.4-0.1,0.6-0.5,1-0.4c3,0,5.9,0,8.8,0c0.2-0.1,0.3-0.2,0.5-0.4c0.7,0,1.3,0,2,0
		c0.1,0,0.2,0.1,0.3,0.2c-0.1,0.1-0.2,0.2-0.3,0.2c-0.4,0-0.7,0.1-1,0.4c-0.1,0.1-0.3,0.2-0.4,0.4c-3.9,0-7.7,0-11.5,0
		c-0.3,0.2-0.6,0.4-1,0.4c-2.5,0-5,0-7.6,0c-0.2,0-0.4,0.2-0.4,0.3c0,0.1,0,0.1,0,0.2c0,4,0,7.9,0,11.9c0,0.1,0,0.1,0,0.2
		c0.1,0.1,0.2,0.2,0.3,0.2c0.1,0,0.1,0,0.2,0c0.4-0.4,1-0.6,1-1.3c0.2-0.2,0.3-0.4,0.5-0.5c0.4,0,0.6-0.4,1-0.5
		c0.4-0.1,0.6-0.5,0.9-0.7c0.1-0.1,0.2-0.1,0.4-0.1c0.1,0,0.3,0,0.4,0c0.3-0.3,0.8-0.4,1.2-0.4c0.3-0.4,0.8-0.3,1.2-0.3
		c0.1,0,0.2,0,0.2,0c0.5-0.5,1.2-0.3,1.8-0.4c0.2,0,0.3-0.2,0.5-0.2c0.1,0,0.1-0.1,0.2-0.1c0.5,0,1.1,0,1.6,0c0.2,0,0.3-0.2,0.3-0.4
		c0-0.2,0-0.4,0-0.6c0-0.5,0.3-0.7,0.6-0.9c0.1-0.1,0.3-0.1,0.3,0c0.3,0.3,0.6,0.4,1,0.3c0.1,0,0.3,0,0.4,0c0.3,0,0.6,0.1,0.8,0.3
		c0.1,0.1,0.4,0.1,0.5-0.1c0.2-0.2,0.4-0.3,0.4-0.6c0-0.3,0.2-0.4,0.4-0.6c0.3-0.3,0.6-0.2,0.9-0.2c0,0,0.1,0.1,0.1,0.1
		c0.3,0.5,0.3,0.5,0.7,0.7c0.1,0.1,0.2,0.2,0.3,0.2c0.2,0.1,0.3,0.1,0.5-0.1c0.4-0.3,0.4-0.3,0.7-0.2c0.2,0,0.5,0,0.7,0.1
		c0.1,0,0.1,0.1,0.1,0.1c0,0.6,0,1.3,0,1.9c0,0.2,0,0.5,0.1,0.7c0.4,0.3,0.3,0.8,0.7,1.1c0.1,0.1,0.3,0.3,0.4,0.5c0,1,0,2.1,0,3.2
		c0,1.9,0,3.8,0,5.7c0,0.4,0.2,0.7,0.4,1c0,4.1,0,8.2,0,12.2c0.2,0.3,0.5,0.6,0.4,1c0,2.7,0,5.4,0,8.1c0,0.6,0,1.3,0,1.9
		c0.1,0.2,0.2,0.3,0.4,0.5c0,2.2,0,4.4,0,6.6c0,1.6,0,3.3,0,4.9c0,0.4,0.2,0.7,0.4,1c0,0.7,0,1.4,0,2.1c0,0.1-0.1,0.2-0.2,0.2
		c-0.2,0-0.4,0-0.6,0c-9.4,0-18.8,0-28.1,0c-0.2,0-0.5,0.1-0.7-0.1c-0.1,0-0.1-0.1-0.1-0.1c0-0.3,0-0.5,0-0.8c0-2.2,0-4.4,0-6.6
		c0.1-0.4-0.2-0.7-0.4-1c0-9.6,0-19.2,0-28.9c-0.2-0.3-0.4-0.6-0.4-1c0-3.9,0-7.8,0-11.7c0-2.1,0-4.2,0-6.2c0-0.4-0.2-0.6-0.4-0.9
		c0-0.5,0-1.1,0-1.7c0-0.1-0.2-0.3-0.4-0.3c-0.2,0-0.4,0-0.5-0.1c0,0-0.1-0.1-0.1-0.1c0,0,0.1-0.1,0.1-0.1c0.2,0,0.5-0.1,0.7-0.1
		c1.5,0,3,0,4.5,0C407.5,187.4,407.7,187.2,408,187z"/>
	<path d="M370.1,153.8c-1.3,0-2.6,0-3.9,0c-0.4,0-0.7,0.2-1,0.4c-0.7,0-1.5,0-2.3,0c-0.4,0-0.9,0-1.3,0c-0.3-0.3-0.8-0.3-1.1-0.6
		c-0.1-0.1-0.2-0.1-0.3-0.1c-0.6,0-1.1,0-1.7,0c-0.2,0-0.4-0.1-0.5-0.2c-0.1-0.1-0.3-0.2-0.5-0.2c-1,0-2,0-3,0
		c-0.1,0-0.3-0.3-0.2-0.5c0.1-0.1,0.1-0.2,0.2-0.3c0.2-0.3,0.2-0.4,0-0.7c-0.1-0.2-0.3-0.3-0.2-0.5c0-0.3-0.1-0.6-0.3-0.8
		c-0.1-0.1-0.3-0.3-0.4-0.4c-0.1-1.8-0.1-23.1,0-27.2c0.1-0.2,0.2-0.3,0.3-0.5c0-2.8,0-5.6,0-8.4c0-1.7,0-3.4,0-5.1
		c0-0.6,0.1-1.1-0.4-1.6c0-0.2,0-0.4,0-0.6c0.5-0.5,0.3-1.2,0.4-1.8c0-0.2,0.1-0.3,0.3-0.4c0.1,0,0.2-0.1,0.3-0.1
		c0.2-0.2,0.4-0.3,0.7-0.2c0.6,0,1.3,0,1.9,0c2.1,0,4.2,0,6.2,0c0.4,0,0.7-0.2,1-0.4c1.9,0,3.8,0,5.7,0c0.2,0,0.5-0.1,0.7,0.1
		c0.2,0.2,0.4,0.3,0.7,0.3c0.1,0,0.2,0.2,0.2,0.3c0,0.4,0,0.9,0,1.3c0,2.9,0,5.8,0,8.7c0.2,0.3,0.4,0.5,0.4,0.9c0,0.8,0,1.5,0,2.3
		c0,10,0,20,0,30c0,0.4,0,0.8,0,1.1c0,0.2,0.2,0.4,0.2,0.6c0,0.1-0.2,0.3-0.2,0.5c0,0.1,0,0.2,0.1,0.3c0,0,0.1,0.1,0.1,0.1
		c0.1,0.1,0,0.2-0.1,0.3c-0.3,0.4-0.3,0.6,0.1,0.7c0.4,0.1,0.5,0.4,0.4,0.7c0,0.1,0,0.3-0.1,0.3c-0.3,0.4-0.7,0.7-1,1.1
		c-0.1,0.1-0.3,0.2-0.5,0.2C370.5,153.4,370.5,153.4,370.1,153.8z M361.8,143.1c-0.1-0.1-0.2-0.2-0.3-0.2c-0.2-0.1-0.3-0.1-0.5,0
		c-0.1,0.1-0.2,0.2-0.3,0.2c-0.1,0.1-0.1,0.2-0.1,0.3c0,0.1,0.2,0.1,0.3,0.1c0.5,0,1.1,0,1.6-0.1c0.1,0,0.2-0.2,0.2-0.3
		c0-0.2-0.3-0.5-0.5-0.4C362.1,142.9,362,143,361.8,143.1z M363.9,143.6C363.9,143.6,363.9,143.6,363.9,143.6c0.1,0,0.2,0,0.4,0
		c0.1,0,0.2-0.1,0.3-0.2c0,0-0.1-0.1-0.1-0.1c-0.4,0-0.6-0.4-0.9-0.4c-0.1,0-0.3,0-0.3,0.1c0,0.1-0.1,0.2-0.1,0.3
		c0,0.1,0.1,0.2,0.2,0.2C363.6,143.6,363.8,143.6,363.9,143.6z"/>
	<path d="M368.4,222.4c-0.2-0.3-0.4-0.5-0.4-0.8c0-0.4,0-0.8,0-1.1c0-0.3,0.1-0.5,0.3-0.7c0.2-0.2,0.1-0.5,0.1-0.7
		c-0.5-0.4-0.4-1-0.4-1.6c0-9,0-18,0-27c0-0.3,0.1-0.7,0-0.9c-0.1-0.3-0.3-0.5-0.4-0.8c0-0.1-0.1-0.2-0.2-0.3
		c-0.1-0.1,0-0.2,0.2-0.2c1.8,0,3.6,0,5.4,0c0.4-0.2,0.6-0.5,1-0.4c0.1,0,0.3,0,0.4,0c1.1,0,2.3,0,3.4,0c1.1,0,2.3,0,3.4,0
		c2.3,0,1.9-0.4,1.9,1.8c0,1.1,0,2.3,0,3.4c0,1.1,0,2.3,0,3.4c0,2.6,0,5.2,0,7.7c0.2,0.3,0.4,0.5,0.4,0.8c0,0.5,0,1,0,1.5
		c0,9.4,0,18.9,0,28.3c0,0.6,0,1.3,0,1.8c0.1,0.2,0.2,0.3,0.4,0.5c0,3.2,0,6.4,0,9.6c0,0.2-0.2,0.3-0.4,0.3c-4.9,0-9.8,0-14.7,0
		c-0.2,0-0.4-0.2-0.4-0.3c0-0.1,0-0.3,0-0.4c0-0.5,0-1,0-1.5c0-7,0-14,0-20.9C368.4,223.4,368.4,222.9,368.4,222.4z"/>
	<path d="M95.3,224.3c0.2-0.3,0.5-0.5,0.8-0.9c0-0.3,0-0.7,0-1.1c0-0.5,0.1-0.5,0.5-0.6c0.1,0,0.2,0,0.4,0c0.1,0,0.3-0.4,0.2-0.5
		c-0.4-0.4-0.3-0.9-0.8-1.2c-0.1-0.1-0.3-0.3-0.3-0.4c-0.2-0.5-0.5-0.8-0.4-1.4c0.1-0.4,0-0.8,0-1.1c0-0.4-0.2-0.6-0.4-0.8
		c0-1.7,0-3.4,0-5.1c-0.2-0.3-0.5-0.6-0.4-1c0-0.2,0-0.4,0-0.6c0-0.4,0.2-0.6,0.4-0.8c0-0.7,0-1.4,0-2.1c0-0.4-0.2-0.7-0.4-1
		c0-0.8,0-1.6,0-2.4c-0.1-0.2-0.2-0.3-0.3-0.5c0.4-0.4,0.5-0.8,0.1-1.3c-0.1-0.1-0.1-0.2-0.2-0.3c0-0.1,0-0.1,0-0.2
		c0-0.6,0-1.3,0-1.8c0.1-0.1,0.2-0.3,0.3-0.3c0.2-0.2,0.1-0.3,0.1-0.5c-0.1-0.2-0.2-0.3-0.3-0.5c0-3.1,0-6.3,0-9.4
		c0-0.3-0.2-0.4-0.5-0.4c-0.8,0-1.5,0-2.2,0c-0.3-0.2-0.6-0.4-1-0.4c-2.1,0-4.2,0-6.2,0c-0.2,0-0.4,0-0.5-0.2
		c-0.1-0.1,0.2-0.2,0.4-0.2c2.9,0,5.8,0,8.7,0c0.3,0.2,0.5,0.4,0.8,0.4c2.6,0,5.2,0,7.7,0c0.2,0,0.3,0.2,0.3,0.4c0,0.1,0,0.1,0,0.2
		c0,2.5,0,5,0,7.6c0,0.4-0.2,0.6-0.4,0.8c0,5.1,0,10.2,0,15.3c-0.2,0.3-0.5,0.6-0.4,1c0,4.1,0,8.2,0,12.3c0,0.6,0,1.3,0,1.9
		c-0.3,0.3-0.5,0.6-0.7,0.9c0,0.3-0.1,0.5,0.1,0.7c0.2,0.3,0.3,0.5,0.3,0.9c0,5.7,0,11.5,0,17.2c0,0.5-0.1,0.6-0.5,0.6
		c-2.3,0-4.7,0-7,0c-0.3,0-0.4-0.2-0.4-0.5c0-0.3,0-0.6,0-0.9c0-0.2,0.1-0.4,0.2-0.5c0.1-0.2,0.2-0.3,0.2-0.5c0-0.6,0-1.3,0-1.9
		c0-0.4,0.2-0.6,0.4-0.9c0-0.8,0-1.6,0-2.4c0-0.4,0.2-0.7,0.4-1c0-0.9,0-1.9,0-2.8c0.2-0.3,0.4-0.5,0.4-0.8c0-0.6,0-1.3,0-1.9
		c0-0.4,0.2-0.6,0.4-0.8c0-0.6,0-1.1,0-1.7c-0.1-0.1-0.2-0.3-0.3-0.5c0.1-0.2,0.4-0.5,0.3-0.8c0-0.1,0-0.2,0.1-0.4
		c0-0.1,0.1-0.1,0.1-0.2c0.2-0.2,0.2-0.4,0.2-0.7c0-0.3,0.3-0.4,0.3-0.7c0-0.5,0-1,0-1.5C95.2,225.3,95.3,224.8,95.3,224.3z"/>
	<path d="M32.7,228.2c0.3-0.2,0.6-0.4,1-0.4c0.3,0.1,0.6,0,0.9-0.3c0.1-0.1,0.2-0.1,0.3-0.1c0.4,0,0.9,0.1,1.2-0.3
		c0.1-0.1,0.2-0.1,0.3-0.1c0.5,0,1.1,0.1,1.6-0.3c0.2,0,0.4,0,0.6,0c0.3,0,0.6,0,0.9-0.3c0.1-0.1,0.2-0.1,0.3-0.1
		c0.4,0,0.9,0,1.2-0.3c0.1-0.1,0.4-0.1,0.5-0.1c0.3,0,0.6,0,0.9,0c0.5-0.5,1.2-0.3,1.8-0.4c0.1,0,0.2-0.1,0.3-0.2
		c0.2-0.1,0.3-0.2,0.5-0.2c0.5,0,1.1,0.2,1.6-0.3c0.4,0,0.7-0.1,1.1,0c0.4,0,0.6-0.2,0.9-0.4c0.5,0,1,0,1.5,0c0.2,0,0.4-0.1,0.5-0.2
		c0.1-0.1,0.3-0.2,0.5-0.2c0.6,0,1.3,0,1.9,0c0.3-0.2,0.5-0.4,0.9-0.4c0.5,0,1,0,1.4,0c0.5,0.2,0.6,0.7,0.8,1.1
		c0.2,0.3,0.3,0.5,0,0.8c-0.2,0.2-0.2,0.6-0.4,0.8c-0.2,0.2-0.4,0.3-0.6,0.3c-0.3,0-0.5,0-0.8,0c-0.5,0.5-1.2,0.3-1.8,0.4
		c-0.1,0-0.2,0.1-0.3,0.1c-0.2,0.1-0.3,0.2-0.5,0.2c-0.3,0-0.6,0-0.9,0c-0.2,0-0.4,0.1-0.5,0.2c-0.2,0.1-0.3,0.2-0.5,0.2
		c-0.5,0-1,0-1.5,0c-0.2,0.1-0.4,0.2-0.6,0.4c-0.4,0-0.8,0-1.3,0c-0.3,0-0.6,0.1-0.9,0.3c-0.1,0.1-0.2,0.1-0.3,0.1
		c-0.2,0-0.4,0-0.6,0c-0.4,0-0.7,0-1,0.3c-0.1,0.1-0.2,0.1-0.4,0.1c-0.5,0-1,0-1.5,0c-0.4,0-0.6,0.2-0.9,0.4c-0.5,0-1,0-1.5,0
		c-0.2,0-0.4,0.1-0.5,0.2c-0.1,0.1-0.3,0.2-0.5,0.2c-1.4,0-2.8,0-4.1,0c-0.3,0.2-0.5,0.4-0.9,0.4c-0.2,0-0.5,0-0.8,0
		c-0.4,0-0.6,0.2-0.8,0.4c-0.5,0-1,0-1.5,0c-0.1,0-0.3,0-0.3,0.1c-0.4,0.4-0.9,0.3-1.4,0.3c-0.1,0-0.3,0-0.4,0
		c-0.1,0-0.1-0.1-0.1-0.1c0,0,0-0.1,0-0.1c0.2-0.3,0.5-0.6,0.9-0.5c0.1,0,0.2,0,0.3-0.1c0.6-0.6,1.2-1.1,1.8-1.7
		C31.7,228.1,32.2,228.2,32.7,228.2z"/>
	<path d="M281.4,245.2c0.4,0,0.8,0,1.2,0c0.1,0,0.3,0,0.3-0.1c0.4-0.4,0.8-0.3,1.2-0.3c0.2,0,0.3-0.1,0.5-0.2c0.3-0.2,0.7-0.3,1-0.5
		c0.2-0.1,0.5,0.1,0.7-0.1c0.3-0.2,0.5-0.3,0.9-0.3c0.3,0,0.6,0,0.9,0c0.3-0.5,1-0.2,1.3-0.5c0.3-0.2,0.5-0.2,0.8,0
		c0.3,0.2,0.4,0.2,0.7,0c0.2-0.1,0.3-0.2,0.5-0.3c0.4-0.2,0.9-0.4,1.3-0.7c0.5,0,1,0,1.5,0c0.2,0,0.4,0,0.5-0.2
		c0.3-0.3,0.5-0.3,0.8,0c0.1,0.1,0.3,0.2,0.5,0.2c0.4,0,0.8,0,1.2,0c0.3,0.3,0.5,0.5,0.8,0.8c0.1,0.1,0.1,0.2,0.2,0.3
		c0.4,1.1,0.4,1.1,1,1.9c0.2,0.3,0.3,0.7,0.5,1c0.1,0.2,0.1,0.5,0,0.7c0,0.1-0.1,0.1-0.1,0.1c-0.1,0-0.2,0.1-0.4,0.1
		c-7.7,0-15.5,0-23.2,0c-0.1,0-0.2-0.1-0.3-0.1c0.1-0.1,0.1-0.2,0.2-0.3c0.2-0.2,0.3-0.4,0.5-0.5c0.3-0.3,0.7-0.2,1,0
		c0.2,0.1,0.3,0.2,0.5,0c0.3-0.2,0.7-0.2,1-0.5c0.6,0.1,1-0.4,1.5-0.5C280.7,244.7,281.1,244.7,281.4,245.2z"/>
	<path d="M115.7,166.4c0.2-0.2,0.3-0.4,0.6-0.5c0.5-0.2,1.1-0.2,1.6,0.3c0.6,0.1,1.2-0.1,1.9,0.1c0,0,0.1,0.1,0.1,0.1
		c0,0-0.1,0.1-0.1,0.1c-0.8,0-1.6,0-2.4,0.1c-0.2,0-0.4,0.2-0.4,0.3c0,0.6,0,1.1,0,1.7c0,5.7,0,11.5,0,17.2c0.1,0.6-0.4,0.9-0.5,1.4
		c0,0.1-0.2,0.1-0.3,0.2c-0.2,0.1-0.3,0.2-0.5,0.3c-0.1,0-0.2,0-0.2-0.2c0-3.5,0-6.9,0-10.4c0.2-0.3,0.4-0.6,0.4-1
		c0-2.7,0-5.4,0-8.1C115.7,167.5,115.7,167,115.7,166.4z"/>
	<path d="M384.8,165.9c0.3-0.2,0.5-0.4,0.8-0.4c0.8,0,1.6,0,2.5,0c0.5,0,0.6-0.1,1.1,0.6c0,1.4,0,2.8,0,4.3c0,0.2,0,0.4,0,0.6
		c0,0.4,0.2,0.6,0.4,0.8c0,4.2,0,8.4,0,12.6c0.2,0.4,0.4,0.6,0.4,1c-0.1,0.7,0,1.4,0,2.1c0,0.1-0.4,0.3-0.5,0.2
		c-0.3-0.2-0.6-0.4-0.6-0.8c0-1.5,0-3,0-4.5c-0.2-0.3-0.4-0.6-0.4-1c0-4.7,0-9.3,0-14c0-0.3,0-0.6-0.1-0.9c0,0-0.1-0.1-0.1-0.1
		c-0.2,0-0.5-0.1-0.7-0.1c-3.5,0-7.1,0-10.6,0c-0.4,0-0.7,0-1.1,0c0,0-0.1-0.1-0.1-0.1c0.1-0.1,0.2-0.2,0.2-0.2c1.3,0,2.5,0,3.8,0
		C381.4,165.9,383.1,165.9,384.8,165.9z"/>
	<path d="M252.8,108.7c0,0.4,0,0.8-0.3,1c-0.2,0.2-0.4,0.4-0.7,0.7c-0.4,0.4-0.8,0.5-1.3,0.1c-0.2-0.1-0.4-0.2-0.7,0
		c-0.4,0.2-0.4,0.2-0.7,0.2c-0.6,0-1.1-0.2-1.3-0.8c-0.3-0.4-0.4-0.9-0.7-1.3c0,0,0-0.1,0-0.2c0-0.7,0-1.4,0-2
		c0.2-0.2,0.4-0.4,0.5-0.6c0.1-0.1,0.3-0.2,0.5-0.4c0.3,0,0.6,0,0.9,0c0.5,0,0.5,0,0.8-0.6c0.1-0.2,0.3-0.4,0.4-0.6
		c0.1-0.3,0.4-0.4,0.8-0.3c0.2,0,0.3,0.2,0.3,0.4c0,0.3-0.1,0.6-0.3,0.9c-0.1,0.1,0,0.2,0.2,0.2c0.3,0,0.6,0,0.9,0
		c0.1,0,0.3,0.2,0.3,0.4c0,0.2,0.1,0.4-0.1,0.5c-0.4,0.4-0.3,0.9-0.3,1.4C252.3,108.1,252.6,108.4,252.8,108.7z"/>
	<path d="M457.2,100.4c-0.2-0.3-0.5-0.5-0.7-0.7c-0.1-0.1-0.1-0.3-0.1-0.3c0.2-0.3,0.3-0.7,0.5-1c0.1-0.2,0.2-0.3,0.3-0.4
		c0.3,0.1,0.4,0.4,0.7,0.2c0.1-0.1,0.3-0.2,0.5-0.2c0.5,0,0.9,0,1.2-0.4c0.1-0.1,0.5,0.1,0.5,0.2c0,0.4,0,0.8,0,1.1
		c0,0.3-0.1,0.5-0.3,0.7c-0.1,0.2-0.1,0.3,0,0.5c0.1,0.2,0.3,0.4,0.3,0.7c0,0.2,0,0.4,0.1,0.5c0.4,0.3,0.6,0.8,1.2,0.9
		c0,0,0.1,0.1,0.1,0.1c0.1,0.4,0.1,0.7,0,1.1c0,0-0.1,0.1-0.1,0.1c-0.1,0-0.2,0.1-0.3,0.1c-0.8,0-1.5,0-2.2,0
		c-0.5,0.5-1,0.5-1.6,0.3c-0.1,0-0.1-0.1-0.1-0.1c0-0.4-0.1-0.7-0.1-1.1C457.2,101.8,457.2,101.1,457.2,100.4z"/>
	<path d="M460.3,60.7c0,0.3,0,0.7,0,1c-0.1,0.4,0.2,0.7,0.4,1c0,0.9,0,1.7,0,2.6c0,0.3-0.2,0.5-0.4,0.5c-0.4,0-0.7,0-1.1,0
		c-0.2,0-0.3-0.2-0.3-0.4c0-0.2-0.1-0.3-0.4-0.4c-0.1,0-0.2-0.1-0.3-0.2c-0.2-0.2-0.4-0.4-0.4-0.8c0-1.3,0-2.6,0-3.9
		c0-0.4,0.1-0.4,0.4-0.2c0.2,0.1,0.4,0.2,0.7,0c0.4-0.3,0.6-0.3,0.8-0.1C459.8,60.2,460,60.4,460.3,60.7z"/>
	<path d="M54.1,67.2c0.3-0.5,0.7-0.8,1.3-0.7c0.1,0,0.1,0,0.2,0c0.1,0,0.1,0,0.2,0c0.3,0.4,0.5,1,1,1.3c0,1.4,0,2.7,0,4
		c0,0.2-0.2,0.4-0.3,0.4c-0.6,0-1.1,0-1.7,0c-0.3-0.3-0.3-0.7-0.6-1c0-0.3,0-0.6,0-0.9C54.1,69.2,54.1,68.2,54.1,67.2z"/>
	<path d="M343.4,119.8c0.2,0,0.5,0,0.7,0c0.2,0,0.4,0.1,0.5,0.2c0.2,0.2,0.4,0.5,0.7,0.7c0.3,0.2,0.4,0.6,0.6,0.9
		c0.1,0.3,0.4,0.5,0.6,0.7c0,0.5,0.5,0.7,0.4,1.2c0,0.1,0,0.3,0.1,0.3c0.4,0.4,0.3,0.9,0.2,1.4c0,0-0.1,0.1-0.1,0.1
		c-0.1,0-0.2,0.1-0.3,0.1c-0.2,0-0.4,0-0.5,0.1c-0.4,0.4-0.9,0.3-1.4,0.2c-0.1,0-0.1-0.1-0.1-0.1c0-0.2-0.1-0.4-0.1-0.5
		c0-0.5,0-1,0-1.5c0-0.2,0.1-0.5-0.1-0.7c-0.2-0.2-0.2-0.6-0.4-0.8c-0.2-0.2-0.3-0.4-0.5-0.5c-0.3-0.2-0.4-0.6-0.6-0.9
		c-0.2-0.3-0.2-0.3,0.1-0.6C343.2,119.9,343.3,119.9,343.4,119.8z"/>
	<path d="M463.3,169.7c0-0.7,0-1.4,0-2.1c0-0.3,0-0.5,0.2-0.7c0.2-0.3,0.3-0.8,0.7-1c0.1-0.1,0.4-0.1,0.5,0c0,0,0.1,0.1,0.1,0.1
		c0.3,0.2,0.3,0.7,0.6,0.9c0.1,0.1,0.2,0.3,0.2,0.5c0,0.3,0.1,0.5,0.3,0.7c0.2,0.3,0.2,0.6,0,0.9c-0.2,0.3-0.3,0.5-0.3,0.9
		c0,0.4,0,0.4-0.3,1c-0.1,0.1-0.1,0.2-0.1,0.4c0,0.1-0.4,0.2-0.5,0.2c-0.2-0.2-0.5-0.4-0.8-0.4c-0.1,0-0.1-0.2-0.2-0.3
		C463.6,170.2,463.6,170.2,463.3,169.7z"/>
	<path d="M46.3,83.9c0.3,0.3,0.6,0.6,0.9,0.9c0,0.4,0,0.9,0,1.3c0,0.2,0.1,0.3,0.2,0.5c0.1,0.2,0.2,0.3,0.1,0.5
		c-0.2,0.3-0.4,0.6-0.6,0.9c-0.2,0-0.5,0-0.7,0c-0.2,0-0.4-0.1-0.5-0.2c-0.1-0.1-0.3-0.2-0.5-0.2c-0.4,0-0.7,0-1.1,0
		c-0.1,0-0.1-0.1-0.2-0.1c-0.1-0.1,0-0.2,0.1-0.3c0.2-0.4,0.7-0.3,0.9-0.6c0-0.8,0-1.6,0-2.4c0-0.2,0.2-0.4,0.3-0.4
		C45.7,83.9,46,83.9,46.3,83.9z"/>
	<path d="M49.5,164.7c0-0.5,0-1,0-1.5c0-0.4,0.1-0.7,0.4-1c0.1-0.1,0-0.2,0.1-0.3c0.1-0.2,0.9-0.3,1,0c0.1,0.3,0.3,0.5,0.4,0.8
		c0.1,0.2,0,0.5,0,0.7c0,0.4,0,0.7,0,1.1c0,0.1,0,0.3,0,0.4c0,0.3-0.1,0.5-0.3,0.7c-0.1,0.2-0.1,0.3-0.1,0.5c-0.1,0.6-0.5,1-1.2,0.9
		c-0.2,0-0.3-0.2-0.3-0.4C49.6,166,49.6,165.4,49.5,164.7C49.6,164.7,49.6,164.7,49.5,164.7z"/>
	<path d="M138,204.3c0,2.8,0,5.6,0,8.5c0,0.2,0,0.4-0.1,0.5c0,0-0.1,0.1-0.1,0.1c-0.1,0-0.1-0.1-0.1-0.1c0-0.1,0-0.1,0-0.2
		c0-6,0-11.9,0-17.9c0,0,0.1-0.1,0.1-0.1c0.1,0.1,0.2,0.1,0.2,0.2c0,0.2,0,0.5,0,0.8C138,198.7,138,201.5,138,204.3
		C138,204.3,138,204.3,138,204.3z"/>
	<path d="M372.9,129.2c0,2.9,0,5.9,0,8.8c0,0-0.1,0.1-0.1,0.1c-0.1-0.1-0.2-0.1-0.2-0.2c0-5.8,0-11.7,0-17.5c0-0.1,0-0.1,0.1-0.2
		c0,0,0.1-0.1,0.1-0.1c0.1,0,0.1,0.1,0.1,0.1c0,0.3,0,0.6,0,0.9C373,123.9,373,126.6,372.9,129.2C373,129.2,373,129.2,372.9,129.2z"
		/>
	<path d="M455.4,77.1c-0.2-0.4-0.5-0.6-0.4-1.1c0.1-0.3,0-0.6,0-1c0.2-0.2,0.3-0.3,0.5-0.5c0,0,0.1,0,0.1,0c0.2,0.3,0.1,0.7,0.1,1.1
		c0,0.2,0,0.4,0.1,0.5c0.2,0.2,0.3,0.5,0.3,0.9c0,1.1,0,2.1,0,3.2c0,0.1-0.2,0.2-0.3,0.2c-0.2,0.1-0.4-0.1-0.4-0.2
		C455.4,79.1,455.4,78.1,455.4,77.1z"/>
	<path d="M57.1,100.4c0,1.2,0,2.3,0,3.5c0,0.1-0.1,0.2-0.2,0.3c-0.1,0.1-0.2,0-0.4,0c0,0-0.1-0.1-0.1-0.1c0-0.1-0.1-0.2-0.1-0.4
		c0-0.9,0-1.7,0-2.6c0.2-0.3,0.4-0.5,0.4-0.8c0-0.8,0-1.6,0-2.4c0-0.1,0.1-0.2,0.2-0.3c0.1,0.1,0.2,0.2,0.2,0.2
		c0.1,0.2-0.1,0.5,0.1,0.7c0.2,0.2,0.2,0.5,0.3,0.9C57.5,99.8,57.3,100.1,57.1,100.4z"/>
	<path d="M455.7,85c0-0.9,0-1.7,0-2.6c0-0.1,0.1-0.2,0.2-0.3c0,0,0.1,0.1,0.1,0.1c0.1,0.2,0.1,0.4,0.2,0.5c0.1,0.1,0.2,0.3,0.2,0.5
		c0,1.5,0,3.1,0,4.6c0,0.1-0.2,0.1-0.3,0.2c-0.2,0.1-0.4-0.1-0.4-0.3C455.7,86.8,455.7,85.9,455.7,85C455.7,85,455.7,85,455.7,85z"
		/>
	<path d="M455.7,71.4c0,0.3,0,0.6,0,0.9c0,0.1-0.2,0.2-0.3,0.2c-0.2,0.1-0.4-0.1-0.4-0.2c0-0.7,0-1.4,0-2.1c0-0.4,0.1-0.9-0.3-1.2
		c-0.1-0.1-0.1-0.2-0.1-0.3c0-0.6,0-1.3,0-1.9c0-0.1,0.2-0.2,0.3-0.2c0.2-0.1,0.4,0.1,0.4,0.2c0,0.7,0,1.4,0,2.1
		c0,0.4-0.1,0.9,0.3,1.2c0.1,0.1,0.1,0.2,0.1,0.3C455.7,70.7,455.7,71.1,455.7,71.4C455.7,71.4,455.7,71.4,455.7,71.4z"/>
	<path d="M137.6,191.2c0-0.8,0-1.6,0-2.4c0-0.1,0.2-0.3,0.4-0.3c0.1,0,0.3,0.1,0.3,0.2c0,1.4,0,2.8,0,4.3c0,0.4-0.4,0.6-0.4,1
		c0,0-0.1,0.1-0.1,0.1c0,0-0.1-0.1-0.1-0.1c-0.1-0.5,0-1.1-0.1-1.6C137.6,192,137.6,191.6,137.6,191.2
		C137.6,191.2,137.6,191.2,137.6,191.2z"/>
	<path d="M336.6,117.1c1.3,0,2.7,0,4.1,0c0.2,0,0.5,0.1,0.4,0.2c-0.1,0.2-0.3,0.2-0.5,0.2c-0.5,0-1,0-1.5,0c-0.2,0-0.4,0-0.5,0.1
		c-0.1,0.1-0.2,0.1-0.3,0.2c-0.6,0-1.2,0-1.8,0c-0.3,0-0.5,0.1-0.7,0.3c-0.2,0.2-0.5,0.1-0.7,0.1c-0.1,0-0.1,0-0.2-0.1
		c-0.1-0.1-0.1-0.2,0.1-0.3c0.2-0.2,0.4-0.4,0.8-0.4C336.2,117.6,336.3,117.2,336.6,117.1z"/>
	<path d="M454.6,63c-0.2-0.3-0.4-0.5-0.4-0.9c0-0.9,0-1.9,0-2.8c0-0.1,0.1-0.2,0.2-0.3c0.1,0.1,0.2,0.1,0.3,0.2
		c0.1,0.1,0.3,0.3,0.3,0.5c0,1.7,0,3.4,0,5.1c0,0-0.1,0.1-0.1,0.1c0,0-0.1-0.1-0.1-0.1c0-0.1-0.1-0.2-0.1-0.3
		C454.6,64,454.6,63.5,454.6,63z"/>
	<path d="M366.5,166.6c-1.4,0-2.8,0-4.1,0c-0.1,0-0.2-0.1-0.2-0.2c0,0,0.1-0.1,0.1-0.1c2.9,0,5.7,0,8.6,0c0,0,0.1,0.1,0.1,0.1
		c-0.1,0.1-0.1,0.2-0.2,0.2c-0.2,0-0.4,0-0.6,0C369,166.6,367.7,166.6,366.5,166.6C366.5,166.6,366.5,166.6,366.5,166.6z"/>
	<path d="M454.6,55c0,0.7,0,1.5-0.1,2.2c0,0-0.1,0.1-0.1,0.1c-0.1-0.1-0.2-0.2-0.2-0.2c0-0.4,0-0.8,0-1.1c0-0.2-0.1-0.3-0.2-0.5
		c-0.1-0.1-0.1-0.2-0.1-0.3c0-1.2,0-2.4,0-3.6c0,0,0.1-0.1,0.1-0.1c0.1,0.1,0.2,0.2,0.2,0.2c0,0.3,0,0.6,0.2,0.9
		c0.1,0.1,0.1,0.2,0.1,0.3C454.6,53.6,454.6,54.3,454.6,55C454.6,55,454.6,55,454.6,55z"/>
	<path d="M465,103.1c-0.7,0-1.4,0-2.1,0c-0.2,0-0.3-0.2-0.3-0.4c0-0.2,0-0.4,0.1-0.5c0,0,0.1-0.1,0.1-0.1c0,0,0.1-0.1,0.2-0.1
		c0.8,0,1.6,0,2.4,0c0.1,0,0.3,0.3,0.2,0.5c0,0.1,0,0.1-0.1,0.2C465.3,102.8,465.1,103,465,103.1z"/>
	<path d="M28.5,115.2c-1.1,0-2.1,0-3.2,0c-0.1,0-0.2-0.1-0.3-0.2c0-0.1,0-0.2,0-0.4c0-0.1,0.1-0.1,0.1-0.1c0.9,0,1.7,0,2.6-0.1
		c0.2,0,0.4,0,0.5-0.1c0.3-0.2,0.3-0.2,0.6,0.1c0.2,0.2,0.2,0.3,0,0.4c0,0-0.1,0.1-0.1,0.1C28.7,115.1,28.6,115.2,28.5,115.2z"/>
	<path d="M459.5,91.7c-0.3-0.3-0.5-0.6-0.4-1c0.1-0.3,0.3-0.5,0.6-0.7c0.1,0.1,0.1,0.2,0.1,0.3c0,1.2,0,2.4,0,3.6
		c0,0.3,0.1,0.5,0.2,0.7c0.2,0.3,0.2,0.5,0.1,0.9c0,0.1-0.2,0.2-0.3,0.1c-0.1,0-0.3,0-0.3-0.2c0-0.2-0.1-0.4-0.1-0.5
		C459.5,93.8,459.5,92.7,459.5,91.7z"/>
	<path d="M54.9,113c-0.9,0-1.4,0-2,0c-0.1,0-0.3-0.2-0.3-0.4c0-0.1,0.1-0.3,0.2-0.3c0.9,0,1.8,0,2.8,0c0.4,0,0.6,0.4,1,0.4
		c0,0,0.1,0.1,0.1,0.1c0,0-0.1,0.1-0.1,0.1C55.9,113.1,55.2,112.9,54.9,113z"/>
	<path d="M20.5,114.5c0.6,0,1.1,0,1.7,0.1c0.1,0,0.2,0.2,0.2,0.3c0,0.1,0,0.2-0.1,0.3c-0.1,0-0.1,0.1-0.2,0.1c-1.1,0-2.1,0-3.2,0
		c-0.1,0-0.3-0.3-0.2-0.4c0-0.1,0.1-0.3,0.2-0.3C19.4,114.5,19.9,114.5,20.5,114.5C20.5,114.5,20.5,114.5,20.5,114.5z"/>
	<path d="M449.3,107.9c0-0.4,0-0.7,0-1.1c0-0.1,0.4-0.3,0.5-0.2c0.4,0.2,0.7,0.5,0.6,1c0,0.7,0,0.7-0.5,1.1
		c-0.1,0.1-0.3,0.3-0.4,0.4c0,0-0.1,0.1-0.1,0c0,0-0.1-0.1-0.1-0.1c0-0.1,0-0.1,0-0.2C449.3,108.5,449.3,108.2,449.3,107.9
		C449.3,107.9,449.3,107.9,449.3,107.9z"/>
	<path d="M136.3,167c-0.7,0-1.5,0-2.2,0c-0.1,0-0.1-0.1-0.2-0.2c0,0,0.1-0.1,0.1-0.1c1.6,0,3.2,0,4.8,0c0,0,0.1,0.1,0.1,0.1
		c0,0-0.1,0.1-0.1,0.1c-0.1,0-0.2,0.1-0.3,0.1C137.8,167,137.1,167,136.3,167C136.3,167,136.3,167,136.3,167z"/>
	<path d="M49,74.1c0.3,0.3,0.5,0.5,0.8,0.8c0.2,0.2,0.2,0.5,0,0.7c-0.1,0.1-0.2,0.2-0.3,0.3c-0.2,0.2-0.5,0.2-0.7,0
		c-0.1-0.1-0.2-0.2-0.3-0.3c-0.2-0.2-0.3-0.4-0.1-0.6C48.8,74.7,48.7,74.4,49,74.1z"/>
	<path d="M78.5,186.6c0.6,0,1.1,0,1.7,0c0.1,0,0.2,0.1,0.3,0.2c-0.1,0.1-0.2,0.2-0.2,0.2c-1.3,0-2.6,0-3.9,0c-0.1,0-0.1-0.1-0.2-0.2
		c0,0,0.1-0.1,0.1-0.1C77,186.7,77.7,186.7,78.5,186.6C78.5,186.6,78.5,186.6,78.5,186.6z"/>
	<path d="M47.5,229.3c0.6,0,1.2-0.1,1.8,0.1c0.1,0,0.1,0.1,0.1,0.1c0,0-0.1,0.1-0.1,0.1c-0.2,0.1-0.5,0-0.7,0.1c-0.1,0-0.3,0-0.4,0
		c-0.6,0.5-1.3,0.4-1.9,0.3c0,0-0.1-0.1-0.1-0.1c0,0,0.1-0.1,0.1-0.1c0.1,0,0.2-0.1,0.4-0.1C47.1,229.6,47.1,229.7,47.5,229.3z"/>
	<path d="M342.4,125.8c0-0.6,0-1.1,0-1.7c0-0.1,0.2-0.2,0.3-0.2c0.2-0.1,0.4,0.1,0.4,0.2c0,0.4,0,0.9,0,1.3c0,0.2-0.2,0.3-0.4,0.3
		C342.6,125.8,342.5,125.8,342.4,125.8L342.4,125.8z"/>
	<path d="M54.5,103.5c0,0.2,0.1,0.4-0.1,0.6c-0.1,0.1-0.2,0.2-0.3,0.1c-0.1,0-0.3,0-0.3-0.2c0-0.4-0.1-0.7,0-1.1
		c0-0.2,0.2-0.3,0.3-0.4c0.1-0.1,0.2-0.1,0.3-0.1c0,0,0.1,0.1,0.1,0.2C54.5,102.9,54.5,103.2,54.5,103.5z"/>
	<path d="M57.5,92.9c0,0.4,0,0.9,0,1.3c0,0.1-0.1,0.2-0.2,0.2c0,0-0.1-0.1-0.1-0.1c0-1,0-2,0-2.9c0,0,0.1-0.1,0.1-0.1
		c0.1,0.1,0.2,0.1,0.2,0.2C57.5,91.9,57.5,92.4,57.5,92.9C57.5,92.9,57.5,92.9,57.5,92.9z"/>
	<path d="M456.5,91.6c0,0.6,0,1.1,0,1.5c0,0-0.1,0.1-0.1,0.1c-0.1,0.1-0.2,0-0.2-0.1c0-1-0.1-2,0.1-2.9c0-0.1,0.1-0.1,0.1-0.1
		c0,0,0.1,0.1,0.1,0.1C456.6,90.7,456.4,91.2,456.5,91.6z"/>
	<path d="M459.5,86.3c0,0.5,0,1,0,1.5c0,0-0.1,0.1-0.1,0.1c-0.1,0-0.2-0.1-0.2-0.2c0-1-0.1-2,0.1-2.9c0,0,0.1-0.1,0.1-0.1
		c0,0,0.1,0.1,0.1,0.1C459.5,85.3,459.5,85.8,459.5,86.3C459.5,86.3,459.5,86.3,459.5,86.3z"/>
	<path d="M455.2,99.3c-0.1-0.1-0.2-0.1-0.3-0.2c-0.3-0.2-0.4-0.6-0.3-1c0-0.2,0.4-0.4,0.6-0.3c0.2,0.2,0.3,0.3,0.5,0.5
		c0.1,0.1,0,0.4-0.1,0.5c0,0-0.1,0.1-0.1,0.1C455.4,99.1,455.3,99.2,455.2,99.3z"/>
	<path d="M34.6,115.6c0,0-0.2,0-0.3-0.1c-0.1,0-0.2-0.2-0.2-0.3c0-0.1,0-0.3,0.2-0.3c0.4-0.1,0.7-0.1,1.1,0c0.1,0,0.2,0.2,0.2,0.3
		c0.1,0.2-0.1,0.4-0.2,0.5C35.1,115.6,35,115.6,34.6,115.6z"/>
	<path d="M49.9,92.4c0,0,0,0.4,0,0.7c0,0.1-0.1,0.1-0.1,0.1c-0.1-0.1-0.2-0.1-0.2-0.2c0-0.8,0-1.6,0-2.4c0-0.1,0.1-0.2,0.2-0.2
		c0.1,0.1,0.2,0.2,0.2,0.3C49.9,91.1,49.9,91.6,49.9,92.4z"/>
	<path d="M56,87.1c0,0.5-0.3,0.8-0.7,1c-0.1,0-0.1,0-0.2,0c-0.1,0-0.1-0.1-0.1-0.1c0.2-0.4,0.3-0.8,0.3-1.2c0-0.1,0.2-0.2,0.3-0.2
		c0.1,0,0.3,0,0.3,0.1C55.9,86.8,55.9,86.9,56,87.1z"/>
	<path d="M28.3,229.7c0,0-0.1-0.1-0.1-0.1c0,0,0-0.1,0-0.1c0.2-0.2,0.3-0.3,0.5-0.5c0.1,0,0.2,0,0.3,0c0.2,0,0.1,0.1,0,0.3
		C28.8,229.5,28.6,229.7,28.3,229.7z"/>
	<path d="M458,93.6c0-0.1,0-0.3,0-0.4c0-0.1,0.2-0.2,0.2-0.2c0.1,0,0.1,0.1,0.1,0.1c0,0.3,0,0.6,0,0.9c0,0.1-0.1,0.2-0.2,0.3
		c-0.1-0.1-0.2-0.2-0.2-0.3C458,94,458,93.8,458,93.6C458,93.6,458,93.6,458,93.6z"/>
	<path d="M452.6,107.5c0,0,0,0.1,0,0.1c-0.1,0.1-0.3,0.1-0.5,0c-0.1-0.1-0.2-0.2-0.1-0.3c0-0.1,0.1-0.2,0.1-0.3c0,0,0.1,0.1,0.1,0.1
		c0.1,0.1,0.2,0.2,0.3,0.2C452.6,107.4,452.6,107.4,452.6,107.5z"/>
	<path d="M451.9,89.8c-0.1,0.1-0.2,0.1-0.3,0.2c-0.1,0.1-0.2,0-0.3-0.1c0,0,0-0.1,0-0.1c0.1-0.1,0.2-0.2,0.3-0.1
		C451.7,89.6,451.8,89.7,451.9,89.8z"/>
	<path d="M14.7,115c0,0,0,0.1,0,0.1c-0.1,0.1-0.2,0.1-0.5,0.1c0,0-0.1-0.1-0.1-0.1c0.1-0.1,0.2-0.1,0.3-0.2
		C14.5,114.8,14.6,114.9,14.7,115z"/>
	<path d="M16.2,115c0,0,0,0.1,0,0.1c-0.1,0.1-0.2,0.1-0.5,0.1c0,0-0.1-0.1-0.1-0.1c0.1-0.1,0.2-0.1,0.3-0.2
		C16,114.8,16.1,114.9,16.2,115z"/>
	<path d="M57,115.8c-0.1,0.1-0.2,0.1-0.3,0.2c-0.1,0.1-0.2,0-0.3-0.1c0,0,0-0.1,0-0.1c0.1-0.1,0.2-0.2,0.3-0.1
		C56.9,115.7,57,115.8,57,115.8z"/>
	<path d="M273.4,155.3c0.1,0.1,0.2,0.1,0.3,0.2c0.4,0.3,0.3,0.6,0.3,1c0,0.1-0.4,0.3-0.5,0.2c-0.2-0.1-0.4-0.3-0.6-0.5
		c0,0,0-0.1,0-0.1C273.2,155.9,273.2,155.6,273.4,155.3z"/>
	<path d="M257.7,152.6c0,0.2-0.1,0.3-0.3,0.4c-0.2,0-0.4-0.1-0.4-0.2c-0.1-0.3,0.1-0.5,0.4-0.5C257.6,152.3,257.7,152.4,257.7,152.6
		z"/>
	<path d="M267.2,152.6c0,0.2-0.1,0.3-0.3,0.4c-0.2,0-0.4-0.1-0.4-0.2c-0.1-0.3,0.1-0.5,0.4-0.5C267.1,152.3,267.1,152.4,267.2,152.6
		z"/>
	<path d="M271.7,153c-0.3,0-0.4-0.3-0.3-0.5c0-0.1,0.3-0.2,0.5-0.2c0.2,0,0.3,0.2,0.2,0.4C272,152.9,271.9,153,271.7,153z"/>
	<path d="M276.3,152.3c0.2,0,0.4,0,0.5,0.1c0,0,0.1,0.1,0,0.1c-0.1,0.3-0.4,0.5-0.5,0.4c-0.1-0.1-0.2-0.2-0.3-0.2
		c-0.1-0.1-0.1-0.2-0.1-0.3C276,152.3,276.2,152.2,276.3,152.3z"/>
	<path d="M279.2,153.4c0,0.3-0.1,0.3-0.3,0.3c-0.3,0.1-0.4-0.2-0.4-0.5c0-0.2,0.2-0.3,0.4-0.2C279.2,153.1,279.3,153.2,279.2,153.4z
		"/>
	<path d="M230.9,153.7c0,0.2-0.1,0.3-0.3,0.4c-0.2,0-0.4-0.1-0.4-0.2c-0.1-0.3,0.1-0.5,0.4-0.5C230.8,153.4,230.9,153.5,230.9,153.7
		z"/>
	<path d="M235.4,154.1c-0.3,0-0.3-0.1-0.3-0.3c0-0.3,0.2-0.4,0.5-0.4c0.2,0,0.3,0.2,0.2,0.4C235.8,154,235.6,154.2,235.4,154.1z"/>
	<path d="M238.2,153c-0.2,0-0.4-0.1-0.4-0.2c0-0.2,0.1-0.4,0.2-0.5c0.2-0.1,0.5,0.1,0.5,0.3C238.5,152.8,238.3,153,238.2,153z"/>
	<path d="M268.5,155.3c0.2,0.2,0.4,0.4,0.5,0.6c-0.4,0.3-0.7,0.3-1.1,0C268.1,155.7,268.3,155.5,268.5,155.3z"/>
	<path d="M238.8,156c-0.3,0-0.3-0.1-0.3-0.3c0-0.3,0.2-0.4,0.5-0.4c0.2,0,0.3,0.2,0.2,0.4C239.2,155.9,239,156,238.8,156z"/>
	<path d="M260.9,154.9c-0.3,0-0.5-0.1-0.4-0.2c0.1-0.1,0.1-0.2,0.2-0.3c0.1-0.1,0.2-0.2,0.3-0.2c0.1,0,0.5,0.4,0.4,0.5
		c0,0.1-0.1,0.1-0.1,0.1C261.1,154.9,261,154.9,260.9,154.9z"/>
	<path d="M252.8,152.7c0,0.3-0.1,0.3-0.3,0.3c-0.3,0-0.4-0.2-0.4-0.5c0-0.2,0.2-0.3,0.4-0.2C252.7,152.3,252.8,152.5,252.8,152.7z"
		/>
	<path d="M260,153.8c0,0.1,0,0.2-0.1,0.3c0,0-0.1,0-0.1,0c-0.1-0.1-0.2-0.1-0.3-0.2c-0.1-0.1-0.1-0.2-0.1-0.3c0-0.1,0.2-0.1,0.3-0.1
		C259.9,153.5,260,153.5,260,153.8z"/>
	<path d="M254.6,153.4c0.1,0,0.1,0,0.2,0c0.2,0,0.3,0.1,0.3,0.4c0,0.1-0.1,0.2-0.1,0.3c-0.1-0.1-0.2-0.1-0.3-0.2
		c-0.1-0.1-0.2-0.2-0.2-0.3c0,0,0-0.1,0-0.1C254.5,153.5,254.6,153.4,254.6,153.4z"/>
	<path d="M266.4,154.8c0,0-0.1,0.1-0.1,0.1c-0.4,0.1-0.6-0.1-0.5-0.4c0,0,0-0.1,0.1-0.1c0,0,0.1,0,0.1,0
		C266.1,154.4,266.3,154.6,266.4,154.8z"/>
	<path d="M271.2,154.8c0,0-0.1,0.1-0.1,0.1c-0.2,0-0.4,0-0.4-0.2c0-0.1,0-0.2,0-0.3c0-0.2,0.2-0.2,0.4,0
		C271.1,154.5,271.3,154.6,271.2,154.8z"/>
	<path d="M275.7,154.2c0.2,0.2,0.3,0.3,0.5,0.5c0,0,0,0.1,0,0.1c0,0-0.1,0.1-0.1,0.1c-0.4,0-0.5-0.2-0.4-0.5
		C275.6,154.3,275.6,154.3,275.7,154.2z"/>
	<path d="M263.3,156c-0.1,0-0.2-0.1-0.2-0.2c0.1-0.1,0.2-0.3,0.4-0.4c0,0,0.1-0.1,0.1-0.1c0,0.1,0.1,0.2,0.1,0.3
		C263.8,155.9,263.6,156,263.3,156z"/>
	<path d="M274.7,153.6c0,0-0.1,0.1-0.1,0.1c-0.4,0.1-0.6-0.1-0.5-0.4c0,0,0-0.1,0.1-0.1c0,0,0.1,0,0.1,0
		C274.4,153.3,274.6,153.5,274.7,153.6z"/>
	<path d="M220.9,154.1c0-0.1-0.1-0.1-0.1-0.2c-0.1-0.3,0-0.5,0.3-0.5c0.1,0,0.2,0,0.3,0.1c0.1,0.1,0,0.2-0.1,0.3
		C221.1,153.9,221,154,220.9,154.1z"/>
	<path d="M228.4,152.9c0,0-0.1-0.1-0.1-0.1c0-0.1,0-0.1,0-0.2c0.1-0.2,0.1-0.3,0.4-0.3c0.1,0,0.3,0,0.3,0.1c0,0.1-0.1,0.2-0.2,0.3
		C228.7,152.8,228.6,153,228.4,152.9z"/>
	<path d="M233.1,153c-0.1,0-0.2-0.1-0.2-0.2c0.1-0.1,0.2-0.3,0.4-0.4c0,0,0.1-0.1,0.1-0.1c0,0.1,0.1,0.2,0.1,0.3
		C233.6,152.9,233.4,153,233.1,153z"/>
	<path d="M240,153.8c0-0.2,0.1-0.3,0.3-0.4c0.1,0,0.2,0,0.3,0.1c0.1,0.1,0,0.2-0.3,0.5c0,0-0.1,0.1-0.1,0.1
		C240.1,154,240,153.9,240,153.8z"/>
	<path d="M223.7,156c-0.1,0-0.2-0.1-0.3-0.2c0,0,0-0.1,0.1-0.1c0.1-0.1,0.2-0.2,0.2-0.3c0.1-0.1,0.2-0.1,0.3-0.1
		c0.1,0.1,0.1,0.2,0.1,0.3C224,155.9,223.9,156,223.7,156z"/>
	<path d="M245.1,154.1c0-0.1-0.1-0.1-0.1-0.2c-0.1-0.3,0-0.5,0.3-0.5c0.1,0,0.2,0,0.3,0.1c0.1,0.1,0,0.2-0.1,0.3
		C245.3,153.9,245.2,154,245.1,154.1z"/>
	<path d="M264.8,153.5c0,0,0,0.1,0,0.1c-0.1,0.1-0.2,0.2-0.5,0.1c0,0-0.1-0.1-0.1-0.1c0.1-0.1,0.2-0.1,0.3-0.2
		C264.6,153.3,264.7,153.4,264.8,153.5z"/>
	<path d="M250,154c0,0-0.1,0-0.1,0c-0.1-0.1-0.1-0.2,0-0.5c0,0,0.1-0.1,0.1-0.1c0.1,0.1,0.1,0.2,0.2,0.3
		C250.2,153.9,250.2,154,250,154z"/>
	<path d="M242.8,152.4c0.1,0,0.2,0,0.2,0.1c0,0.1,0,0.2-0.1,0.3c0,0-0.1,0.1-0.1,0.1c-0.1,0-0.2-0.3-0.2-0.5
		C242.7,152.5,242.7,152.4,242.8,152.4z"/>
	<path d="M247.9,152.7c-0.1,0.1-0.1,0.2-0.2,0.3c-0.1-0.1-0.1-0.2-0.2-0.3c-0.1-0.1,0-0.2,0.1-0.3c0,0,0.1,0,0.1,0
		C247.9,152.4,247.9,152.5,247.9,152.7z"/>
	<path d="M262.2,152.5c0,0.2-0.1,0.5-0.2,0.4c-0.1-0.1-0.1-0.2-0.2-0.3c-0.1-0.1,0-0.2,0.1-0.3C262.1,152.3,262.2,152.4,262.2,152.5
		z"/>
	<path d="M243.6,156c0,0-0.1-0.1-0.1-0.1c0-0.1,0-0.2,0.1-0.2c0.2,0,0.5,0.1,0.4,0.2c0,0-0.1,0.1-0.1,0.1
		C243.8,156,243.7,156,243.6,156z"/>
	<path d="M248.9,155.8c0,0.1,0,0.2-0.1,0.2c-0.1,0-0.2,0-0.3-0.1c0,0-0.1-0.1-0.1-0.1c0-0.1,0.3-0.2,0.5-0.2
		C248.9,155.7,248.9,155.7,248.9,155.8z"/>
	<path d="M253.8,155.8c0,0.1,0,0.2-0.1,0.2c-0.1,0-0.2,0-0.3-0.1c0,0-0.1-0.1-0.1-0.1c0-0.1,0.3-0.2,0.5-0.2
		C253.8,155.7,253.8,155.7,253.8,155.8z"/>
	<path d="M269.7,153.5c0,0.1,0,0.2-0.1,0.2c-0.1,0-0.2,0-0.3-0.1c0,0-0.1-0.1-0.1-0.1c0-0.1,0.3-0.2,0.5-0.2
		C269.6,153.4,269.7,153.5,269.7,153.5z"/>
	<path d="M222.1,154.7c0,0.1,0,0.2-0.1,0.2c-0.1,0-0.2,0-0.3-0.1c0,0-0.1-0.1-0.1-0.1c0-0.1,0.3-0.2,0.5-0.2
		C222,154.6,222.1,154.6,222.1,154.7z"/>
	<path d="M251.6,154.7c0,0.1,0,0.2-0.1,0.2c-0.1,0-0.2,0-0.3-0.1c0,0-0.1-0.1-0.1-0.1c0-0.1,0.3-0.2,0.5-0.2
		C251.5,154.6,251.5,154.6,251.6,154.7z"/>
	<path d="M246.7,154.7c0,0.1,0,0.2-0.1,0.2c-0.1,0-0.2,0-0.3-0.1c0,0-0.1-0.1-0.1-0.1c0-0.1,0.3-0.2,0.5-0.2
		C246.6,154.6,246.6,154.6,246.7,154.7z"/>
	<path d="M226.6,154.9c0,0-0.1-0.1-0.1-0.1c0-0.1,0-0.2,0.1-0.2c0.2,0,0.5,0.1,0.4,0.2c0,0-0.1,0.1-0.1,0.1
		C226.8,154.9,226.7,154.9,226.6,154.9z"/>
	<path d="M231.5,154.9c0,0-0.1-0.1-0.1-0.1c0-0.1,0-0.2,0.1-0.2c0.2,0,0.5,0.1,0.4,0.2c0,0-0.1,0.1-0.1,0.1
		C231.8,154.9,231.6,154.9,231.5,154.9z"/>
	<path d="M236.8,154.7c0,0.1,0,0.2-0.1,0.2c-0.1,0-0.2,0-0.3-0.1c0,0-0.1-0.1-0.1-0.1c0-0.1,0.3-0.2,0.5-0.2
		C236.8,154.6,236.8,154.6,236.8,154.7z"/>
	<path d="M241.2,154.7c0.1-0.1,0.2-0.1,0.3-0.2c0.1-0.1,0.2,0,0.3,0.1c0,0,0,0.1,0,0.1c-0.1,0.1-0.2,0.2-0.3,0.1
		C241.3,154.8,241.3,154.8,241.2,154.7z"/>
	<path d="M225.8,153.5c0.1,0,0.2,0,0.2,0.1c0,0-0.1,0.1-0.1,0.1c0,0-0.1-0.1-0.1-0.1C225.7,153.6,225.7,153.5,225.8,153.5z"/>
	<path d="M256.1,154.7c0,0.1,0,0.2-0.1,0.2c0,0-0.1-0.1-0.1-0.1c0,0,0.1-0.1,0.1-0.1C256,154.6,256.1,154.6,256.1,154.7z"/>
	<path d="M228.9,155.8c0,0,0,0.1-0.1,0.1c-0.1,0-0.2,0-0.2-0.1c0,0,0.1-0.1,0.1-0.1C228.9,155.7,228.9,155.8,228.9,155.8z"/>
</g>
</svg>
